<?xml version="1.0" encoding="UTF-8" standalone="no"?>
<!-- Created with Inkscape (http://www.inkscape.org/) -->

<svg
   xmlns:dc="http://purl.org/dc/elements/1.1/"
   xmlns:cc="http://creativecommons.org/ns#"
   xmlns:rdf="http://www.w3.org/1999/02/22-rdf-syntax-ns#"
   xmlns:svg="http://www.w3.org/2000/svg"
   xmlns="http://www.w3.org/2000/svg"
   version="1.1"
   width="121.25251"
   height="160.44528"
   id="svg3322">
  <metadata
     id="metadata47">
    <rdf:RDF>
      <cc:Work
         rdf:about="">
        <dc:format>image/svg+xml</dc:format>
        <dc:type
           rdf:resource="http://purl.org/dc/dcmitype/StillImage" />
        <dc:title></dc:title>
      </cc:Work>
    </rdf:RDF>
  </metadata>
  <defs
     id="defs3324">
    <clipPath
       id="clipPath3194">
      <path
         d="M 0,792 612,792 612,0 0,0 0,792 z"
         id="path3196" />
    </clipPath>
  </defs>
  <g
     transform="translate(-219.37375,-234.99669)"
     id="layer1">
    <g
       transform="matrix(1.25,0,0,-1.25,140.50706,997.20182)"
       id="g3190">
      <g
         clip-path="url(#clipPath3194)"
         id="g3192">
        <g
           id="g3817"
           style="fill:#0f4d92;fill-opacity:1">
          <g
             transform="translate(88.5767,565.2505)"
             id="g3198"
             style="fill:#0f4d92;fill-opacity:1">
            <path
               d="m 0,0 c -3.278,0 -2.101,-6.139 -3.278,-11.765 -0.628,-2.996 6.541,0.326 9.232,4.73 C 6.501,-6.137 0,0 0,0"
               id="path3200"
               style="fill:#0f4d92;fill-opacity:1;fill-rule:nonzero;stroke:none" />
          </g>
          <g
             transform="translate(85.2983,544.126)"
             id="g3202"
             style="fill:#0f4d92;fill-opacity:1">
            <path
               d="m 0,0 c 0,-8.152 -2.216,-13 -7.468,-21.161 -5.252,-8.16 -10.313,-12.488 -13.064,-16.304 -2.751,-3.816 -2.062,-4.856 1.719,-5.203 3.781,-0.348 6.018,-2.557 9.535,1.501 3.517,4.059 13.62,16.75 16.793,24.689 3.173,7.939 4.271,11.968 5.301,17.171 C 13.846,5.897 -2.311,0 -2.311,0"
               id="path3204"
               style="fill:#0f4d92;fill-opacity:1;fill-rule:nonzero;stroke:none" />
          </g>
          <g
             transform="translate(149.2495,571.2627)"
             id="g3206"
             style="fill:#0f4d92;fill-opacity:1">
            <path
               d="m 0,0 c 3.235,2.521 6.237,-8.13 6.237,-10.345 0,-2.214 -11.898,-5.426 -18.411,-7.261 -6.513,-1.835 -29.464,-8.027 -38.961,-8.837 -7.695,-0.657 -13.302,-2.414 -16.885,-3.287 0,0 -3.094,-1.302 -7.219,-4.337 -6.414,-4.719 -14.783,-4.509 -8.939,2.082 5.844,6.59 0.344,4.163 8.939,8.499 8.594,4.336 18.221,7.886 20.282,10.101 0,0 8.328,5.723 17.083,4.109 C -34.81,-9.841 -5.378,-4.191 0,0"
               id="path3208"
               style="fill:#0f4d92;fill-opacity:1;fill-rule:nonzero;stroke:none" />
          </g>
        </g>
        <g
           transform="translate(155.3896,577.0244)"
           id="g3226">
          <path
             d="m 0,0 c 7.699,6.348 -9.283,-1.388 -15.205,18.443 0,0 -3.223,12.488 -19.946,14.165 -11.886,1.193 -22.605,-6.07 -24.668,-7.631 -12.72877,-11.035309 -14.615789,-34.9577979 -0.009,-44.983 0,0 2.072,2.834 18.573,4.396 16.502,1.561 25.615,5.488 30.254,7.284 C -4.401,-5.77 -7.774,-6.409 0,0"
             id="path3228"
             style="fill:#000000;fill-opacity:1;fill-rule:nonzero;stroke:none" />
        </g>
        <g
           transform="translate(121.062,582.6494)"
           id="g3230">
          <path
             d="m 0,0 c 0,-4.478 -3.598,-8.109 -8.036,-8.109 -4.438,0 -8.037,3.631 -8.037,8.109 0,4.479 3.599,8.109 8.037,8.109 C -3.598,8.109 0,4.479 0,0"
             id="path3232"
             style="fill:#ffffff;fill-opacity:1;fill-rule:nonzero;stroke:none" />
        </g>
        <g
           transform="translate(113.6572,583.9551)"
           id="g3234">
          <path
             d="m 0,0 c 0,-1.362 -1.158,-2.466 -2.586,-2.466 -1.43,0 -2.587,1.104 -2.587,2.466 0,1.361 1.157,2.464 2.587,2.464 C -1.158,2.464 0,1.361 0,0"
             id="path3236"
             style="fill:#000000;fill-opacity:1;fill-rule:nonzero;stroke:none" />
        </g>
        <g
           transform="translate(152.606,558.7939)"
           id="g3238">
          <path
             d="M 0,0 C 1.201,0.638 10.213,-24.85 5.765,-43.141 2.583,-56.227 0.752,-61.683 -6.672,-68.433 c -2.157,-1.961 -2.44,-6.942 -2.44,-6.942 -17.761,-2.487 -23.952,-1.388 -35.01,-0.347 -11.058,1.041 -10.536,6.033 -13.808,7.285 -4.131,1.581 -6.536,-3.87 -17.189,-0.694 -15.127,4.509 -5.72,8.804 -3.782,10.809 22.523,23.284 24.409,44.347 24.409,44.347 C -38.949,-12.14 -6.569,-3.49 0,0"
             id="path3240"
             style="fill:#000000;fill-opacity:1;fill-rule:nonzero;stroke:none" />
        </g>
        <g
           transform="translate(152.606,558.7939)"
           id="g3242">
          <path
             d="M 0,0 C 1.201,0.638 10.213,-24.85 5.765,-43.141 2.583,-56.227 0.752,-61.683 -6.672,-68.433 c -2.157,-1.961 -2.44,-6.942 -2.44,-6.942 -17.761,-2.487 -23.952,-1.388 -35.01,-0.347 -11.058,1.041 -10.536,6.033 -13.808,7.285 -4.131,1.581 -6.536,-3.87 -17.189,-0.694 -15.127,4.509 -5.72,8.804 -3.782,10.809 22.523,23.284 24.409,44.347 24.409,44.347 C -38.949,-12.14 -6.569,-3.49 0,0 z"
             id="path3244"
             style="fill:none;stroke:#020202;stroke-width:1;stroke-linecap:butt;stroke-linejoin:miter;stroke-miterlimit:4;stroke-opacity:1;stroke-dasharray:none" />
        </g>
        <g
           transform="translate(118.3672,548.6357)"
           id="g3266">
          <path
             d="m 0,0 c -23.981099,-37.053317 5.6991327,-50.382188 37.762,-41.356 0,0 4.588,13.131 3.408,25.051 C 38.989,5.724 33.378,10.06 33.378,10.06 27.317,7.34 0,0 0,0"
             id="path3268"
             style="fill:#ffffff;fill-opacity:1;fill-rule:nonzero;stroke:none" />
        </g>
        <g
           id="g3825"
           style="fill:#ffd700;fill-opacity:1">
          <g
             transform="translate(129.9634,554.499)"
             id="g3210"
             style="fill:#ffd700;fill-opacity:1">
            <path
               d="m 0,0 -11.596,-1.7 0,9.237 9.092,1.597 L 0,0 z"
               id="path3212"
               style="fill:#ffd700;fill-opacity:1;fill-rule:nonzero;stroke:none" />
          </g>
          <g
             transform="translate(146.9312,558.7412)"
             id="g3214"
             style="fill:#ffd700;fill-opacity:1">
            <path
               d="M 0,0 -8.938,-2.766 -11.844,6.749 -4.496,9.241 0,0 z"
               id="path3216"
               style="fill:#ffd700;fill-opacity:1;fill-rule:nonzero;stroke:none" />
          </g>
          <g
             transform="translate(101.2075,548.6357)"
             id="g3218"
             style="fill:#ffd700;fill-opacity:1">
            <path
               d="M 0,0 9.863,1.734 8.083,11.448 -0.319,10.06 0,0 z"
               id="path3220"
               style="fill:#ffd700;fill-opacity:1;fill-rule:nonzero;stroke:none" />
          </g>
          <g
             transform="translate(153.8071,561.979)"
             id="g3222"
             style="fill:#ffd700;fill-opacity:1">
            <path
               d="M 0,0 -3.438,-1.896 -6.876,7.984 -4.863,9.276 0,0 z"
               id="path3224"
               style="fill:#ffd700;fill-opacity:1;fill-rule:nonzero;stroke:none" />
          </g>
          <g
             transform="translate(83.6748,551.3765)"
             id="g3246"
             style="fill:#ffd700;fill-opacity:1">
            <path
               d="M 0,0 7.219,3.185 8.595,-4.412 -0.688,-7.25 0,0 z"
               id="path3248"
               style="fill:#ffd700;fill-opacity:1;fill-rule:nonzero;stroke:none" />
          </g>
          <g
             transform="translate(94.1646,536.2236)"
             id="g3250"
             style="fill:#ffd700;fill-opacity:1">
            <path
               d="M 0,0 -8.104,0 -7.563,4.434 2.063,7.902 0,0 z"
               id="path3252"
               style="fill:#ffd700;fill-opacity:1;fill-rule:nonzero;stroke:none" />
          </g>
          <g
             transform="translate(88.439,523.2188)"
             id="g3254"
             style="fill:#ffd700;fill-opacity:1">
            <path
               d="m 0,0 -9.798,-0.254 5.157,8.463 8.157,0 L 0,0 z"
               id="path3256"
               style="fill:#ffd700;fill-opacity:1;fill-rule:nonzero;stroke:none" />
          </g>
          <g
             transform="translate(82.9873,516.374)"
             id="g3258"
             style="fill:#ffd700;fill-opacity:1">
            <path
               d="M 0,0 -7.959,1.041 -13.947,-6.591 -5.929,-8.509 0,0 z"
               id="path3260"
               style="fill:#ffd700;fill-opacity:1;fill-rule:nonzero;stroke:none" />
          </g>
          <g
             transform="translate(78.9614,542.9121)"
             id="g3262"
             style="fill:#ffd700;fill-opacity:1">
            <path
               d="M 0,0 -9.921,-6.688 -7.197,2.862 0,5.724 0,0 z"
               id="path3264"
               style="fill:#ffd700;fill-opacity:1;fill-rule:nonzero;stroke:none" />
          </g>
        </g>
      </g>
    </g>
  </g>
</svg>
