<svg xmlns="http://www.w3.org/2000/svg" width="121.253" height="160.445"><defs><clipPath id="a"><path d="M0 792h612V0H0v792z"/></clipPath></defs><g clip-path="url(#a)" transform="matrix(1.25 0 0 -1.25 -78.867 762.205)"><g fill="#0f4d92"><path d="M88.577 565.25c-3.278 0-2.101-6.139-3.278-11.765-.628-2.996 6.54.326 9.232 4.73.547.898-5.954 7.035-5.954 7.035M85.298 544.126c0-8.152-2.216-13-7.468-21.161-5.252-8.16-10.313-12.488-13.064-16.304-2.75-3.816-2.062-4.856 1.72-5.203 3.78-.348 6.017-2.557 9.534 1.501 3.517 4.059 13.62 16.75 16.793 24.689s4.271 11.968 5.301 17.171c1.03 5.204-15.127-.693-15.127-.693"/><path d="M149.25 571.263c3.235 2.52 6.237-8.13 6.237-10.345 0-2.214-11.898-5.426-18.411-7.261-6.513-1.835-29.464-8.027-38.961-8.837-7.695-.657-13.302-2.414-16.885-3.287 0 0-3.095-1.302-7.22-4.337-6.413-4.72-14.782-4.51-8.938 2.082 5.844 6.59.344 4.163 8.939 8.499 8.594 4.336 18.22 7.886 20.282 10.1 0 0 8.327 5.724 17.082 4.11 3.065-.565 32.497 5.085 37.875 9.276"/></g><path d="M155.39 577.024c7.699 6.348-9.283-1.388-15.205 18.443 0 0-3.223 12.488-19.946 14.165-11.886 1.193-22.605-6.07-24.668-7.63-12.73-11.036-14.616-34.958-.01-44.984 0 0 2.073 2.834 18.574 4.396 16.502 1.561 25.615 5.488 30.254 7.284 6.6 2.556 3.227 1.917 11 8.326"/><path d="M121.062 582.65c0-4.479-3.598-8.11-8.036-8.11s-8.037 3.631-8.037 8.11c0 4.478 3.599 8.108 8.037 8.108 4.438 0 8.036-3.63 8.036-8.109" fill="#fff"/><path d="M113.657 583.955c0-1.362-1.158-2.466-2.586-2.466-1.43 0-2.587 1.104-2.587 2.466 0 1.361 1.157 2.464 2.587 2.464 1.428 0 2.586-1.103 2.586-2.464M152.606 558.794c1.201.638 10.213-24.85 5.765-43.141-3.182-13.086-5.013-18.542-12.437-25.292-2.157-1.961-2.44-6.942-2.44-6.942-17.761-2.487-23.952-1.388-35.01-.347-11.058 1.04-10.536 6.033-13.808 7.285-4.131 1.58-6.536-3.87-17.189-.694-15.127 4.509-5.72 8.804-3.782 10.809 22.523 23.284 24.409 44.347 24.409 44.347 15.543 1.835 47.923 10.485 54.492 13.975"/><path d="M152.606 558.794c1.201.638 10.213-24.85 5.765-43.141-3.182-13.086-5.013-18.542-12.437-25.292-2.157-1.961-2.44-6.942-2.44-6.942-17.761-2.487-23.952-1.388-35.01-.347-11.058 1.04-10.536 6.033-13.808 7.285-4.131 1.58-6.536-3.87-17.189-.694-15.127 4.509-5.72 8.804-3.782 10.809 22.523 23.284 24.409 44.347 24.409 44.347 15.543 1.835 47.923 10.485 54.492 13.975z" fill="none" stroke="#020202"/><path d="M118.367 548.636c-23.98-37.054 5.7-50.382 37.762-41.356 0 0 4.588 13.13 3.408 25.05-2.18 22.03-7.792 26.366-7.792 26.366-6.06-2.72-33.378-10.06-33.378-10.06" fill="#fff"/><g fill="gold"><path d="M129.963 554.499l-11.596-1.7v9.237l9.092 1.597 2.504-9.134zM146.931 558.741l-8.938-2.766-2.906 9.515 7.348 2.492 4.496-9.24zM101.207 548.636l9.864 1.734-1.78 9.714-8.403-1.388.32-10.06zM153.807 561.979l-3.438-1.896-3.438 9.88 2.013 1.292 4.863-9.276zM83.675 551.376l7.219 3.185 1.376-7.597-9.283-2.838.688 7.25zM94.165 536.224H86.06l.54 4.434 9.627 3.468-2.063-7.902zM88.439 523.219l-9.798-.254 5.157 8.463h8.157l-3.516-8.21zM82.987 516.374l-7.959 1.041-5.988-7.632 8.018-1.918 5.93 8.509zM78.961 542.912l-9.92-6.688 2.723 9.55 7.197 2.862v-5.724z"/></g></g></svg>
