<svg xmlns="http://www.w3.org/2000/svg" width="125" height="50" viewBox="0 0 33.073 13.229"><defs><clipPath id="a"><path d="M0 792h612V0H0z"/></clipPath></defs><g transform="matrix(.18448 0 0 .18448 -36.894 -64.97)"><rect width="179.272" height="71.709" x="199.983" y="352.166" ry="7.02" fill="#fff" stroke-width=".492"/><g clip-path="url(#a)" transform="matrix(.43912 0 0 -.43912 186.3 627.596)"><g fill="#0f4d92"><path d="M88.577 565.25c-3.278 0-2.101-6.139-3.278-11.765-.628-2.996 6.54.326 9.232 4.73.547.898-5.954 7.035-5.954 7.035M85.298 544.126c0-8.152-2.216-13-7.468-21.161-5.252-8.16-10.313-12.488-13.064-16.304-2.75-3.816-2.062-4.856 1.72-5.203 3.78-.348 6.017-2.557 9.534 1.501 3.517 4.059 13.62 16.75 16.793 24.689s4.271 11.968 5.301 17.171c1.03 5.204-15.127-.693-15.127-.693"/><path d="M149.25 571.263c3.235 2.52 6.237-8.13 6.237-10.345 0-2.214-11.898-5.426-18.411-7.261-6.513-1.835-29.464-8.027-38.961-8.837-7.695-.657-13.302-2.414-16.885-3.287 0 0-3.095-1.302-7.22-4.337-6.413-4.72-14.782-4.51-8.938 2.082 5.844 6.59.344 4.163 8.939 8.499 8.594 4.336 18.22 7.886 20.282 10.1 0 0 8.327 5.724 17.082 4.11 3.065-.565 32.497 5.085 37.875 9.276"/></g><path d="M155.39 577.024c7.699 6.348-9.283-1.388-15.205 18.443 0 0-3.223 12.488-19.946 14.165-11.886 1.193-22.605-6.07-24.668-7.63-12.73-11.036-14.616-34.958-.01-44.984 0 0 2.073 2.834 18.574 4.396 16.502 1.561 25.615 5.488 30.254 7.284 6.6 2.556 3.227 1.917 11 8.326"/><path d="M121.062 582.65c0-4.479-3.598-8.11-8.036-8.11s-8.037 3.631-8.037 8.11c0 4.478 3.599 8.108 8.037 8.108 4.438 0 8.036-3.63 8.036-8.109" fill="#fff"/><path d="M113.657 583.955c0-1.362-1.158-2.466-2.586-2.466-1.43 0-2.587 1.104-2.587 2.466 0 1.361 1.157 2.464 2.587 2.464 1.428 0 2.586-1.103 2.586-2.464M152.606 558.794c1.201.638 10.213-24.85 5.765-43.141-3.182-13.086-5.013-18.542-12.437-25.292-2.157-1.961-2.44-6.942-2.44-6.942-17.761-2.487-23.952-1.388-35.01-.347-11.058 1.04-10.536 6.033-13.808 7.285-4.131 1.58-6.536-3.87-17.189-.694-15.127 4.509-5.72 8.804-3.782 10.809 22.523 23.284 24.409 44.347 24.409 44.347 15.543 1.835 47.923 10.485 54.492 13.975"/><path d="M152.606 558.794c1.201.638 10.213-24.85 5.765-43.141-3.182-13.086-5.013-18.542-12.437-25.292-2.157-1.961-2.44-6.942-2.44-6.942-17.761-2.487-23.952-1.388-35.01-.347-11.058 1.04-10.536 6.033-13.808 7.285-4.131 1.58-6.536-3.87-17.189-.694-15.127 4.509-5.72 8.804-3.782 10.809 22.523 23.284 24.409 44.347 24.409 44.347 15.543 1.835 47.923 10.485 54.492 13.975z" fill="none" stroke="#020202"/><path d="M118.367 548.636c-23.98-37.054 5.7-50.382 37.762-41.356 0 0 4.588 13.13 3.408 25.05-2.18 22.03-7.792 26.366-7.792 26.366-6.06-2.72-33.378-10.06-33.378-10.06" fill="#fff"/><g fill="gold"><path d="M129.963 554.499l-11.596-1.7v9.237l9.092 1.597zM146.931 558.741l-8.938-2.766-2.906 9.515 7.348 2.492zM101.207 548.636l9.864 1.734-1.78 9.714-8.403-1.388zM153.807 561.979l-3.438-1.896-3.438 9.88 2.013 1.292zM83.675 551.376l7.219 3.185 1.376-7.597-9.283-2.838zM94.165 536.224H86.06l.54 4.434 9.627 3.468zM88.439 523.219l-9.798-.254 5.157 8.463h8.157zM82.987 516.374l-7.959 1.041-5.988-7.632 8.018-1.918zM78.961 542.912l-9.92-6.688 2.723 9.55 7.197 2.862z"/></g></g><g aria-label="Hosted by the OCF" style="line-height:.75" font-weight="700" font-size="21.143" font-family="Roboto" letter-spacing="0" word-spacing="0" stroke-width=".529"><path d="M281.948 381.43h-3.097v-6.443h-6.04v6.442h-3.097v-15.031h3.097v6.09h6.04v-6.09h3.097zM284.002 375.74q0-1.661.64-2.962.64-1.3 1.838-2.013 1.208-.712 2.798-.712 2.26 0 3.685 1.383 1.435 1.383 1.6 3.758l.021.764q0 2.57-1.435 4.13-1.435 1.548-3.85 1.548-2.416 0-3.862-1.549-1.435-1.548-1.435-4.212zm2.984.218q0 1.59.599 2.436.598.836 1.713.836 1.084 0 1.693-.826.61-.836.61-2.663 0-1.559-.61-2.416-.609-.857-1.713-.857-1.095 0-1.693.857-.6.847-.6 2.633zM302.492 378.342q0-.547-.547-.856-.537-.32-1.735-.568-3.985-.837-3.985-3.386 0-1.487 1.229-2.478 1.239-1.001 3.231-1.001 2.127 0 3.397 1 1.28 1.002 1.28 2.602h-2.984q0-.64-.413-1.053-.413-.423-1.29-.423-.754 0-1.167.34-.413.342-.413.868 0 .496.465.805.475.3 1.59.527 1.115.217 1.879.495 2.364.868 2.364 3.004 0 1.528-1.311 2.478-1.311.94-3.386.94-1.404 0-2.499-.496-1.084-.506-1.703-1.373-.62-.877-.62-1.89h2.83q.04.796.588 1.219.547.423 1.466.423.856 0 1.29-.32.444-.33.444-.857zM310.875 367.513v2.746h1.91v2.189h-1.91v5.574q0 .62.237.888.238.269.909.269.495 0 .877-.073v2.261q-.877.269-1.807.269-3.138 0-3.2-3.17v-6.018h-1.631v-2.189h1.631v-2.746zM319.588 381.636q-2.457 0-4.006-1.508-1.538-1.507-1.538-4.016v-.289q0-1.682.65-3.004.65-1.332 1.838-2.044 1.198-.722 2.725-.722 2.292 0 3.603 1.445 1.322 1.445 1.322 4.098v1.218h-7.113q.144 1.095.867 1.755.733.661 1.848.661 1.724 0 2.694-1.249l1.466 1.641q-.67.95-1.817 1.487-1.146.527-2.54.527zm-.34-9.168q-.889 0-1.446.599-.547.599-.702 1.714h4.15v-.238q-.02-.99-.537-1.528-.516-.547-1.466-.547zM325.42 375.761q0-2.611 1.167-4.16 1.177-1.548 3.21-1.548 1.632 0 2.695 1.218v-5.699h2.994v15.857h-2.694l-.145-1.187q-1.115 1.394-2.87 1.394-1.972 0-3.17-1.549-1.186-1.559-1.186-4.326zm2.984.217q0 1.57.547 2.406.547.836 1.59.836 1.384 0 1.951-1.167v-4.408q-.557-1.166-1.93-1.166-2.158 0-2.158 3.5zM353.17 375.947q0 2.684-1.145 4.192-1.146 1.497-3.2 1.497-1.818 0-2.902-1.394l-.134 1.187h-2.684v-15.857h2.984v5.688q1.032-1.207 2.715-1.207 2.044 0 3.2 1.507 1.167 1.497 1.167 4.222zm-2.983-.216q0-1.694-.537-2.468-.537-.784-1.6-.784-1.425 0-1.961 1.166v4.408q.547 1.177 1.982 1.177 1.445 0 1.9-1.424.216-.682.216-2.076zM359.169 377.207l2.064-6.948h3.2l-4.49 12.905-.248.588q-1.001 2.189-3.303 2.189-.65 0-1.322-.197v-2.26l.454.01q.847 0 1.26-.258.423-.258.66-.857l.352-.919-3.913-11.201h3.21z" style="line-height:.75;-inkscape-font-specification:Roboto;text-align:center" text-anchor="middle" fill="#666"/><path d="M271.856 392.599v2.746h1.91v2.188h-1.91v5.575q0 .62.238.888.237.268.908.268.496 0 .878-.072v2.26q-.878.27-1.807.27-3.138 0-3.2-3.17v-6.019h-1.631v-2.188h1.63v-2.746zM278.34 396.563q1.187-1.425 2.983-1.425 3.634 0 3.685 4.223v7.154h-2.983v-7.072q0-.96-.413-1.414-.413-.465-1.373-.465-1.311 0-1.9 1.012v7.939h-2.983v-15.857h2.983zM292.42 406.721q-2.456 0-4.005-1.507-1.538-1.507-1.538-4.016v-.289q0-1.683.65-3.004.65-1.332 1.838-2.044 1.198-.723 2.725-.723 2.292 0 3.603 1.446 1.322 1.445 1.322 4.098v1.218h-7.113q.144 1.095.867 1.755.733.661 1.848.661 1.724 0 2.694-1.25l1.466 1.642q-.67.95-1.817 1.487-1.145.526-2.54.526zm-.34-9.167q-.888 0-1.445.599-.547.599-.702 1.713h4.15v-.237q-.02-.991-.537-1.528-.516-.547-1.466-.547z" style="line-height:.75;-inkscape-font-specification:Roboto" fill="#666"/><path d="M324.761 399.826q0 3.551-1.255 6.227-1.256 2.676-3.601 4.13-2.33 1.453-5.352 1.453-2.99 0-5.335-1.437-2.346-1.437-3.634-4.096-1.289-2.676-1.305-6.145v-1.19q0-3.55 1.271-6.243 1.289-2.71 3.618-4.146 2.346-1.454 5.352-1.454 3.006 0 5.335 1.454 2.346 1.437 3.618 4.146 1.288 2.692 1.288 6.227zm-5.021-1.09q0-3.783-1.355-5.749-1.354-1.965-3.865-1.965-2.494 0-3.849 1.949-1.354 1.933-1.37 5.682v1.173q0 3.684 1.354 5.715 1.354 2.032 3.898 2.032 2.494 0 3.832-1.95 1.338-1.965 1.355-5.714zM346.375 403.295q-.28 3.882-2.874 6.112-2.577 2.23-6.805 2.23-4.625 0-7.285-3.106-2.643-3.122-2.643-8.556v-1.47q0-3.47 1.223-6.112 1.222-2.643 3.485-4.047 2.28-1.42 5.286-1.42 4.162 0 6.706 2.23 2.544 2.23 2.94 6.26h-4.955q-.182-2.33-1.305-3.37-1.107-1.057-3.386-1.057-2.478 0-3.717 1.784-1.222 1.767-1.255 5.5v1.817q0 3.899 1.173 5.699 1.189 1.8 3.733 1.8 2.296 0 3.42-1.04 1.139-1.057 1.304-3.254zM363.75 401.478h-9.515v9.828h-4.955v-24.05h15.659v4.014h-10.704v6.21h9.514z" style="line-height:.75;-inkscape-font-specification:'Roboto, Bold';font-variant-ligatures:normal;font-variant-caps:normal;font-variant-numeric:normal;font-feature-settings:normal;text-align:center" font-size="33.829" text-anchor="middle"/></g></g></svg>
