<?xml version="1.0" encoding="UTF-8" standalone="no"?>
<!-- Created with Inkscape (http://www.inkscape.org/) -->

<svg
   xmlns:dc="http://purl.org/dc/elements/1.1/"
   xmlns:cc="http://creativecommons.org/ns#"
   xmlns:rdf="http://www.w3.org/1999/02/22-rdf-syntax-ns#"
   xmlns:svg="http://www.w3.org/2000/svg"
   xmlns="http://www.w3.org/2000/svg"
   xmlns:sodipodi="http://sodipodi.sourceforge.net/DTD/sodipodi-0.dtd"
   xmlns:inkscape="http://www.inkscape.org/namespaces/inkscape"
   width="125"
   height="50"
   viewBox="0 0 33.072918 13.229166"
   version="1.1"
   id="svg8"
   inkscape:version="0.92.1 r15371"
   sodipodi:docname="ocf-hosted-penguin.svg">
  <defs
     id="defs2">
    <clipPath
       id="clipPath3194">
      <path
         id="path3196"
         d="M 0,792 H 612 V 0 H 0 Z"
         inkscape:connector-curvature="0" />
    </clipPath>
  </defs>
  <sodipodi:namedview
     id="base"
     pagecolor="#ffffff"
     bordercolor="#666666"
     borderopacity="1.0"
     inkscape:pageopacity="0.0"
     inkscape:pageshadow="2"
     inkscape:zoom="5.6"
     inkscape:cx="57.154751"
     inkscape:cy="-19.043359"
     inkscape:document-units="mm"
     inkscape:current-layer="layer1-3"
     showgrid="false"
     units="px"
     inkscape:window-width="1920"
     inkscape:window-height="1107"
     inkscape:window-x="0"
     inkscape:window-y="33"
     inkscape:window-maximized="1" />
  <metadata
     id="metadata5">
    <rdf:RDF>
      <cc:Work
         rdf:about="">
        <dc:format>image/svg+xml</dc:format>
        <dc:type
           rdf:resource="http://purl.org/dc/dcmitype/StillImage" />
        <dc:title />
      </cc:Work>
    </rdf:RDF>
  </metadata>
  <g
     inkscape:label="Layer 1"
     inkscape:groupmode="layer"
     id="layer1"
     transform="translate(0,-283.77084)">
    <g
       id="layer1-3"
       transform="matrix(0.18448496,0,0,0.18448496,-36.89388,218.80147)">
      <rect
         style="fill:#ffffff;stroke-width:0.49162936"
         id="rect3883"
         width="179.27162"
         height="71.708649"
         x="199.98315"
         y="352.16617"
         ry="7.0204277" />
      <g
         id="g3190"
         transform="matrix(0.43911526,0,0,-0.43911525,186.30073,627.59614)">
        <g
           id="g3192"
           clip-path="url(#clipPath3194)">
          <g
             style="fill:#0f4d92;fill-opacity:1"
             id="g3817">
            <g
               style="fill:#0f4d92;fill-opacity:1"
               id="g3198"
               transform="translate(88.5767,565.2505)">
              <path
                 style="fill:#0f4d92;fill-opacity:1;fill-rule:nonzero;stroke:none"
                 id="path3200"
                 d="m 0,0 c -3.278,0 -2.101,-6.139 -3.278,-11.765 -0.628,-2.996 6.541,0.326 9.232,4.73 C 6.501,-6.137 0,0 0,0"
                 inkscape:connector-curvature="0" />
            </g>
            <g
               style="fill:#0f4d92;fill-opacity:1"
               id="g3202"
               transform="translate(85.2983,544.126)">
              <path
                 style="fill:#0f4d92;fill-opacity:1;fill-rule:nonzero;stroke:none"
                 id="path3204"
                 d="m 0,0 c 0,-8.152 -2.216,-13 -7.468,-21.161 -5.252,-8.16 -10.313,-12.488 -13.064,-16.304 -2.751,-3.816 -2.062,-4.856 1.719,-5.203 3.781,-0.348 6.018,-2.557 9.535,1.501 3.517,4.059 13.62,16.75 16.793,24.689 3.173,7.939 4.271,11.968 5.301,17.171 C 13.846,5.897 -2.311,0 -2.311,0"
                 inkscape:connector-curvature="0" />
            </g>
            <g
               style="fill:#0f4d92;fill-opacity:1"
               id="g3206"
               transform="translate(149.2495,571.2627)">
              <path
                 style="fill:#0f4d92;fill-opacity:1;fill-rule:nonzero;stroke:none"
                 id="path3208"
                 d="m 0,0 c 3.235,2.521 6.237,-8.13 6.237,-10.345 0,-2.214 -11.898,-5.426 -18.411,-7.261 -6.513,-1.835 -29.464,-8.027 -38.961,-8.837 -7.695,-0.657 -13.302,-2.414 -16.885,-3.287 0,0 -3.094,-1.302 -7.219,-4.337 -6.414,-4.719 -14.783,-4.509 -8.939,2.082 5.844,6.59 0.344,4.163 8.939,8.499 8.594,4.336 18.221,7.886 20.282,10.101 0,0 8.328,5.723 17.083,4.109 C -34.81,-9.841 -5.378,-4.191 0,0"
                 inkscape:connector-curvature="0" />
            </g>
          </g>
          <g
             id="g3226"
             transform="translate(155.3896,577.0244)">
            <path
               style="fill:#000000;fill-opacity:1;fill-rule:nonzero;stroke:none"
               id="path3228"
               d="m 0,0 c 7.699,6.348 -9.283,-1.388 -15.205,18.443 0,0 -3.223,12.488 -19.946,14.165 -11.886,1.193 -22.605,-6.07 -24.668,-7.631 -12.72877,-11.035309 -14.615789,-34.9577979 -0.009,-44.983 0,0 2.072,2.834 18.573,4.396 16.502,1.561 25.615,5.488 30.254,7.284 C -4.401,-5.77 -7.774,-6.409 0,0"
               inkscape:connector-curvature="0" />
          </g>
          <g
             id="g3230"
             transform="translate(121.062,582.6494)">
            <path
               style="fill:#ffffff;fill-opacity:1;fill-rule:nonzero;stroke:none"
               id="path3232"
               d="m 0,0 c 0,-4.478 -3.598,-8.109 -8.036,-8.109 -4.438,0 -8.037,3.631 -8.037,8.109 0,4.479 3.599,8.109 8.037,8.109 C -3.598,8.109 0,4.479 0,0"
               inkscape:connector-curvature="0" />
          </g>
          <g
             id="g3234"
             transform="translate(113.6572,583.9551)">
            <path
               style="fill:#000000;fill-opacity:1;fill-rule:nonzero;stroke:none"
               id="path3236"
               d="m 0,0 c 0,-1.362 -1.158,-2.466 -2.586,-2.466 -1.43,0 -2.587,1.104 -2.587,2.466 0,1.361 1.157,2.464 2.587,2.464 C -1.158,2.464 0,1.361 0,0"
               inkscape:connector-curvature="0" />
          </g>
          <g
             id="g3238"
             transform="translate(152.606,558.7939)">
            <path
               style="fill:#000000;fill-opacity:1;fill-rule:nonzero;stroke:none"
               id="path3240"
               d="M 0,0 C 1.201,0.638 10.213,-24.85 5.765,-43.141 2.583,-56.227 0.752,-61.683 -6.672,-68.433 c -2.157,-1.961 -2.44,-6.942 -2.44,-6.942 -17.761,-2.487 -23.952,-1.388 -35.01,-0.347 -11.058,1.041 -10.536,6.033 -13.808,7.285 -4.131,1.581 -6.536,-3.87 -17.189,-0.694 -15.127,4.509 -5.72,8.804 -3.782,10.809 22.523,23.284 24.409,44.347 24.409,44.347 C -38.949,-12.14 -6.569,-3.49 0,0"
               inkscape:connector-curvature="0" />
          </g>
          <g
             id="g3242"
             transform="translate(152.606,558.7939)">
            <path
               style="fill:none;stroke:#020202;stroke-width:1;stroke-linecap:butt;stroke-linejoin:miter;stroke-miterlimit:4;stroke-dasharray:none;stroke-opacity:1"
               id="path3244"
               d="M 0,0 C 1.201,0.638 10.213,-24.85 5.765,-43.141 2.583,-56.227 0.752,-61.683 -6.672,-68.433 c -2.157,-1.961 -2.44,-6.942 -2.44,-6.942 -17.761,-2.487 -23.952,-1.388 -35.01,-0.347 -11.058,1.041 -10.536,6.033 -13.808,7.285 -4.131,1.581 -6.536,-3.87 -17.189,-0.694 -15.127,4.509 -5.72,8.804 -3.782,10.809 22.523,23.284 24.409,44.347 24.409,44.347 C -38.949,-12.14 -6.569,-3.49 0,0 Z"
               inkscape:connector-curvature="0" />
          </g>
          <g
             id="g3266"
             transform="translate(118.3672,548.6357)">
            <path
               style="fill:#ffffff;fill-opacity:1;fill-rule:nonzero;stroke:none"
               id="path3268"
               d="m 0,0 c -23.981099,-37.053317 5.6991327,-50.382188 37.762,-41.356 0,0 4.588,13.131 3.408,25.051 C 38.989,5.724 33.378,10.06 33.378,10.06 27.317,7.34 0,0 0,0"
               inkscape:connector-curvature="0" />
          </g>
          <g
             style="fill:#ffd700;fill-opacity:1"
             id="g3825">
            <g
               style="fill:#ffd700;fill-opacity:1"
               id="g3210"
               transform="translate(129.9634,554.499)">
              <path
                 style="fill:#ffd700;fill-opacity:1;fill-rule:nonzero;stroke:none"
                 id="path3212"
                 d="m 0,0 -11.596,-1.7 v 9.237 l 9.092,1.597 z"
                 inkscape:connector-curvature="0" />
            </g>
            <g
               style="fill:#ffd700;fill-opacity:1"
               id="g3214"
               transform="translate(146.9312,558.7412)">
              <path
                 style="fill:#ffd700;fill-opacity:1;fill-rule:nonzero;stroke:none"
                 id="path3216"
                 d="m 0,0 -8.938,-2.766 -2.906,9.515 7.348,2.492 z"
                 inkscape:connector-curvature="0" />
            </g>
            <g
               style="fill:#ffd700;fill-opacity:1"
               id="g3218"
               transform="translate(101.2075,548.6357)">
              <path
                 style="fill:#ffd700;fill-opacity:1;fill-rule:nonzero;stroke:none"
                 id="path3220"
                 d="M 0,0 9.863,1.734 8.083,11.448 -0.319,10.06 Z"
                 inkscape:connector-curvature="0" />
            </g>
            <g
               style="fill:#ffd700;fill-opacity:1"
               id="g3222"
               transform="translate(153.8071,561.979)">
              <path
                 style="fill:#ffd700;fill-opacity:1;fill-rule:nonzero;stroke:none"
                 id="path3224"
                 d="m 0,0 -3.438,-1.896 -3.438,9.88 2.013,1.292 z"
                 inkscape:connector-curvature="0" />
            </g>
            <g
               style="fill:#ffd700;fill-opacity:1"
               id="g3246"
               transform="translate(83.6748,551.3765)">
              <path
                 style="fill:#ffd700;fill-opacity:1;fill-rule:nonzero;stroke:none"
                 id="path3248"
                 d="M 0,0 7.219,3.185 8.595,-4.412 -0.688,-7.25 Z"
                 inkscape:connector-curvature="0" />
            </g>
            <g
               style="fill:#ffd700;fill-opacity:1"
               id="g3250"
               transform="translate(94.1646,536.2236)">
              <path
                 style="fill:#ffd700;fill-opacity:1;fill-rule:nonzero;stroke:none"
                 id="path3252"
                 d="m 0,0 h -8.104 l 0.541,4.434 9.626,3.468 z"
                 inkscape:connector-curvature="0" />
            </g>
            <g
               style="fill:#ffd700;fill-opacity:1"
               id="g3254"
               transform="translate(88.439,523.2188)">
              <path
                 style="fill:#ffd700;fill-opacity:1;fill-rule:nonzero;stroke:none"
                 id="path3256"
                 d="m 0,0 -9.798,-0.254 5.157,8.463 h 8.157 z"
                 inkscape:connector-curvature="0" />
            </g>
            <g
               style="fill:#ffd700;fill-opacity:1"
               id="g3258"
               transform="translate(82.9873,516.374)">
              <path
                 style="fill:#ffd700;fill-opacity:1;fill-rule:nonzero;stroke:none"
                 id="path3260"
                 d="m 0,0 -7.959,1.041 -5.988,-7.632 8.018,-1.918 z"
                 inkscape:connector-curvature="0" />
            </g>
            <g
               style="fill:#ffd700;fill-opacity:1"
               id="g3262"
               transform="translate(78.9614,542.9121)">
              <path
                 style="fill:#ffd700;fill-opacity:1;fill-rule:nonzero;stroke:none"
                 id="path3264"
                 d="M 0,0 -9.921,-6.688 -7.197,2.862 0,5.724 Z"
                 inkscape:connector-curvature="0" />
            </g>
          </g>
        </g>
      </g>
      <text
         xml:space="preserve"
         style="font-style:normal;font-weight:normal;font-size:21.1427784px;line-height:0.75;font-family:sans-serif;letter-spacing:0px;word-spacing:0px;fill:#000000;fill-opacity:1;stroke:none;stroke-width:0.52856946"
         x="316.41846"
         y="381.42914"
         id="text3859"><tspan
           sodipodi:role="line"
           x="316.41846"
           y="381.42914"
           style="font-style:normal;font-variant:normal;font-weight:bold;font-stretch:normal;line-height:0.75;font-family:Roboto;-inkscape-font-specification:Roboto;text-align:center;writing-mode:lr-tb;text-anchor:middle;fill:#666666;stroke-width:0.52856946"
           id="tspan3861"
           dx="0 0 0">Hosted by</tspan><tspan
           sodipodi:role="line"
           x="316.41846"
           y="406.51489"
           style="font-style:normal;font-variant:normal;font-weight:normal;font-stretch:normal;line-height:0.75;font-family:Roboto;-inkscape-font-specification:Roboto;text-align:center;writing-mode:lr-tb;text-anchor:middle;stroke-width:0.52856946"
           id="tspan3865"><tspan
             style="font-style:normal;font-variant:normal;font-weight:bold;font-stretch:normal;line-height:0.75;font-family:Roboto;-inkscape-font-specification:Roboto;fill:#666666;stroke-width:0.52856946"
             id="tspan3873"
             dx="0 0 0">the </tspan><tspan
             style="font-style:normal;font-variant:normal;font-weight:bold;font-stretch:normal;font-size:33.82926941px;line-height:0.75;font-family:Roboto;-inkscape-font-specification:'Roboto, Bold';font-variant-ligatures:normal;font-variant-caps:normal;font-variant-numeric:normal;font-feature-settings:normal;text-align:center;writing-mode:lr-tb;baseline-shift:baseline;text-anchor:middle;stroke-width:0.52856946"
             id="tspan3867"
             dy="4.7911959"
             dx="0 -0.89999998 -0.34999999">OCF</tspan></tspan></text>
    </g>
  </g>
</svg>
