<svg xmlns="http://www.w3.org/2000/svg" width="125" height="50" viewBox="0 0 33.073 13.229"><defs><clipPath id="a"><path d="M0 792h612V0H0z"/></clipPath></defs><g transform="translate(0 -283.77)"><rect ry="1.295" y="283.771" height="13.229" width="33.073" stroke-width=".091"/><g clip-path="url(#a)" transform="matrix(.08101 0 0 -.08101 -2.524 334.584)"><g fill="#0f4d92"><path d="M88.577 565.25c-3.278 0-2.101-6.139-3.278-11.765-.628-2.996 6.54.326 9.232 4.73.547.898-5.954 7.035-5.954 7.035M85.298 544.126c0-8.152-2.216-13-7.468-21.161-5.252-8.16-10.313-12.488-13.064-16.304-2.75-3.816-2.062-4.856 1.72-5.203 3.78-.348 6.017-2.557 9.534 1.501 3.517 4.059 13.62 16.75 16.793 24.689s4.271 11.968 5.301 17.171c1.03 5.204-15.127-.693-15.127-.693" fill="#170000"/><path d="M149.25 571.263c3.235 2.52 6.237-8.13 6.237-10.345 0-2.214-11.898-5.426-18.411-7.261-6.513-1.835-29.464-8.027-38.961-8.837-7.695-.657-13.302-2.414-16.885-3.287 0 0-3.095-1.302-7.22-4.337-6.413-4.72-14.782-4.51-8.938 2.082 5.844 6.59.344 4.163 8.939 8.499 8.594 4.336 18.22 7.886 20.282 10.1 0 0 8.327 5.724 17.082 4.11 3.065-.565 32.497 5.085 37.875 9.276" fill="#170000"/></g><path d="M155.39 577.024c7.699 6.348-9.283-1.388-15.205 18.443 0 0-3.223 12.488-19.946 14.165-11.886 1.193-22.605-6.07-24.668-7.63-12.73-11.036-14.616-34.958-.01-44.984 0 0 2.073 2.834 18.574 4.396 16.502 1.561 25.615 5.488 30.254 7.284 6.6 2.556 3.227 1.917 11 8.326"/><path d="M121.062 582.65c0-4.479-3.598-8.11-8.036-8.11s-8.037 3.631-8.037 8.11c0 4.478 3.599 8.108 8.037 8.108 4.438 0 8.036-3.63 8.036-8.109" fill="#fff"/><path d="M113.657 583.955c0-1.362-1.158-2.466-2.586-2.466-1.43 0-2.587 1.104-2.587 2.466 0 1.361 1.157 2.464 2.587 2.464 1.428 0 2.586-1.103 2.586-2.464M152.606 558.794c1.201.638 10.213-24.85 5.765-43.141-3.182-13.086-5.013-18.542-12.437-25.292-2.157-1.961-2.44-6.942-2.44-6.942-17.761-2.487-23.952-1.388-35.01-.347-11.058 1.04-10.536 6.033-13.808 7.285-4.131 1.58-6.536-3.87-17.189-.694-15.127 4.509-5.72 8.804-3.782 10.809 22.523 23.284 24.409 44.347 24.409 44.347 15.543 1.835 47.923 10.485 54.492 13.975"/><path d="M152.606 558.794c1.201.638 10.213-24.85 5.765-43.141-3.182-13.086-5.013-18.542-12.437-25.292-2.157-1.961-2.44-6.942-2.44-6.942-17.761-2.487-23.952-1.388-35.01-.347-11.058 1.04-10.536 6.033-13.808 7.285-4.131 1.58-6.536-3.87-17.189-.694-15.127 4.509-5.72 8.804-3.782 10.809 22.523 23.284 24.409 44.347 24.409 44.347 15.543 1.835 47.923 10.485 54.492 13.975z" fill="none" stroke="#020202"/><path d="M118.367 548.636c-23.98-37.054 5.7-50.382 37.762-41.356 0 0 4.588 13.13 3.408 25.05-2.18 22.03-7.792 26.366-7.792 26.366-6.06-2.72-33.378-10.06-33.378-10.06" fill="#fff"/><g fill="gold"><path d="M129.963 554.499l-11.596-1.7v9.237l9.092 1.597zM146.931 558.741l-8.938-2.766-2.906 9.515 7.348 2.492zM101.207 548.636l9.864 1.734-1.78 9.714-8.403-1.388zM153.807 561.979l-3.438-1.896-3.438 9.88 2.013 1.292zM83.675 551.376l7.219 3.185 1.376-7.597-9.283-2.838zM94.165 536.224H86.06l.54 4.434 9.627 3.468zM88.439 523.219l-9.798-.254 5.157 8.463h8.157zM82.987 516.374l-7.959 1.041-5.988-7.632 8.018-1.918zM78.961 542.912l-9.92-6.688 2.723 9.55 7.197 2.862z" fill="#feffff"/></g></g><g fill="#fff" stroke="#fffffe" stroke-width="7.406"><path d="M7.037 285.187c-.89-.015-1.663.51-1.82.628-1.001.869-1.17 2.72-.094 3.57.073.34.174.717.26 1.068-.003.023-.044.43-.301 1.068-.265.658-.756 1.552-1.665 2.491-.033.034-.11.088-.187.151a.577.577 0 00-.187.225c-.033.09-.01.197.096.29.107.094.293.185.602.277.439.13.716.083.919.02.101-.032.184-.067.258-.085a.331.331 0 01.213.007c.057.022.099.06.145.112.045.052.095.117.165.182.14.13.366.256.82.299.447.042.798.085 1.217.093.42.008.907-.02 1.628-.12l.033-.006.002-.033s.005-.098.032-.215c.027-.117.077-.251.152-.32.607-.552.762-1.008 1.02-2.07.182-.75.089-1.641-.062-2.34a6.741 6.741 0 00-.242-.861 2.128 2.128 0 00-.104-.247.38.38 0 00-.042-.067l-.004-.004-.318-.998c.08-.078.163-.193.491-.463.624-.514-.752.112-1.232-1.494 0 0-.261-1.012-1.616-1.148-.06-.006-.12-.01-.179-.01z" stroke-width=".6000674399999999"/></g><g fill="#fcffff" stroke-width="7.406"><path d="M4.651 288.792c-.265 0-.17.498-.265.954-.051.242.53-.027.748-.384.044-.072-.483-.57-.483-.57M4.386 290.504c0 .66-.18 1.053-.605 1.714-.426.661-.836 1.012-1.058 1.32-.223.31-.168.394.139.422.306.029.487.207.772-.121.285-.33 1.104-1.357 1.36-2 .258-.643.347-.97.43-1.391.083-.422-1.225.056-1.225.056" stroke="#fff" stroke-width=".59996006"/><path d="M9.567 288.305c.262-.204.505.659.505.838 0 .18-.964.44-1.492.589-.527.148-2.387.65-3.156.716-.623.053-1.078.195-1.368.266 0 0-.25.105-.585.351-.52.382-1.197.365-.724-.168.474-.534.028-.338.724-.689.697-.351 1.476-.639 1.643-.818 0 0 .675-.464 1.384-.333.249.046 2.633-.412 3.069-.752" stroke="#fff" stroke-width=".59996006"/></g><path d="M10.064 287.839c.624-.515-.752.112-1.232-1.494 0 0-.26-1.012-1.616-1.148-.963-.097-1.83.492-1.998.618-1.031.894-1.184 2.832 0 3.644 0 0 .167-.23 1.504-.356 1.337-.126 2.075-.444 2.45-.59.535-.207.262-.155.892-.674"/><path d="M7.283 287.383a.654.654 0 01-.65.657.654.654 0 01-.652-.657c0-.363.292-.657.651-.657.36 0 .651.294.651.657" fill="#fff"/><path d="M6.683 287.277c0 .11-.094.2-.21.2a.205.205 0 01-.209-.2c0-.11.094-.2.21-.2.115 0 .21.09.21.2"/><path d="M9.838 289.316c.098-.052.828 2.013.467 3.494-.257 1.06-.406 1.502-1.007 2.05-.175.158-.198.562-.198.562-1.439.201-1.94.112-2.836.028-.896-.085-.853-.489-1.118-.59-.335-.128-.53.313-1.393.056-1.225-.365-.463-.713-.306-.876 1.824-1.886 1.977-3.592 1.977-3.592 1.26-.149 3.882-.85 4.414-1.132" stroke="#020202" stroke-width=".08101"/><path d="M9.838 289.316c.098-.052.828 2.013.467 3.494-.257 1.06-.406 1.502-1.007 2.05-.175.158-.198.562-.198.562-1.439.201-1.94.112-2.836.028-.896-.085-.853-.489-1.118-.59-.335-.128-.53.313-1.393.056-1.225-.365-.463-.713-.306-.876 1.824-1.886 1.977-3.592 1.977-3.592 1.26-.149 3.882-.85 4.414-1.132z" fill="none" stroke="#020202" stroke-width=".08101"/><path d="M7.065 290.138c-1.943 3.002.461 4.082 3.059 3.35 0 0 .372-1.063.276-2.029-.177-1.784-.631-2.136-.631-2.136-.491.22-2.704.815-2.704.815" fill="#fff"/><g style="line-height:.75" aria-label="Hosted by the OCF" font-weight="400" font-size="21.143" font-family="Roboto" letter-spacing="0" word-spacing="0" fill="#fff" stroke-width=".529"><path style="line-height:.75;-inkscape-font-specification:Roboto;text-align:center" d="M15.121 289.17h-.571v-1.189h-1.114v1.188h-.572v-2.773h.572v1.124h1.114v-1.124h.571zM15.5 288.12q0-.307.118-.547.118-.24.34-.371.222-.131.515-.131.418 0 .68.255.265.255.296.693l.003.141q0 .474-.264.762-.265.286-.71.286-.446 0-.713-.286-.265-.286-.265-.777zm.55.04q0 .293.111.45.11.154.316.154.2 0 .313-.153.112-.154.112-.491 0-.288-.112-.446-.113-.158-.317-.158-.201 0-.312.158-.11.157-.11.486zM18.911 288.6q0-.101-.1-.158-.1-.06-.32-.105-.736-.154-.736-.625 0-.274.227-.457.228-.184.596-.184.392 0 .627.184.236.185.236.48h-.55q0-.118-.077-.194-.076-.078-.238-.078-.139 0-.215.063-.076.063-.076.16 0 .091.085.148.088.056.294.097.205.04.346.092.437.16.437.554 0 .282-.242.457-.242.174-.625.174-.26 0-.461-.092-.2-.093-.314-.253-.114-.162-.114-.349h.521q.008.147.109.225.1.078.27.078.158 0 .238-.059.082-.06.082-.158zM20.458 286.602v.507h.352v.403h-.352v1.029q0 .114.044.164.043.05.167.05.092 0 .162-.014v.417q-.162.05-.333.05-.58 0-.59-.585v-1.11h-.302v-.404h.301v-.507zM22.065 289.208q-.453 0-.739-.279-.283-.278-.283-.74v-.054q0-.31.12-.554.12-.246.339-.377.22-.133.502-.133.423 0 .665.266.244.267.244.756v.225H21.6q.026.202.16.324.135.122.34.122.319 0 .498-.23l.27.302q-.124.175-.335.274-.212.098-.469.098zm-.063-1.692q-.163 0-.266.11-.101.111-.13.317h.766v-.044q-.004-.183-.1-.282-.094-.1-.27-.1zM23.141 288.124q0-.482.216-.768.217-.285.592-.285.3 0 .497.224v-1.051h.552v2.925h-.497l-.026-.219q-.206.258-.53.258-.364 0-.585-.286-.219-.288-.219-.798zm.55.04q0 .29.102.444.1.154.293.154.255 0 .36-.215v-.814q-.103-.215-.356-.215-.398 0-.398.646zM28.26 288.158q0 .495-.21.773-.212.277-.591.277-.335 0-.535-.258l-.025.22h-.495v-2.926h.55v1.05q.19-.223.501-.223.377 0 .59.278.216.276.216.779zm-.55-.04q0-.312-.099-.455-.099-.145-.295-.145-.263 0-.362.215v.814q.101.217.366.217.267 0 .35-.263.04-.126.04-.383zM29.367 288.39l.381-1.281h.59l-.828 2.38-.046.109q-.184.404-.609.404-.12 0-.244-.036v-.418l.084.002q.156 0 .232-.047.078-.048.122-.158l.065-.17-.722-2.066h.593z" font-weight="700" text-anchor="middle"/><path style="line-height:.75;-inkscape-font-specification:Roboto" d="M13.26 291.23v.507h.352v.403h-.353v1.029q0 .114.044.164t.168.05q.091 0 .162-.014v.417q-.162.05-.334.05-.578 0-.59-.585v-1.11h-.3v-.404h.3v-.507zM14.456 291.961q.219-.262.55-.262.67 0 .68.778v1.32h-.55v-1.304q0-.177-.077-.261-.076-.086-.253-.086-.242 0-.35.187v1.464h-.55v-2.925h.55zM17.053 293.835q-.453 0-.739-.278-.283-.278-.283-.74v-.054q0-.31.12-.554.12-.246.339-.377.22-.133.502-.133.423 0 .665.266.244.267.244.756v.225h-1.312q.026.202.16.324.135.122.34.122.319 0 .498-.23l.27.302q-.124.175-.335.274-.212.097-.469.097zm-.062-1.69q-.164 0-.267.11-.101.11-.13.316h.766v-.044q-.004-.183-.099-.282-.095-.1-.27-.1z" font-weight="700"/><path style="line-height:.75;-inkscape-font-specification:'Roboto, Heavy';font-variant-ligatures:normal;font-variant-caps:normal;font-variant-numeric:normal;font-feature-settings:normal;text-align:center" d="M23.071 292.554q0 .65-.24 1.15-.241.499-.686.77-.442.268-1.009.268-.566 0-1.005-.259-.439-.262-.686-.746-.244-.485-.256-1.113v-.25q0-.652.238-1.148.24-.5.685-.771.448-.272 1.018-.272.564 0 1.006.269.442.268.686.764.246.494.25 1.134zm-1.087-.186q0-.661-.223-1.002-.22-.345-.63-.345-.805 0-.85 1.207l-.004.326q0 .652.216 1.003.217.35.643.35.406 0 .625-.344.22-.344.223-.99zM27.053 293.179q-.021.463-.25.82-.229.353-.643.548-.411.195-.942.195-.874 0-1.377-.57t-.503-1.609v-.22q0-.651.226-1.139.228-.49.655-.756.426-.268.987-.268.808 0 1.298.427.491.424.558 1.17h-1.067q-.012-.405-.204-.582-.192-.177-.585-.177-.399 0-.585.299-.186.299-.195.954v.314q0 .71.177 1.014.18.305.615.305.37 0 .564-.174.195-.173.207-.551zM30.289 292.914h-1.725v1.767h-1.07v-4.437h2.968v.826h-1.898v1.021h1.725z" font-weight="900" font-size="33.829" text-anchor="middle"/></g><g fill="#0f4d92"><path d="M4.651 288.792c-.265 0-.17.498-.265.954-.051.242.53-.027.748-.384.044-.072-.483-.57-.483-.57M4.386 290.504c0 .66-.18 1.053-.605 1.714-.426.661-.836 1.012-1.058 1.32-.223.31-.168.394.139.422.306.029.487.207.772-.121.285-.33 1.104-1.357 1.36-2 .258-.643.347-.97.43-1.391.083-.422-1.225.056-1.225.056"/><path d="M9.567 288.305c.262-.204.505.659.505.838 0 .18-.964.44-1.492.589-.527.148-2.387.65-3.156.716-.623.053-1.078.195-1.368.266 0 0-.25.105-.585.351-.52.382-1.197.365-.724-.168.474-.534.028-.338.724-.689.697-.351 1.476-.639 1.643-.818 0 0 .675-.464 1.384-.333.249.046 2.633-.412 3.069-.752"/></g><g fill="gold"><path d="M8.004 289.663l-.94.138v-.748l.737-.13zM9.379 289.32l-.724.224-.236-.77.596-.203zM5.675 290.138l.799-.14-.145-.787-.68.112zM9.936 289.058l-.279.153-.278-.8.163-.105zM4.254 289.916l.585-.258.112.616-.752.23zM5.104 291.144h-.656l.043-.36.78-.28zM4.64 292.197l-.793.021.417-.686h.661zM4.199 292.752l-.645-.084-.485.618.65.155zM3.872 290.602l-.803.542.22-.774.583-.232z"/></g></g></svg>
