<svg height="480" viewBox="0 0 720 360" width="960" xmlns="http://www.w3.org/2000/svg" xmlns:xlink="http://www.w3.org/1999/xlink"><defs><style>*{stroke-linecap:butt;stroke-linejoin:round}</style></defs><g id="figure_1"><path d="M0 360h720V0H0z" fill="#fff" id="patch_1"/><g id="axes_1"><path d="M90 315h558V36H90z" fill="#fff" id="patch_2"/><g id="PolyCollection_1"><defs><path d="M90-45v-75.067l1.243 7.483 1.243 5.539 1.242-7.04 1.243-2.135 1.243 2.353 1.243 5.689 1.242 1.337 1.243-18.785 1.243-3.738 1.243-1.487 1.242-2.279 1.243-.614 1.243-6.016 1.243 2.558 1.242 1.678 1.243-1.794 1.243-2.012 1.243 4.052 1.242-2.429 1.243-8.274 1.243 2.34 1.243-.293 1.243-10.478 1.242 2.04 1.243.873 1.243 1.842 1.243 7.694 1.242 1.187 1.243 17.401 1.243 7.414 1.243-6.664 1.242-4.127 1.243-2.455 1.243-4.653 1.243-8.976 1.242-17.994 1.243 2.114 1.243 6.61 1.243 3.56 1.242 3.466 1.243 2.776 1.243 5.723 1.243 3.513 1.243.47 1.242.041 1.243 2.892 1.243-3.028 1.243.198 1.242-.062 1.243-.641 1.243-.382 1.243 1.262 1.242-.505 1.243 1.685 1.243-3.179 1.243.846 1.242-.361 1.243 1.603 1.243-.512 1.243-1.412 1.242 6.753 1.243 11.507 1.243 6.603 1.243 1.092 1.243-11.801 1.242-9.57 1.243-3.308 1.243 1.357 1.243-.245 1.242-2.954 1.243-2.667 1.243 5.818 1.243 1.351 1.242-7.06 1.243-6.146 1.243-6.309 1.243-1.788 1.242.594 1.243.907 1.243 4.12 1.243 4.407 1.242 1.207 1.243 2.244 1.243.553 1.243-1.501 1.243 1.112 1.242-1.433 1.243-2.844 1.243.048 1.243-2.558 1.242-1.412 1.243-2.251 1.243-1.235 1.243-1.385 1.242 5.744 1.243 5.327 1.243 3.404 1.243 2.333 1.242-2.538 1.243-11.889 1.243-7.128 1.243-4.523 1.242.874 1.243 4.249 1.243 6.132 1.243 13.602 1.243 16.991 1.242 4.127 1.243-13.26 1.243-5.546 1.243-9.181 1.242-8.82 1.243-22.428 1.243-3.499 1.243.805 1.242-.239 1.243-.532 1.243 3.001 1.243-.389 1.242-1.609 1.243 1.439 1.243-4.7 1.243-1.119 1.242-6.118 1.243-2.401 1.243.736 1.243.532 1.242-.586 1.243 4.113 1.243-.307 1.243 1.937 1.243-1.65 1.242 1.432 1.243-.764 1.243-.832 1.243 1.657 1.242 4.291 1.243 3.26 1.243 4.182 1.243 2.974 1.242-2.067 1.243-.143 1.243-2.047 1.243-2.919 1.242 2.005 1.243-.866 1.243-3.179 1.243-1.773 1.242-2.026 1.243-1.828 1.243-.396 1.243.014 1.243.771 1.242 2.148 1.243 1.324 1.243 1.869 1.243 2.612 1.242-1.855 1.243-5.13 1.243-3.547 1.243-2.721 1.242 3.103 1.243.321 1.243.102 1.243 3.247 1.242 6.201 1.243 2.244 1.243 1.453 1.243 2.135 1.242-.832 1.243 1.459 1.243 1.999 1.243-1.33 1.243 3.137 1.242 1.672 1.243 2.326 1.243 26.084 1.243-2.94 1.242-1.576 1.243 2.92 1.243-4.796 1.243 2.613 1.242-4.829 1.243-23.063 1.243 4.611 1.243-1.391 1.242-1.392 1.243 6.896 1.243-1.637 1.243 3.118 1.242.327 1.243 13.561 1.243 20.927 1.243 13.69 1.243-16.841 1.242-20.525 1.243-17.367 1.243-6.439 1.243-.955 1.242 10.484 1.243 5.975 1.243 5.525 1.243 10.853 1.242.887 1.243-7.047 1.243-13.369 1.243-1.494 1.242 11.255 1.243 8.711 1.243 4.89 1.243 15 1.242-5.996 1.243-23.287 1.243-16.842 1.243-16.752 1.243-32.858 1.242-10.989 1.243-6.848 1.243-5.103 1.243.198 1.242.696 1.243-1.937 1.243 1.719 1.243 1.439 1.242 7.974 1.243 4.004 1.243 7.653 1.243-3.39 1.242 5.089 1.243 4.024 1.243-.129 1.243-.648 1.242 1.909 1.243-4.665 1.243 14.188 1.243 4.018 1.243 27.059 1.242.86 1.243-4.659 1.243-5.218 1.243-3.889 1.242-7.557 1.243-6.753 1.243-28.711 1.243 4.018 1.242 10.934 1.243 5.566 1.243 4.605 1.243-3.165 1.242 1.227 1.243 4.414 1.243 1.726 1.243-1.726 1.242 3.533 1.243-1.132 1.243 3.622 1.243.082 1.243-1.105 1.242-4.434 1.243-3.397 1.243-6.057 1.243 1.5 1.242-.088 1.243 2.387 1.243.341 1.243 1.59 1.242-.301 1.243 4.339 1.243 16.596 1.243 12.537 1.242 12.64 1.243 25.204 1.243 1.923 1.243-23.178 1.242-19.652 1.243-11.978 1.243-10.075 1.243 2.736 1.243-4.223 1.242 1.01 1.243-1.692 1.243.989 1.243 2.661 1.242.095 1.243-2.674 1.243 7.231 1.243.975 1.242.648 1.243.287 1.243 2.824 1.243.088 1.242 2.776 1.243-.573 1.243-2.039 1.243.975 1.242 1.078 1.243-2.524 1.243 1.787 1.243-.995 1.243-4.298 1.242-3.547 1.243-1.46 1.243-2.462 1.243.525 1.242-5.805 1.243 11.058 1.243 10.62 1.243 8.056 1.242 7.51 1.243-1.889 1.243-8.732 1.243.444 1.242-3.042 1.243 5.006 1.243 4.987 1.243 4.365 1.242 17.469 1.243 17.224 1.243 13.588 1.243-1.078 1.243-12.19 1.242-17.407 1.243-29.304 1.243-32.053 1.243-8.465 1.242-6.589 1.243-5.791 1.243.573 1.243 4.59 1.242 29.154 1.243-5.88 1.243-6.616 1.243.102 1.242 2.38 1.243-10.088 1.243-6.419 1.243-35.409 1.242-1.036 1.243.47 1.243-1.255 1.243-.436 1.242 21.705 1.243-.498 1.243 3.09 1.243 4.993 1.243.559 1.242 2.463 1.243 1.098 1.243-16.514 1.243 3.144 1.242-5.027 1.243 3.261 1.243 3.192 1.243 2.742L531.18-226l1.243 4.372 1.243-1.091 1.243 1.685 1.242-4.836 1.243-1.815 1.243 1.801 1.243-2.183 1.242-.32 1.243 4.311 1.243 1.05 1.243.286 1.243-3.465 1.242-4.781 1.243 2.667 1.243.607 1.243-.109 1.242-2.326 1.243 3.854 1.243 2.066 1.243 5.089 1.242 3.104 1.243-2.06 1.243-1.29 1.243 4.298 1.242-.355 1.243 2.654 1.243-3.322 1.243-4.932 1.242 5.839 1.243 1.262 1.243.143 1.243-1.48 1.243-.082 1.242 2.858 1.243 3.847 1.243-1.589 1.243-2.326 1.242 6.773 1.243 7.51 1.243 30.457 1.243 3.97 1.242 19.188 1.243 9.57 1.243 15.757 1.243-3.097 1.242-4.065 1.243-31.023 1.243-10.143 1.243-18.82 1.242-11.002 1.243-12.163 1.243-1.425 1.243 10.859 1.243 31.03 1.242 32.578 1.243 18.819 1.243 11.098 1.243-2.032 1.242-22.66 1.243-37.08 1.243-29.324 1.243-25.696 1.242-11.043 1.243-12.708 1.243 12.264 1.243 16.364 1.242 4.618 1.243 1.869 1.243 1.61 1.243-14.631 1.242-12.763 1.243 1.78 1.243.573 1.243 11.296 1.243 15.839 1.242 16.651 1.243 25.661 1.243 25.832 1.243 30.258 1.242 1.419 1.243-22.339 1.243-46.978 1.243-40.64 1.242-20.648 1.243-31.916 1.243-48.976 1.243 19.515L640.543-324l1.243 6.044 1.243 6.152 1.243-.921 1.242 9.291 1.243-3.152 1.243 1.344V-45h0H90z" id="mef58f20ae6" stroke="#000" stroke-opacity=".6"/></defs><g clip-path="url(#p7a9eb3f0f5)"><use xlink:href="#mef58f20ae6" y="360" fill="#00f" fill-opacity=".6" stroke="#000" stroke-opacity=".6"/></g></g><path d="M90 36h558" fill="none" stroke="#000" stroke-linecap="square" id="patch_3"/><path d="M648 315V36" fill="none" stroke="#000" stroke-linecap="square" id="patch_4"/><path d="M90 315h558" fill="none" stroke="#000" stroke-linecap="square" id="patch_5"/><path d="M90 315V36" fill="none" stroke="#000" stroke-linecap="square" id="patch_6"/><g id="matplotlib.axis_1"><g id="xtick_1"><g id="line2d_1"><defs><path d="M0 0v-4" id="m93b0483c22" stroke="#000" stroke-width=".5"/></defs><use x="90" xlink:href="#m93b0483c22" y="315" stroke="#000" stroke-width=".5"/></g><g id="line2d_2"><defs><path d="M0 0v4" id="m741efc42ff" stroke="#000" stroke-width=".5"/></defs><use x="90" xlink:href="#m741efc42ff" y="36" stroke="#000" stroke-width=".5"/></g><g id="text_1"><defs><path d="M4.89 31.39h26.313v-8H4.891z" id="DejaVuSans-2d"/><path d="M12.406 8.297h16.11v55.625l-17.532-3.516v8.985l17.438 3.515h9.86V8.296H54.39V0H12.406z" id="DejaVuSans-31"/><path d="M31.781 66.406q-7.61 0-11.453-7.5Q16.5 51.422 16.5 36.375q0-14.984 3.828-22.484 3.844-7.5 11.453-7.5 7.672 0 11.5 7.5 3.844 7.5 3.844 22.484 0 15.047-3.844 22.531-3.828 7.5-11.5 7.5m0 7.813q12.266 0 18.735-9.703 6.468-9.688 6.468-28.141 0-18.406-6.468-28.11-6.47-9.687-18.735-9.687-12.25 0-18.718 9.688-6.47 9.703-6.47 28.109 0 18.453 6.47 28.14Q19.53 74.22 31.78 74.22" id="DejaVuSans-30"/><path d="M40.578 39.313Q47.656 37.797 51.625 33q3.984-4.781 3.984-11.813 0-10.78-7.422-16.703-7.421-5.906-21.093-5.906-4.578 0-9.438.906-4.86.907-10.031 2.72v9.515q4.094-2.39 8.969-3.61 4.89-1.218 10.218-1.218 9.266 0 14.125 3.656 4.86 3.656 4.86 10.64 0 6.454-4.516 10.079-4.515 3.64-12.562 3.64h-8.5v8.11h8.89q7.266 0 11.125 2.906 3.86 2.906 3.86 8.375 0 5.61-3.985 8.61-3.968 3.015-11.39 3.015-4.063 0-8.703-.89-4.641-.876-10.203-2.72v8.782q5.624 1.562 10.53 2.344 4.907.78 9.25.78 11.235 0 17.766-5.109 6.547-5.093 6.547-13.78 0-6.063-3.468-10.235-3.47-4.172-9.86-5.782" id="DejaVuSans-33"/><path d="M19.188 8.297h34.421V0H7.33v8.297q5.609 5.812 15.296 15.594 9.703 9.797 12.188 12.64 4.734 5.313 6.609 9 1.89 3.688 1.89 7.25 0 5.813-4.078 9.469-4.078 3.672-10.625 3.672-4.64 0-9.797-1.61-5.14-1.609-11-4.89v9.969Q13.767 71.78 18.938 73q5.188 1.219 9.485 1.219 11.328 0 18.062-5.672 6.735-5.656 6.735-15.125 0-4.5-1.688-8.531-1.672-4.016-6.125-9.485-1.218-1.422-7.765-8.187-6.532-6.766-18.453-18.922" id="DejaVuSans-32"/><path d="M10.797 72.906h38.719v-8.312H19.828v-17.86q2.14.735 4.281 1.094 2.157.36 4.313.36 12.203 0 19.328-6.688 7.14-6.688 7.14-18.11 0-11.765-7.328-18.296-7.328-6.516-20.656-6.516-4.593 0-9.36.781-4.75.782-9.827 2.344v9.922q4.39-2.39 9.078-3.563 4.687-1.171 9.906-1.171 8.453 0 13.375 4.437 4.938 4.438 4.938 12.063 0 7.609-4.938 12.047-4.922 4.453-13.375 4.453-3.953 0-7.89-.875-3.922-.875-8.016-2.735z" id="DejaVuSans-35"/></defs><g transform="matrix(.1 0 0 -.1 61.745 326.598)"><use xlink:href="#DejaVuSans-32"/><use x="63.623" xlink:href="#DejaVuSans-30"/><use x="127.246" xlink:href="#DejaVuSans-31"/><use x="190.869" xlink:href="#DejaVuSans-33"/><use x="254.492" xlink:href="#DejaVuSans-2d"/><use x="290.576" xlink:href="#DejaVuSans-31"/><use x="354.199" xlink:href="#DejaVuSans-32"/><use x="417.822" xlink:href="#DejaVuSans-2d"/><use x="453.906" xlink:href="#DejaVuSans-30"/><use x="517.529" xlink:href="#DejaVuSans-35"/></g></g></g><g id="xtick_2"><use x="169.537" xlink:href="#m93b0483c22" y="315" stroke="#000" stroke-width=".5" id="line2d_3"/><use x="169.537" xlink:href="#m741efc42ff" y="36" stroke="#000" stroke-width=".5" id="line2d_4"/><g id="text_2"><defs><path d="M37.797 64.313L12.89 25.39h24.906zm-2.594 8.593H47.61V25.391h10.407v-8.203H47.609V0h-9.812v17.188H4.89v9.515z" id="DejaVuSans-34"/></defs><g transform="matrix(.1 0 0 -.1 141.307 326.598)"><use xlink:href="#DejaVuSans-32"/><use x="63.623" xlink:href="#DejaVuSans-30"/><use x="127.246" xlink:href="#DejaVuSans-31"/><use x="190.869" xlink:href="#DejaVuSans-34"/><use x="254.492" xlink:href="#DejaVuSans-2d"/><use x="290.576" xlink:href="#DejaVuSans-30"/><use x="354.199" xlink:href="#DejaVuSans-34"/><use x="417.822" xlink:href="#DejaVuSans-2d"/><use x="453.906" xlink:href="#DejaVuSans-30"/><use x="517.529" xlink:href="#DejaVuSans-31"/></g></g></g><g id="xtick_3"><use x="249.073" xlink:href="#m93b0483c22" y="315" stroke="#000" stroke-width=".5" id="line2d_5"/><use x="249.073" xlink:href="#m741efc42ff" y="36" stroke="#000" stroke-width=".5" id="line2d_6"/><g id="text_3"><defs><path d="M10.984 1.516V10.5q3.72-1.766 7.516-2.688 3.813-.921 7.484-.921 9.766 0 14.907 6.562 5.156 6.563 5.89 19.953-2.828-4.203-7.187-6.453-4.344-2.25-9.61-2.25-10.937 0-17.312 6.61-6.375 6.625-6.375 18.109 0 11.219 6.64 18 6.641 6.797 17.672 6.797 12.657 0 19.313-9.703 6.672-9.688 6.672-28.141 0-17.234-8.188-27.516Q40.234-1.42 26.422-1.42q-3.719 0-7.531.734-3.797.734-7.907 2.203M30.61 32.422q6.641 0 10.516 4.531 3.89 4.547 3.89 12.469 0 7.86-3.89 12.422-3.875 4.562-10.516 4.562-6.64 0-10.515-4.562-3.875-4.563-3.875-12.422 0-7.922 3.875-12.469 3.875-4.531 10.515-4.531" id="DejaVuSans-39"/></defs><g transform="matrix(.1 0 0 -.1 220.714 326.598)"><use xlink:href="#DejaVuSans-32"/><use x="63.623" xlink:href="#DejaVuSans-30"/><use x="127.246" xlink:href="#DejaVuSans-31"/><use x="190.869" xlink:href="#DejaVuSans-34"/><use x="254.492" xlink:href="#DejaVuSans-2d"/><use x="290.576" xlink:href="#DejaVuSans-30"/><use x="354.199" xlink:href="#DejaVuSans-39"/><use x="417.822" xlink:href="#DejaVuSans-2d"/><use x="453.906" xlink:href="#DejaVuSans-32"/><use x="517.529" xlink:href="#DejaVuSans-30"/></g></g></g><g id="xtick_4"><use x="328.61" xlink:href="#m93b0483c22" y="315" stroke="#000" stroke-width=".5" id="line2d_7"/><use x="328.61" xlink:href="#m741efc42ff" y="36" stroke="#000" stroke-width=".5" id="line2d_8"/><g transform="matrix(.1 0 0 -.1 300.32 326.598)" id="text_4"><use xlink:href="#DejaVuSans-32"/><use x="63.623" xlink:href="#DejaVuSans-30"/><use x="127.246" xlink:href="#DejaVuSans-31"/><use x="190.869" xlink:href="#DejaVuSans-34"/><use x="254.492" xlink:href="#DejaVuSans-2d"/><use x="290.576" xlink:href="#DejaVuSans-31"/><use x="354.199" xlink:href="#DejaVuSans-31"/><use x="417.822" xlink:href="#DejaVuSans-2d"/><use x="453.906" xlink:href="#DejaVuSans-32"/><use x="517.529" xlink:href="#DejaVuSans-33"/></g></g><g id="xtick_5"><use x="408.147" xlink:href="#m93b0483c22" y="315" stroke="#000" stroke-width=".5" id="line2d_9"/><use x="408.147" xlink:href="#m741efc42ff" y="36" stroke="#000" stroke-width=".5" id="line2d_10"/><g transform="matrix(.1 0 0 -.1 379.736 326.598)" id="text_5"><use xlink:href="#DejaVuSans-32"/><use x="63.623" xlink:href="#DejaVuSans-30"/><use x="127.246" xlink:href="#DejaVuSans-31"/><use x="190.869" xlink:href="#DejaVuSans-35"/><use x="254.492" xlink:href="#DejaVuSans-2d"/><use x="290.576" xlink:href="#DejaVuSans-30"/><use x="354.199" xlink:href="#DejaVuSans-33"/><use x="417.822" xlink:href="#DejaVuSans-2d"/><use x="453.906" xlink:href="#DejaVuSans-30"/><use x="517.529" xlink:href="#DejaVuSans-34"/></g></g><g id="xtick_6"><use x="487.684" xlink:href="#m93b0483c22" y="315" stroke="#000" stroke-width=".5" id="line2d_11"/><use x="487.684" xlink:href="#m741efc42ff" y="36" stroke="#000" stroke-width=".5" id="line2d_12"/><g id="text_6"><defs><path d="M31.781 34.625q-7.031 0-11.062-3.766-4.016-3.765-4.016-10.343 0-6.594 4.016-10.36Q24.75 6.391 31.78 6.391q7.032 0 11.078 3.78 4.063 3.798 4.063 10.345 0 6.578-4.031 10.343-4.016 3.766-11.11 3.766m-9.86 4.188q-6.343 1.562-9.89 5.906Q8.5 49.079 8.5 55.329q0 8.733 6.219 13.812 6.234 5.078 17.062 5.078 10.89 0 17.094-5.078 6.203-5.079 6.203-13.813 0-6.25-3.547-10.61-3.531-4.343-9.828-5.906 7.125-1.656 11.094-6.5 3.984-4.828 3.984-11.796 0-10.61-6.468-16.282-6.47-5.656-18.532-5.656-12.047 0-18.531 5.656-6.469 5.672-6.469 16.282 0 6.968 4 11.797 4.016 4.843 11.14 6.5M18.314 54.39q0-5.657 3.53-8.828 3.548-3.172 9.938-3.172 6.36 0 9.938 3.172 3.593 3.171 3.593 8.828 0 5.672-3.593 8.843-3.578 3.172-9.938 3.172-6.39 0-9.937-3.172-3.532-3.172-3.532-8.843" id="DejaVuSans-38"/></defs><g transform="matrix(.1 0 0 -.1 459.43 326.598)"><use xlink:href="#DejaVuSans-32"/><use x="63.623" xlink:href="#DejaVuSans-30"/><use x="127.246" xlink:href="#DejaVuSans-31"/><use x="190.869" xlink:href="#DejaVuSans-35"/><use x="254.492" xlink:href="#DejaVuSans-2d"/><use x="290.576" xlink:href="#DejaVuSans-30"/><use x="354.199" xlink:href="#DejaVuSans-38"/><use x="417.822" xlink:href="#DejaVuSans-2d"/><use x="453.906" xlink:href="#DejaVuSans-32"/><use x="517.529" xlink:href="#DejaVuSans-35"/></g></g></g><g id="xtick_7"><use x="567.22" xlink:href="#m93b0483c22" y="315" stroke="#000" stroke-width=".5" id="line2d_13"/><use x="567.22" xlink:href="#m741efc42ff" y="36" stroke="#000" stroke-width=".5" id="line2d_14"/><g transform="matrix(.1 0 0 -.1 538.871 326.598)" id="text_7"><use xlink:href="#DejaVuSans-32"/><use x="63.623" xlink:href="#DejaVuSans-30"/><use x="127.246" xlink:href="#DejaVuSans-31"/><use x="190.869" xlink:href="#DejaVuSans-35"/><use x="254.492" xlink:href="#DejaVuSans-2d"/><use x="290.576" xlink:href="#DejaVuSans-31"/><use x="354.199" xlink:href="#DejaVuSans-30"/><use x="417.822" xlink:href="#DejaVuSans-2d"/><use x="453.906" xlink:href="#DejaVuSans-32"/><use x="517.529" xlink:href="#DejaVuSans-38"/></g></g><g id="xtick_8"><use x="646.757" xlink:href="#m93b0483c22" y="315" stroke="#000" stroke-width=".5" id="line2d_15"/><use x="646.757" xlink:href="#m741efc42ff" y="36" stroke="#000" stroke-width=".5" id="line2d_16"/><g id="text_8"><defs><path d="M33.016 40.375q-6.641 0-10.532-4.547-3.875-4.531-3.875-12.437 0-7.86 3.875-12.438 3.891-4.562 10.532-4.562 6.64 0 10.515 4.562 3.875 4.578 3.875 12.438 0 7.906-3.875 12.437-3.875 4.547-10.515 4.547m19.578 30.922v-8.984q-3.719 1.75-7.5 2.671-3.782.938-7.5.938-9.766 0-14.922-6.594-5.14-6.594-5.875-19.922 2.875 4.25 7.219 6.516 4.359 2.266 9.578 2.266 10.984 0 17.36-6.672 6.374-6.657 6.374-18.125 0-11.235-6.64-18.032-6.641-6.78-17.672-6.78-12.657 0-19.344 9.687-6.688 9.703-6.688 28.109 0 17.281 8.204 27.563 8.203 10.28 22.015 10.28 3.719 0 7.5-.734t7.89-2.187" id="DejaVuSans-36"/></defs><g transform="matrix(.1 0 0 -.1 618.417 326.598)"><use xlink:href="#DejaVuSans-32"/><use x="63.623" xlink:href="#DejaVuSans-30"/><use x="127.246" xlink:href="#DejaVuSans-31"/><use x="190.869" xlink:href="#DejaVuSans-36"/><use x="254.492" xlink:href="#DejaVuSans-2d"/><use x="290.576" xlink:href="#DejaVuSans-30"/><use x="354.199" xlink:href="#DejaVuSans-31"/><use x="417.822" xlink:href="#DejaVuSans-2d"/><use x="453.906" xlink:href="#DejaVuSans-32"/><use x="517.529" xlink:href="#DejaVuSans-39"/></g></g></g><g id="text_9"><defs><path d="M52 44.188q3.375 6.062 8.063 8.937Q64.75 56 71.093 56q8.548 0 13.188-5.984 4.64-5.97 4.64-17V0h-9.03v32.719q0 7.86-2.797 11.656-2.781 3.813-8.485 3.813-6.984 0-11.046-4.641-4.047-4.625-4.047-12.64V0h-9.032v32.719q0 7.906-2.78 11.687-2.782 3.782-8.595 3.782-6.89 0-10.953-4.657-4.047-4.656-4.047-12.625V0H9.08v54.688h9.03v-8.5q3.078 5.03 7.375 7.421Q29.781 56 35.687 56q5.97 0 10.141-3.031Q50 49.953 52 44.187" id="DejaVuSans-6d"/><path d="M9.422 54.688h8.984V0H9.422zm0 21.296h8.984v-11.39H9.422z" id="DejaVuSans-69"/><path d="M56.203 29.594v-4.39H14.891q.593-9.282 5.593-14.142 5-4.859 13.938-4.859 5.172 0 10.031 1.266 4.86 1.265 9.656 3.812v-8.5Q49.266.734 44.187-.344 39.11-1.422 33.892-1.422q-13.094 0-20.735 7.61-7.64 7.625-7.64 20.625 0 13.421 7.25 21.296Q20.016 56 32.328 56q11.031 0 17.453-7.11 6.422-7.093 6.422-19.296m-8.984 2.64q-.094 7.36-4.125 11.75-4.032 4.407-10.672 4.407-7.516 0-12.031-4.25-4.516-4.25-5.203-11.97z" id="DejaVuSans-65"/><path d="M-.297 72.906h61.672v-8.312H35.5V0h-9.906v64.594H-.296z" id="DejaVuSans-54"/></defs><g transform="matrix(.1 0 0 -.1 357.018 341.277)"><use xlink:href="#DejaVuSans-54"/><use x="57.959" xlink:href="#DejaVuSans-69"/><use x="85.742" xlink:href="#DejaVuSans-6d"/><use x="183.154" xlink:href="#DejaVuSans-65"/></g></g></g><g id="matplotlib.axis_2"><g id="ytick_1"><g id="line2d_17"><defs><path d="M0 0h4" id="m728421d6d4" stroke="#000" stroke-width=".5"/></defs><use x="90" xlink:href="#m728421d6d4" y="315" stroke="#000" stroke-width=".5"/></g><g id="line2d_18"><defs><path d="M0 0h-4" id="mcb0005524f" stroke="#000" stroke-width=".5"/></defs><use x="648" xlink:href="#mcb0005524f" y="315" stroke="#000" stroke-width=".5"/></g><use xlink:href="#DejaVuSans-30" transform="matrix(.1 0 0 -.1 80.96 317.76)" id="text_10"/></g><g id="ytick_2"><use x="90" xlink:href="#m728421d6d4" y="280.894" stroke="#000" stroke-width=".5" id="line2d_19"/><use x="648" xlink:href="#mcb0005524f" y="280.894" stroke="#000" stroke-width=".5" id="line2d_20"/><g transform="matrix(.1 0 0 -.1 61.986 283.653)" id="text_11"><use xlink:href="#DejaVuSans-35"/><use x="63.623" xlink:href="#DejaVuSans-30"/><use x="127.246" xlink:href="#DejaVuSans-30"/><use x="190.869" xlink:href="#DejaVuSans-30"/></g></g><g id="ytick_3"><use x="90" xlink:href="#m728421d6d4" y="246.788" stroke="#000" stroke-width=".5" id="line2d_21"/><use x="648" xlink:href="#mcb0005524f" y="246.788" stroke="#000" stroke-width=".5" id="line2d_22"/><g transform="matrix(.1 0 0 -.1 55.95 249.548)" id="text_12"><use xlink:href="#DejaVuSans-31"/><use x="63.623" xlink:href="#DejaVuSans-30"/><use x="127.246" xlink:href="#DejaVuSans-30"/><use x="190.869" xlink:href="#DejaVuSans-30"/><use x="254.492" xlink:href="#DejaVuSans-30"/></g></g><g id="ytick_4"><use x="90" xlink:href="#m728421d6d4" y="212.682" stroke="#000" stroke-width=".5" id="line2d_23"/><use x="648" xlink:href="#mcb0005524f" y="212.682" stroke="#000" stroke-width=".5" id="line2d_24"/><g transform="matrix(.1 0 0 -.1 55.95 215.442)" id="text_13"><use xlink:href="#DejaVuSans-31"/><use x="63.623" xlink:href="#DejaVuSans-35"/><use x="127.246" xlink:href="#DejaVuSans-30"/><use x="190.869" xlink:href="#DejaVuSans-30"/><use x="254.492" xlink:href="#DejaVuSans-30"/></g></g><g id="ytick_5"><use x="90" xlink:href="#m728421d6d4" y="178.576" stroke="#000" stroke-width=".5" id="line2d_25"/><use x="648" xlink:href="#mcb0005524f" y="178.576" stroke="#000" stroke-width=".5" id="line2d_26"/><g transform="matrix(.1 0 0 -.1 55.584 181.336)" id="text_14"><use xlink:href="#DejaVuSans-32"/><use x="63.623" xlink:href="#DejaVuSans-30"/><use x="127.246" xlink:href="#DejaVuSans-30"/><use x="190.869" xlink:href="#DejaVuSans-30"/><use x="254.492" xlink:href="#DejaVuSans-30"/></g></g><g id="ytick_6"><use x="90" xlink:href="#m728421d6d4" y="144.47" stroke="#000" stroke-width=".5" id="line2d_27"/><use x="648" xlink:href="#mcb0005524f" y="144.47" stroke="#000" stroke-width=".5" id="line2d_28"/><g transform="matrix(.1 0 0 -.1 55.584 147.23)" id="text_15"><use xlink:href="#DejaVuSans-32"/><use x="63.623" xlink:href="#DejaVuSans-35"/><use x="127.246" xlink:href="#DejaVuSans-30"/><use x="190.869" xlink:href="#DejaVuSans-30"/><use x="254.492" xlink:href="#DejaVuSans-30"/></g></g><g id="ytick_7"><use x="90" xlink:href="#m728421d6d4" y="110.365" stroke="#000" stroke-width=".5" id="line2d_29"/><use x="648" xlink:href="#mcb0005524f" y="110.365" stroke="#000" stroke-width=".5" id="line2d_30"/><g transform="matrix(.1 0 0 -.1 55.614 113.124)" id="text_16"><use xlink:href="#DejaVuSans-33"/><use x="63.623" xlink:href="#DejaVuSans-30"/><use x="127.246" xlink:href="#DejaVuSans-30"/><use x="190.869" xlink:href="#DejaVuSans-30"/><use x="254.492" xlink:href="#DejaVuSans-30"/></g></g><g id="ytick_8"><use x="90" xlink:href="#m728421d6d4" y="76.259" stroke="#000" stroke-width=".5" id="line2d_31"/><use x="648" xlink:href="#mcb0005524f" y="76.259" stroke="#000" stroke-width=".5" id="line2d_32"/><g transform="matrix(.1 0 0 -.1 55.614 79.018)" id="text_17"><use xlink:href="#DejaVuSans-33"/><use x="63.623" xlink:href="#DejaVuSans-35"/><use x="127.246" xlink:href="#DejaVuSans-30"/><use x="190.869" xlink:href="#DejaVuSans-30"/><use x="254.492" xlink:href="#DejaVuSans-30"/></g></g><g id="ytick_9"><use x="90" xlink:href="#m728421d6d4" y="42.153" stroke="#000" stroke-width=".5" id="line2d_33"/><use x="648" xlink:href="#mcb0005524f" y="42.153" stroke="#000" stroke-width=".5" id="line2d_34"/><g transform="matrix(.1 0 0 -.1 55.34 44.912)" id="text_18"><use xlink:href="#DejaVuSans-34"/><use x="63.623" xlink:href="#DejaVuSans-30"/><use x="127.246" xlink:href="#DejaVuSans-30"/><use x="190.869" xlink:href="#DejaVuSans-30"/><use x="254.492" xlink:href="#DejaVuSans-30"/></g></g><g id="text_19"><defs><path d="M41.11 46.297q-1.516.875-3.297 1.281Q36.03 48 33.89 48q-7.625 0-11.703-4.953-4.079-4.953-4.079-14.234V0H9.08v54.688h9.03v-8.5q2.844 4.984 7.375 7.39Q30.031 56 36.531 56q.922 0 2.047-.125 1.125-.11 2.484-.36z" id="DejaVuSans-72"/><path d="M9.078 75.984h9.031V31.11l26.813 23.578H56.39l-29-25.578L57.625 0H45.906L18.11 26.703V0H9.08z" id="DejaVuSans-6b"/><path d="M45.406 27.984q0 9.766-4.031 15.125-4.016 5.375-11.297 5.375-7.219 0-11.25-5.375-4.031-5.359-4.031-15.125 0-9.718 4.031-15.093t11.25-5.375q7.281 0 11.297 5.375 4.031 5.375 4.031 15.093m8.985-21.203q0-13.953-6.203-20.765Q42-20.797 29.203-20.797q-4.734 0-8.937.703-4.203.703-8.157 2.172v8.735q3.954-2.141 7.813-3.157 3.86-1.031 7.86-1.031 8.843 0 13.234 4.61 4.39 4.609 4.39 13.937v4.453q-2.781-4.844-7.125-7.234Q33.938 0 27.875 0 17.828 0 11.672 7.656q-6.156 7.672-6.156 20.328 0 12.688 6.156 20.344Q17.828 56 27.875 56q6.063 0 10.406-2.39 4.344-2.391 7.125-7.22v8.297h8.985z" id="DejaVuSans-67"/><path d="M4.203 54.688h8.985l11.234-42.672 11.172 42.672h10.593l11.235-42.672 11.187 42.672h8.985L63.28 0H52.688L40.922 44.828 29.109 0H18.5z" id="DejaVuSans-77"/><path d="M19.672 64.797v-27.39h12.406q6.89 0 10.64 3.562 3.766 3.562 3.766 10.156 0 6.547-3.765 10.11-3.75 3.562-10.64 3.562zm-9.86 8.11h22.266q12.266 0 18.531-5.548 6.282-5.546 6.282-16.234 0-10.797-6.282-16.313-6.265-5.515-18.53-5.515H19.671V0h-9.86z" id="DejaVuSans-50"/><path d="M18.11 8.203v-29H9.077v75.484h9.031v-8.296q2.844 4.875 7.157 7.234Q29.594 56 35.594 56q9.968 0 16.187-7.906 6.235-7.907 6.235-20.797T51.78 6.484q-6.218-7.906-16.187-7.906-6 0-10.328 2.375-4.313 2.375-7.157 7.25m30.578 19.094q0 9.906-4.078 15.547-4.078 5.64-11.203 5.64-7.14 0-11.218-5.64-4.079-5.64-4.079-15.547 0-9.906 4.078-15.547 4.079-5.64 11.22-5.64 7.124 0 11.202 5.64t4.078 15.547" id="DejaVuSans-70"/><path d="M44.281 53.078v-8.5q-3.797 1.953-7.906 2.922-4.094.984-8.5.984-6.688 0-10.031-2.047-3.344-2.046-3.344-6.156 0-3.125 2.39-4.906 2.391-1.781 9.626-3.39l3.078-.688q9.562-2.047 13.593-5.781 4.032-3.735 4.032-10.422 0-7.625-6.032-12.078-6.03-4.438-16.578-4.438-4.39 0-9.156.86Q10.688.296 5.422 2v9.281q4.984-2.594 9.812-3.89 4.829-1.282 9.579-1.282 6.343 0 9.75 2.172 3.421 2.172 3.421 6.125 0 3.656-2.468 5.61-2.453 1.953-10.813 3.765l-3.125.735q-8.344 1.75-12.062 5.39-3.704 3.64-3.704 9.985 0 7.718 5.47 11.906Q16.75 56 26.811 56q4.97 0 9.36-.734 4.406-.72 8.11-2.188" id="DejaVuSans-73"/><path d="M34.281 27.484q-10.89 0-15.093-2.484-4.204-2.484-4.204-8.5 0-4.781 3.157-7.594 3.156-2.797 8.562-2.797 7.485 0 12 5.297 4.516 5.297 4.516 14.078v2zm17.922 3.72V0H43.22v8.297Q40.14 3.328 35.547.953q-4.594-2.375-11.234-2.375-8.391 0-13.36 4.719Q6 8.016 6 15.922q0 9.219 6.172 13.906 6.187 4.688 18.437 4.688h12.61v.89q0 6.203-4.078 9.594-4.078 3.39-11.453 3.39-4.688 0-9.141-1.124-4.438-1.125-8.531-3.375v8.312q4.921 1.906 9.562 2.844 4.64.953 9.031.953 11.875 0 17.735-6.156 5.86-6.14 5.86-18.64" id="DejaVuSans-61"/></defs><g transform="matrix(0 -.1 -.1 0 48.26 214.817)"><use xlink:href="#DejaVuSans-50"/><use x="55.803" xlink:href="#DejaVuSans-61"/><use x="117.082" xlink:href="#DejaVuSans-67"/><use x="180.559" xlink:href="#DejaVuSans-65"/><use x="242.082" xlink:href="#DejaVuSans-73"/><use x="294.182" xlink:href="#DejaVuSans-20"/><use x="325.969" xlink:href="#DejaVuSans-70"/><use x="389.445" xlink:href="#DejaVuSans-65"/><use x="450.969" xlink:href="#DejaVuSans-72"/><use x="492.082" xlink:href="#DejaVuSans-20"/><use x="523.869" xlink:href="#DejaVuSans-77"/><use x="605.656" xlink:href="#DejaVuSans-65"/><use x="667.18" xlink:href="#DejaVuSans-65"/><use x="728.703" xlink:href="#DejaVuSans-6b"/></g></g></g><g id="text_20"><defs><path d="M18.313 70.219V54.688h18.5v-6.985h-18.5V18.016q0-6.688 1.828-8.594 1.828-1.906 7.453-1.906h9.218V0h-9.218q-10.407 0-14.36 3.875-3.953 3.89-3.953 14.14v29.688H2.687v6.984h6.594V70.22z" id="DejaVuSans-74"/><path d="M45.406 46.39v29.594h8.985V0h-8.985v8.203Q42.578 3.328 38.25.953q-4.313-2.375-10.375-2.375-9.906 0-16.14 7.906-6.22 7.922-6.22 20.813 0 12.89 6.22 20.797Q17.968 56 27.874 56q6.063 0 10.375-2.375 4.328-2.36 7.156-7.234m-30.61-19.094q0-9.906 4.079-15.547 4.078-5.64 11.203-5.64 7.125 0 11.219 5.64 4.11 5.64 4.11 15.547 0 9.906-4.11 15.547-4.094 5.64-11.219 5.64-7.125 0-11.203-5.64-4.078-5.64-4.078-15.547" id="DejaVuSans-64"/><path d="M54.89 33.016V0h-8.984v32.719q0 7.765-3.031 11.61-3.031 3.858-9.078 3.858-7.281 0-11.484-4.64-4.204-4.625-4.204-12.64V0H9.08v54.688h9.03v-8.5q3.235 4.937 7.594 7.374Q30.078 56 35.797 56q9.422 0 14.25-5.828 4.844-5.828 4.844-17.156" id="DejaVuSans-6e"/></defs><g transform="matrix(.12 0 0 -.12 298.314 31)"><use xlink:href="#DejaVuSans-50"/><use x="55.803" xlink:href="#DejaVuSans-61"/><use x="117.082" xlink:href="#DejaVuSans-67"/><use x="180.559" xlink:href="#DejaVuSans-65"/><use x="242.082" xlink:href="#DejaVuSans-73"/><use x="294.182" xlink:href="#DejaVuSans-20"/><use x="325.969" xlink:href="#DejaVuSans-70"/><use x="389.445" xlink:href="#DejaVuSans-72"/><use x="430.559" xlink:href="#DejaVuSans-69"/><use x="458.342" xlink:href="#DejaVuSans-6e"/><use x="521.721" xlink:href="#DejaVuSans-74"/><use x="560.93" xlink:href="#DejaVuSans-65"/><use x="622.453" xlink:href="#DejaVuSans-64"/><use x="685.93" xlink:href="#DejaVuSans-20"/><use x="717.717" xlink:href="#DejaVuSans-70"/><use x="781.193" xlink:href="#DejaVuSans-65"/><use x="842.717" xlink:href="#DejaVuSans-72"/><use x="883.83" xlink:href="#DejaVuSans-20"/><use x="915.617" xlink:href="#DejaVuSans-77"/><use x="997.404" xlink:href="#DejaVuSans-65"/><use x="1058.928" xlink:href="#DejaVuSans-65"/><use x="1120.451" xlink:href="#DejaVuSans-6b"/></g></g></g></g><defs><clipPath id="p7a9eb3f0f5"><path d="M90 36h558v279H90z"/></clipPath></defs></svg>
