<?xml version="1.0" encoding="utf-8" standalone="no"?>
<!DOCTYPE svg PUBLIC "-//W3C//DTD SVG 1.1//EN"
  "http://www.w3.org/Graphics/SVG/1.1/DTD/svg11.dtd">
<!-- Created with matplotlib (http://matplotlib.org/) -->
<svg height="360pt" version="1.1" viewBox="0 0 720 360" width="720pt" xmlns="http://www.w3.org/2000/svg" xmlns:xlink="http://www.w3.org/1999/xlink">
 <defs>
  <style type="text/css">
*{stroke-linecap:butt;stroke-linejoin:round;}
  </style>
 </defs>
 <g id="figure_1">
  <g id="patch_1">
   <path d="
M0 360
L720 360
L720 0
L0 0
z
" style="fill:#ffffff;"/>
  </g>
  <g id="axes_1">
   <g id="patch_2">
    <path d="
M90 315
L648 315
L648 36
L90 36
z
" style="fill:#ffffff;"/>
   </g>
   <g id="PolyCollection_1">
    <defs>
     <path d="
M90 -45
L90 -120.067
L91.2428 -112.584
L92.4855 -107.045
L93.7283 -114.085
L94.971 -116.22
L96.2138 -113.867
L97.4566 -108.178
L98.6993 -106.841
L99.9421 -125.626
L101.185 -129.364
L102.428 -130.851
L103.67 -133.13
L104.913 -133.744
L106.156 -139.76
L107.399 -137.202
L108.641 -135.524
L109.884 -137.318
L111.127 -139.33
L112.37 -135.278
L113.612 -137.707
L114.855 -145.981
L116.098 -143.641
L117.341 -143.934
L118.584 -154.412
L119.826 -152.372
L121.069 -151.499
L122.312 -149.657
L123.555 -141.963
L124.797 -140.776
L126.04 -123.375
L127.283 -115.961
L128.526 -122.625
L129.768 -126.752
L131.011 -129.207
L132.254 -133.86
L133.497 -142.836
L134.739 -160.83
L135.982 -158.716
L137.225 -152.106
L138.468 -148.546
L139.71 -145.08
L140.953 -142.304
L142.196 -136.581
L143.439 -133.068
L144.682 -132.598
L145.924 -132.557
L147.167 -129.665
L148.41 -132.693
L149.653 -132.495
L150.895 -132.557
L152.138 -133.198
L153.381 -133.58
L154.624 -132.318
L155.866 -132.823
L157.109 -131.138
L158.352 -134.317
L159.595 -133.471
L160.837 -133.832
L162.08 -132.229
L163.323 -132.741
L164.566 -134.153
L165.808 -127.4
L167.051 -115.893
L168.294 -109.29
L169.537 -108.198
L170.78 -119.999
L172.022 -129.569
L173.265 -132.877
L174.508 -131.52
L175.751 -131.765
L176.993 -134.719
L178.236 -137.386
L179.479 -131.568
L180.722 -130.217
L181.964 -137.277
L183.207 -143.423
L184.45 -149.732
L185.693 -151.52
L186.935 -150.926
L188.178 -150.019
L189.421 -145.899
L190.664 -141.492
L191.906 -140.285
L193.149 -138.041
L194.392 -137.488
L195.635 -138.989
L196.878 -137.877
L198.12 -139.31
L199.363 -142.154
L200.606 -142.106
L201.849 -144.664
L203.091 -146.076
L204.334 -148.327
L205.577 -149.562
L206.82 -150.947
L208.062 -145.203
L209.305 -139.876
L210.548 -136.472
L211.791 -134.139
L213.033 -136.677
L214.276 -148.566
L215.519 -155.694
L216.762 -160.217
L218.004 -159.343
L219.247 -155.094
L220.49 -148.962
L221.733 -135.36
L222.976 -118.369
L224.218 -114.242
L225.461 -127.502
L226.704 -133.048
L227.947 -142.229
L229.189 -151.049
L230.432 -173.477
L231.675 -176.976
L232.918 -176.171
L234.16 -176.41
L235.403 -176.942
L236.646 -173.941
L237.889 -174.33
L239.131 -175.939
L240.374 -174.5
L241.617 -179.2
L242.86 -180.319
L244.102 -186.437
L245.345 -188.838
L246.588 -188.102
L247.831 -187.57
L249.073 -188.156
L250.316 -184.043
L251.559 -184.35
L252.802 -182.413
L254.045 -184.063
L255.287 -182.631
L256.53 -183.395
L257.773 -184.227
L259.016 -182.57
L260.258 -178.279
L261.501 -175.019
L262.744 -170.837
L263.987 -167.863
L265.229 -169.93
L266.472 -170.073
L267.715 -172.12
L268.958 -175.039
L270.2 -173.034
L271.443 -173.9
L272.686 -177.079
L273.929 -178.852
L275.171 -180.878
L276.414 -182.706
L277.657 -183.102
L278.9 -183.088
L280.143 -182.317
L281.385 -180.169
L282.628 -178.845
L283.871 -176.976
L285.114 -174.364
L286.356 -176.219
L287.599 -181.349
L288.842 -184.896
L290.085 -187.617
L291.327 -184.514
L292.57 -184.193
L293.813 -184.091
L295.056 -180.844
L296.298 -174.643
L297.541 -172.399
L298.784 -170.946
L300.027 -168.811
L301.269 -169.643
L302.512 -168.184
L303.755 -166.185
L304.998 -167.515
L306.241 -164.378
L307.483 -162.706
L308.726 -160.38
L309.969 -134.296
L311.212 -137.236
L312.454 -138.812
L313.697 -135.892
L314.94 -140.688
L316.183 -138.075
L317.425 -142.904
L318.668 -165.967
L319.911 -161.356
L321.154 -162.747
L322.396 -164.139
L323.639 -157.243
L324.882 -158.88
L326.125 -155.762
L327.367 -155.435
L328.61 -141.874
L329.853 -120.947
L331.096 -107.257
L332.339 -124.098
L333.581 -144.623
L334.824 -161.99
L336.067 -168.429
L337.31 -169.384
L338.552 -158.9
L339.795 -152.925
L341.038 -147.4
L342.281 -136.547
L343.523 -135.66
L344.766 -142.707
L346.009 -156.076
L347.252 -157.57
L348.494 -146.315
L349.737 -137.604
L350.98 -132.714
L352.223 -117.714
L353.465 -123.71
L354.708 -146.997
L355.951 -163.839
L357.194 -180.591
L358.437 -213.449
L359.679 -224.438
L360.922 -231.286
L362.165 -236.389
L363.408 -236.191
L364.65 -235.495
L365.893 -237.432
L367.136 -235.713
L368.379 -234.274
L369.621 -226.3
L370.864 -222.296
L372.107 -214.643
L373.35 -218.033
L374.592 -212.944
L375.835 -208.92
L377.078 -209.049
L378.321 -209.697
L379.563 -207.788
L380.806 -212.453
L382.049 -198.265
L383.292 -194.247
L384.535 -167.188
L385.777 -166.328
L387.02 -170.987
L388.263 -176.205
L389.506 -180.094
L390.748 -187.651
L391.991 -194.404
L393.234 -223.115
L394.477 -219.097
L395.719 -208.163
L396.962 -202.597
L398.205 -197.992
L399.448 -201.157
L400.69 -199.93
L401.933 -195.516
L403.176 -193.79
L404.419 -195.516
L405.661 -191.983
L406.904 -193.115
L408.147 -189.493
L409.39 -189.411
L410.633 -190.516
L411.875 -194.95
L413.118 -198.347
L414.361 -204.404
L415.604 -202.904
L416.846 -202.992
L418.089 -200.605
L419.332 -200.264
L420.575 -198.674
L421.817 -198.975
L423.06 -194.636
L424.303 -178.04
L425.546 -165.503
L426.788 -152.863
L428.031 -127.659
L429.274 -125.736
L430.517 -148.914
L431.759 -168.566
L433.002 -180.544
L434.245 -190.619
L435.488 -187.883
L436.731 -192.106
L437.973 -191.096
L439.216 -192.788
L440.459 -191.799
L441.702 -189.138
L442.944 -189.043
L444.187 -191.717
L445.43 -184.486
L446.673 -183.511
L447.915 -182.863
L449.158 -182.576
L450.401 -179.752
L451.644 -179.664
L452.886 -176.888
L454.129 -177.461
L455.372 -179.5
L456.615 -178.525
L457.857 -177.447
L459.1 -179.971
L460.343 -178.184
L461.586 -179.179
L462.829 -183.477
L464.071 -187.024
L465.314 -188.484
L466.557 -190.946
L467.8 -190.421
L469.042 -196.226
L470.285 -185.168
L471.528 -174.548
L472.771 -166.492
L474.013 -158.982
L475.256 -160.871
L476.499 -169.603
L477.742 -169.159
L478.984 -172.201
L480.227 -167.195
L481.47 -162.208
L482.713 -157.843
L483.955 -140.374
L485.198 -123.15
L486.441 -109.562
L487.684 -110.64
L488.927 -122.83
L490.169 -140.237
L491.412 -169.541
L492.655 -201.594
L493.898 -210.059
L495.14 -216.648
L496.383 -222.439
L497.626 -221.866
L498.869 -217.276
L500.111 -188.122
L501.354 -194.002
L502.597 -200.618
L503.84 -200.516
L505.082 -198.136
L506.325 -208.224
L507.568 -214.643
L508.811 -250.052
L510.053 -251.088
L511.296 -250.618
L512.539 -251.873
L513.782 -252.309
L515.024 -230.604
L516.267 -231.102
L517.51 -228.012
L518.753 -223.019
L519.996 -222.46
L521.238 -219.997
L522.481 -218.899
L523.724 -235.413
L524.967 -232.269
L526.209 -237.296
L527.452 -234.035
L528.695 -230.843
L529.938 -228.101
L531.18 -226
L532.423 -221.628
L533.666 -222.719
L534.909 -221.034
L536.151 -225.87
L537.394 -227.685
L538.637 -225.884
L539.88 -228.067
L541.122 -228.387
L542.365 -224.076
L543.608 -223.026
L544.851 -222.74
L546.094 -226.205
L547.336 -230.986
L548.579 -228.319
L549.822 -227.712
L551.065 -227.821
L552.307 -230.147
L553.55 -226.293
L554.793 -224.227
L556.036 -219.138
L557.278 -216.034
L558.521 -218.094
L559.764 -219.384
L561.007 -215.086
L562.249 -215.441
L563.492 -212.787
L564.735 -216.109
L565.978 -221.041
L567.22 -215.202
L568.463 -213.94
L569.706 -213.797
L570.949 -215.277
L572.192 -215.359
L573.434 -212.501
L574.677 -208.654
L575.92 -210.243
L577.163 -212.569
L578.405 -205.796
L579.648 -198.286
L580.891 -167.829
L582.134 -163.859
L583.376 -144.671
L584.619 -135.101
L585.862 -119.344
L587.105 -122.441
L588.347 -126.506
L589.59 -157.529
L590.833 -167.672
L592.076 -186.492
L593.318 -197.494
L594.561 -209.657
L595.804 -211.082
L597.047 -200.223
L598.29 -169.193
L599.532 -136.615
L600.775 -117.796
L602.018 -106.698
L603.261 -108.73
L604.503 -131.39
L605.746 -168.47
L606.989 -197.794
L608.232 -223.49
L609.474 -234.533
L610.717 -247.241
L611.96 -234.977
L613.203 -218.613
L614.445 -213.995
L615.688 -212.126
L616.931 -210.516
L618.174 -225.147
L619.416 -237.91
L620.659 -236.13
L621.902 -235.557
L623.145 -224.261
L624.388 -208.422
L625.63 -191.771
L626.873 -166.11
L628.116 -140.278
L629.359 -110.02
L630.601 -108.601
L631.844 -130.94
L633.087 -177.918
L634.33 -218.558
L635.572 -239.206
L636.815 -271.122
L638.058 -320.098
L639.301 -300.583
L640.543 -324
L641.786 -317.956
L643.029 -311.804
L644.272 -312.725
L645.514 -303.434
L646.757 -306.586
L648 -305.242
L648 -45
L648 -45
L646.757 -45
L645.514 -45
L644.272 -45
L643.029 -45
L641.786 -45
L640.543 -45
L639.301 -45
L638.058 -45
L636.815 -45
L635.572 -45
L634.33 -45
L633.087 -45
L631.844 -45
L630.601 -45
L629.359 -45
L628.116 -45
L626.873 -45
L625.63 -45
L624.388 -45
L623.145 -45
L621.902 -45
L620.659 -45
L619.416 -45
L618.174 -45
L616.931 -45
L615.688 -45
L614.445 -45
L613.203 -45
L611.96 -45
L610.717 -45
L609.474 -45
L608.232 -45
L606.989 -45
L605.746 -45
L604.503 -45
L603.261 -45
L602.018 -45
L600.775 -45
L599.532 -45
L598.29 -45
L597.047 -45
L595.804 -45
L594.561 -45
L593.318 -45
L592.076 -45
L590.833 -45
L589.59 -45
L588.347 -45
L587.105 -45
L585.862 -45
L584.619 -45
L583.376 -45
L582.134 -45
L580.891 -45
L579.648 -45
L578.405 -45
L577.163 -45
L575.92 -45
L574.677 -45
L573.434 -45
L572.192 -45
L570.949 -45
L569.706 -45
L568.463 -45
L567.22 -45
L565.978 -45
L564.735 -45
L563.492 -45
L562.249 -45
L561.007 -45
L559.764 -45
L558.521 -45
L557.278 -45
L556.036 -45
L554.793 -45
L553.55 -45
L552.307 -45
L551.065 -45
L549.822 -45
L548.579 -45
L547.336 -45
L546.094 -45
L544.851 -45
L543.608 -45
L542.365 -45
L541.122 -45
L539.88 -45
L538.637 -45
L537.394 -45
L536.151 -45
L534.909 -45
L533.666 -45
L532.423 -45
L531.18 -45
L529.938 -45
L528.695 -45
L527.452 -45
L526.209 -45
L524.967 -45
L523.724 -45
L522.481 -45
L521.238 -45
L519.996 -45
L518.753 -45
L517.51 -45
L516.267 -45
L515.024 -45
L513.782 -45
L512.539 -45
L511.296 -45
L510.053 -45
L508.811 -45
L507.568 -45
L506.325 -45
L505.082 -45
L503.84 -45
L502.597 -45
L501.354 -45
L500.111 -45
L498.869 -45
L497.626 -45
L496.383 -45
L495.14 -45
L493.898 -45
L492.655 -45
L491.412 -45
L490.169 -45
L488.927 -45
L487.684 -45
L486.441 -45
L485.198 -45
L483.955 -45
L482.713 -45
L481.47 -45
L480.227 -45
L478.984 -45
L477.742 -45
L476.499 -45
L475.256 -45
L474.013 -45
L472.771 -45
L471.528 -45
L470.285 -45
L469.042 -45
L467.8 -45
L466.557 -45
L465.314 -45
L464.071 -45
L462.829 -45
L461.586 -45
L460.343 -45
L459.1 -45
L457.857 -45
L456.615 -45
L455.372 -45
L454.129 -45
L452.886 -45
L451.644 -45
L450.401 -45
L449.158 -45
L447.915 -45
L446.673 -45
L445.43 -45
L444.187 -45
L442.944 -45
L441.702 -45
L440.459 -45
L439.216 -45
L437.973 -45
L436.731 -45
L435.488 -45
L434.245 -45
L433.002 -45
L431.759 -45
L430.517 -45
L429.274 -45
L428.031 -45
L426.788 -45
L425.546 -45
L424.303 -45
L423.06 -45
L421.817 -45
L420.575 -45
L419.332 -45
L418.089 -45
L416.846 -45
L415.604 -45
L414.361 -45
L413.118 -45
L411.875 -45
L410.633 -45
L409.39 -45
L408.147 -45
L406.904 -45
L405.661 -45
L404.419 -45
L403.176 -45
L401.933 -45
L400.69 -45
L399.448 -45
L398.205 -45
L396.962 -45
L395.719 -45
L394.477 -45
L393.234 -45
L391.991 -45
L390.748 -45
L389.506 -45
L388.263 -45
L387.02 -45
L385.777 -45
L384.535 -45
L383.292 -45
L382.049 -45
L380.806 -45
L379.563 -45
L378.321 -45
L377.078 -45
L375.835 -45
L374.592 -45
L373.35 -45
L372.107 -45
L370.864 -45
L369.621 -45
L368.379 -45
L367.136 -45
L365.893 -45
L364.65 -45
L363.408 -45
L362.165 -45
L360.922 -45
L359.679 -45
L358.437 -45
L357.194 -45
L355.951 -45
L354.708 -45
L353.465 -45
L352.223 -45
L350.98 -45
L349.737 -45
L348.494 -45
L347.252 -45
L346.009 -45
L344.766 -45
L343.523 -45
L342.281 -45
L341.038 -45
L339.795 -45
L338.552 -45
L337.31 -45
L336.067 -45
L334.824 -45
L333.581 -45
L332.339 -45
L331.096 -45
L329.853 -45
L328.61 -45
L327.367 -45
L326.125 -45
L324.882 -45
L323.639 -45
L322.396 -45
L321.154 -45
L319.911 -45
L318.668 -45
L317.425 -45
L316.183 -45
L314.94 -45
L313.697 -45
L312.454 -45
L311.212 -45
L309.969 -45
L308.726 -45
L307.483 -45
L306.241 -45
L304.998 -45
L303.755 -45
L302.512 -45
L301.269 -45
L300.027 -45
L298.784 -45
L297.541 -45
L296.298 -45
L295.056 -45
L293.813 -45
L292.57 -45
L291.327 -45
L290.085 -45
L288.842 -45
L287.599 -45
L286.356 -45
L285.114 -45
L283.871 -45
L282.628 -45
L281.385 -45
L280.143 -45
L278.9 -45
L277.657 -45
L276.414 -45
L275.171 -45
L273.929 -45
L272.686 -45
L271.443 -45
L270.2 -45
L268.958 -45
L267.715 -45
L266.472 -45
L265.229 -45
L263.987 -45
L262.744 -45
L261.501 -45
L260.258 -45
L259.016 -45
L257.773 -45
L256.53 -45
L255.287 -45
L254.045 -45
L252.802 -45
L251.559 -45
L250.316 -45
L249.073 -45
L247.831 -45
L246.588 -45
L245.345 -45
L244.102 -45
L242.86 -45
L241.617 -45
L240.374 -45
L239.131 -45
L237.889 -45
L236.646 -45
L235.403 -45
L234.16 -45
L232.918 -45
L231.675 -45
L230.432 -45
L229.189 -45
L227.947 -45
L226.704 -45
L225.461 -45
L224.218 -45
L222.976 -45
L221.733 -45
L220.49 -45
L219.247 -45
L218.004 -45
L216.762 -45
L215.519 -45
L214.276 -45
L213.033 -45
L211.791 -45
L210.548 -45
L209.305 -45
L208.062 -45
L206.82 -45
L205.577 -45
L204.334 -45
L203.091 -45
L201.849 -45
L200.606 -45
L199.363 -45
L198.12 -45
L196.878 -45
L195.635 -45
L194.392 -45
L193.149 -45
L191.906 -45
L190.664 -45
L189.421 -45
L188.178 -45
L186.935 -45
L185.693 -45
L184.45 -45
L183.207 -45
L181.964 -45
L180.722 -45
L179.479 -45
L178.236 -45
L176.993 -45
L175.751 -45
L174.508 -45
L173.265 -45
L172.022 -45
L170.78 -45
L169.537 -45
L168.294 -45
L167.051 -45
L165.808 -45
L164.566 -45
L163.323 -45
L162.08 -45
L160.837 -45
L159.595 -45
L158.352 -45
L157.109 -45
L155.866 -45
L154.624 -45
L153.381 -45
L152.138 -45
L150.895 -45
L149.653 -45
L148.41 -45
L147.167 -45
L145.924 -45
L144.682 -45
L143.439 -45
L142.196 -45
L140.953 -45
L139.71 -45
L138.468 -45
L137.225 -45
L135.982 -45
L134.739 -45
L133.497 -45
L132.254 -45
L131.011 -45
L129.768 -45
L128.526 -45
L127.283 -45
L126.04 -45
L124.797 -45
L123.555 -45
L122.312 -45
L121.069 -45
L119.826 -45
L118.584 -45
L117.341 -45
L116.098 -45
L114.855 -45
L113.612 -45
L112.37 -45
L111.127 -45
L109.884 -45
L108.641 -45
L107.399 -45
L106.156 -45
L104.913 -45
L103.67 -45
L102.428 -45
L101.185 -45
L99.9421 -45
L98.6993 -45
L97.4566 -45
L96.2138 -45
L94.971 -45
L93.7283 -45
L92.4855 -45
L91.2428 -45
L90 -45
z
" id="mef58f20ae6" style="stroke:#000000;stroke-opacity:0.6;"/>
    </defs>
    <g clip-path="url(#p7a9eb3f0f5)">
     <use style="fill:#0000ff;fill-opacity:0.6;stroke:#000000;stroke-opacity:0.6;" x="0.0" xlink:href="#mef58f20ae6" y="360.0"/>
    </g>
   </g>
   <g id="patch_3">
    <path d="
M90 36
L648 36" style="fill:none;stroke:#000000;stroke-linecap:square;stroke-linejoin:miter;"/>
   </g>
   <g id="patch_4">
    <path d="
M648 315
L648 36" style="fill:none;stroke:#000000;stroke-linecap:square;stroke-linejoin:miter;"/>
   </g>
   <g id="patch_5">
    <path d="
M90 315
L648 315" style="fill:none;stroke:#000000;stroke-linecap:square;stroke-linejoin:miter;"/>
   </g>
   <g id="patch_6">
    <path d="
M90 315
L90 36" style="fill:none;stroke:#000000;stroke-linecap:square;stroke-linejoin:miter;"/>
   </g>
   <g id="matplotlib.axis_1">
    <g id="xtick_1">
     <g id="line2d_1">
      <defs>
       <path d="
M0 0
L0 -4" id="m93b0483c22" style="stroke:#000000;stroke-width:0.5;"/>
      </defs>
      <g>
       <use style="stroke:#000000;stroke-width:0.5;" x="90.0" xlink:href="#m93b0483c22" y="315.0"/>
      </g>
     </g>
     <g id="line2d_2">
      <defs>
       <path d="
M0 0
L0 4" id="m741efc42ff" style="stroke:#000000;stroke-width:0.5;"/>
      </defs>
      <g>
       <use style="stroke:#000000;stroke-width:0.5;" x="90.0" xlink:href="#m741efc42ff" y="36.0"/>
      </g>
     </g>
     <g id="text_1">
      <!-- 2013-12-05 -->
      <defs>
       <path d="
M4.89062 31.3906
L31.2031 31.3906
L31.2031 23.3906
L4.89062 23.3906
z
" id="DejaVuSans-2d"/>
       <path d="
M12.4062 8.29688
L28.5156 8.29688
L28.5156 63.9219
L10.9844 60.4062
L10.9844 69.3906
L28.4219 72.9062
L38.2812 72.9062
L38.2812 8.29688
L54.3906 8.29688
L54.3906 0
L12.4062 0
z
" id="DejaVuSans-31"/>
       <path d="
M31.7812 66.4062
Q24.1719 66.4062 20.3281 58.9062
Q16.5 51.4219 16.5 36.375
Q16.5 21.3906 20.3281 13.8906
Q24.1719 6.39062 31.7812 6.39062
Q39.4531 6.39062 43.2812 13.8906
Q47.125 21.3906 47.125 36.375
Q47.125 51.4219 43.2812 58.9062
Q39.4531 66.4062 31.7812 66.4062
M31.7812 74.2188
Q44.0469 74.2188 50.5156 64.5156
Q56.9844 54.8281 56.9844 36.375
Q56.9844 17.9688 50.5156 8.26562
Q44.0469 -1.42188 31.7812 -1.42188
Q19.5312 -1.42188 13.0625 8.26562
Q6.59375 17.9688 6.59375 36.375
Q6.59375 54.8281 13.0625 64.5156
Q19.5312 74.2188 31.7812 74.2188" id="DejaVuSans-30"/>
       <path d="
M40.5781 39.3125
Q47.6562 37.7969 51.625 33
Q55.6094 28.2188 55.6094 21.1875
Q55.6094 10.4062 48.1875 4.48438
Q40.7656 -1.42188 27.0938 -1.42188
Q22.5156 -1.42188 17.6562 -0.515625
Q12.7969 0.390625 7.625 2.20312
L7.625 11.7188
Q11.7188 9.32812 16.5938 8.10938
Q21.4844 6.89062 26.8125 6.89062
Q36.0781 6.89062 40.9375 10.5469
Q45.7969 14.2031 45.7969 21.1875
Q45.7969 27.6406 41.2812 31.2656
Q36.7656 34.9062 28.7188 34.9062
L20.2188 34.9062
L20.2188 43.0156
L29.1094 43.0156
Q36.375 43.0156 40.2344 45.9219
Q44.0938 48.8281 44.0938 54.2969
Q44.0938 59.9062 40.1094 62.9062
Q36.1406 65.9219 28.7188 65.9219
Q24.6562 65.9219 20.0156 65.0312
Q15.375 64.1562 9.8125 62.3125
L9.8125 71.0938
Q15.4375 72.6562 20.3438 73.4375
Q25.25 74.2188 29.5938 74.2188
Q40.8281 74.2188 47.3594 69.1094
Q53.9062 64.0156 53.9062 55.3281
Q53.9062 49.2656 50.4375 45.0938
Q46.9688 40.9219 40.5781 39.3125" id="DejaVuSans-33"/>
       <path d="
M19.1875 8.29688
L53.6094 8.29688
L53.6094 0
L7.32812 0
L7.32812 8.29688
Q12.9375 14.1094 22.625 23.8906
Q32.3281 33.6875 34.8125 36.5312
Q39.5469 41.8438 41.4219 45.5312
Q43.3125 49.2188 43.3125 52.7812
Q43.3125 58.5938 39.2344 62.25
Q35.1562 65.9219 28.6094 65.9219
Q23.9688 65.9219 18.8125 64.3125
Q13.6719 62.7031 7.8125 59.4219
L7.8125 69.3906
Q13.7656 71.7812 18.9375 73
Q24.125 74.2188 28.4219 74.2188
Q39.75 74.2188 46.4844 68.5469
Q53.2188 62.8906 53.2188 53.4219
Q53.2188 48.9219 51.5312 44.8906
Q49.8594 40.875 45.4062 35.4062
Q44.1875 33.9844 37.6406 27.2188
Q31.1094 20.4531 19.1875 8.29688" id="DejaVuSans-32"/>
       <path d="
M10.7969 72.9062
L49.5156 72.9062
L49.5156 64.5938
L19.8281 64.5938
L19.8281 46.7344
Q21.9688 47.4688 24.1094 47.8281
Q26.2656 48.1875 28.4219 48.1875
Q40.625 48.1875 47.75 41.5
Q54.8906 34.8125 54.8906 23.3906
Q54.8906 11.625 47.5625 5.09375
Q40.2344 -1.42188 26.9062 -1.42188
Q22.3125 -1.42188 17.5469 -0.640625
Q12.7969 0.140625 7.71875 1.70312
L7.71875 11.625
Q12.1094 9.23438 16.7969 8.0625
Q21.4844 6.89062 26.7031 6.89062
Q35.1562 6.89062 40.0781 11.3281
Q45.0156 15.7656 45.0156 23.3906
Q45.0156 31 40.0781 35.4375
Q35.1562 39.8906 26.7031 39.8906
Q22.75 39.8906 18.8125 39.0156
Q14.8906 38.1406 10.7969 36.2812
z
" id="DejaVuSans-35"/>
      </defs>
      <g transform="translate(61.7453125 326.5984375)scale(0.1 -0.1)">
       <use xlink:href="#DejaVuSans-32"/>
       <use x="63.623046875" xlink:href="#DejaVuSans-30"/>
       <use x="127.24609375" xlink:href="#DejaVuSans-31"/>
       <use x="190.869140625" xlink:href="#DejaVuSans-33"/>
       <use x="254.4921875" xlink:href="#DejaVuSans-2d"/>
       <use x="290.576171875" xlink:href="#DejaVuSans-31"/>
       <use x="354.19921875" xlink:href="#DejaVuSans-32"/>
       <use x="417.822265625" xlink:href="#DejaVuSans-2d"/>
       <use x="453.90625" xlink:href="#DejaVuSans-30"/>
       <use x="517.529296875" xlink:href="#DejaVuSans-35"/>
      </g>
     </g>
    </g>
    <g id="xtick_2">
     <g id="line2d_3">
      <g>
       <use style="stroke:#000000;stroke-width:0.5;" x="169.53674833" xlink:href="#m93b0483c22" y="315.0"/>
      </g>
     </g>
     <g id="line2d_4">
      <g>
       <use style="stroke:#000000;stroke-width:0.5;" x="169.53674833" xlink:href="#m741efc42ff" y="36.0"/>
      </g>
     </g>
     <g id="text_2">
      <!-- 2014-04-01 -->
      <defs>
       <path d="
M37.7969 64.3125
L12.8906 25.3906
L37.7969 25.3906
z

M35.2031 72.9062
L47.6094 72.9062
L47.6094 25.3906
L58.0156 25.3906
L58.0156 17.1875
L47.6094 17.1875
L47.6094 0
L37.7969 0
L37.7969 17.1875
L4.89062 17.1875
L4.89062 26.7031
z
" id="DejaVuSans-34"/>
      </defs>
      <g transform="translate(141.30706083 326.5984375)scale(0.1 -0.1)">
       <use xlink:href="#DejaVuSans-32"/>
       <use x="63.623046875" xlink:href="#DejaVuSans-30"/>
       <use x="127.24609375" xlink:href="#DejaVuSans-31"/>
       <use x="190.869140625" xlink:href="#DejaVuSans-34"/>
       <use x="254.4921875" xlink:href="#DejaVuSans-2d"/>
       <use x="290.576171875" xlink:href="#DejaVuSans-30"/>
       <use x="354.19921875" xlink:href="#DejaVuSans-34"/>
       <use x="417.822265625" xlink:href="#DejaVuSans-2d"/>
       <use x="453.90625" xlink:href="#DejaVuSans-30"/>
       <use x="517.529296875" xlink:href="#DejaVuSans-31"/>
      </g>
     </g>
    </g>
    <g id="xtick_3">
     <g id="line2d_5">
      <g>
       <use style="stroke:#000000;stroke-width:0.5;" x="249.073496659" xlink:href="#m93b0483c22" y="315.0"/>
      </g>
     </g>
     <g id="line2d_6">
      <g>
       <use style="stroke:#000000;stroke-width:0.5;" x="249.073496659" xlink:href="#m741efc42ff" y="36.0"/>
      </g>
     </g>
     <g id="text_3">
      <!-- 2014-09-20 -->
      <defs>
       <path d="
M10.9844 1.51562
L10.9844 10.5
Q14.7031 8.73438 18.5 7.8125
Q22.3125 6.89062 25.9844 6.89062
Q35.75 6.89062 40.8906 13.4531
Q46.0469 20.0156 46.7812 33.4062
Q43.9531 29.2031 39.5938 26.9531
Q35.25 24.7031 29.9844 24.7031
Q19.0469 24.7031 12.6719 31.3125
Q6.29688 37.9375 6.29688 49.4219
Q6.29688 60.6406 12.9375 67.4219
Q19.5781 74.2188 30.6094 74.2188
Q43.2656 74.2188 49.9219 64.5156
Q56.5938 54.8281 56.5938 36.375
Q56.5938 19.1406 48.4062 8.85938
Q40.2344 -1.42188 26.4219 -1.42188
Q22.7031 -1.42188 18.8906 -0.6875
Q15.0938 0.046875 10.9844 1.51562
M30.6094 32.4219
Q37.25 32.4219 41.125 36.9531
Q45.0156 41.5 45.0156 49.4219
Q45.0156 57.2812 41.125 61.8438
Q37.25 66.4062 30.6094 66.4062
Q23.9688 66.4062 20.0938 61.8438
Q16.2188 57.2812 16.2188 49.4219
Q16.2188 41.5 20.0938 36.9531
Q23.9688 32.4219 30.6094 32.4219" id="DejaVuSans-39"/>
      </defs>
      <g transform="translate(220.714121659 326.5984375)scale(0.1 -0.1)">
       <use xlink:href="#DejaVuSans-32"/>
       <use x="63.623046875" xlink:href="#DejaVuSans-30"/>
       <use x="127.24609375" xlink:href="#DejaVuSans-31"/>
       <use x="190.869140625" xlink:href="#DejaVuSans-34"/>
       <use x="254.4921875" xlink:href="#DejaVuSans-2d"/>
       <use x="290.576171875" xlink:href="#DejaVuSans-30"/>
       <use x="354.19921875" xlink:href="#DejaVuSans-39"/>
       <use x="417.822265625" xlink:href="#DejaVuSans-2d"/>
       <use x="453.90625" xlink:href="#DejaVuSans-32"/>
       <use x="517.529296875" xlink:href="#DejaVuSans-30"/>
      </g>
     </g>
    </g>
    <g id="xtick_4">
     <g id="line2d_7">
      <g>
       <use style="stroke:#000000;stroke-width:0.5;" x="328.610244989" xlink:href="#m93b0483c22" y="315.0"/>
      </g>
     </g>
     <g id="line2d_8">
      <g>
       <use style="stroke:#000000;stroke-width:0.5;" x="328.610244989" xlink:href="#m741efc42ff" y="36.0"/>
      </g>
     </g>
     <g id="text_4">
      <!-- 2014-11-23 -->
      <g transform="translate(300.319619989 326.5984375)scale(0.1 -0.1)">
       <use xlink:href="#DejaVuSans-32"/>
       <use x="63.623046875" xlink:href="#DejaVuSans-30"/>
       <use x="127.24609375" xlink:href="#DejaVuSans-31"/>
       <use x="190.869140625" xlink:href="#DejaVuSans-34"/>
       <use x="254.4921875" xlink:href="#DejaVuSans-2d"/>
       <use x="290.576171875" xlink:href="#DejaVuSans-31"/>
       <use x="354.19921875" xlink:href="#DejaVuSans-31"/>
       <use x="417.822265625" xlink:href="#DejaVuSans-2d"/>
       <use x="453.90625" xlink:href="#DejaVuSans-32"/>
       <use x="517.529296875" xlink:href="#DejaVuSans-33"/>
      </g>
     </g>
    </g>
    <g id="xtick_5">
     <g id="line2d_9">
      <g>
       <use style="stroke:#000000;stroke-width:0.5;" x="408.146993318" xlink:href="#m93b0483c22" y="315.0"/>
      </g>
     </g>
     <g id="line2d_10">
      <g>
       <use style="stroke:#000000;stroke-width:0.5;" x="408.146993318" xlink:href="#m741efc42ff" y="36.0"/>
      </g>
     </g>
     <g id="text_5">
      <!-- 2015-03-04 -->
      <g transform="translate(379.736055818 326.5984375)scale(0.1 -0.1)">
       <use xlink:href="#DejaVuSans-32"/>
       <use x="63.623046875" xlink:href="#DejaVuSans-30"/>
       <use x="127.24609375" xlink:href="#DejaVuSans-31"/>
       <use x="190.869140625" xlink:href="#DejaVuSans-35"/>
       <use x="254.4921875" xlink:href="#DejaVuSans-2d"/>
       <use x="290.576171875" xlink:href="#DejaVuSans-30"/>
       <use x="354.19921875" xlink:href="#DejaVuSans-33"/>
       <use x="417.822265625" xlink:href="#DejaVuSans-2d"/>
       <use x="453.90625" xlink:href="#DejaVuSans-30"/>
       <use x="517.529296875" xlink:href="#DejaVuSans-34"/>
      </g>
     </g>
    </g>
    <g id="xtick_6">
     <g id="line2d_11">
      <g>
       <use style="stroke:#000000;stroke-width:0.5;" x="487.683741648" xlink:href="#m93b0483c22" y="315.0"/>
      </g>
     </g>
     <g id="line2d_12">
      <g>
       <use style="stroke:#000000;stroke-width:0.5;" x="487.683741648" xlink:href="#m741efc42ff" y="36.0"/>
      </g>
     </g>
     <g id="text_6">
      <!-- 2015-08-25 -->
      <defs>
       <path d="
M31.7812 34.625
Q24.75 34.625 20.7188 30.8594
Q16.7031 27.0938 16.7031 20.5156
Q16.7031 13.9219 20.7188 10.1562
Q24.75 6.39062 31.7812 6.39062
Q38.8125 6.39062 42.8594 10.1719
Q46.9219 13.9688 46.9219 20.5156
Q46.9219 27.0938 42.8906 30.8594
Q38.875 34.625 31.7812 34.625
M21.9219 38.8125
Q15.5781 40.375 12.0312 44.7188
Q8.5 49.0781 8.5 55.3281
Q8.5 64.0625 14.7188 69.1406
Q20.9531 74.2188 31.7812 74.2188
Q42.6719 74.2188 48.875 69.1406
Q55.0781 64.0625 55.0781 55.3281
Q55.0781 49.0781 51.5312 44.7188
Q48 40.375 41.7031 38.8125
Q48.8281 37.1562 52.7969 32.3125
Q56.7812 27.4844 56.7812 20.5156
Q56.7812 9.90625 50.3125 4.23438
Q43.8438 -1.42188 31.7812 -1.42188
Q19.7344 -1.42188 13.25 4.23438
Q6.78125 9.90625 6.78125 20.5156
Q6.78125 27.4844 10.7812 32.3125
Q14.7969 37.1562 21.9219 38.8125
M18.3125 54.3906
Q18.3125 48.7344 21.8438 45.5625
Q25.3906 42.3906 31.7812 42.3906
Q38.1406 42.3906 41.7188 45.5625
Q45.3125 48.7344 45.3125 54.3906
Q45.3125 60.0625 41.7188 63.2344
Q38.1406 66.4062 31.7812 66.4062
Q25.3906 66.4062 21.8438 63.2344
Q18.3125 60.0625 18.3125 54.3906" id="DejaVuSans-38"/>
      </defs>
      <g transform="translate(459.429054148 326.5984375)scale(0.1 -0.1)">
       <use xlink:href="#DejaVuSans-32"/>
       <use x="63.623046875" xlink:href="#DejaVuSans-30"/>
       <use x="127.24609375" xlink:href="#DejaVuSans-31"/>
       <use x="190.869140625" xlink:href="#DejaVuSans-35"/>
       <use x="254.4921875" xlink:href="#DejaVuSans-2d"/>
       <use x="290.576171875" xlink:href="#DejaVuSans-30"/>
       <use x="354.19921875" xlink:href="#DejaVuSans-38"/>
       <use x="417.822265625" xlink:href="#DejaVuSans-2d"/>
       <use x="453.90625" xlink:href="#DejaVuSans-32"/>
       <use x="517.529296875" xlink:href="#DejaVuSans-35"/>
      </g>
     </g>
    </g>
    <g id="xtick_7">
     <g id="line2d_13">
      <g>
       <use style="stroke:#000000;stroke-width:0.5;" x="567.220489978" xlink:href="#m93b0483c22" y="315.0"/>
      </g>
     </g>
     <g id="line2d_14">
      <g>
       <use style="stroke:#000000;stroke-width:0.5;" x="567.220489978" xlink:href="#m741efc42ff" y="36.0"/>
      </g>
     </g>
     <g id="text_7">
      <!-- 2015-10-28 -->
      <g transform="translate(538.871271228 326.5984375)scale(0.1 -0.1)">
       <use xlink:href="#DejaVuSans-32"/>
       <use x="63.623046875" xlink:href="#DejaVuSans-30"/>
       <use x="127.24609375" xlink:href="#DejaVuSans-31"/>
       <use x="190.869140625" xlink:href="#DejaVuSans-35"/>
       <use x="254.4921875" xlink:href="#DejaVuSans-2d"/>
       <use x="290.576171875" xlink:href="#DejaVuSans-31"/>
       <use x="354.19921875" xlink:href="#DejaVuSans-30"/>
       <use x="417.822265625" xlink:href="#DejaVuSans-2d"/>
       <use x="453.90625" xlink:href="#DejaVuSans-32"/>
       <use x="517.529296875" xlink:href="#DejaVuSans-38"/>
      </g>
     </g>
    </g>
    <g id="xtick_8">
     <g id="line2d_15">
      <g>
       <use style="stroke:#000000;stroke-width:0.5;" x="646.757238307" xlink:href="#m93b0483c22" y="315.0"/>
      </g>
     </g>
     <g id="line2d_16">
      <g>
       <use style="stroke:#000000;stroke-width:0.5;" x="646.757238307" xlink:href="#m741efc42ff" y="36.0"/>
      </g>
     </g>
     <g id="text_8">
      <!-- 2016-01-29 -->
      <defs>
       <path d="
M33.0156 40.375
Q26.375 40.375 22.4844 35.8281
Q18.6094 31.2969 18.6094 23.3906
Q18.6094 15.5312 22.4844 10.9531
Q26.375 6.39062 33.0156 6.39062
Q39.6562 6.39062 43.5312 10.9531
Q47.4062 15.5312 47.4062 23.3906
Q47.4062 31.2969 43.5312 35.8281
Q39.6562 40.375 33.0156 40.375
M52.5938 71.2969
L52.5938 62.3125
Q48.875 64.0625 45.0938 64.9844
Q41.3125 65.9219 37.5938 65.9219
Q27.8281 65.9219 22.6719 59.3281
Q17.5312 52.7344 16.7969 39.4062
Q19.6719 43.6562 24.0156 45.9219
Q28.375 48.1875 33.5938 48.1875
Q44.5781 48.1875 50.9531 41.5156
Q57.3281 34.8594 57.3281 23.3906
Q57.3281 12.1562 50.6875 5.35938
Q44.0469 -1.42188 33.0156 -1.42188
Q20.3594 -1.42188 13.6719 8.26562
Q6.98438 17.9688 6.98438 36.375
Q6.98438 53.6562 15.1875 63.9375
Q23.3906 74.2188 37.2031 74.2188
Q40.9219 74.2188 44.7031 73.4844
Q48.4844 72.75 52.5938 71.2969" id="DejaVuSans-36"/>
      </defs>
      <g transform="translate(618.417394557 326.5984375)scale(0.1 -0.1)">
       <use xlink:href="#DejaVuSans-32"/>
       <use x="63.623046875" xlink:href="#DejaVuSans-30"/>
       <use x="127.24609375" xlink:href="#DejaVuSans-31"/>
       <use x="190.869140625" xlink:href="#DejaVuSans-36"/>
       <use x="254.4921875" xlink:href="#DejaVuSans-2d"/>
       <use x="290.576171875" xlink:href="#DejaVuSans-30"/>
       <use x="354.19921875" xlink:href="#DejaVuSans-31"/>
       <use x="417.822265625" xlink:href="#DejaVuSans-2d"/>
       <use x="453.90625" xlink:href="#DejaVuSans-32"/>
       <use x="517.529296875" xlink:href="#DejaVuSans-39"/>
      </g>
     </g>
    </g>
    <g id="text_9">
     <!-- Time -->
     <defs>
      <path d="
M52 44.1875
Q55.375 50.25 60.0625 53.125
Q64.75 56 71.0938 56
Q79.6406 56 84.2812 50.0156
Q88.9219 44.0469 88.9219 33.0156
L88.9219 0
L79.8906 0
L79.8906 32.7188
Q79.8906 40.5781 77.0938 44.375
Q74.3125 48.1875 68.6094 48.1875
Q61.625 48.1875 57.5625 43.5469
Q53.5156 38.9219 53.5156 30.9062
L53.5156 0
L44.4844 0
L44.4844 32.7188
Q44.4844 40.625 41.7031 44.4062
Q38.9219 48.1875 33.1094 48.1875
Q26.2188 48.1875 22.1562 43.5312
Q18.1094 38.875 18.1094 30.9062
L18.1094 0
L9.07812 0
L9.07812 54.6875
L18.1094 54.6875
L18.1094 46.1875
Q21.1875 51.2188 25.4844 53.6094
Q29.7812 56 35.6875 56
Q41.6562 56 45.8281 52.9688
Q50 49.9531 52 44.1875" id="DejaVuSans-6d"/>
      <path d="
M9.42188 54.6875
L18.4062 54.6875
L18.4062 0
L9.42188 0
z

M9.42188 75.9844
L18.4062 75.9844
L18.4062 64.5938
L9.42188 64.5938
z
" id="DejaVuSans-69"/>
      <path d="
M56.2031 29.5938
L56.2031 25.2031
L14.8906 25.2031
Q15.4844 15.9219 20.4844 11.0625
Q25.4844 6.20312 34.4219 6.20312
Q39.5938 6.20312 44.4531 7.46875
Q49.3125 8.73438 54.1094 11.2812
L54.1094 2.78125
Q49.2656 0.734375 44.1875 -0.34375
Q39.1094 -1.42188 33.8906 -1.42188
Q20.7969 -1.42188 13.1562 6.1875
Q5.51562 13.8125 5.51562 26.8125
Q5.51562 40.2344 12.7656 48.1094
Q20.0156 56 32.3281 56
Q43.3594 56 49.7812 48.8906
Q56.2031 41.7969 56.2031 29.5938
M47.2188 32.2344
Q47.125 39.5938 43.0938 43.9844
Q39.0625 48.3906 32.4219 48.3906
Q24.9062 48.3906 20.3906 44.1406
Q15.875 39.8906 15.1875 32.1719
z
" id="DejaVuSans-65"/>
      <path d="
M-0.296875 72.9062
L61.375 72.9062
L61.375 64.5938
L35.5 64.5938
L35.5 0
L25.5938 0
L25.5938 64.5938
L-0.296875 64.5938
z
" id="DejaVuSans-54"/>
     </defs>
     <g transform="translate(357.01796875 341.2765625)scale(0.1 -0.1)">
      <use xlink:href="#DejaVuSans-54"/>
      <use x="57.958984375" xlink:href="#DejaVuSans-69"/>
      <use x="85.7421875" xlink:href="#DejaVuSans-6d"/>
      <use x="183.154296875" xlink:href="#DejaVuSans-65"/>
     </g>
    </g>
   </g>
   <g id="matplotlib.axis_2">
    <g id="ytick_1">
     <g id="line2d_17">
      <defs>
       <path d="
M0 0
L4 0" id="m728421d6d4" style="stroke:#000000;stroke-width:0.5;"/>
      </defs>
      <g>
       <use style="stroke:#000000;stroke-width:0.5;" x="90.0" xlink:href="#m728421d6d4" y="315.0"/>
      </g>
     </g>
     <g id="line2d_18">
      <defs>
       <path d="
M0 0
L-4 0" id="mcb0005524f" style="stroke:#000000;stroke-width:0.5;"/>
      </defs>
      <g>
       <use style="stroke:#000000;stroke-width:0.5;" x="648.0" xlink:href="#mcb0005524f" y="315.0"/>
      </g>
     </g>
     <g id="text_10">
      <!-- 0 -->
      <g transform="translate(80.9609375 317.759375)scale(0.1 -0.1)">
       <use xlink:href="#DejaVuSans-30"/>
      </g>
     </g>
    </g>
    <g id="ytick_2">
     <g id="line2d_19">
      <g>
       <use style="stroke:#000000;stroke-width:0.5;" x="90.0" xlink:href="#m728421d6d4" y="280.894088309"/>
      </g>
     </g>
     <g id="line2d_20">
      <g>
       <use style="stroke:#000000;stroke-width:0.5;" x="648.0" xlink:href="#mcb0005524f" y="280.894088309"/>
      </g>
     </g>
     <g id="text_11">
      <!-- 5000 -->
      <g transform="translate(61.9859375 283.653463309)scale(0.1 -0.1)">
       <use xlink:href="#DejaVuSans-35"/>
       <use x="63.623046875" xlink:href="#DejaVuSans-30"/>
       <use x="127.24609375" xlink:href="#DejaVuSans-30"/>
       <use x="190.869140625" xlink:href="#DejaVuSans-30"/>
      </g>
     </g>
    </g>
    <g id="ytick_3">
     <g id="line2d_21">
      <g>
       <use style="stroke:#000000;stroke-width:0.5;" x="90.0" xlink:href="#m728421d6d4" y="246.788176617"/>
      </g>
     </g>
     <g id="line2d_22">
      <g>
       <use style="stroke:#000000;stroke-width:0.5;" x="648.0" xlink:href="#mcb0005524f" y="246.788176617"/>
      </g>
     </g>
     <g id="text_12">
      <!-- 10000 -->
      <g transform="translate(55.95 249.547551617)scale(0.1 -0.1)">
       <use xlink:href="#DejaVuSans-31"/>
       <use x="63.623046875" xlink:href="#DejaVuSans-30"/>
       <use x="127.24609375" xlink:href="#DejaVuSans-30"/>
       <use x="190.869140625" xlink:href="#DejaVuSans-30"/>
       <use x="254.4921875" xlink:href="#DejaVuSans-30"/>
      </g>
     </g>
    </g>
    <g id="ytick_4">
     <g id="line2d_23">
      <g>
       <use style="stroke:#000000;stroke-width:0.5;" x="90.0" xlink:href="#m728421d6d4" y="212.682264926"/>
      </g>
     </g>
     <g id="line2d_24">
      <g>
       <use style="stroke:#000000;stroke-width:0.5;" x="648.0" xlink:href="#mcb0005524f" y="212.682264926"/>
      </g>
     </g>
     <g id="text_13">
      <!-- 15000 -->
      <g transform="translate(55.95 215.441639926)scale(0.1 -0.1)">
       <use xlink:href="#DejaVuSans-31"/>
       <use x="63.623046875" xlink:href="#DejaVuSans-35"/>
       <use x="127.24609375" xlink:href="#DejaVuSans-30"/>
       <use x="190.869140625" xlink:href="#DejaVuSans-30"/>
       <use x="254.4921875" xlink:href="#DejaVuSans-30"/>
      </g>
     </g>
    </g>
    <g id="ytick_5">
     <g id="line2d_25">
      <g>
       <use style="stroke:#000000;stroke-width:0.5;" x="90.0" xlink:href="#m728421d6d4" y="178.576353235"/>
      </g>
     </g>
     <g id="line2d_26">
      <g>
       <use style="stroke:#000000;stroke-width:0.5;" x="648.0" xlink:href="#mcb0005524f" y="178.576353235"/>
      </g>
     </g>
     <g id="text_14">
      <!-- 20000 -->
      <g transform="translate(55.584375 181.335728235)scale(0.1 -0.1)">
       <use xlink:href="#DejaVuSans-32"/>
       <use x="63.623046875" xlink:href="#DejaVuSans-30"/>
       <use x="127.24609375" xlink:href="#DejaVuSans-30"/>
       <use x="190.869140625" xlink:href="#DejaVuSans-30"/>
       <use x="254.4921875" xlink:href="#DejaVuSans-30"/>
      </g>
     </g>
    </g>
    <g id="ytick_6">
     <g id="line2d_27">
      <g>
       <use style="stroke:#000000;stroke-width:0.5;" x="90.0" xlink:href="#m728421d6d4" y="144.470441543"/>
      </g>
     </g>
     <g id="line2d_28">
      <g>
       <use style="stroke:#000000;stroke-width:0.5;" x="648.0" xlink:href="#mcb0005524f" y="144.470441543"/>
      </g>
     </g>
     <g id="text_15">
      <!-- 25000 -->
      <g transform="translate(55.584375 147.229816543)scale(0.1 -0.1)">
       <use xlink:href="#DejaVuSans-32"/>
       <use x="63.623046875" xlink:href="#DejaVuSans-35"/>
       <use x="127.24609375" xlink:href="#DejaVuSans-30"/>
       <use x="190.869140625" xlink:href="#DejaVuSans-30"/>
       <use x="254.4921875" xlink:href="#DejaVuSans-30"/>
      </g>
     </g>
    </g>
    <g id="ytick_7">
     <g id="line2d_29">
      <g>
       <use style="stroke:#000000;stroke-width:0.5;" x="90.0" xlink:href="#m728421d6d4" y="110.364529852"/>
      </g>
     </g>
     <g id="line2d_30">
      <g>
       <use style="stroke:#000000;stroke-width:0.5;" x="648.0" xlink:href="#mcb0005524f" y="110.364529852"/>
      </g>
     </g>
     <g id="text_16">
      <!-- 30000 -->
      <g transform="translate(55.6140625 113.123904852)scale(0.1 -0.1)">
       <use xlink:href="#DejaVuSans-33"/>
       <use x="63.623046875" xlink:href="#DejaVuSans-30"/>
       <use x="127.24609375" xlink:href="#DejaVuSans-30"/>
       <use x="190.869140625" xlink:href="#DejaVuSans-30"/>
       <use x="254.4921875" xlink:href="#DejaVuSans-30"/>
      </g>
     </g>
    </g>
    <g id="ytick_8">
     <g id="line2d_31">
      <g>
       <use style="stroke:#000000;stroke-width:0.5;" x="90.0" xlink:href="#m728421d6d4" y="76.2586181605"/>
      </g>
     </g>
     <g id="line2d_32">
      <g>
       <use style="stroke:#000000;stroke-width:0.5;" x="648.0" xlink:href="#mcb0005524f" y="76.2586181605"/>
      </g>
     </g>
     <g id="text_17">
      <!-- 35000 -->
      <g transform="translate(55.6140625 79.0179931605)scale(0.1 -0.1)">
       <use xlink:href="#DejaVuSans-33"/>
       <use x="63.623046875" xlink:href="#DejaVuSans-35"/>
       <use x="127.24609375" xlink:href="#DejaVuSans-30"/>
       <use x="190.869140625" xlink:href="#DejaVuSans-30"/>
       <use x="254.4921875" xlink:href="#DejaVuSans-30"/>
      </g>
     </g>
    </g>
    <g id="ytick_9">
     <g id="line2d_33">
      <g>
       <use style="stroke:#000000;stroke-width:0.5;" x="90.0" xlink:href="#m728421d6d4" y="42.1527064691"/>
      </g>
     </g>
     <g id="line2d_34">
      <g>
       <use style="stroke:#000000;stroke-width:0.5;" x="648.0" xlink:href="#mcb0005524f" y="42.1527064691"/>
      </g>
     </g>
     <g id="text_18">
      <!-- 40000 -->
      <g transform="translate(55.340625 44.9120814691)scale(0.1 -0.1)">
       <use xlink:href="#DejaVuSans-34"/>
       <use x="63.623046875" xlink:href="#DejaVuSans-30"/>
       <use x="127.24609375" xlink:href="#DejaVuSans-30"/>
       <use x="190.869140625" xlink:href="#DejaVuSans-30"/>
       <use x="254.4921875" xlink:href="#DejaVuSans-30"/>
      </g>
     </g>
    </g>
    <g id="text_19">
     <!-- Pages per week -->
     <defs>
      <path d="
M41.1094 46.2969
Q39.5938 47.1719 37.8125 47.5781
Q36.0312 48 33.8906 48
Q26.2656 48 22.1875 43.0469
Q18.1094 38.0938 18.1094 28.8125
L18.1094 0
L9.07812 0
L9.07812 54.6875
L18.1094 54.6875
L18.1094 46.1875
Q20.9531 51.1719 25.4844 53.5781
Q30.0312 56 36.5312 56
Q37.4531 56 38.5781 55.875
Q39.7031 55.7656 41.0625 55.5156
z
" id="DejaVuSans-72"/>
      <path d="
M9.07812 75.9844
L18.1094 75.9844
L18.1094 31.1094
L44.9219 54.6875
L56.3906 54.6875
L27.3906 29.1094
L57.625 0
L45.9062 0
L18.1094 26.7031
L18.1094 0
L9.07812 0
z
" id="DejaVuSans-6b"/>
      <path id="DejaVuSans-20"/>
      <path d="
M45.4062 27.9844
Q45.4062 37.75 41.375 43.1094
Q37.3594 48.4844 30.0781 48.4844
Q22.8594 48.4844 18.8281 43.1094
Q14.7969 37.75 14.7969 27.9844
Q14.7969 18.2656 18.8281 12.8906
Q22.8594 7.51562 30.0781 7.51562
Q37.3594 7.51562 41.375 12.8906
Q45.4062 18.2656 45.4062 27.9844
M54.3906 6.78125
Q54.3906 -7.17188 48.1875 -13.9844
Q42 -20.7969 29.2031 -20.7969
Q24.4688 -20.7969 20.2656 -20.0938
Q16.0625 -19.3906 12.1094 -17.9219
L12.1094 -9.1875
Q16.0625 -11.3281 19.9219 -12.3438
Q23.7812 -13.375 27.7812 -13.375
Q36.625 -13.375 41.0156 -8.76562
Q45.4062 -4.15625 45.4062 5.17188
L45.4062 9.625
Q42.625 4.78125 38.2812 2.39062
Q33.9375 0 27.875 0
Q17.8281 0 11.6719 7.65625
Q5.51562 15.3281 5.51562 27.9844
Q5.51562 40.6719 11.6719 48.3281
Q17.8281 56 27.875 56
Q33.9375 56 38.2812 53.6094
Q42.625 51.2188 45.4062 46.3906
L45.4062 54.6875
L54.3906 54.6875
z
" id="DejaVuSans-67"/>
      <path d="
M4.20312 54.6875
L13.1875 54.6875
L24.4219 12.0156
L35.5938 54.6875
L46.1875 54.6875
L57.4219 12.0156
L68.6094 54.6875
L77.5938 54.6875
L63.2812 0
L52.6875 0
L40.9219 44.8281
L29.1094 0
L18.5 0
z
" id="DejaVuSans-77"/>
      <path d="
M19.6719 64.7969
L19.6719 37.4062
L32.0781 37.4062
Q38.9688 37.4062 42.7188 40.9688
Q46.4844 44.5312 46.4844 51.125
Q46.4844 57.6719 42.7188 61.2344
Q38.9688 64.7969 32.0781 64.7969
z

M9.8125 72.9062
L32.0781 72.9062
Q44.3438 72.9062 50.6094 67.3594
Q56.8906 61.8125 56.8906 51.125
Q56.8906 40.3281 50.6094 34.8125
Q44.3438 29.2969 32.0781 29.2969
L19.6719 29.2969
L19.6719 0
L9.8125 0
z
" id="DejaVuSans-50"/>
      <path d="
M18.1094 8.20312
L18.1094 -20.7969
L9.07812 -20.7969
L9.07812 54.6875
L18.1094 54.6875
L18.1094 46.3906
Q20.9531 51.2656 25.2656 53.625
Q29.5938 56 35.5938 56
Q45.5625 56 51.7812 48.0938
Q58.0156 40.1875 58.0156 27.2969
Q58.0156 14.4062 51.7812 6.48438
Q45.5625 -1.42188 35.5938 -1.42188
Q29.5938 -1.42188 25.2656 0.953125
Q20.9531 3.32812 18.1094 8.20312
M48.6875 27.2969
Q48.6875 37.2031 44.6094 42.8438
Q40.5312 48.4844 33.4062 48.4844
Q26.2656 48.4844 22.1875 42.8438
Q18.1094 37.2031 18.1094 27.2969
Q18.1094 17.3906 22.1875 11.75
Q26.2656 6.10938 33.4062 6.10938
Q40.5312 6.10938 44.6094 11.75
Q48.6875 17.3906 48.6875 27.2969" id="DejaVuSans-70"/>
      <path d="
M44.2812 53.0781
L44.2812 44.5781
Q40.4844 46.5312 36.375 47.5
Q32.2812 48.4844 27.875 48.4844
Q21.1875 48.4844 17.8438 46.4375
Q14.5 44.3906 14.5 40.2812
Q14.5 37.1562 16.8906 35.375
Q19.2812 33.5938 26.5156 31.9844
L29.5938 31.2969
Q39.1562 29.25 43.1875 25.5156
Q47.2188 21.7812 47.2188 15.0938
Q47.2188 7.46875 41.1875 3.01562
Q35.1562 -1.42188 24.6094 -1.42188
Q20.2188 -1.42188 15.4531 -0.5625
Q10.6875 0.296875 5.42188 2
L5.42188 11.2812
Q10.4062 8.6875 15.2344 7.39062
Q20.0625 6.10938 24.8125 6.10938
Q31.1562 6.10938 34.5625 8.28125
Q37.9844 10.4531 37.9844 14.4062
Q37.9844 18.0625 35.5156 20.0156
Q33.0625 21.9688 24.7031 23.7812
L21.5781 24.5156
Q13.2344 26.2656 9.51562 29.9062
Q5.8125 33.5469 5.8125 39.8906
Q5.8125 47.6094 11.2812 51.7969
Q16.75 56 26.8125 56
Q31.7812 56 36.1719 55.2656
Q40.5781 54.5469 44.2812 53.0781" id="DejaVuSans-73"/>
      <path d="
M34.2812 27.4844
Q23.3906 27.4844 19.1875 25
Q14.9844 22.5156 14.9844 16.5
Q14.9844 11.7188 18.1406 8.90625
Q21.2969 6.10938 26.7031 6.10938
Q34.1875 6.10938 38.7031 11.4062
Q43.2188 16.7031 43.2188 25.4844
L43.2188 27.4844
z

M52.2031 31.2031
L52.2031 0
L43.2188 0
L43.2188 8.29688
Q40.1406 3.32812 35.5469 0.953125
Q30.9531 -1.42188 24.3125 -1.42188
Q15.9219 -1.42188 10.9531 3.29688
Q6 8.01562 6 15.9219
Q6 25.1406 12.1719 29.8281
Q18.3594 34.5156 30.6094 34.5156
L43.2188 34.5156
L43.2188 35.4062
Q43.2188 41.6094 39.1406 45
Q35.0625 48.3906 27.6875 48.3906
Q23 48.3906 18.5469 47.2656
Q14.1094 46.1406 10.0156 43.8906
L10.0156 52.2031
Q14.9375 54.1094 19.5781 55.0469
Q24.2188 56 28.6094 56
Q40.4844 56 46.3438 49.8438
Q52.2031 43.7031 52.2031 31.2031" id="DejaVuSans-61"/>
     </defs>
     <g transform="translate(48.2609375 214.8171875)rotate(-90.0)scale(0.1 -0.1)">
      <use xlink:href="#DejaVuSans-50"/>
      <use x="55.802734375" xlink:href="#DejaVuSans-61"/>
      <use x="117.08203125" xlink:href="#DejaVuSans-67"/>
      <use x="180.55859375" xlink:href="#DejaVuSans-65"/>
      <use x="242.08203125" xlink:href="#DejaVuSans-73"/>
      <use x="294.181640625" xlink:href="#DejaVuSans-20"/>
      <use x="325.96875" xlink:href="#DejaVuSans-70"/>
      <use x="389.4453125" xlink:href="#DejaVuSans-65"/>
      <use x="450.96875" xlink:href="#DejaVuSans-72"/>
      <use x="492.08203125" xlink:href="#DejaVuSans-20"/>
      <use x="523.869140625" xlink:href="#DejaVuSans-77"/>
      <use x="605.65625" xlink:href="#DejaVuSans-65"/>
      <use x="667.1796875" xlink:href="#DejaVuSans-65"/>
      <use x="728.703125" xlink:href="#DejaVuSans-6b"/>
     </g>
    </g>
   </g>
   <g id="text_20">
    <!-- Pages printed per week -->
    <defs>
     <path d="
M18.3125 70.2188
L18.3125 54.6875
L36.8125 54.6875
L36.8125 47.7031
L18.3125 47.7031
L18.3125 18.0156
Q18.3125 11.3281 20.1406 9.42188
Q21.9688 7.51562 27.5938 7.51562
L36.8125 7.51562
L36.8125 0
L27.5938 0
Q17.1875 0 13.2344 3.875
Q9.28125 7.76562 9.28125 18.0156
L9.28125 47.7031
L2.6875 47.7031
L2.6875 54.6875
L9.28125 54.6875
L9.28125 70.2188
z
" id="DejaVuSans-74"/>
     <path d="
M45.4062 46.3906
L45.4062 75.9844
L54.3906 75.9844
L54.3906 0
L45.4062 0
L45.4062 8.20312
Q42.5781 3.32812 38.25 0.953125
Q33.9375 -1.42188 27.875 -1.42188
Q17.9688 -1.42188 11.7344 6.48438
Q5.51562 14.4062 5.51562 27.2969
Q5.51562 40.1875 11.7344 48.0938
Q17.9688 56 27.875 56
Q33.9375 56 38.25 53.625
Q42.5781 51.2656 45.4062 46.3906
M14.7969 27.2969
Q14.7969 17.3906 18.875 11.75
Q22.9531 6.10938 30.0781 6.10938
Q37.2031 6.10938 41.2969 11.75
Q45.4062 17.3906 45.4062 27.2969
Q45.4062 37.2031 41.2969 42.8438
Q37.2031 48.4844 30.0781 48.4844
Q22.9531 48.4844 18.875 42.8438
Q14.7969 37.2031 14.7969 27.2969" id="DejaVuSans-64"/>
     <path d="
M54.8906 33.0156
L54.8906 0
L45.9062 0
L45.9062 32.7188
Q45.9062 40.4844 42.875 44.3281
Q39.8438 48.1875 33.7969 48.1875
Q26.5156 48.1875 22.3125 43.5469
Q18.1094 38.9219 18.1094 30.9062
L18.1094 0
L9.07812 0
L9.07812 54.6875
L18.1094 54.6875
L18.1094 46.1875
Q21.3438 51.125 25.7031 53.5625
Q30.0781 56 35.7969 56
Q45.2188 56 50.0469 50.1719
Q54.8906 44.3438 54.8906 33.0156" id="DejaVuSans-6e"/>
    </defs>
    <g transform="translate(298.314375 31.0)scale(0.12 -0.12)">
     <use xlink:href="#DejaVuSans-50"/>
     <use x="55.802734375" xlink:href="#DejaVuSans-61"/>
     <use x="117.08203125" xlink:href="#DejaVuSans-67"/>
     <use x="180.55859375" xlink:href="#DejaVuSans-65"/>
     <use x="242.08203125" xlink:href="#DejaVuSans-73"/>
     <use x="294.181640625" xlink:href="#DejaVuSans-20"/>
     <use x="325.96875" xlink:href="#DejaVuSans-70"/>
     <use x="389.4453125" xlink:href="#DejaVuSans-72"/>
     <use x="430.55859375" xlink:href="#DejaVuSans-69"/>
     <use x="458.341796875" xlink:href="#DejaVuSans-6e"/>
     <use x="521.720703125" xlink:href="#DejaVuSans-74"/>
     <use x="560.9296875" xlink:href="#DejaVuSans-65"/>
     <use x="622.453125" xlink:href="#DejaVuSans-64"/>
     <use x="685.9296875" xlink:href="#DejaVuSans-20"/>
     <use x="717.716796875" xlink:href="#DejaVuSans-70"/>
     <use x="781.193359375" xlink:href="#DejaVuSans-65"/>
     <use x="842.716796875" xlink:href="#DejaVuSans-72"/>
     <use x="883.830078125" xlink:href="#DejaVuSans-20"/>
     <use x="915.6171875" xlink:href="#DejaVuSans-77"/>
     <use x="997.404296875" xlink:href="#DejaVuSans-65"/>
     <use x="1058.92773438" xlink:href="#DejaVuSans-65"/>
     <use x="1120.45117188" xlink:href="#DejaVuSans-6b"/>
    </g>
   </g>
  </g>
 </g>
 <defs>
  <clipPath id="p7a9eb3f0f5">
   <rect height="279.0" width="558.0" x="90.0" y="36.0"/>
  </clipPath>
 </defs>
</svg>
