<?xml version="1.0" encoding="utf-8" standalone="no"?>
<!DOCTYPE svg PUBLIC "-//W3C//DTD SVG 1.1//EN"
  "http://www.w3.org/Graphics/SVG/1.1/DTD/svg11.dtd">
<!-- Created with matplotlib (http://matplotlib.org/) -->
<svg height="288pt" version="1.1" viewBox="0 0 720 288" width="720pt" xmlns="http://www.w3.org/2000/svg" xmlns:xlink="http://www.w3.org/1999/xlink">
 <defs>
  <style type="text/css">
*{stroke-linecap:butt;stroke-linejoin:round;stroke-miterlimit:100000;}
  </style>
 </defs>
 <g id="figure_1">
  <g id="patch_1">
   <path d="M 0 288
L 720 288
L 720 0
L 0 0
z
" style="fill:#ffffff;"/>
  </g>
  <g id="axes_1">
   <g id="patch_2">
    <path d="M 90 259.2
L 648 259.2
L 648 28.8
L 90 28.8
z
" style="fill:#ffffff;"/>
   </g>
   <g id="line2d_1">
    <path clip-path="url(#p9b946b3736)" d="M 90 250.666667
L 103.433333 250.666667
L 104.466667 243.733333
L 105.5 212.266667
L 107.566667 99.2
L 108.6 65.6
L 109.633333 48
L 110.666667 40
L 111.7 38.933333
L 112.733333 40
L 113.766667 46.4
L 114.8 65.066667
L 115.833333 89.6
L 116.866667 107.2
L 117.9 115.2
L 118.933333 120.533333
L 119.966667 131.2
L 121 144
L 122.033333 145.6
L 124.1 121.066667
L 126.166667 106.666667
L 127.2 91.2
L 128.233333 71.466667
L 129.266667 56.533333
L 130.3 50.133333
L 131.333333 52.266667
L 132.366667 59.2
L 133.4 62.4
L 135.466667 56
L 136.5 57.066667
L 137.533333 59.733333
L 138.566667 61.333333
L 139.6 66.133333
L 141.666667 90.666667
L 142.7 98.666667
L 143.733333 102.933333
L 144.766667 106.133333
L 145.8 109.866667
L 146.833333 112.533333
L 147.866667 113.066667
L 148.9 116.8
L 149.933333 128.533333
L 152 164.266667
L 153.033333 179.2
L 154.066667 190.4
L 155.1 198.933333
L 156.133333 204.8
L 157.166667 206.4
L 158.2 200
L 159.233333 182.933333
L 160.266667 162.133333
L 161.3 147.733333
L 162.333333 139.2
L 163.366667 132.266667
L 164.4 128.533333
L 165.433333 128
L 166.466667 123.733333
L 167.5 110.4
L 168.533333 91.733333
L 169.566667 76.266667
L 170.6 70.933333
L 171.633333 77.333333
L 172.666667 88.533333
L 173.7 96
L 174.733333 99.2
L 175.766667 100.266667
L 176.8 99.733333
L 177.833333 100.266667
L 178.866667 102.933333
L 179.9 103.466667
L 180.933333 97.6
L 181.966667 88.533333
L 183 84.8
L 184.033333 89.066667
L 186.1 104.533333
L 187.133333 108.266667
L 188.166667 107.733333
L 190.233333 104.533333
L 191.266667 101.333333
L 192.3 100.8
L 194.366667 115.733333
L 195.4 112.533333
L 196.433333 104.533333
L 197.466667 102.933333
L 198.5 105.066667
L 199.533333 100.8
L 201.6 78.4
L 202.633333 76.8
L 204.7 92.266667
L 205.733333 94.933333
L 206.766667 96
L 207.8 98.133333
L 208.833333 98.133333
L 209.866667 93.866667
L 210.9 86.4
L 211.933333 83.2
L 212.966667 92.266667
L 214 106.133333
L 215.033333 110.933333
L 216.066667 102.933333
L 217.1 90.666667
L 218.133333 86.933333
L 219.166667 86.4
L 220.2 73.6
L 221.233333 54.933333
L 222.266667 45.866667
L 223.3 45.333333
L 224.333333 45.866667
L 225.366667 45.866667
L 226.4 46.933333
L 227.433333 50.133333
L 228.466667 52.8
L 229.5 52.8
L 230.533333 53.333333
L 232.6 59.733333
L 233.633333 59.733333
L 234.666667 56.533333
L 235.7 52.266667
L 236.733333 49.6
L 237.766667 52.266667
L 238.8 59.733333
L 239.833333 65.066667
L 240.866667 64.533333
L 241.9 67.733333
L 242.933333 93.333333
L 245 184
L 246.033333 206.933333
L 247.066667 214.933333
L 248.1 216.533333
L 253.266667 216.533333
L 254.3 214.933333
L 255.333333 206.4
L 256.366667 187.2
L 258.433333 140.266667
L 259.466667 121.066667
L 260.5 105.6
L 261.533333 96
L 262.566667 91.733333
L 263.6 91.2
L 264.633333 91.2
L 265.666667 89.066667
L 266.7 88
L 267.733333 90.133333
L 269.8 96.533333
L 270.833333 97.6
L 271.866667 96
L 272.9 95.466667
L 273.933333 98.133333
L 274.966667 105.066667
L 276 114.133333
L 277.033333 116.266667
L 278.066667 105.6
L 279.1 87.466667
L 280.133333 71.466667
L 281.166667 63.466667
L 282.2 62.933333
L 283.233333 62.933333
L 284.266667 59.733333
L 285.3 58.133333
L 286.333333 59.2
L 287.366667 56.533333
L 288.4 49.6
L 289.433333 45.866667
L 290.466667 47.466667
L 292.533333 53.866667
L 293.566667 54.4
L 294.6 51.733333
L 295.633333 52.266667
L 296.666667 57.6
L 297.7 64
L 298.733333 72.533333
L 299.766667 82.133333
L 301.833333 95.466667
L 302.866667 101.866667
L 303.9 105.066667
L 307 106.666667
L 308.033333 104
L 309.066667 99.733333
L 311.133333 99.733333
L 312.166667 92.266667
L 313.2 82.666667
L 314.233333 78.933333
L 315.266667 77.333333
L 316.3 70.4
L 317.333333 61.333333
L 318.366667 58.133333
L 320.433333 62.4
L 321.466667 64
L 322.5 67.2
L 323.533333 68.8
L 324.566667 65.6
L 325.6 64
L 326.633333 69.333333
L 327.666667 76.266667
L 328.7 81.6
L 329.733333 90.133333
L 330.766667 100.8
L 331.8 105.6
L 332.833333 104
L 333.866667 103.466667
L 334.9 110.4
L 335.933333 123.2
L 336.966667 130.666667
L 338 126.4
L 339.033333 118.933333
L 340.066667 116.8
L 341.1 117.866667
L 342.133333 120
L 343.166667 126.4
L 344.2 136
L 345.233333 141.333333
L 346.266667 139.2
L 347.3 133.333333
L 348.333333 125.333333
L 350.4 104
L 351.433333 101.333333
L 352.466667 105.066667
L 353.5 107.733333
L 354.533333 104.533333
L 356.6 91.2
L 357.633333 85.866667
L 358.666667 81.6
L 359.7 82.133333
L 360.733333 88
L 361.766667 95.466667
L 362.8 104.533333
L 364.866667 128.533333
L 365.9 138.133333
L 366.933333 140.8
L 367.966667 133.866667
L 370.033333 110.4
L 371.066667 101.866667
L 372.1 94.933333
L 373.133333 89.066667
L 374.166667 85.866667
L 375.2 86.4
L 377.266667 90.666667
L 379.333333 93.866667
L 380.366667 98.133333
L 381.4 105.066667
L 382.433333 110.4
L 384.5 113.6
L 385.533333 118.4
L 386.566667 123.733333
L 387.6 124.8
L 388.633333 119.466667
L 390.7 99.733333
L 391.733333 93.333333
L 392.766667 94.4
L 393.8 102.933333
L 394.833333 117.866667
L 395.866667 136
L 396.9 148.266667
L 397.933333 147.733333
L 398.966667 138.666667
L 400 130.666667
L 401.033333 125.866667
L 402.066667 117.866667
L 403.1 104.533333
L 404.133333 92.8
L 405.166667 86.933333
L 406.2 83.733333
L 407.233333 77.333333
L 409.3 50.666667
L 410.333333 42.666667
L 411.366667 38.4
L 412.4 33.6
L 413.433333 29.866667
L 414.466667 29.333333
L 415.5 31.466667
L 417.566667 37.866667
L 418.6 41.6
L 419.633333 43.2
L 420.666667 38.933333
L 421.7 33.066667
L 422.733333 32
L 423.766667 34.133333
L 424.8 35.2
L 425.833333 37.866667
L 426.866667 45.866667
L 427.9 52.266667
L 428.933333 49.066667
L 429.966667 42.133333
L 431 39.466667
L 432.033333 39.466667
L 433.066667 41.066667
L 434.1 46.4
L 435.133333 55.466667
L 437.2 79.466667
L 438.233333 84.8
L 439.266667 83.733333
L 440.3 79.466667
L 441.333333 75.733333
L 442.366667 75.733333
L 443.4 76.8
L 444.433333 77.333333
L 445.466667 80.533333
L 446.5 84.8
L 447.533333 86.933333
L 448.566667 90.666667
L 449.6 97.6
L 450.633333 100.266667
L 451.666667 94.933333
L 452.7 88.533333
L 453.733333 86.4
L 454.766667 83.2
L 455.8 70.933333
L 456.833333 51.733333
L 457.866667 36.266667
L 458.9 29.866667
L 459.933333 29.333333
L 460.966667 32
L 463.033333 42.133333
L 464.066667 43.733333
L 465.1 45.866667
L 466.133333 53.333333
L 467.166667 64
L 468.2 71.466667
L 469.233333 73.6
L 470.266667 74.666667
L 471.3 77.866667
L 472.333333 82.133333
L 473.366667 85.333333
L 474.4 84.8
L 475.433333 80.533333
L 476.466667 78.4
L 477.5 83.2
L 478.533333 91.2
L 481.633333 109.333333
L 482.666667 115.733333
L 483.7 119.466667
L 484.733333 119.466667
L 485.766667 116.266667
L 486.8 112.533333
L 487.833333 112
L 488.866667 117.866667
L 489.9 129.6
L 490.933333 144
L 491.966667 154.666667
L 493 153.066667
L 494.033333 138.133333
L 495.066667 113.066667
L 496.1 81.6
L 497.133333 56
L 498.166667 46.4
L 499.2 47.466667
L 501.266667 53.866667
L 502.3 53.866667
L 503.333333 48
L 504.366667 41.066667
L 505.4 37.333333
L 506.433333 35.2
L 507.466667 35.2
L 508.5 41.6
L 510.566667 65.6
L 511.6 72.533333
L 513.666667 78.933333
L 514.7 83.2
L 515.733333 84.266667
L 516.766667 80.533333
L 517.8 76.266667
L 518.833333 75.2
L 519.866667 80
L 520.9 88.533333
L 521.933333 93.866667
L 522.966667 96
L 524 98.666667
L 525.033333 100.8
L 527.1 102.933333
L 528.133333 101.866667
L 529.166667 97.066667
L 530.2 91.2
L 531.233333 86.4
L 532.266667 81.066667
L 533.3 72.533333
L 534.333333 61.866667
L 535.366667 52.8
L 536.4 45.866667
L 537.433333 40
L 538.466667 35.2
L 539.5 31.466667
L 540.533333 29.866667
L 541.566667 32.533333
L 542.6 40
L 544.666667 58.133333
L 545.7 71.466667
L 548.8 126.4
L 549.833333 140.8
L 550.866667 150.933333
L 551.9 155.2
L 552.933333 154.666667
L 553.966667 153.6
L 555 153.066667
L 556.033333 148.266667
L 557.066667 138.666667
L 558.1 130.133333
L 559.133333 124.266667
L 560.166667 117.333333
L 561.2 106.666667
L 562.233333 94.4
L 563.266667 89.066667
L 564.3 97.6
L 566.366667 133.333333
L 567.4 144.533333
L 568.433333 151.466667
L 569.466667 160
L 570.5 170.666667
L 571.533333 178.666667
L 572.566667 180.8
L 573.6 177.6
L 574.633333 173.333333
L 576.7 170.133333
L 577.733333 164.8
L 578.766667 157.866667
L 579.8 154.666667
L 580.833333 157.866667
L 581.866667 164.8
L 582.9 170.666667
L 583.933333 172.8
L 584.966667 169.6
L 586 160
L 587.033333 148.266667
L 588.066667 140.266667
L 589.1 133.866667
L 590.133333 124.266667
L 591.166667 110.933333
L 593.233333 77.333333
L 594.266667 64.533333
L 595.3 56.533333
L 596.333333 50.666667
L 597.366667 47.466667
L 598.4 46.4
L 600.466667 38.933333
L 601.5 42.666667
L 602.533333 49.066667
L 603.566667 49.066667
L 604.6 44.8
L 605.633333 42.666667
L 606.666667 44.8
L 607.7 51.733333
L 608.733333 64
L 609.766667 78.4
L 610.8 87.466667
L 611.833333 87.466667
L 612.866667 82.666667
L 613.9 78.933333
L 614.933333 80.533333
L 617 96
L 618.033333 95.466667
L 619.066667 89.6
L 620.1 86.4
L 622.166667 90.666667
L 623.2 87.466667
L 624.233333 80.533333
L 625.266667 74.666667
L 626.3 71.466667
L 627.333333 69.866667
L 628.366667 71.466667
L 629.4 78.933333
L 630.433333 89.6
L 631.466667 98.133333
L 632.5 104.533333
L 633.533333 112
L 634.566667 118.4
L 635.6 118.933333
L 636.633333 114.133333
L 637.666667 108.8
L 638.7 106.133333
L 639.733333 106.133333
L 640.766667 108.8
L 641.8 116.266667
L 642.833333 130.666667
L 643.866667 148.266667
L 644.9 161.066667
L 646.966667 175.466667
L 648 185.066667
L 648 185.066667
" style="fill:none;stroke:#000000;stroke-linecap:square;stroke-width:1.5;"/>
   </g>
   <g id="patch_3">
    <path d="M 90 259.2
L 648 259.2
" style="fill:none;stroke:#000000;stroke-linecap:square;stroke-linejoin:miter;"/>
   </g>
   <g id="patch_4">
    <path d="M 648 259.2
L 648 28.8
" style="fill:none;stroke:#000000;stroke-linecap:square;stroke-linejoin:miter;"/>
   </g>
   <g id="patch_5">
    <path d="M 90 28.8
L 648 28.8
" style="fill:none;stroke:#000000;stroke-linecap:square;stroke-linejoin:miter;"/>
   </g>
   <g id="patch_6">
    <path d="M 90 259.2
L 90 28.8
" style="fill:none;stroke:#000000;stroke-linecap:square;stroke-linejoin:miter;"/>
   </g>
   <g id="matplotlib.axis_1">
    <g id="xtick_1">
     <g id="line2d_2">
      <path clip-path="url(#p9b946b3736)" d="M 90 259.2
L 90 28.8
" style="fill:none;stroke:#000000;stroke-dasharray:1.000000,3.000000;stroke-dashoffset:0.0;stroke-width:0.5;"/>
     </g>
     <g id="line2d_3">
      <defs>
       <path d="M 0 0
L 0 -4
" id="m779da91d50" style="stroke:#000000;stroke-width:0.5;"/>
      </defs>
      <g>
       <use style="stroke:#000000;stroke-width:0.5;" x="90.0" xlink:href="#m779da91d50" y="259.2"/>
      </g>
     </g>
     <g id="line2d_4">
      <defs>
       <path d="M 0 0
L 0 4
" id="maf2ffa91f9" style="stroke:#000000;stroke-width:0.5;"/>
      </defs>
      <g>
       <use style="stroke:#000000;stroke-width:0.5;" x="90.0" xlink:href="#maf2ffa91f9" y="28.8"/>
      </g>
     </g>
     <g id="text_1">
      <!-- 9am -->
      <defs>
       <path d="M 34.28125 27.484375
Q 23.390625 27.484375 19.1875 25
Q 14.984375 22.515625 14.984375 16.5
Q 14.984375 11.71875 18.140625 8.90625
Q 21.296875 6.109375 26.703125 6.109375
Q 34.1875 6.109375 38.703125 11.40625
Q 43.21875 16.703125 43.21875 25.484375
L 43.21875 27.484375
z
M 52.203125 31.203125
L 52.203125 0
L 43.21875 0
L 43.21875 8.296875
Q 40.140625 3.328125 35.546875 0.953125
Q 30.953125 -1.421875 24.3125 -1.421875
Q 15.921875 -1.421875 10.953125 3.296875
Q 6 8.015625 6 15.921875
Q 6 25.140625 12.171875 29.828125
Q 18.359375 34.515625 30.609375 34.515625
L 43.21875 34.515625
L 43.21875 35.40625
Q 43.21875 41.609375 39.140625 45
Q 35.0625 48.390625 27.6875 48.390625
Q 23 48.390625 18.546875 47.265625
Q 14.109375 46.140625 10.015625 43.890625
L 10.015625 52.203125
Q 14.9375 54.109375 19.578125 55.046875
Q 24.21875 56 28.609375 56
Q 40.484375 56 46.34375 49.84375
Q 52.203125 43.703125 52.203125 31.203125
" id="BitstreamVeraSans-Roman-61"/>
       <path d="M 52 44.1875
Q 55.375 50.25 60.0625 53.125
Q 64.75 56 71.09375 56
Q 79.640625 56 84.28125 50.015625
Q 88.921875 44.046875 88.921875 33.015625
L 88.921875 0
L 79.890625 0
L 79.890625 32.71875
Q 79.890625 40.578125 77.09375 44.375
Q 74.3125 48.1875 68.609375 48.1875
Q 61.625 48.1875 57.5625 43.546875
Q 53.515625 38.921875 53.515625 30.90625
L 53.515625 0
L 44.484375 0
L 44.484375 32.71875
Q 44.484375 40.625 41.703125 44.40625
Q 38.921875 48.1875 33.109375 48.1875
Q 26.21875 48.1875 22.15625 43.53125
Q 18.109375 38.875 18.109375 30.90625
L 18.109375 0
L 9.078125 0
L 9.078125 54.6875
L 18.109375 54.6875
L 18.109375 46.1875
Q 21.1875 51.21875 25.484375 53.609375
Q 29.78125 56 35.6875 56
Q 41.65625 56 45.828125 52.96875
Q 50 49.953125 52 44.1875
" id="BitstreamVeraSans-Roman-6d"/>
       <path d="M 10.984375 1.515625
L 10.984375 10.5
Q 14.703125 8.734375 18.5 7.8125
Q 22.3125 6.890625 25.984375 6.890625
Q 35.75 6.890625 40.890625 13.453125
Q 46.046875 20.015625 46.78125 33.40625
Q 43.953125 29.203125 39.59375 26.953125
Q 35.25 24.703125 29.984375 24.703125
Q 19.046875 24.703125 12.671875 31.3125
Q 6.296875 37.9375 6.296875 49.421875
Q 6.296875 60.640625 12.9375 67.421875
Q 19.578125 74.21875 30.609375 74.21875
Q 43.265625 74.21875 49.921875 64.515625
Q 56.59375 54.828125 56.59375 36.375
Q 56.59375 19.140625 48.40625 8.859375
Q 40.234375 -1.421875 26.421875 -1.421875
Q 22.703125 -1.421875 18.890625 -0.6875
Q 15.09375 0.046875 10.984375 1.515625
M 30.609375 32.421875
Q 37.25 32.421875 41.125 36.953125
Q 45.015625 41.5 45.015625 49.421875
Q 45.015625 57.28125 41.125 61.84375
Q 37.25 66.40625 30.609375 66.40625
Q 23.96875 66.40625 20.09375 61.84375
Q 16.21875 57.28125 16.21875 49.421875
Q 16.21875 41.5 20.09375 36.953125
Q 23.96875 32.421875 30.609375 32.421875
" id="BitstreamVeraSans-Roman-39"/>
      </defs>
      <g transform="translate(76.66125 272.318125)scale(0.12 -0.12)">
       <use xlink:href="#BitstreamVeraSans-Roman-39"/>
       <use x="63.623046875" xlink:href="#BitstreamVeraSans-Roman-61"/>
       <use x="124.90234375" xlink:href="#BitstreamVeraSans-Roman-6d"/>
      </g>
     </g>
    </g>
    <g id="xtick_2">
     <g id="line2d_5">
      <path clip-path="url(#p9b946b3736)" d="M 152 259.2
L 152 28.8
" style="fill:none;stroke:#000000;stroke-dasharray:1.000000,3.000000;stroke-dashoffset:0.0;stroke-width:0.5;"/>
     </g>
     <g id="line2d_6">
      <g>
       <use style="stroke:#000000;stroke-width:0.5;" x="152.0" xlink:href="#m779da91d50" y="259.2"/>
      </g>
     </g>
     <g id="line2d_7">
      <g>
       <use style="stroke:#000000;stroke-width:0.5;" x="152.0" xlink:href="#maf2ffa91f9" y="28.8"/>
      </g>
     </g>
     <g id="text_2">
      <!-- 10am -->
      <defs>
       <path d="M 31.78125 66.40625
Q 24.171875 66.40625 20.328125 58.90625
Q 16.5 51.421875 16.5 36.375
Q 16.5 21.390625 20.328125 13.890625
Q 24.171875 6.390625 31.78125 6.390625
Q 39.453125 6.390625 43.28125 13.890625
Q 47.125 21.390625 47.125 36.375
Q 47.125 51.421875 43.28125 58.90625
Q 39.453125 66.40625 31.78125 66.40625
M 31.78125 74.21875
Q 44.046875 74.21875 50.515625 64.515625
Q 56.984375 54.828125 56.984375 36.375
Q 56.984375 17.96875 50.515625 8.265625
Q 44.046875 -1.421875 31.78125 -1.421875
Q 19.53125 -1.421875 13.0625 8.265625
Q 6.59375 17.96875 6.59375 36.375
Q 6.59375 54.828125 13.0625 64.515625
Q 19.53125 74.21875 31.78125 74.21875
" id="BitstreamVeraSans-Roman-30"/>
       <path d="M 12.40625 8.296875
L 28.515625 8.296875
L 28.515625 63.921875
L 10.984375 60.40625
L 10.984375 69.390625
L 28.421875 72.90625
L 38.28125 72.90625
L 38.28125 8.296875
L 54.390625 8.296875
L 54.390625 0
L 12.40625 0
z
" id="BitstreamVeraSans-Roman-31"/>
      </defs>
      <g transform="translate(134.84375 272.318125)scale(0.12 -0.12)">
       <use xlink:href="#BitstreamVeraSans-Roman-31"/>
       <use x="63.623046875" xlink:href="#BitstreamVeraSans-Roman-30"/>
       <use x="127.24609375" xlink:href="#BitstreamVeraSans-Roman-61"/>
       <use x="188.525390625" xlink:href="#BitstreamVeraSans-Roman-6d"/>
      </g>
     </g>
    </g>
    <g id="xtick_3">
     <g id="line2d_8">
      <path clip-path="url(#p9b946b3736)" d="M 214 259.2
L 214 28.8
" style="fill:none;stroke:#000000;stroke-dasharray:1.000000,3.000000;stroke-dashoffset:0.0;stroke-width:0.5;"/>
     </g>
     <g id="line2d_9">
      <g>
       <use style="stroke:#000000;stroke-width:0.5;" x="214.0" xlink:href="#m779da91d50" y="259.2"/>
      </g>
     </g>
     <g id="line2d_10">
      <g>
       <use style="stroke:#000000;stroke-width:0.5;" x="214.0" xlink:href="#maf2ffa91f9" y="28.8"/>
      </g>
     </g>
     <g id="text_3">
      <!-- 11am -->
      <g transform="translate(196.84375 272.318125)scale(0.12 -0.12)">
       <use xlink:href="#BitstreamVeraSans-Roman-31"/>
       <use x="63.623046875" xlink:href="#BitstreamVeraSans-Roman-31"/>
       <use x="127.24609375" xlink:href="#BitstreamVeraSans-Roman-61"/>
       <use x="188.525390625" xlink:href="#BitstreamVeraSans-Roman-6d"/>
      </g>
     </g>
    </g>
    <g id="xtick_4">
     <g id="line2d_11">
      <path clip-path="url(#p9b946b3736)" d="M 276 259.2
L 276 28.8
" style="fill:none;stroke:#000000;stroke-dasharray:1.000000,3.000000;stroke-dashoffset:0.0;stroke-width:0.5;"/>
     </g>
     <g id="line2d_12">
      <g>
       <use style="stroke:#000000;stroke-width:0.5;" x="276.0" xlink:href="#m779da91d50" y="259.2"/>
      </g>
     </g>
     <g id="line2d_13">
      <g>
       <use style="stroke:#000000;stroke-width:0.5;" x="276.0" xlink:href="#maf2ffa91f9" y="28.8"/>
      </g>
     </g>
     <g id="text_4">
      <!-- 12pm -->
      <defs>
       <path d="M 19.1875 8.296875
L 53.609375 8.296875
L 53.609375 0
L 7.328125 0
L 7.328125 8.296875
Q 12.9375 14.109375 22.625 23.890625
Q 32.328125 33.6875 34.8125 36.53125
Q 39.546875 41.84375 41.421875 45.53125
Q 43.3125 49.21875 43.3125 52.78125
Q 43.3125 58.59375 39.234375 62.25
Q 35.15625 65.921875 28.609375 65.921875
Q 23.96875 65.921875 18.8125 64.3125
Q 13.671875 62.703125 7.8125 59.421875
L 7.8125 69.390625
Q 13.765625 71.78125 18.9375 73
Q 24.125 74.21875 28.421875 74.21875
Q 39.75 74.21875 46.484375 68.546875
Q 53.21875 62.890625 53.21875 53.421875
Q 53.21875 48.921875 51.53125 44.890625
Q 49.859375 40.875 45.40625 35.40625
Q 44.1875 33.984375 37.640625 27.21875
Q 31.109375 20.453125 19.1875 8.296875
" id="BitstreamVeraSans-Roman-32"/>
       <path d="M 18.109375 8.203125
L 18.109375 -20.796875
L 9.078125 -20.796875
L 9.078125 54.6875
L 18.109375 54.6875
L 18.109375 46.390625
Q 20.953125 51.265625 25.265625 53.625
Q 29.59375 56 35.59375 56
Q 45.5625 56 51.78125 48.09375
Q 58.015625 40.1875 58.015625 27.296875
Q 58.015625 14.40625 51.78125 6.484375
Q 45.5625 -1.421875 35.59375 -1.421875
Q 29.59375 -1.421875 25.265625 0.953125
Q 20.953125 3.328125 18.109375 8.203125
M 48.6875 27.296875
Q 48.6875 37.203125 44.609375 42.84375
Q 40.53125 48.484375 33.40625 48.484375
Q 26.265625 48.484375 22.1875 42.84375
Q 18.109375 37.203125 18.109375 27.296875
Q 18.109375 17.390625 22.1875 11.75
Q 26.265625 6.109375 33.40625 6.109375
Q 40.53125 6.109375 44.609375 11.75
Q 48.6875 17.390625 48.6875 27.296875
" id="BitstreamVeraSans-Roman-70"/>
      </defs>
      <g transform="translate(258.7115625 272.318125)scale(0.12 -0.12)">
       <use xlink:href="#BitstreamVeraSans-Roman-31"/>
       <use x="63.623046875" xlink:href="#BitstreamVeraSans-Roman-32"/>
       <use x="127.24609375" xlink:href="#BitstreamVeraSans-Roman-70"/>
       <use x="190.72265625" xlink:href="#BitstreamVeraSans-Roman-6d"/>
      </g>
     </g>
    </g>
    <g id="xtick_5">
     <g id="line2d_14">
      <path clip-path="url(#p9b946b3736)" d="M 338 259.2
L 338 28.8
" style="fill:none;stroke:#000000;stroke-dasharray:1.000000,3.000000;stroke-dashoffset:0.0;stroke-width:0.5;"/>
     </g>
     <g id="line2d_15">
      <g>
       <use style="stroke:#000000;stroke-width:0.5;" x="338.0" xlink:href="#m779da91d50" y="259.2"/>
      </g>
     </g>
     <g id="line2d_16">
      <g>
       <use style="stroke:#000000;stroke-width:0.5;" x="338.0" xlink:href="#maf2ffa91f9" y="28.8"/>
      </g>
     </g>
     <g id="text_5">
      <!-- 1pm -->
      <g transform="translate(324.5290625 272.318125)scale(0.12 -0.12)">
       <use xlink:href="#BitstreamVeraSans-Roman-31"/>
       <use x="63.623046875" xlink:href="#BitstreamVeraSans-Roman-70"/>
       <use x="127.099609375" xlink:href="#BitstreamVeraSans-Roman-6d"/>
      </g>
     </g>
    </g>
    <g id="xtick_6">
     <g id="line2d_17">
      <path clip-path="url(#p9b946b3736)" d="M 400 259.2
L 400 28.8
" style="fill:none;stroke:#000000;stroke-dasharray:1.000000,3.000000;stroke-dashoffset:0.0;stroke-width:0.5;"/>
     </g>
     <g id="line2d_18">
      <g>
       <use style="stroke:#000000;stroke-width:0.5;" x="400.0" xlink:href="#m779da91d50" y="259.2"/>
      </g>
     </g>
     <g id="line2d_19">
      <g>
       <use style="stroke:#000000;stroke-width:0.5;" x="400.0" xlink:href="#maf2ffa91f9" y="28.8"/>
      </g>
     </g>
     <g id="text_6">
      <!-- 2pm -->
      <g transform="translate(386.5290625 272.318125)scale(0.12 -0.12)">
       <use xlink:href="#BitstreamVeraSans-Roman-32"/>
       <use x="63.623046875" xlink:href="#BitstreamVeraSans-Roman-70"/>
       <use x="127.099609375" xlink:href="#BitstreamVeraSans-Roman-6d"/>
      </g>
     </g>
    </g>
    <g id="xtick_7">
     <g id="line2d_20">
      <path clip-path="url(#p9b946b3736)" d="M 462 259.2
L 462 28.8
" style="fill:none;stroke:#000000;stroke-dasharray:1.000000,3.000000;stroke-dashoffset:0.0;stroke-width:0.5;"/>
     </g>
     <g id="line2d_21">
      <g>
       <use style="stroke:#000000;stroke-width:0.5;" x="462.0" xlink:href="#m779da91d50" y="259.2"/>
      </g>
     </g>
     <g id="line2d_22">
      <g>
       <use style="stroke:#000000;stroke-width:0.5;" x="462.0" xlink:href="#maf2ffa91f9" y="28.8"/>
      </g>
     </g>
     <g id="text_7">
      <!-- 3pm -->
      <defs>
       <path d="M 40.578125 39.3125
Q 47.65625 37.796875 51.625 33
Q 55.609375 28.21875 55.609375 21.1875
Q 55.609375 10.40625 48.1875 4.484375
Q 40.765625 -1.421875 27.09375 -1.421875
Q 22.515625 -1.421875 17.65625 -0.515625
Q 12.796875 0.390625 7.625 2.203125
L 7.625 11.71875
Q 11.71875 9.328125 16.59375 8.109375
Q 21.484375 6.890625 26.8125 6.890625
Q 36.078125 6.890625 40.9375 10.546875
Q 45.796875 14.203125 45.796875 21.1875
Q 45.796875 27.640625 41.28125 31.265625
Q 36.765625 34.90625 28.71875 34.90625
L 20.21875 34.90625
L 20.21875 43.015625
L 29.109375 43.015625
Q 36.375 43.015625 40.234375 45.921875
Q 44.09375 48.828125 44.09375 54.296875
Q 44.09375 59.90625 40.109375 62.90625
Q 36.140625 65.921875 28.71875 65.921875
Q 24.65625 65.921875 20.015625 65.03125
Q 15.375 64.15625 9.8125 62.3125
L 9.8125 71.09375
Q 15.4375 72.65625 20.34375 73.4375
Q 25.25 74.21875 29.59375 74.21875
Q 40.828125 74.21875 47.359375 69.109375
Q 53.90625 64.015625 53.90625 55.328125
Q 53.90625 49.265625 50.4375 45.09375
Q 46.96875 40.921875 40.578125 39.3125
" id="BitstreamVeraSans-Roman-33"/>
      </defs>
      <g transform="translate(448.5290625 272.318125)scale(0.12 -0.12)">
       <use xlink:href="#BitstreamVeraSans-Roman-33"/>
       <use x="63.623046875" xlink:href="#BitstreamVeraSans-Roman-70"/>
       <use x="127.099609375" xlink:href="#BitstreamVeraSans-Roman-6d"/>
      </g>
     </g>
    </g>
    <g id="xtick_8">
     <g id="line2d_23">
      <path clip-path="url(#p9b946b3736)" d="M 524 259.2
L 524 28.8
" style="fill:none;stroke:#000000;stroke-dasharray:1.000000,3.000000;stroke-dashoffset:0.0;stroke-width:0.5;"/>
     </g>
     <g id="line2d_24">
      <g>
       <use style="stroke:#000000;stroke-width:0.5;" x="524.0" xlink:href="#m779da91d50" y="259.2"/>
      </g>
     </g>
     <g id="line2d_25">
      <g>
       <use style="stroke:#000000;stroke-width:0.5;" x="524.0" xlink:href="#maf2ffa91f9" y="28.8"/>
      </g>
     </g>
     <g id="text_8">
      <!-- 4pm -->
      <defs>
       <path d="M 37.796875 64.3125
L 12.890625 25.390625
L 37.796875 25.390625
z
M 35.203125 72.90625
L 47.609375 72.90625
L 47.609375 25.390625
L 58.015625 25.390625
L 58.015625 17.1875
L 47.609375 17.1875
L 47.609375 0
L 37.796875 0
L 37.796875 17.1875
L 4.890625 17.1875
L 4.890625 26.703125
z
" id="BitstreamVeraSans-Roman-34"/>
      </defs>
      <g transform="translate(510.5290625 272.318125)scale(0.12 -0.12)">
       <use xlink:href="#BitstreamVeraSans-Roman-34"/>
       <use x="63.623046875" xlink:href="#BitstreamVeraSans-Roman-70"/>
       <use x="127.099609375" xlink:href="#BitstreamVeraSans-Roman-6d"/>
      </g>
     </g>
    </g>
    <g id="xtick_9">
     <g id="line2d_26">
      <path clip-path="url(#p9b946b3736)" d="M 586 259.2
L 586 28.8
" style="fill:none;stroke:#000000;stroke-dasharray:1.000000,3.000000;stroke-dashoffset:0.0;stroke-width:0.5;"/>
     </g>
     <g id="line2d_27">
      <g>
       <use style="stroke:#000000;stroke-width:0.5;" x="586.0" xlink:href="#m779da91d50" y="259.2"/>
      </g>
     </g>
     <g id="line2d_28">
      <g>
       <use style="stroke:#000000;stroke-width:0.5;" x="586.0" xlink:href="#maf2ffa91f9" y="28.8"/>
      </g>
     </g>
     <g id="text_9">
      <!-- 5pm -->
      <defs>
       <path d="M 10.796875 72.90625
L 49.515625 72.90625
L 49.515625 64.59375
L 19.828125 64.59375
L 19.828125 46.734375
Q 21.96875 47.46875 24.109375 47.828125
Q 26.265625 48.1875 28.421875 48.1875
Q 40.625 48.1875 47.75 41.5
Q 54.890625 34.8125 54.890625 23.390625
Q 54.890625 11.625 47.5625 5.09375
Q 40.234375 -1.421875 26.90625 -1.421875
Q 22.3125 -1.421875 17.546875 -0.640625
Q 12.796875 0.140625 7.71875 1.703125
L 7.71875 11.625
Q 12.109375 9.234375 16.796875 8.0625
Q 21.484375 6.890625 26.703125 6.890625
Q 35.15625 6.890625 40.078125 11.328125
Q 45.015625 15.765625 45.015625 23.390625
Q 45.015625 31 40.078125 35.4375
Q 35.15625 39.890625 26.703125 39.890625
Q 22.75 39.890625 18.8125 39.015625
Q 14.890625 38.140625 10.796875 36.28125
z
" id="BitstreamVeraSans-Roman-35"/>
      </defs>
      <g transform="translate(572.5290625 272.318125)scale(0.12 -0.12)">
       <use xlink:href="#BitstreamVeraSans-Roman-35"/>
       <use x="63.623046875" xlink:href="#BitstreamVeraSans-Roman-70"/>
       <use x="127.099609375" xlink:href="#BitstreamVeraSans-Roman-6d"/>
      </g>
     </g>
    </g>
    <g id="xtick_10">
     <g id="line2d_29">
      <path clip-path="url(#p9b946b3736)" d="M 648 259.2
L 648 28.8
" style="fill:none;stroke:#000000;stroke-dasharray:1.000000,3.000000;stroke-dashoffset:0.0;stroke-width:0.5;"/>
     </g>
     <g id="line2d_30">
      <g>
       <use style="stroke:#000000;stroke-width:0.5;" x="648.0" xlink:href="#m779da91d50" y="259.2"/>
      </g>
     </g>
     <g id="line2d_31">
      <g>
       <use style="stroke:#000000;stroke-width:0.5;" x="648.0" xlink:href="#maf2ffa91f9" y="28.8"/>
      </g>
     </g>
     <g id="text_10">
      <!-- 6pm -->
      <defs>
       <path d="M 33.015625 40.375
Q 26.375 40.375 22.484375 35.828125
Q 18.609375 31.296875 18.609375 23.390625
Q 18.609375 15.53125 22.484375 10.953125
Q 26.375 6.390625 33.015625 6.390625
Q 39.65625 6.390625 43.53125 10.953125
Q 47.40625 15.53125 47.40625 23.390625
Q 47.40625 31.296875 43.53125 35.828125
Q 39.65625 40.375 33.015625 40.375
M 52.59375 71.296875
L 52.59375 62.3125
Q 48.875 64.0625 45.09375 64.984375
Q 41.3125 65.921875 37.59375 65.921875
Q 27.828125 65.921875 22.671875 59.328125
Q 17.53125 52.734375 16.796875 39.40625
Q 19.671875 43.65625 24.015625 45.921875
Q 28.375 48.1875 33.59375 48.1875
Q 44.578125 48.1875 50.953125 41.515625
Q 57.328125 34.859375 57.328125 23.390625
Q 57.328125 12.15625 50.6875 5.359375
Q 44.046875 -1.421875 33.015625 -1.421875
Q 20.359375 -1.421875 13.671875 8.265625
Q 6.984375 17.96875 6.984375 36.375
Q 6.984375 53.65625 15.1875 63.9375
Q 23.390625 74.21875 37.203125 74.21875
Q 40.921875 74.21875 44.703125 73.484375
Q 48.484375 72.75 52.59375 71.296875
" id="BitstreamVeraSans-Roman-36"/>
      </defs>
      <g transform="translate(634.5290625 272.318125)scale(0.12 -0.12)">
       <use xlink:href="#BitstreamVeraSans-Roman-36"/>
       <use x="63.623046875" xlink:href="#BitstreamVeraSans-Roman-70"/>
       <use x="127.099609375" xlink:href="#BitstreamVeraSans-Roman-6d"/>
      </g>
     </g>
    </g>
   </g>
   <g id="matplotlib.axis_2">
    <g id="ytick_1">
     <g id="line2d_32">
      <path clip-path="url(#p9b946b3736)" d="M 90 259.2
L 648 259.2
" style="fill:none;stroke:#000000;stroke-dasharray:1.000000,3.000000;stroke-dashoffset:0.0;stroke-width:0.5;"/>
     </g>
     <g id="line2d_33">
      <defs>
       <path d="M 0 0
L 4 0
" id="md7c93b0909" style="stroke:#000000;stroke-width:0.5;"/>
      </defs>
      <g>
       <use style="stroke:#000000;stroke-width:0.5;" x="90.0" xlink:href="#md7c93b0909" y="259.2"/>
      </g>
     </g>
     <g id="line2d_34">
      <defs>
       <path d="M 0 0
L -4 0
" id="m655dbd1e9a" style="stroke:#000000;stroke-width:0.5;"/>
      </defs>
      <g>
       <use style="stroke:#000000;stroke-width:0.5;" x="648.0" xlink:href="#m655dbd1e9a" y="259.2"/>
      </g>
     </g>
     <g id="text_11">
      <!-- 0 -->
      <g transform="translate(78.365 262.51125)scale(0.12 -0.12)">
       <use xlink:href="#BitstreamVeraSans-Roman-30"/>
      </g>
     </g>
    </g>
    <g id="ytick_2">
     <g id="line2d_35">
      <path clip-path="url(#p9b946b3736)" d="M 90 216.533333
L 648 216.533333
" style="fill:none;stroke:#000000;stroke-dasharray:1.000000,3.000000;stroke-dashoffset:0.0;stroke-width:0.5;"/>
     </g>
     <g id="line2d_36">
      <g>
       <use style="stroke:#000000;stroke-width:0.5;" x="90.0" xlink:href="#md7c93b0909" y="216.533333333"/>
      </g>
     </g>
     <g id="line2d_37">
      <g>
       <use style="stroke:#000000;stroke-width:0.5;" x="648.0" xlink:href="#m655dbd1e9a" y="216.533333333"/>
      </g>
     </g>
     <g id="text_12">
      <!-- 5 -->
      <g transform="translate(78.365 219.844583333)scale(0.12 -0.12)">
       <use xlink:href="#BitstreamVeraSans-Roman-35"/>
      </g>
     </g>
    </g>
    <g id="ytick_3">
     <g id="line2d_38">
      <path clip-path="url(#p9b946b3736)" d="M 90 173.866667
L 648 173.866667
" style="fill:none;stroke:#000000;stroke-dasharray:1.000000,3.000000;stroke-dashoffset:0.0;stroke-width:0.5;"/>
     </g>
     <g id="line2d_39">
      <g>
       <use style="stroke:#000000;stroke-width:0.5;" x="90.0" xlink:href="#md7c93b0909" y="173.866666667"/>
      </g>
     </g>
     <g id="line2d_40">
      <g>
       <use style="stroke:#000000;stroke-width:0.5;" x="648.0" xlink:href="#m655dbd1e9a" y="173.866666667"/>
      </g>
     </g>
     <g id="text_13">
      <!-- 10 -->
      <g transform="translate(70.73 177.177916667)scale(0.12 -0.12)">
       <use xlink:href="#BitstreamVeraSans-Roman-31"/>
       <use x="63.623046875" xlink:href="#BitstreamVeraSans-Roman-30"/>
      </g>
     </g>
    </g>
    <g id="ytick_4">
     <g id="line2d_41">
      <path clip-path="url(#p9b946b3736)" d="M 90 131.2
L 648 131.2
" style="fill:none;stroke:#000000;stroke-dasharray:1.000000,3.000000;stroke-dashoffset:0.0;stroke-width:0.5;"/>
     </g>
     <g id="line2d_42">
      <g>
       <use style="stroke:#000000;stroke-width:0.5;" x="90.0" xlink:href="#md7c93b0909" y="131.2"/>
      </g>
     </g>
     <g id="line2d_43">
      <g>
       <use style="stroke:#000000;stroke-width:0.5;" x="648.0" xlink:href="#m655dbd1e9a" y="131.2"/>
      </g>
     </g>
     <g id="text_14">
      <!-- 15 -->
      <g transform="translate(70.73 134.51125)scale(0.12 -0.12)">
       <use xlink:href="#BitstreamVeraSans-Roman-31"/>
       <use x="63.623046875" xlink:href="#BitstreamVeraSans-Roman-35"/>
      </g>
     </g>
    </g>
    <g id="ytick_5">
     <g id="line2d_44">
      <path clip-path="url(#p9b946b3736)" d="M 90 88.533333
L 648 88.533333
" style="fill:none;stroke:#000000;stroke-dasharray:1.000000,3.000000;stroke-dashoffset:0.0;stroke-width:0.5;"/>
     </g>
     <g id="line2d_45">
      <g>
       <use style="stroke:#000000;stroke-width:0.5;" x="90.0" xlink:href="#md7c93b0909" y="88.5333333333"/>
      </g>
     </g>
     <g id="line2d_46">
      <g>
       <use style="stroke:#000000;stroke-width:0.5;" x="648.0" xlink:href="#m655dbd1e9a" y="88.5333333333"/>
      </g>
     </g>
     <g id="text_15">
      <!-- 20 -->
      <g transform="translate(70.73 91.8445833333)scale(0.12 -0.12)">
       <use xlink:href="#BitstreamVeraSans-Roman-32"/>
       <use x="63.623046875" xlink:href="#BitstreamVeraSans-Roman-30"/>
      </g>
     </g>
    </g>
    <g id="ytick_6">
     <g id="line2d_47">
      <path clip-path="url(#p9b946b3736)" d="M 90 45.866667
L 648 45.866667
" style="fill:none;stroke:#000000;stroke-dasharray:1.000000,3.000000;stroke-dashoffset:0.0;stroke-width:0.5;"/>
     </g>
     <g id="line2d_48">
      <g>
       <use style="stroke:#000000;stroke-width:0.5;" x="90.0" xlink:href="#md7c93b0909" y="45.8666666667"/>
      </g>
     </g>
     <g id="line2d_49">
      <g>
       <use style="stroke:#000000;stroke-width:0.5;" x="648.0" xlink:href="#m655dbd1e9a" y="45.8666666667"/>
      </g>
     </g>
     <g id="text_16">
      <!-- 25 -->
      <g transform="translate(70.73 49.1779166667)scale(0.12 -0.12)">
       <use xlink:href="#BitstreamVeraSans-Roman-32"/>
       <use x="63.623046875" xlink:href="#BitstreamVeraSans-Roman-35"/>
      </g>
     </g>
    </g>
    <g id="text_17">
     <!-- Computers in Use -->
     <defs>
      <path d="M 54.890625 33.015625
L 54.890625 0
L 45.90625 0
L 45.90625 32.71875
Q 45.90625 40.484375 42.875 44.328125
Q 39.84375 48.1875 33.796875 48.1875
Q 26.515625 48.1875 22.3125 43.546875
Q 18.109375 38.921875 18.109375 30.90625
L 18.109375 0
L 9.078125 0
L 9.078125 54.6875
L 18.109375 54.6875
L 18.109375 46.1875
Q 21.34375 51.125 25.703125 53.5625
Q 30.078125 56 35.796875 56
Q 45.21875 56 50.046875 50.171875
Q 54.890625 44.34375 54.890625 33.015625
" id="BitstreamVeraSans-Roman-6e"/>
      <path d="M 18.3125 70.21875
L 18.3125 54.6875
L 36.8125 54.6875
L 36.8125 47.703125
L 18.3125 47.703125
L 18.3125 18.015625
Q 18.3125 11.328125 20.140625 9.421875
Q 21.96875 7.515625 27.59375 7.515625
L 36.8125 7.515625
L 36.8125 0
L 27.59375 0
Q 17.1875 0 13.234375 3.875
Q 9.28125 7.765625 9.28125 18.015625
L 9.28125 47.703125
L 2.6875 47.703125
L 2.6875 54.6875
L 9.28125 54.6875
L 9.28125 70.21875
z
" id="BitstreamVeraSans-Roman-74"/>
      <path id="BitstreamVeraSans-Roman-20"/>
      <path d="M 8.6875 72.90625
L 18.609375 72.90625
L 18.609375 28.609375
Q 18.609375 16.890625 22.84375 11.734375
Q 27.09375 6.59375 36.625 6.59375
Q 46.09375 6.59375 50.34375 11.734375
Q 54.59375 16.890625 54.59375 28.609375
L 54.59375 72.90625
L 64.5 72.90625
L 64.5 27.390625
Q 64.5 13.140625 57.4375 5.859375
Q 50.390625 -1.421875 36.625 -1.421875
Q 22.796875 -1.421875 15.734375 5.859375
Q 8.6875 13.140625 8.6875 27.390625
z
" id="BitstreamVeraSans-Roman-55"/>
      <path d="M 8.5 21.578125
L 8.5 54.6875
L 17.484375 54.6875
L 17.484375 21.921875
Q 17.484375 14.15625 20.5 10.265625
Q 23.53125 6.390625 29.59375 6.390625
Q 36.859375 6.390625 41.078125 11.03125
Q 45.3125 15.671875 45.3125 23.6875
L 45.3125 54.6875
L 54.296875 54.6875
L 54.296875 0
L 45.3125 0
L 45.3125 8.40625
Q 42.046875 3.421875 37.71875 1
Q 33.40625 -1.421875 27.6875 -1.421875
Q 18.265625 -1.421875 13.375 4.4375
Q 8.5 10.296875 8.5 21.578125
" id="BitstreamVeraSans-Roman-75"/>
      <path d="M 9.421875 54.6875
L 18.40625 54.6875
L 18.40625 0
L 9.421875 0
z
M 9.421875 75.984375
L 18.40625 75.984375
L 18.40625 64.59375
L 9.421875 64.59375
z
" id="BitstreamVeraSans-Roman-69"/>
      <path d="M 30.609375 48.390625
Q 23.390625 48.390625 19.1875 42.75
Q 14.984375 37.109375 14.984375 27.296875
Q 14.984375 17.484375 19.15625 11.84375
Q 23.34375 6.203125 30.609375 6.203125
Q 37.796875 6.203125 41.984375 11.859375
Q 46.1875 17.53125 46.1875 27.296875
Q 46.1875 37.015625 41.984375 42.703125
Q 37.796875 48.390625 30.609375 48.390625
M 30.609375 56
Q 42.328125 56 49.015625 48.375
Q 55.71875 40.765625 55.71875 27.296875
Q 55.71875 13.875 49.015625 6.21875
Q 42.328125 -1.421875 30.609375 -1.421875
Q 18.84375 -1.421875 12.171875 6.21875
Q 5.515625 13.875 5.515625 27.296875
Q 5.515625 40.765625 12.171875 48.375
Q 18.84375 56 30.609375 56
" id="BitstreamVeraSans-Roman-6f"/>
      <path d="M 64.40625 67.28125
L 64.40625 56.890625
Q 59.421875 61.53125 53.78125 63.8125
Q 48.140625 66.109375 41.796875 66.109375
Q 29.296875 66.109375 22.65625 58.46875
Q 16.015625 50.828125 16.015625 36.375
Q 16.015625 21.96875 22.65625 14.328125
Q 29.296875 6.6875 41.796875 6.6875
Q 48.140625 6.6875 53.78125 8.984375
Q 59.421875 11.28125 64.40625 15.921875
L 64.40625 5.609375
Q 59.234375 2.09375 53.4375 0.328125
Q 47.65625 -1.421875 41.21875 -1.421875
Q 24.65625 -1.421875 15.125 8.703125
Q 5.609375 18.84375 5.609375 36.375
Q 5.609375 53.953125 15.125 64.078125
Q 24.65625 74.21875 41.21875 74.21875
Q 47.75 74.21875 53.53125 72.484375
Q 59.328125 70.75 64.40625 67.28125
" id="BitstreamVeraSans-Roman-43"/>
      <path d="M 44.28125 53.078125
L 44.28125 44.578125
Q 40.484375 46.53125 36.375 47.5
Q 32.28125 48.484375 27.875 48.484375
Q 21.1875 48.484375 17.84375 46.4375
Q 14.5 44.390625 14.5 40.28125
Q 14.5 37.15625 16.890625 35.375
Q 19.28125 33.59375 26.515625 31.984375
L 29.59375 31.296875
Q 39.15625 29.25 43.1875 25.515625
Q 47.21875 21.78125 47.21875 15.09375
Q 47.21875 7.46875 41.1875 3.015625
Q 35.15625 -1.421875 24.609375 -1.421875
Q 20.21875 -1.421875 15.453125 -0.5625
Q 10.6875 0.296875 5.421875 2
L 5.421875 11.28125
Q 10.40625 8.6875 15.234375 7.390625
Q 20.0625 6.109375 24.8125 6.109375
Q 31.15625 6.109375 34.5625 8.28125
Q 37.984375 10.453125 37.984375 14.40625
Q 37.984375 18.0625 35.515625 20.015625
Q 33.0625 21.96875 24.703125 23.78125
L 21.578125 24.515625
Q 13.234375 26.265625 9.515625 29.90625
Q 5.8125 33.546875 5.8125 39.890625
Q 5.8125 47.609375 11.28125 51.796875
Q 16.75 56 26.8125 56
Q 31.78125 56 36.171875 55.265625
Q 40.578125 54.546875 44.28125 53.078125
" id="BitstreamVeraSans-Roman-73"/>
      <path d="M 41.109375 46.296875
Q 39.59375 47.171875 37.8125 47.578125
Q 36.03125 48 33.890625 48
Q 26.265625 48 22.1875 43.046875
Q 18.109375 38.09375 18.109375 28.8125
L 18.109375 0
L 9.078125 0
L 9.078125 54.6875
L 18.109375 54.6875
L 18.109375 46.1875
Q 20.953125 51.171875 25.484375 53.578125
Q 30.03125 56 36.53125 56
Q 37.453125 56 38.578125 55.875
Q 39.703125 55.765625 41.0625 55.515625
z
" id="BitstreamVeraSans-Roman-72"/>
      <path d="M 56.203125 29.59375
L 56.203125 25.203125
L 14.890625 25.203125
Q 15.484375 15.921875 20.484375 11.0625
Q 25.484375 6.203125 34.421875 6.203125
Q 39.59375 6.203125 44.453125 7.46875
Q 49.3125 8.734375 54.109375 11.28125
L 54.109375 2.78125
Q 49.265625 0.734375 44.1875 -0.34375
Q 39.109375 -1.421875 33.890625 -1.421875
Q 20.796875 -1.421875 13.15625 6.1875
Q 5.515625 13.8125 5.515625 26.8125
Q 5.515625 40.234375 12.765625 48.109375
Q 20.015625 56 32.328125 56
Q 43.359375 56 49.78125 48.890625
Q 56.203125 41.796875 56.203125 29.59375
M 47.21875 32.234375
Q 47.125 39.59375 43.09375 43.984375
Q 39.0625 48.390625 32.421875 48.390625
Q 24.90625 48.390625 20.390625 44.140625
Q 15.875 39.890625 15.1875 32.171875
z
" id="BitstreamVeraSans-Roman-65"/>
     </defs>
     <g transform="translate(63.234375 197.445)rotate(-90.0)scale(0.12 -0.12)">
      <use xlink:href="#BitstreamVeraSans-Roman-43"/>
      <use x="69.82421875" xlink:href="#BitstreamVeraSans-Roman-6f"/>
      <use x="131.005859375" xlink:href="#BitstreamVeraSans-Roman-6d"/>
      <use x="228.41796875" xlink:href="#BitstreamVeraSans-Roman-70"/>
      <use x="291.89453125" xlink:href="#BitstreamVeraSans-Roman-75"/>
      <use x="355.2734375" xlink:href="#BitstreamVeraSans-Roman-74"/>
      <use x="394.482421875" xlink:href="#BitstreamVeraSans-Roman-65"/>
      <use x="456.005859375" xlink:href="#BitstreamVeraSans-Roman-72"/>
      <use x="497.119140625" xlink:href="#BitstreamVeraSans-Roman-73"/>
      <use x="549.21875" xlink:href="#BitstreamVeraSans-Roman-20"/>
      <use x="581.005859375" xlink:href="#BitstreamVeraSans-Roman-69"/>
      <use x="608.7890625" xlink:href="#BitstreamVeraSans-Roman-6e"/>
      <use x="672.16796875" xlink:href="#BitstreamVeraSans-Roman-20"/>
      <use x="703.955078125" xlink:href="#BitstreamVeraSans-Roman-55"/>
      <use x="777.1484375" xlink:href="#BitstreamVeraSans-Roman-73"/>
      <use x="829.248046875" xlink:href="#BitstreamVeraSans-Roman-65"/>
     </g>
    </g>
   </g>
   <g id="text_18">
    <!-- Lab Utilization Tue Jan 26, 12:00:00 AM -->
    <defs>
     <path d="M 48.6875 27.296875
Q 48.6875 37.203125 44.609375 42.84375
Q 40.53125 48.484375 33.40625 48.484375
Q 26.265625 48.484375 22.1875 42.84375
Q 18.109375 37.203125 18.109375 27.296875
Q 18.109375 17.390625 22.1875 11.75
Q 26.265625 6.109375 33.40625 6.109375
Q 40.53125 6.109375 44.609375 11.75
Q 48.6875 17.390625 48.6875 27.296875
M 18.109375 46.390625
Q 20.953125 51.265625 25.265625 53.625
Q 29.59375 56 35.59375 56
Q 45.5625 56 51.78125 48.09375
Q 58.015625 40.1875 58.015625 27.296875
Q 58.015625 14.40625 51.78125 6.484375
Q 45.5625 -1.421875 35.59375 -1.421875
Q 29.59375 -1.421875 25.265625 0.953125
Q 20.953125 3.328125 18.109375 8.203125
L 18.109375 0
L 9.078125 0
L 9.078125 75.984375
L 18.109375 75.984375
z
" id="BitstreamVeraSans-Roman-62"/>
     <path d="M 11.71875 12.40625
L 22.015625 12.40625
L 22.015625 0
L 11.71875 0
z
M 11.71875 51.703125
L 22.015625 51.703125
L 22.015625 39.3125
L 11.71875 39.3125
z
" id="BitstreamVeraSans-Roman-3a"/>
     <path d="M 9.8125 72.90625
L 19.671875 72.90625
L 19.671875 5.078125
Q 19.671875 -8.109375 14.671875 -14.0625
Q 9.671875 -20.015625 -1.421875 -20.015625
L -5.171875 -20.015625
L -5.171875 -11.71875
L -2.09375 -11.71875
Q 4.4375 -11.71875 7.125 -8.046875
Q 9.8125 -4.390625 9.8125 5.078125
z
" id="BitstreamVeraSans-Roman-4a"/>
     <path d="M 9.8125 72.90625
L 24.515625 72.90625
L 43.109375 23.296875
L 61.8125 72.90625
L 76.515625 72.90625
L 76.515625 0
L 66.890625 0
L 66.890625 64.015625
L 48.09375 14.015625
L 38.1875 14.015625
L 19.390625 64.015625
L 19.390625 0
L 9.8125 0
z
" id="BitstreamVeraSans-Roman-4d"/>
     <path d="M 5.515625 54.6875
L 48.1875 54.6875
L 48.1875 46.484375
L 14.40625 7.171875
L 48.1875 7.171875
L 48.1875 0
L 4.296875 0
L 4.296875 8.203125
L 38.09375 47.515625
L 5.515625 47.515625
z
" id="BitstreamVeraSans-Roman-7a"/>
     <path d="M 34.1875 63.1875
L 20.796875 26.90625
L 47.609375 26.90625
z
M 28.609375 72.90625
L 39.796875 72.90625
L 67.578125 0
L 57.328125 0
L 50.6875 18.703125
L 17.828125 18.703125
L 11.1875 0
L 0.78125 0
z
" id="BitstreamVeraSans-Roman-41"/>
     <path d="M 9.8125 72.90625
L 19.671875 72.90625
L 19.671875 8.296875
L 55.171875 8.296875
L 55.171875 0
L 9.8125 0
z
" id="BitstreamVeraSans-Roman-4c"/>
     <path d="M -0.296875 72.90625
L 61.375 72.90625
L 61.375 64.59375
L 35.5 64.59375
L 35.5 0
L 25.59375 0
L 25.59375 64.59375
L -0.296875 64.59375
z
" id="BitstreamVeraSans-Roman-54"/>
     <path d="M 11.71875 12.40625
L 22.015625 12.40625
L 22.015625 4
L 14.015625 -11.625
L 7.71875 -11.625
L 11.71875 4
z
" id="BitstreamVeraSans-Roman-2c"/>
     <path d="M 9.421875 75.984375
L 18.40625 75.984375
L 18.40625 0
L 9.421875 0
z
" id="BitstreamVeraSans-Roman-6c"/>
    </defs>
    <g transform="translate(226.80225 23.8)scale(0.144 -0.144)">
     <use xlink:href="#BitstreamVeraSans-Roman-4c"/>
     <use x="55.712890625" xlink:href="#BitstreamVeraSans-Roman-61"/>
     <use x="116.9921875" xlink:href="#BitstreamVeraSans-Roman-62"/>
     <use x="180.46875" xlink:href="#BitstreamVeraSans-Roman-20"/>
     <use x="212.255859375" xlink:href="#BitstreamVeraSans-Roman-55"/>
     <use x="285.44921875" xlink:href="#BitstreamVeraSans-Roman-74"/>
     <use x="324.658203125" xlink:href="#BitstreamVeraSans-Roman-69"/>
     <use x="352.44140625" xlink:href="#BitstreamVeraSans-Roman-6c"/>
     <use x="380.224609375" xlink:href="#BitstreamVeraSans-Roman-69"/>
     <use x="408.0078125" xlink:href="#BitstreamVeraSans-Roman-7a"/>
     <use x="460.498046875" xlink:href="#BitstreamVeraSans-Roman-61"/>
     <use x="521.77734375" xlink:href="#BitstreamVeraSans-Roman-74"/>
     <use x="560.986328125" xlink:href="#BitstreamVeraSans-Roman-69"/>
     <use x="588.76953125" xlink:href="#BitstreamVeraSans-Roman-6f"/>
     <use x="649.951171875" xlink:href="#BitstreamVeraSans-Roman-6e"/>
     <use x="713.330078125" xlink:href="#BitstreamVeraSans-Roman-20"/>
     <use x="745.1171875" xlink:href="#BitstreamVeraSans-Roman-54"/>
     <use x="805.966796875" xlink:href="#BitstreamVeraSans-Roman-75"/>
     <use x="869.345703125" xlink:href="#BitstreamVeraSans-Roman-65"/>
     <use x="930.869140625" xlink:href="#BitstreamVeraSans-Roman-20"/>
     <use x="962.65625" xlink:href="#BitstreamVeraSans-Roman-4a"/>
     <use x="992.1484375" xlink:href="#BitstreamVeraSans-Roman-61"/>
     <use x="1053.427734375" xlink:href="#BitstreamVeraSans-Roman-6e"/>
     <use x="1116.806640625" xlink:href="#BitstreamVeraSans-Roman-20"/>
     <use x="1148.59375" xlink:href="#BitstreamVeraSans-Roman-32"/>
     <use x="1212.216796875" xlink:href="#BitstreamVeraSans-Roman-36"/>
     <use x="1275.83984375" xlink:href="#BitstreamVeraSans-Roman-2c"/>
     <use x="1307.626953125" xlink:href="#BitstreamVeraSans-Roman-20"/>
     <use x="1339.4140625" xlink:href="#BitstreamVeraSans-Roman-31"/>
     <use x="1403.037109375" xlink:href="#BitstreamVeraSans-Roman-32"/>
     <use x="1466.66015625" xlink:href="#BitstreamVeraSans-Roman-3a"/>
     <use x="1500.3515625" xlink:href="#BitstreamVeraSans-Roman-30"/>
     <use x="1563.974609375" xlink:href="#BitstreamVeraSans-Roman-30"/>
     <use x="1627.59765625" xlink:href="#BitstreamVeraSans-Roman-3a"/>
     <use x="1661.2890625" xlink:href="#BitstreamVeraSans-Roman-30"/>
     <use x="1724.912109375" xlink:href="#BitstreamVeraSans-Roman-30"/>
     <use x="1788.53515625" xlink:href="#BitstreamVeraSans-Roman-20"/>
     <use x="1820.322265625" xlink:href="#BitstreamVeraSans-Roman-41"/>
     <use x="1888.73046875" xlink:href="#BitstreamVeraSans-Roman-4d"/>
    </g>
   </g>
  </g>
 </g>
 <defs>
  <clipPath id="p9b946b3736">
   <rect height="230.4" width="558.0" x="90.0" y="28.8"/>
  </clipPath>
 </defs>
</svg>
