<?xml version="1.0" encoding="utf-8" standalone="no"?>
<!DOCTYPE svg PUBLIC "-//W3C//DTD SVG 1.1//EN"
  "http://www.w3.org/Graphics/SVG/1.1/DTD/svg11.dtd">
<!-- Created with matplotlib (http://matplotlib.org/) -->
<svg height="288pt" version="1.1" viewBox="0 0 720 288" width="720pt" xmlns="http://www.w3.org/2000/svg" xmlns:xlink="http://www.w3.org/1999/xlink">
 <defs>
  <style type="text/css">
*{stroke-linecap:butt;stroke-linejoin:round;stroke-miterlimit:100000;}
  </style>
 </defs>
 <g id="figure_1">
  <g id="patch_1">
   <path d="M 0 288
L 720 288
L 720 0
L 0 0
z
" style="fill:#ffffff;"/>
  </g>
  <g id="axes_1">
   <g id="patch_2">
    <path d="M 90 259.2
L 648 259.2
L 648 28.8
L 90 28.8
z
" style="fill:#ffffff;"/>
   </g>
   <g id="line2d_1">
    <path clip-path="url(#p949c428314)" d="M 90 239.466667
L 91.55 230.933333
L 93.1 219.2
L 93.875 215.466667
L 94.65 214.4
L 95.425 211.2
L 96.2 200
L 96.975 184.533333
L 97.75 173.333333
L 101.625 140.8
L 102.4 137.6
L 103.175 141.333333
L 104.725 159.466667
L 105.5 163.733333
L 106.275 161.6
L 107.05 154.133333
L 108.6 134.4
L 110.15 109.866667
L 110.925 102.933333
L 111.7 101.333333
L 112.475 101.866667
L 113.25 102.933333
L 114.8 102.933333
L 115.575 106.133333
L 117.9 122.133333
L 118.675 125.333333
L 119.45 125.333333
L 120.225 126.4
L 121 133.333333
L 122.55 157.333333
L 123.325 160
L 124.1 156.8
L 124.875 150.4
L 126.425 129.6
L 127.2 126.933333
L 127.975 129.6
L 128.75 128
L 130.3 109.866667
L 131.075 106.133333
L 131.85 104
L 132.625 97.066667
L 133.4 85.866667
L 134.175 78.4
L 134.95 79.466667
L 135.725 88.533333
L 138.05 134.4
L 138.825 136.533333
L 139.6 129.6
L 140.375 120
L 141.15 108.266667
L 142.7 79.466667
L 143.475 72
L 144.25 74.133333
L 145.025 82.666667
L 145.8 84.8
L 146.575 72
L 147.35 53.866667
L 148.125 43.733333
L 148.9 41.066667
L 149.675 40
L 150.45 40
L 151.225 40.533333
L 152 39.466667
L 152.775 37.333333
L 153.55 34.666667
L 154.325 31.466667
L 155.1 29.866667
L 155.875 31.466667
L 156.65 34.666667
L 157.425 36.266667
L 158.2 34.666667
L 158.975 32
L 159.75 33.066667
L 161.3 47.466667
L 162.075 48
L 162.85 42.666667
L 163.625 39.466667
L 164.4 42.133333
L 165.175 47.466667
L 165.95 54.4
L 167.5 76.8
L 168.275 80.533333
L 169.05 77.866667
L 169.825 74.666667
L 170.6 73.6
L 171.375 70.4
L 172.15 59.2
L 172.925 43.733333
L 173.7 33.066667
L 174.475 29.333333
L 175.25 28.8
L 176.8 28.8
L 177.575 31.466667
L 178.35 41.6
L 179.125 56
L 179.9 64.533333
L 180.675 65.066667
L 181.45 64
L 182.225 64.533333
L 183 64.533333
L 184.55 62.4
L 185.325 60.8
L 186.1 60.266667
L 186.875 62.933333
L 187.65 66.133333
L 188.425 67.733333
L 189.2 67.733333
L 190.75 61.333333
L 191.525 61.866667
L 192.3 61.866667
L 193.075 59.733333
L 194.625 56.533333
L 195.4 56
L 196.175 58.666667
L 196.95 59.733333
L 197.725 53.333333
L 198.5 44.266667
L 199.275 41.6
L 200.05 46.4
L 200.825 53.866667
L 201.6 59.2
L 202.375 59.733333
L 203.15 56.533333
L 204.7 46.4
L 205.475 43.733333
L 206.25 46.4
L 207.025 50.133333
L 207.8 48
L 209.35 32.533333
L 210.125 30.4
L 210.9 34.133333
L 211.675 40.533333
L 212.45 44.266667
L 213.225 43.2
L 214 40
L 214.775 37.866667
L 215.55 38.4
L 216.325 42.666667
L 217.1 48
L 217.875 47.466667
L 218.65 40.533333
L 219.425 35.2
L 220.2 35.2
L 220.975 37.333333
L 221.75 38.933333
L 222.525 38.4
L 224.075 33.066667
L 224.85 31.466667
L 225.625 32
L 226.4 35.2
L 227.175 38.933333
L 227.95 41.6
L 228.725 44.8
L 229.5 50.666667
L 230.275 58.666667
L 231.05 65.066667
L 231.825 65.6
L 232.6 63.466667
L 233.375 65.6
L 234.15 68.266667
L 234.925 64.533333
L 235.7 57.6
L 238.025 41.066667
L 238.8 35.2
L 239.575 34.133333
L 240.35 35.733333
L 241.125 35.733333
L 241.9 36.266667
L 242.675 38.933333
L 243.45 40
L 244.225 36.8
L 245 32
L 245.775 29.333333
L 246.55 28.8
L 248.1 28.8
L 248.875 29.866667
L 250.425 37.866667
L 251.2 38.933333
L 251.975 38.4
L 252.75 40.533333
L 253.525 44.266667
L 254.3 43.2
L 255.075 36.266667
L 255.85 30.4
L 256.625 29.866667
L 257.4 33.6
L 258.175 38.4
L 258.95 41.6
L 259.725 42.666667
L 260.5 41.6
L 261.275 42.133333
L 262.05 48.533333
L 262.825 56
L 263.6 55.466667
L 265.15 36.8
L 265.925 32
L 266.7 31.466667
L 267.475 32
L 268.25 31.466667
L 269.025 32.533333
L 270.575 41.066667
L 271.35 44.266667
L 272.125 46.933333
L 272.9 46.933333
L 273.675 44.266667
L 274.45 42.133333
L 275.225 41.066667
L 276 39.466667
L 276.775 38.933333
L 277.55 44.8
L 278.325 60.266667
L 279.1 78.4
L 279.875 86.933333
L 280.65 83.733333
L 281.425 74.133333
L 282.975 46.4
L 283.75 39.466667
L 284.525 39.466667
L 285.3 41.6
L 286.075 45.866667
L 286.85 53.866667
L 287.625 60.266667
L 288.4 61.866667
L 289.175 62.4
L 289.95 60.8
L 290.725 55.466667
L 291.5 51.2
L 292.275 50.666667
L 293.05 52.8
L 293.825 57.066667
L 294.6 63.466667
L 296.15 78.933333
L 296.925 81.066667
L 297.7 74.133333
L 298.475 62.933333
L 299.25 55.466667
L 300.025 50.666667
L 301.575 34.666667
L 302.35 29.866667
L 303.125 28.8
L 304.675 28.8
L 305.45 29.866667
L 306.225 33.066667
L 307 35.2
L 307.775 33.066667
L 308.55 29.866667
L 309.325 29.866667
L 310.1 34.133333
L 310.875 40
L 311.65 42.666667
L 312.425 43.2
L 313.2 45.333333
L 313.975 46.933333
L 314.75 47.466667
L 315.525 49.6
L 316.3 50.666667
L 317.075 49.066667
L 317.85 48.533333
L 318.625 49.6
L 319.4 51.733333
L 320.175 57.6
L 321.725 73.6
L 322.5 78.933333
L 323.275 80
L 324.05 75.733333
L 325.6 62.4
L 327.15 48.533333
L 327.925 44.266667
L 328.7 42.666667
L 329.475 44.266667
L 331.025 51.2
L 331.8 51.2
L 332.575 48.533333
L 333.35 46.933333
L 334.9 49.066667
L 335.675 48.533333
L 336.45 50.133333
L 338 62.933333
L 338.775 64
L 339.55 60.8
L 340.325 58.133333
L 341.1 59.733333
L 341.875 64.533333
L 342.65 70.4
L 343.425 77.333333
L 344.2 82.666667
L 345.75 86.933333
L 347.3 93.866667
L 348.075 93.866667
L 348.85 91.2
L 349.625 88
L 350.4 83.2
L 351.175 76.8
L 352.725 67.733333
L 353.5 60.8
L 354.275 54.933333
L 355.05 55.466667
L 355.825 59.733333
L 356.6 61.866667
L 357.375 59.2
L 358.925 43.733333
L 359.7 41.6
L 360.475 46.4
L 362.8 71.466667
L 363.575 72
L 364.35 67.733333
L 365.125 65.066667
L 365.9 67.733333
L 366.675 74.666667
L 367.45 85.333333
L 369 109.866667
L 369.775 119.466667
L 370.55 124.266667
L 371.325 121.066667
L 372.1 109.866667
L 372.875 90.133333
L 373.65 64
L 374.425 42.133333
L 375.2 35.2
L 375.975 42.666667
L 376.75 54.4
L 377.525 60.8
L 378.3 59.733333
L 379.075 55.466667
L 379.85 54.4
L 380.625 57.6
L 381.4 60.266667
L 382.175 63.466667
L 383.725 80
L 386.05 96.533333
L 386.825 96
L 389.925 78.4
L 390.7 80.533333
L 391.475 88
L 392.25 90.133333
L 393.025 84.8
L 394.575 70.933333
L 395.35 62.4
L 396.9 41.066667
L 397.675 35.2
L 398.45 35.2
L 399.225 36.266667
L 400 34.666667
L 400.775 32
L 401.55 32.533333
L 403.1 40.533333
L 403.875 41.6
L 405.425 40.533333
L 406.2 42.133333
L 406.975 44.266667
L 407.75 43.2
L 408.525 40
L 409.3 38.933333
L 410.075 41.6
L 410.85 44.8
L 411.625 45.866667
L 412.4 45.333333
L 413.175 44.266667
L 413.95 46.933333
L 414.725 58.133333
L 416.275 89.066667
L 417.05 97.6
L 417.825 101.866667
L 418.6 107.2
L 419.375 116.266667
L 420.15 123.733333
L 420.925 121.6
L 421.7 108.8
L 424.025 51.733333
L 424.8 44.8
L 426.35 33.066667
L 427.125 32
L 427.9 34.666667
L 428.675 36.266667
L 429.45 35.733333
L 430.225 37.866667
L 431 47.466667
L 431.775 61.866667
L 432.55 73.066667
L 433.325 77.333333
L 434.1 78.933333
L 434.875 81.066667
L 435.65 80.533333
L 436.425 74.666667
L 437.2 66.133333
L 437.975 61.333333
L 438.75 62.933333
L 439.525 66.133333
L 440.3 68.266667
L 441.075 72
L 441.85 76.8
L 443.4 82.133333
L 444.175 92.266667
L 445.725 133.866667
L 446.5 144.533333
L 447.275 144
L 448.05 141.333333
L 448.825 143.466667
L 449.6 150.4
L 450.375 155.733333
L 451.15 153.6
L 451.925 148.266667
L 452.7 146.666667
L 453.475 148.266667
L 454.25 150.933333
L 455.8 158.4
L 456.575 158.933333
L 457.35 153.066667
L 458.9 132.8
L 459.675 128
L 460.45 126.933333
L 462 128
L 462.775 126.4
L 463.55 124.266667
L 464.325 122.666667
L 465.1 116.266667
L 465.875 105.066667
L 466.65 96.533333
L 467.425 93.333333
L 468.2 91.2
L 468.975 84.266667
L 469.75 70.933333
L 470.525 54.933333
L 471.3 41.6
L 472.075 35.2
L 472.85 35.2
L 473.625 36.266667
L 474.4 34.666667
L 475.175 32
L 475.95 32
L 476.725 34.666667
L 477.5 36.8
L 478.275 37.333333
L 479.05 36.8
L 479.825 34.666667
L 480.6 31.466667
L 481.375 29.866667
L 482.15 30.933333
L 483.7 35.2
L 484.475 35.733333
L 485.25 33.6
L 486.025 34.133333
L 486.8 42.133333
L 487.575 51.733333
L 488.35 55.466667
L 489.125 55.466667
L 489.9 57.6
L 490.675 61.866667
L 491.45 62.933333
L 492.225 58.666667
L 493 53.333333
L 493.775 50.666667
L 494.55 50.133333
L 495.325 49.066667
L 496.1 44.266667
L 496.875 36.8
L 497.65 33.066667
L 499.2 35.2
L 499.975 36.8
L 500.75 41.066667
L 501.525 46.4
L 502.3 53.866667
L 503.075 63.466667
L 503.85 70.4
L 504.625 72
L 505.4 67.2
L 506.175 58.133333
L 506.95 50.666667
L 507.725 45.866667
L 508.5 43.733333
L 509.275 46.4
L 510.05 50.666667
L 510.825 51.2
L 511.6 48
L 512.375 44.266667
L 513.15 42.666667
L 513.925 43.2
L 514.7 42.133333
L 516.25 34.133333
L 517.025 32.533333
L 517.8 31.466667
L 518.575 33.6
L 520.125 51.733333
L 520.9 54.4
L 521.675 49.6
L 522.45 43.2
L 523.225 40.533333
L 524 41.066667
L 524.775 43.2
L 525.55 50.666667
L 526.325 65.066667
L 529.425 129.066667
L 530.2 136
L 530.975 136.533333
L 531.75 133.866667
L 532.525 132.8
L 533.3 135.466667
L 534.075 136.533333
L 534.85 130.133333
L 537.175 94.933333
L 537.95 89.6
L 538.725 91.733333
L 539.5 93.333333
L 540.275 90.666667
L 541.825 80.533333
L 542.6 77.866667
L 543.375 81.066667
L 544.925 94.4
L 545.7 99.2
L 546.475 102.933333
L 547.25 105.066667
L 548.025 106.666667
L 548.8 110.933333
L 549.575 117.866667
L 550.35 126.4
L 551.125 139.2
L 551.9 154.133333
L 552.675 162.666667
L 553.45 163.2
L 554.225 161.066667
L 555 158.4
L 555.775 156.266667
L 556.55 157.866667
L 557.325 161.066667
L 558.1 159.466667
L 558.875 152
L 559.65 140.8
L 561.2 114.666667
L 561.975 103.466667
L 562.75 94.933333
L 563.525 92.8
L 564.3 98.666667
L 565.075 110.933333
L 566.625 138.666667
L 567.4 147.733333
L 568.175 153.066667
L 568.95 153.6
L 569.725 151.466667
L 570.5 152
L 571.275 156.8
L 572.05 160.533333
L 572.825 156.8
L 573.6 148.266667
L 574.375 144
L 575.15 146.133333
L 575.925 151.466667
L 576.7 160
L 577.475 170.666667
L 578.25 178.666667
L 579.025 181.866667
L 579.8 182.4
L 580.575 181.866667
L 581.35 179.2
L 582.9 168.533333
L 583.675 165.866667
L 584.45 166.4
L 585.225 170.666667
L 586 177.066667
L 586.775 181.866667
L 587.55 185.066667
L 588.325 187.2
L 589.1 185.066667
L 589.875 179.2
L 590.65 174.933333
L 591.425 174.4
L 592.2 176
L 592.975 177.066667
L 593.75 176
L 594.525 174.4
L 595.3 173.333333
L 596.075 171.2
L 596.85 168
L 597.625 165.866667
L 599.175 164.8
L 599.95 162.666667
L 600.725 159.466667
L 601.5 157.866667
L 602.275 159.466667
L 603.05 162.666667
L 603.825 164.8
L 604.6 165.333333
L 606.925 165.333333
L 607.7 164.8
L 608.475 163.2
L 609.25 162.666667
L 610.025 165.866667
L 610.8 170.666667
L 611.575 173.333333
L 612.35 173.333333
L 613.125 170.666667
L 614.675 160.533333
L 615.45 160
L 616.225 162.666667
L 617 164.266667
L 617.775 162.666667
L 618.55 160
L 619.325 160.533333
L 620.875 168.533333
L 621.65 169.6
L 622.425 169.066667
L 623.2 167.466667
L 623.975 166.933333
L 624.75 171.2
L 626.3 187.2
L 627.075 189.866667
L 627.85 188.266667
L 628.625 185.066667
L 629.4 183.466667
L 630.175 185.066667
L 630.95 187.733333
L 631.725 187.733333
L 632.5 185.066667
L 633.275 183.466667
L 634.05 184.533333
L 634.825 186.133333
L 635.6 187.2
L 637.15 190.4
L 637.925 190.933333
L 640.25 190.933333
L 641.025 191.466667
L 641.8 194.666667
L 643.35 208
L 644.125 210.666667
L 644.9 213.866667
L 645.675 219.733333
L 646.45 224.533333
L 647.225 227.2
L 648 230.933333
L 648 230.933333
" style="fill:none;stroke:#000000;stroke-linecap:square;stroke-width:1.5;"/>
   </g>
   <g id="patch_3">
    <path d="M 90 259.2
L 648 259.2
" style="fill:none;stroke:#000000;stroke-linecap:square;stroke-linejoin:miter;"/>
   </g>
   <g id="patch_4">
    <path d="M 648 259.2
L 648 28.8
" style="fill:none;stroke:#000000;stroke-linecap:square;stroke-linejoin:miter;"/>
   </g>
   <g id="patch_5">
    <path d="M 90 28.8
L 648 28.8
" style="fill:none;stroke:#000000;stroke-linecap:square;stroke-linejoin:miter;"/>
   </g>
   <g id="patch_6">
    <path d="M 90 259.2
L 90 28.8
" style="fill:none;stroke:#000000;stroke-linecap:square;stroke-linejoin:miter;"/>
   </g>
   <g id="matplotlib.axis_1">
    <g id="xtick_1">
     <g id="line2d_2">
      <path clip-path="url(#p949c428314)" d="M 90 259.2
L 90 28.8
" style="fill:none;stroke:#000000;stroke-dasharray:1.000000,3.000000;stroke-dashoffset:0.0;stroke-width:0.5;"/>
     </g>
     <g id="line2d_3">
      <defs>
       <path d="M 0 0
L 0 -4
" id="m0eaa8dee3e" style="stroke:#000000;stroke-width:0.5;"/>
      </defs>
      <g>
       <use style="stroke:#000000;stroke-width:0.5;" x="90.0" xlink:href="#m0eaa8dee3e" y="259.2"/>
      </g>
     </g>
     <g id="line2d_4">
      <defs>
       <path d="M 0 0
L 0 4
" id="m65169960f2" style="stroke:#000000;stroke-width:0.5;"/>
      </defs>
      <g>
       <use style="stroke:#000000;stroke-width:0.5;" x="90.0" xlink:href="#m65169960f2" y="28.8"/>
      </g>
     </g>
     <g id="text_1">
      <!-- 9am -->
      <defs>
       <path d="M 34.28125 27.484375
Q 23.390625 27.484375 19.1875 25
Q 14.984375 22.515625 14.984375 16.5
Q 14.984375 11.71875 18.140625 8.90625
Q 21.296875 6.109375 26.703125 6.109375
Q 34.1875 6.109375 38.703125 11.40625
Q 43.21875 16.703125 43.21875 25.484375
L 43.21875 27.484375
z
M 52.203125 31.203125
L 52.203125 0
L 43.21875 0
L 43.21875 8.296875
Q 40.140625 3.328125 35.546875 0.953125
Q 30.953125 -1.421875 24.3125 -1.421875
Q 15.921875 -1.421875 10.953125 3.296875
Q 6 8.015625 6 15.921875
Q 6 25.140625 12.171875 29.828125
Q 18.359375 34.515625 30.609375 34.515625
L 43.21875 34.515625
L 43.21875 35.40625
Q 43.21875 41.609375 39.140625 45
Q 35.0625 48.390625 27.6875 48.390625
Q 23 48.390625 18.546875 47.265625
Q 14.109375 46.140625 10.015625 43.890625
L 10.015625 52.203125
Q 14.9375 54.109375 19.578125 55.046875
Q 24.21875 56 28.609375 56
Q 40.484375 56 46.34375 49.84375
Q 52.203125 43.703125 52.203125 31.203125
" id="BitstreamVeraSans-Roman-61"/>
       <path d="M 52 44.1875
Q 55.375 50.25 60.0625 53.125
Q 64.75 56 71.09375 56
Q 79.640625 56 84.28125 50.015625
Q 88.921875 44.046875 88.921875 33.015625
L 88.921875 0
L 79.890625 0
L 79.890625 32.71875
Q 79.890625 40.578125 77.09375 44.375
Q 74.3125 48.1875 68.609375 48.1875
Q 61.625 48.1875 57.5625 43.546875
Q 53.515625 38.921875 53.515625 30.90625
L 53.515625 0
L 44.484375 0
L 44.484375 32.71875
Q 44.484375 40.625 41.703125 44.40625
Q 38.921875 48.1875 33.109375 48.1875
Q 26.21875 48.1875 22.15625 43.53125
Q 18.109375 38.875 18.109375 30.90625
L 18.109375 0
L 9.078125 0
L 9.078125 54.6875
L 18.109375 54.6875
L 18.109375 46.1875
Q 21.1875 51.21875 25.484375 53.609375
Q 29.78125 56 35.6875 56
Q 41.65625 56 45.828125 52.96875
Q 50 49.953125 52 44.1875
" id="BitstreamVeraSans-Roman-6d"/>
       <path d="M 10.984375 1.515625
L 10.984375 10.5
Q 14.703125 8.734375 18.5 7.8125
Q 22.3125 6.890625 25.984375 6.890625
Q 35.75 6.890625 40.890625 13.453125
Q 46.046875 20.015625 46.78125 33.40625
Q 43.953125 29.203125 39.59375 26.953125
Q 35.25 24.703125 29.984375 24.703125
Q 19.046875 24.703125 12.671875 31.3125
Q 6.296875 37.9375 6.296875 49.421875
Q 6.296875 60.640625 12.9375 67.421875
Q 19.578125 74.21875 30.609375 74.21875
Q 43.265625 74.21875 49.921875 64.515625
Q 56.59375 54.828125 56.59375 36.375
Q 56.59375 19.140625 48.40625 8.859375
Q 40.234375 -1.421875 26.421875 -1.421875
Q 22.703125 -1.421875 18.890625 -0.6875
Q 15.09375 0.046875 10.984375 1.515625
M 30.609375 32.421875
Q 37.25 32.421875 41.125 36.953125
Q 45.015625 41.5 45.015625 49.421875
Q 45.015625 57.28125 41.125 61.84375
Q 37.25 66.40625 30.609375 66.40625
Q 23.96875 66.40625 20.09375 61.84375
Q 16.21875 57.28125 16.21875 49.421875
Q 16.21875 41.5 20.09375 36.953125
Q 23.96875 32.421875 30.609375 32.421875
" id="BitstreamVeraSans-Roman-39"/>
      </defs>
      <g transform="translate(76.66125 272.318125)scale(0.12 -0.12)">
       <use xlink:href="#BitstreamVeraSans-Roman-39"/>
       <use x="63.623046875" xlink:href="#BitstreamVeraSans-Roman-61"/>
       <use x="124.90234375" xlink:href="#BitstreamVeraSans-Roman-6d"/>
      </g>
     </g>
    </g>
    <g id="xtick_2">
     <g id="line2d_5">
      <path clip-path="url(#p949c428314)" d="M 183 259.2
L 183 28.8
" style="fill:none;stroke:#000000;stroke-dasharray:1.000000,3.000000;stroke-dashoffset:0.0;stroke-width:0.5;"/>
     </g>
     <g id="line2d_6">
      <g>
       <use style="stroke:#000000;stroke-width:0.5;" x="183.0" xlink:href="#m0eaa8dee3e" y="259.2"/>
      </g>
     </g>
     <g id="line2d_7">
      <g>
       <use style="stroke:#000000;stroke-width:0.5;" x="183.0" xlink:href="#m65169960f2" y="28.8"/>
      </g>
     </g>
     <g id="text_2">
      <!-- 11am -->
      <defs>
       <path d="M 12.40625 8.296875
L 28.515625 8.296875
L 28.515625 63.921875
L 10.984375 60.40625
L 10.984375 69.390625
L 28.421875 72.90625
L 38.28125 72.90625
L 38.28125 8.296875
L 54.390625 8.296875
L 54.390625 0
L 12.40625 0
z
" id="BitstreamVeraSans-Roman-31"/>
      </defs>
      <g transform="translate(165.84375 272.318125)scale(0.12 -0.12)">
       <use xlink:href="#BitstreamVeraSans-Roman-31"/>
       <use x="63.623046875" xlink:href="#BitstreamVeraSans-Roman-31"/>
       <use x="127.24609375" xlink:href="#BitstreamVeraSans-Roman-61"/>
       <use x="188.525390625" xlink:href="#BitstreamVeraSans-Roman-6d"/>
      </g>
     </g>
    </g>
    <g id="xtick_3">
     <g id="line2d_8">
      <path clip-path="url(#p949c428314)" d="M 276 259.2
L 276 28.8
" style="fill:none;stroke:#000000;stroke-dasharray:1.000000,3.000000;stroke-dashoffset:0.0;stroke-width:0.5;"/>
     </g>
     <g id="line2d_9">
      <g>
       <use style="stroke:#000000;stroke-width:0.5;" x="276.0" xlink:href="#m0eaa8dee3e" y="259.2"/>
      </g>
     </g>
     <g id="line2d_10">
      <g>
       <use style="stroke:#000000;stroke-width:0.5;" x="276.0" xlink:href="#m65169960f2" y="28.8"/>
      </g>
     </g>
     <g id="text_3">
      <!-- 1pm -->
      <defs>
       <path d="M 18.109375 8.203125
L 18.109375 -20.796875
L 9.078125 -20.796875
L 9.078125 54.6875
L 18.109375 54.6875
L 18.109375 46.390625
Q 20.953125 51.265625 25.265625 53.625
Q 29.59375 56 35.59375 56
Q 45.5625 56 51.78125 48.09375
Q 58.015625 40.1875 58.015625 27.296875
Q 58.015625 14.40625 51.78125 6.484375
Q 45.5625 -1.421875 35.59375 -1.421875
Q 29.59375 -1.421875 25.265625 0.953125
Q 20.953125 3.328125 18.109375 8.203125
M 48.6875 27.296875
Q 48.6875 37.203125 44.609375 42.84375
Q 40.53125 48.484375 33.40625 48.484375
Q 26.265625 48.484375 22.1875 42.84375
Q 18.109375 37.203125 18.109375 27.296875
Q 18.109375 17.390625 22.1875 11.75
Q 26.265625 6.109375 33.40625 6.109375
Q 40.53125 6.109375 44.609375 11.75
Q 48.6875 17.390625 48.6875 27.296875
" id="BitstreamVeraSans-Roman-70"/>
      </defs>
      <g transform="translate(262.5290625 272.318125)scale(0.12 -0.12)">
       <use xlink:href="#BitstreamVeraSans-Roman-31"/>
       <use x="63.623046875" xlink:href="#BitstreamVeraSans-Roman-70"/>
       <use x="127.099609375" xlink:href="#BitstreamVeraSans-Roman-6d"/>
      </g>
     </g>
    </g>
    <g id="xtick_4">
     <g id="line2d_11">
      <path clip-path="url(#p949c428314)" d="M 369 259.2
L 369 28.8
" style="fill:none;stroke:#000000;stroke-dasharray:1.000000,3.000000;stroke-dashoffset:0.0;stroke-width:0.5;"/>
     </g>
     <g id="line2d_12">
      <g>
       <use style="stroke:#000000;stroke-width:0.5;" x="369.0" xlink:href="#m0eaa8dee3e" y="259.2"/>
      </g>
     </g>
     <g id="line2d_13">
      <g>
       <use style="stroke:#000000;stroke-width:0.5;" x="369.0" xlink:href="#m65169960f2" y="28.8"/>
      </g>
     </g>
     <g id="text_4">
      <!-- 3pm -->
      <defs>
       <path d="M 40.578125 39.3125
Q 47.65625 37.796875 51.625 33
Q 55.609375 28.21875 55.609375 21.1875
Q 55.609375 10.40625 48.1875 4.484375
Q 40.765625 -1.421875 27.09375 -1.421875
Q 22.515625 -1.421875 17.65625 -0.515625
Q 12.796875 0.390625 7.625 2.203125
L 7.625 11.71875
Q 11.71875 9.328125 16.59375 8.109375
Q 21.484375 6.890625 26.8125 6.890625
Q 36.078125 6.890625 40.9375 10.546875
Q 45.796875 14.203125 45.796875 21.1875
Q 45.796875 27.640625 41.28125 31.265625
Q 36.765625 34.90625 28.71875 34.90625
L 20.21875 34.90625
L 20.21875 43.015625
L 29.109375 43.015625
Q 36.375 43.015625 40.234375 45.921875
Q 44.09375 48.828125 44.09375 54.296875
Q 44.09375 59.90625 40.109375 62.90625
Q 36.140625 65.921875 28.71875 65.921875
Q 24.65625 65.921875 20.015625 65.03125
Q 15.375 64.15625 9.8125 62.3125
L 9.8125 71.09375
Q 15.4375 72.65625 20.34375 73.4375
Q 25.25 74.21875 29.59375 74.21875
Q 40.828125 74.21875 47.359375 69.109375
Q 53.90625 64.015625 53.90625 55.328125
Q 53.90625 49.265625 50.4375 45.09375
Q 46.96875 40.921875 40.578125 39.3125
" id="BitstreamVeraSans-Roman-33"/>
      </defs>
      <g transform="translate(355.5290625 272.318125)scale(0.12 -0.12)">
       <use xlink:href="#BitstreamVeraSans-Roman-33"/>
       <use x="63.623046875" xlink:href="#BitstreamVeraSans-Roman-70"/>
       <use x="127.099609375" xlink:href="#BitstreamVeraSans-Roman-6d"/>
      </g>
     </g>
    </g>
    <g id="xtick_5">
     <g id="line2d_14">
      <path clip-path="url(#p949c428314)" d="M 462 259.2
L 462 28.8
" style="fill:none;stroke:#000000;stroke-dasharray:1.000000,3.000000;stroke-dashoffset:0.0;stroke-width:0.5;"/>
     </g>
     <g id="line2d_15">
      <g>
       <use style="stroke:#000000;stroke-width:0.5;" x="462.0" xlink:href="#m0eaa8dee3e" y="259.2"/>
      </g>
     </g>
     <g id="line2d_16">
      <g>
       <use style="stroke:#000000;stroke-width:0.5;" x="462.0" xlink:href="#m65169960f2" y="28.8"/>
      </g>
     </g>
     <g id="text_5">
      <!-- 5pm -->
      <defs>
       <path d="M 10.796875 72.90625
L 49.515625 72.90625
L 49.515625 64.59375
L 19.828125 64.59375
L 19.828125 46.734375
Q 21.96875 47.46875 24.109375 47.828125
Q 26.265625 48.1875 28.421875 48.1875
Q 40.625 48.1875 47.75 41.5
Q 54.890625 34.8125 54.890625 23.390625
Q 54.890625 11.625 47.5625 5.09375
Q 40.234375 -1.421875 26.90625 -1.421875
Q 22.3125 -1.421875 17.546875 -0.640625
Q 12.796875 0.140625 7.71875 1.703125
L 7.71875 11.625
Q 12.109375 9.234375 16.796875 8.0625
Q 21.484375 6.890625 26.703125 6.890625
Q 35.15625 6.890625 40.078125 11.328125
Q 45.015625 15.765625 45.015625 23.390625
Q 45.015625 31 40.078125 35.4375
Q 35.15625 39.890625 26.703125 39.890625
Q 22.75 39.890625 18.8125 39.015625
Q 14.890625 38.140625 10.796875 36.28125
z
" id="BitstreamVeraSans-Roman-35"/>
      </defs>
      <g transform="translate(448.5290625 272.318125)scale(0.12 -0.12)">
       <use xlink:href="#BitstreamVeraSans-Roman-35"/>
       <use x="63.623046875" xlink:href="#BitstreamVeraSans-Roman-70"/>
       <use x="127.099609375" xlink:href="#BitstreamVeraSans-Roman-6d"/>
      </g>
     </g>
    </g>
    <g id="xtick_6">
     <g id="line2d_17">
      <path clip-path="url(#p949c428314)" d="M 555 259.2
L 555 28.8
" style="fill:none;stroke:#000000;stroke-dasharray:1.000000,3.000000;stroke-dashoffset:0.0;stroke-width:0.5;"/>
     </g>
     <g id="line2d_18">
      <g>
       <use style="stroke:#000000;stroke-width:0.5;" x="555.0" xlink:href="#m0eaa8dee3e" y="259.2"/>
      </g>
     </g>
     <g id="line2d_19">
      <g>
       <use style="stroke:#000000;stroke-width:0.5;" x="555.0" xlink:href="#m65169960f2" y="28.8"/>
      </g>
     </g>
     <g id="text_6">
      <!-- 7pm -->
      <defs>
       <path d="M 8.203125 72.90625
L 55.078125 72.90625
L 55.078125 68.703125
L 28.609375 0
L 18.3125 0
L 43.21875 64.59375
L 8.203125 64.59375
z
" id="BitstreamVeraSans-Roman-37"/>
      </defs>
      <g transform="translate(541.5290625 272.318125)scale(0.12 -0.12)">
       <use xlink:href="#BitstreamVeraSans-Roman-37"/>
       <use x="63.623046875" xlink:href="#BitstreamVeraSans-Roman-70"/>
       <use x="127.099609375" xlink:href="#BitstreamVeraSans-Roman-6d"/>
      </g>
     </g>
    </g>
    <g id="xtick_7">
     <g id="line2d_20">
      <path clip-path="url(#p949c428314)" d="M 648 259.2
L 648 28.8
" style="fill:none;stroke:#000000;stroke-dasharray:1.000000,3.000000;stroke-dashoffset:0.0;stroke-width:0.5;"/>
     </g>
     <g id="line2d_21">
      <g>
       <use style="stroke:#000000;stroke-width:0.5;" x="648.0" xlink:href="#m0eaa8dee3e" y="259.2"/>
      </g>
     </g>
     <g id="line2d_22">
      <g>
       <use style="stroke:#000000;stroke-width:0.5;" x="648.0" xlink:href="#m65169960f2" y="28.8"/>
      </g>
     </g>
     <g id="text_7">
      <!-- 9pm -->
      <g transform="translate(634.5290625 272.318125)scale(0.12 -0.12)">
       <use xlink:href="#BitstreamVeraSans-Roman-39"/>
       <use x="63.623046875" xlink:href="#BitstreamVeraSans-Roman-70"/>
       <use x="127.099609375" xlink:href="#BitstreamVeraSans-Roman-6d"/>
      </g>
     </g>
    </g>
   </g>
   <g id="matplotlib.axis_2">
    <g id="ytick_1">
     <g id="line2d_23">
      <path clip-path="url(#p949c428314)" d="M 90 259.2
L 648 259.2
" style="fill:none;stroke:#000000;stroke-dasharray:1.000000,3.000000;stroke-dashoffset:0.0;stroke-width:0.5;"/>
     </g>
     <g id="line2d_24">
      <defs>
       <path d="M 0 0
L 4 0
" id="m839a48f6e6" style="stroke:#000000;stroke-width:0.5;"/>
      </defs>
      <g>
       <use style="stroke:#000000;stroke-width:0.5;" x="90.0" xlink:href="#m839a48f6e6" y="259.2"/>
      </g>
     </g>
     <g id="line2d_25">
      <defs>
       <path d="M 0 0
L -4 0
" id="m6d67c8319f" style="stroke:#000000;stroke-width:0.5;"/>
      </defs>
      <g>
       <use style="stroke:#000000;stroke-width:0.5;" x="648.0" xlink:href="#m6d67c8319f" y="259.2"/>
      </g>
     </g>
     <g id="text_8">
      <!-- 0 -->
      <defs>
       <path d="M 31.78125 66.40625
Q 24.171875 66.40625 20.328125 58.90625
Q 16.5 51.421875 16.5 36.375
Q 16.5 21.390625 20.328125 13.890625
Q 24.171875 6.390625 31.78125 6.390625
Q 39.453125 6.390625 43.28125 13.890625
Q 47.125 21.390625 47.125 36.375
Q 47.125 51.421875 43.28125 58.90625
Q 39.453125 66.40625 31.78125 66.40625
M 31.78125 74.21875
Q 44.046875 74.21875 50.515625 64.515625
Q 56.984375 54.828125 56.984375 36.375
Q 56.984375 17.96875 50.515625 8.265625
Q 44.046875 -1.421875 31.78125 -1.421875
Q 19.53125 -1.421875 13.0625 8.265625
Q 6.59375 17.96875 6.59375 36.375
Q 6.59375 54.828125 13.0625 64.515625
Q 19.53125 74.21875 31.78125 74.21875
" id="BitstreamVeraSans-Roman-30"/>
      </defs>
      <g transform="translate(78.365 262.51125)scale(0.12 -0.12)">
       <use xlink:href="#BitstreamVeraSans-Roman-30"/>
      </g>
     </g>
    </g>
    <g id="ytick_2">
     <g id="line2d_26">
      <path clip-path="url(#p949c428314)" d="M 90 216.533333
L 648 216.533333
" style="fill:none;stroke:#000000;stroke-dasharray:1.000000,3.000000;stroke-dashoffset:0.0;stroke-width:0.5;"/>
     </g>
     <g id="line2d_27">
      <g>
       <use style="stroke:#000000;stroke-width:0.5;" x="90.0" xlink:href="#m839a48f6e6" y="216.533333333"/>
      </g>
     </g>
     <g id="line2d_28">
      <g>
       <use style="stroke:#000000;stroke-width:0.5;" x="648.0" xlink:href="#m6d67c8319f" y="216.533333333"/>
      </g>
     </g>
     <g id="text_9">
      <!-- 5 -->
      <g transform="translate(78.365 219.844583333)scale(0.12 -0.12)">
       <use xlink:href="#BitstreamVeraSans-Roman-35"/>
      </g>
     </g>
    </g>
    <g id="ytick_3">
     <g id="line2d_29">
      <path clip-path="url(#p949c428314)" d="M 90 173.866667
L 648 173.866667
" style="fill:none;stroke:#000000;stroke-dasharray:1.000000,3.000000;stroke-dashoffset:0.0;stroke-width:0.5;"/>
     </g>
     <g id="line2d_30">
      <g>
       <use style="stroke:#000000;stroke-width:0.5;" x="90.0" xlink:href="#m839a48f6e6" y="173.866666667"/>
      </g>
     </g>
     <g id="line2d_31">
      <g>
       <use style="stroke:#000000;stroke-width:0.5;" x="648.0" xlink:href="#m6d67c8319f" y="173.866666667"/>
      </g>
     </g>
     <g id="text_10">
      <!-- 10 -->
      <g transform="translate(70.73 177.177916667)scale(0.12 -0.12)">
       <use xlink:href="#BitstreamVeraSans-Roman-31"/>
       <use x="63.623046875" xlink:href="#BitstreamVeraSans-Roman-30"/>
      </g>
     </g>
    </g>
    <g id="ytick_4">
     <g id="line2d_32">
      <path clip-path="url(#p949c428314)" d="M 90 131.2
L 648 131.2
" style="fill:none;stroke:#000000;stroke-dasharray:1.000000,3.000000;stroke-dashoffset:0.0;stroke-width:0.5;"/>
     </g>
     <g id="line2d_33">
      <g>
       <use style="stroke:#000000;stroke-width:0.5;" x="90.0" xlink:href="#m839a48f6e6" y="131.2"/>
      </g>
     </g>
     <g id="line2d_34">
      <g>
       <use style="stroke:#000000;stroke-width:0.5;" x="648.0" xlink:href="#m6d67c8319f" y="131.2"/>
      </g>
     </g>
     <g id="text_11">
      <!-- 15 -->
      <g transform="translate(70.73 134.51125)scale(0.12 -0.12)">
       <use xlink:href="#BitstreamVeraSans-Roman-31"/>
       <use x="63.623046875" xlink:href="#BitstreamVeraSans-Roman-35"/>
      </g>
     </g>
    </g>
    <g id="ytick_5">
     <g id="line2d_35">
      <path clip-path="url(#p949c428314)" d="M 90 88.533333
L 648 88.533333
" style="fill:none;stroke:#000000;stroke-dasharray:1.000000,3.000000;stroke-dashoffset:0.0;stroke-width:0.5;"/>
     </g>
     <g id="line2d_36">
      <g>
       <use style="stroke:#000000;stroke-width:0.5;" x="90.0" xlink:href="#m839a48f6e6" y="88.5333333333"/>
      </g>
     </g>
     <g id="line2d_37">
      <g>
       <use style="stroke:#000000;stroke-width:0.5;" x="648.0" xlink:href="#m6d67c8319f" y="88.5333333333"/>
      </g>
     </g>
     <g id="text_12">
      <!-- 20 -->
      <defs>
       <path d="M 19.1875 8.296875
L 53.609375 8.296875
L 53.609375 0
L 7.328125 0
L 7.328125 8.296875
Q 12.9375 14.109375 22.625 23.890625
Q 32.328125 33.6875 34.8125 36.53125
Q 39.546875 41.84375 41.421875 45.53125
Q 43.3125 49.21875 43.3125 52.78125
Q 43.3125 58.59375 39.234375 62.25
Q 35.15625 65.921875 28.609375 65.921875
Q 23.96875 65.921875 18.8125 64.3125
Q 13.671875 62.703125 7.8125 59.421875
L 7.8125 69.390625
Q 13.765625 71.78125 18.9375 73
Q 24.125 74.21875 28.421875 74.21875
Q 39.75 74.21875 46.484375 68.546875
Q 53.21875 62.890625 53.21875 53.421875
Q 53.21875 48.921875 51.53125 44.890625
Q 49.859375 40.875 45.40625 35.40625
Q 44.1875 33.984375 37.640625 27.21875
Q 31.109375 20.453125 19.1875 8.296875
" id="BitstreamVeraSans-Roman-32"/>
      </defs>
      <g transform="translate(70.73 91.8445833333)scale(0.12 -0.12)">
       <use xlink:href="#BitstreamVeraSans-Roman-32"/>
       <use x="63.623046875" xlink:href="#BitstreamVeraSans-Roman-30"/>
      </g>
     </g>
    </g>
    <g id="ytick_6">
     <g id="line2d_38">
      <path clip-path="url(#p949c428314)" d="M 90 45.866667
L 648 45.866667
" style="fill:none;stroke:#000000;stroke-dasharray:1.000000,3.000000;stroke-dashoffset:0.0;stroke-width:0.5;"/>
     </g>
     <g id="line2d_39">
      <g>
       <use style="stroke:#000000;stroke-width:0.5;" x="90.0" xlink:href="#m839a48f6e6" y="45.8666666667"/>
      </g>
     </g>
     <g id="line2d_40">
      <g>
       <use style="stroke:#000000;stroke-width:0.5;" x="648.0" xlink:href="#m6d67c8319f" y="45.8666666667"/>
      </g>
     </g>
     <g id="text_13">
      <!-- 25 -->
      <g transform="translate(70.73 49.1779166667)scale(0.12 -0.12)">
       <use xlink:href="#BitstreamVeraSans-Roman-32"/>
       <use x="63.623046875" xlink:href="#BitstreamVeraSans-Roman-35"/>
      </g>
     </g>
    </g>
    <g id="text_14">
     <!-- Computers in Use -->
     <defs>
      <path d="M 54.890625 33.015625
L 54.890625 0
L 45.90625 0
L 45.90625 32.71875
Q 45.90625 40.484375 42.875 44.328125
Q 39.84375 48.1875 33.796875 48.1875
Q 26.515625 48.1875 22.3125 43.546875
Q 18.109375 38.921875 18.109375 30.90625
L 18.109375 0
L 9.078125 0
L 9.078125 54.6875
L 18.109375 54.6875
L 18.109375 46.1875
Q 21.34375 51.125 25.703125 53.5625
Q 30.078125 56 35.796875 56
Q 45.21875 56 50.046875 50.171875
Q 54.890625 44.34375 54.890625 33.015625
" id="BitstreamVeraSans-Roman-6e"/>
      <path d="M 18.3125 70.21875
L 18.3125 54.6875
L 36.8125 54.6875
L 36.8125 47.703125
L 18.3125 47.703125
L 18.3125 18.015625
Q 18.3125 11.328125 20.140625 9.421875
Q 21.96875 7.515625 27.59375 7.515625
L 36.8125 7.515625
L 36.8125 0
L 27.59375 0
Q 17.1875 0 13.234375 3.875
Q 9.28125 7.765625 9.28125 18.015625
L 9.28125 47.703125
L 2.6875 47.703125
L 2.6875 54.6875
L 9.28125 54.6875
L 9.28125 70.21875
z
" id="BitstreamVeraSans-Roman-74"/>
      <path id="BitstreamVeraSans-Roman-20"/>
      <path d="M 8.6875 72.90625
L 18.609375 72.90625
L 18.609375 28.609375
Q 18.609375 16.890625 22.84375 11.734375
Q 27.09375 6.59375 36.625 6.59375
Q 46.09375 6.59375 50.34375 11.734375
Q 54.59375 16.890625 54.59375 28.609375
L 54.59375 72.90625
L 64.5 72.90625
L 64.5 27.390625
Q 64.5 13.140625 57.4375 5.859375
Q 50.390625 -1.421875 36.625 -1.421875
Q 22.796875 -1.421875 15.734375 5.859375
Q 8.6875 13.140625 8.6875 27.390625
z
" id="BitstreamVeraSans-Roman-55"/>
      <path d="M 8.5 21.578125
L 8.5 54.6875
L 17.484375 54.6875
L 17.484375 21.921875
Q 17.484375 14.15625 20.5 10.265625
Q 23.53125 6.390625 29.59375 6.390625
Q 36.859375 6.390625 41.078125 11.03125
Q 45.3125 15.671875 45.3125 23.6875
L 45.3125 54.6875
L 54.296875 54.6875
L 54.296875 0
L 45.3125 0
L 45.3125 8.40625
Q 42.046875 3.421875 37.71875 1
Q 33.40625 -1.421875 27.6875 -1.421875
Q 18.265625 -1.421875 13.375 4.4375
Q 8.5 10.296875 8.5 21.578125
" id="BitstreamVeraSans-Roman-75"/>
      <path d="M 9.421875 54.6875
L 18.40625 54.6875
L 18.40625 0
L 9.421875 0
z
M 9.421875 75.984375
L 18.40625 75.984375
L 18.40625 64.59375
L 9.421875 64.59375
z
" id="BitstreamVeraSans-Roman-69"/>
      <path d="M 30.609375 48.390625
Q 23.390625 48.390625 19.1875 42.75
Q 14.984375 37.109375 14.984375 27.296875
Q 14.984375 17.484375 19.15625 11.84375
Q 23.34375 6.203125 30.609375 6.203125
Q 37.796875 6.203125 41.984375 11.859375
Q 46.1875 17.53125 46.1875 27.296875
Q 46.1875 37.015625 41.984375 42.703125
Q 37.796875 48.390625 30.609375 48.390625
M 30.609375 56
Q 42.328125 56 49.015625 48.375
Q 55.71875 40.765625 55.71875 27.296875
Q 55.71875 13.875 49.015625 6.21875
Q 42.328125 -1.421875 30.609375 -1.421875
Q 18.84375 -1.421875 12.171875 6.21875
Q 5.515625 13.875 5.515625 27.296875
Q 5.515625 40.765625 12.171875 48.375
Q 18.84375 56 30.609375 56
" id="BitstreamVeraSans-Roman-6f"/>
      <path d="M 64.40625 67.28125
L 64.40625 56.890625
Q 59.421875 61.53125 53.78125 63.8125
Q 48.140625 66.109375 41.796875 66.109375
Q 29.296875 66.109375 22.65625 58.46875
Q 16.015625 50.828125 16.015625 36.375
Q 16.015625 21.96875 22.65625 14.328125
Q 29.296875 6.6875 41.796875 6.6875
Q 48.140625 6.6875 53.78125 8.984375
Q 59.421875 11.28125 64.40625 15.921875
L 64.40625 5.609375
Q 59.234375 2.09375 53.4375 0.328125
Q 47.65625 -1.421875 41.21875 -1.421875
Q 24.65625 -1.421875 15.125 8.703125
Q 5.609375 18.84375 5.609375 36.375
Q 5.609375 53.953125 15.125 64.078125
Q 24.65625 74.21875 41.21875 74.21875
Q 47.75 74.21875 53.53125 72.484375
Q 59.328125 70.75 64.40625 67.28125
" id="BitstreamVeraSans-Roman-43"/>
      <path d="M 44.28125 53.078125
L 44.28125 44.578125
Q 40.484375 46.53125 36.375 47.5
Q 32.28125 48.484375 27.875 48.484375
Q 21.1875 48.484375 17.84375 46.4375
Q 14.5 44.390625 14.5 40.28125
Q 14.5 37.15625 16.890625 35.375
Q 19.28125 33.59375 26.515625 31.984375
L 29.59375 31.296875
Q 39.15625 29.25 43.1875 25.515625
Q 47.21875 21.78125 47.21875 15.09375
Q 47.21875 7.46875 41.1875 3.015625
Q 35.15625 -1.421875 24.609375 -1.421875
Q 20.21875 -1.421875 15.453125 -0.5625
Q 10.6875 0.296875 5.421875 2
L 5.421875 11.28125
Q 10.40625 8.6875 15.234375 7.390625
Q 20.0625 6.109375 24.8125 6.109375
Q 31.15625 6.109375 34.5625 8.28125
Q 37.984375 10.453125 37.984375 14.40625
Q 37.984375 18.0625 35.515625 20.015625
Q 33.0625 21.96875 24.703125 23.78125
L 21.578125 24.515625
Q 13.234375 26.265625 9.515625 29.90625
Q 5.8125 33.546875 5.8125 39.890625
Q 5.8125 47.609375 11.28125 51.796875
Q 16.75 56 26.8125 56
Q 31.78125 56 36.171875 55.265625
Q 40.578125 54.546875 44.28125 53.078125
" id="BitstreamVeraSans-Roman-73"/>
      <path d="M 41.109375 46.296875
Q 39.59375 47.171875 37.8125 47.578125
Q 36.03125 48 33.890625 48
Q 26.265625 48 22.1875 43.046875
Q 18.109375 38.09375 18.109375 28.8125
L 18.109375 0
L 9.078125 0
L 9.078125 54.6875
L 18.109375 54.6875
L 18.109375 46.1875
Q 20.953125 51.171875 25.484375 53.578125
Q 30.03125 56 36.53125 56
Q 37.453125 56 38.578125 55.875
Q 39.703125 55.765625 41.0625 55.515625
z
" id="BitstreamVeraSans-Roman-72"/>
      <path d="M 56.203125 29.59375
L 56.203125 25.203125
L 14.890625 25.203125
Q 15.484375 15.921875 20.484375 11.0625
Q 25.484375 6.203125 34.421875 6.203125
Q 39.59375 6.203125 44.453125 7.46875
Q 49.3125 8.734375 54.109375 11.28125
L 54.109375 2.78125
Q 49.265625 0.734375 44.1875 -0.34375
Q 39.109375 -1.421875 33.890625 -1.421875
Q 20.796875 -1.421875 13.15625 6.1875
Q 5.515625 13.8125 5.515625 26.8125
Q 5.515625 40.234375 12.765625 48.109375
Q 20.015625 56 32.328125 56
Q 43.359375 56 49.78125 48.890625
Q 56.203125 41.796875 56.203125 29.59375
M 47.21875 32.234375
Q 47.125 39.59375 43.09375 43.984375
Q 39.0625 48.390625 32.421875 48.390625
Q 24.90625 48.390625 20.390625 44.140625
Q 15.875 39.890625 15.1875 32.171875
z
" id="BitstreamVeraSans-Roman-65"/>
     </defs>
     <g transform="translate(63.234375 197.445)rotate(-90.0)scale(0.12 -0.12)">
      <use xlink:href="#BitstreamVeraSans-Roman-43"/>
      <use x="69.82421875" xlink:href="#BitstreamVeraSans-Roman-6f"/>
      <use x="131.005859375" xlink:href="#BitstreamVeraSans-Roman-6d"/>
      <use x="228.41796875" xlink:href="#BitstreamVeraSans-Roman-70"/>
      <use x="291.89453125" xlink:href="#BitstreamVeraSans-Roman-75"/>
      <use x="355.2734375" xlink:href="#BitstreamVeraSans-Roman-74"/>
      <use x="394.482421875" xlink:href="#BitstreamVeraSans-Roman-65"/>
      <use x="456.005859375" xlink:href="#BitstreamVeraSans-Roman-72"/>
      <use x="497.119140625" xlink:href="#BitstreamVeraSans-Roman-73"/>
      <use x="549.21875" xlink:href="#BitstreamVeraSans-Roman-20"/>
      <use x="581.005859375" xlink:href="#BitstreamVeraSans-Roman-69"/>
      <use x="608.7890625" xlink:href="#BitstreamVeraSans-Roman-6e"/>
      <use x="672.16796875" xlink:href="#BitstreamVeraSans-Roman-20"/>
      <use x="703.955078125" xlink:href="#BitstreamVeraSans-Roman-55"/>
      <use x="777.1484375" xlink:href="#BitstreamVeraSans-Roman-73"/>
      <use x="829.248046875" xlink:href="#BitstreamVeraSans-Roman-65"/>
     </g>
    </g>
   </g>
   <g id="text_15">
    <!-- Lab Utilization Mon Feb 01, 12:00:00 AM -->
    <defs>
     <path d="M 48.6875 27.296875
Q 48.6875 37.203125 44.609375 42.84375
Q 40.53125 48.484375 33.40625 48.484375
Q 26.265625 48.484375 22.1875 42.84375
Q 18.109375 37.203125 18.109375 27.296875
Q 18.109375 17.390625 22.1875 11.75
Q 26.265625 6.109375 33.40625 6.109375
Q 40.53125 6.109375 44.609375 11.75
Q 48.6875 17.390625 48.6875 27.296875
M 18.109375 46.390625
Q 20.953125 51.265625 25.265625 53.625
Q 29.59375 56 35.59375 56
Q 45.5625 56 51.78125 48.09375
Q 58.015625 40.1875 58.015625 27.296875
Q 58.015625 14.40625 51.78125 6.484375
Q 45.5625 -1.421875 35.59375 -1.421875
Q 29.59375 -1.421875 25.265625 0.953125
Q 20.953125 3.328125 18.109375 8.203125
L 18.109375 0
L 9.078125 0
L 9.078125 75.984375
L 18.109375 75.984375
z
" id="BitstreamVeraSans-Roman-62"/>
     <path d="M 9.8125 72.90625
L 51.703125 72.90625
L 51.703125 64.59375
L 19.671875 64.59375
L 19.671875 43.109375
L 48.578125 43.109375
L 48.578125 34.8125
L 19.671875 34.8125
L 19.671875 0
L 9.8125 0
z
" id="BitstreamVeraSans-Roman-46"/>
     <path d="M 11.71875 12.40625
L 22.015625 12.40625
L 22.015625 0
L 11.71875 0
z
M 11.71875 51.703125
L 22.015625 51.703125
L 22.015625 39.3125
L 11.71875 39.3125
z
" id="BitstreamVeraSans-Roman-3a"/>
     <path d="M 5.515625 54.6875
L 48.1875 54.6875
L 48.1875 46.484375
L 14.40625 7.171875
L 48.1875 7.171875
L 48.1875 0
L 4.296875 0
L 4.296875 8.203125
L 38.09375 47.515625
L 5.515625 47.515625
z
" id="BitstreamVeraSans-Roman-7a"/>
     <path d="M 9.8125 72.90625
L 24.515625 72.90625
L 43.109375 23.296875
L 61.8125 72.90625
L 76.515625 72.90625
L 76.515625 0
L 66.890625 0
L 66.890625 64.015625
L 48.09375 14.015625
L 38.1875 14.015625
L 19.390625 64.015625
L 19.390625 0
L 9.8125 0
z
" id="BitstreamVeraSans-Roman-4d"/>
     <path d="M 34.1875 63.1875
L 20.796875 26.90625
L 47.609375 26.90625
z
M 28.609375 72.90625
L 39.796875 72.90625
L 67.578125 0
L 57.328125 0
L 50.6875 18.703125
L 17.828125 18.703125
L 11.1875 0
L 0.78125 0
z
" id="BitstreamVeraSans-Roman-41"/>
     <path d="M 9.8125 72.90625
L 19.671875 72.90625
L 19.671875 8.296875
L 55.171875 8.296875
L 55.171875 0
L 9.8125 0
z
" id="BitstreamVeraSans-Roman-4c"/>
     <path d="M 11.71875 12.40625
L 22.015625 12.40625
L 22.015625 4
L 14.015625 -11.625
L 7.71875 -11.625
L 11.71875 4
z
" id="BitstreamVeraSans-Roman-2c"/>
     <path d="M 9.421875 75.984375
L 18.40625 75.984375
L 18.40625 0
L 9.421875 0
z
" id="BitstreamVeraSans-Roman-6c"/>
    </defs>
    <g transform="translate(222.958125 23.8)scale(0.144 -0.144)">
     <use xlink:href="#BitstreamVeraSans-Roman-4c"/>
     <use x="55.712890625" xlink:href="#BitstreamVeraSans-Roman-61"/>
     <use x="116.9921875" xlink:href="#BitstreamVeraSans-Roman-62"/>
     <use x="180.46875" xlink:href="#BitstreamVeraSans-Roman-20"/>
     <use x="212.255859375" xlink:href="#BitstreamVeraSans-Roman-55"/>
     <use x="285.44921875" xlink:href="#BitstreamVeraSans-Roman-74"/>
     <use x="324.658203125" xlink:href="#BitstreamVeraSans-Roman-69"/>
     <use x="352.44140625" xlink:href="#BitstreamVeraSans-Roman-6c"/>
     <use x="380.224609375" xlink:href="#BitstreamVeraSans-Roman-69"/>
     <use x="408.0078125" xlink:href="#BitstreamVeraSans-Roman-7a"/>
     <use x="460.498046875" xlink:href="#BitstreamVeraSans-Roman-61"/>
     <use x="521.77734375" xlink:href="#BitstreamVeraSans-Roman-74"/>
     <use x="560.986328125" xlink:href="#BitstreamVeraSans-Roman-69"/>
     <use x="588.76953125" xlink:href="#BitstreamVeraSans-Roman-6f"/>
     <use x="649.951171875" xlink:href="#BitstreamVeraSans-Roman-6e"/>
     <use x="713.330078125" xlink:href="#BitstreamVeraSans-Roman-20"/>
     <use x="745.1171875" xlink:href="#BitstreamVeraSans-Roman-4d"/>
     <use x="831.396484375" xlink:href="#BitstreamVeraSans-Roman-6f"/>
     <use x="892.578125" xlink:href="#BitstreamVeraSans-Roman-6e"/>
     <use x="955.95703125" xlink:href="#BitstreamVeraSans-Roman-20"/>
     <use x="987.744140625" xlink:href="#BitstreamVeraSans-Roman-46"/>
     <use x="1045.185546875" xlink:href="#BitstreamVeraSans-Roman-65"/>
     <use x="1106.708984375" xlink:href="#BitstreamVeraSans-Roman-62"/>
     <use x="1170.185546875" xlink:href="#BitstreamVeraSans-Roman-20"/>
     <use x="1201.97265625" xlink:href="#BitstreamVeraSans-Roman-30"/>
     <use x="1265.595703125" xlink:href="#BitstreamVeraSans-Roman-31"/>
     <use x="1329.21875" xlink:href="#BitstreamVeraSans-Roman-2c"/>
     <use x="1361.005859375" xlink:href="#BitstreamVeraSans-Roman-20"/>
     <use x="1392.79296875" xlink:href="#BitstreamVeraSans-Roman-31"/>
     <use x="1456.416015625" xlink:href="#BitstreamVeraSans-Roman-32"/>
     <use x="1520.0390625" xlink:href="#BitstreamVeraSans-Roman-3a"/>
     <use x="1553.73046875" xlink:href="#BitstreamVeraSans-Roman-30"/>
     <use x="1617.353515625" xlink:href="#BitstreamVeraSans-Roman-30"/>
     <use x="1680.9765625" xlink:href="#BitstreamVeraSans-Roman-3a"/>
     <use x="1714.66796875" xlink:href="#BitstreamVeraSans-Roman-30"/>
     <use x="1778.291015625" xlink:href="#BitstreamVeraSans-Roman-30"/>
     <use x="1841.9140625" xlink:href="#BitstreamVeraSans-Roman-20"/>
     <use x="1873.701171875" xlink:href="#BitstreamVeraSans-Roman-41"/>
     <use x="1942.109375" xlink:href="#BitstreamVeraSans-Roman-4d"/>
    </g>
   </g>
  </g>
 </g>
 <defs>
  <clipPath id="p949c428314">
   <rect height="230.4" width="558.0" x="90.0" y="28.8"/>
  </clipPath>
 </defs>
</svg>
