<svg height="384" viewBox="0 0 720 288" width="960" xmlns="http://www.w3.org/2000/svg" xmlns:xlink="http://www.w3.org/1999/xlink"><defs><style>*{stroke-linecap:butt;stroke-linejoin:round;stroke-miterlimit:100000}</style></defs><g id="figure_1"><path d="M0 288h720V0H0z" fill="#fff" id="patch_1"/><g id="axes_1"><path d="M90 259.2h558V28.8H90z" fill="#fff" id="patch_2"/><path clip-path="url(#p949c428314)" d="M90 239.467l1.55-8.534L93.1 219.2l.775-3.733.775-1.067.775-3.2.775-11.2.775-15.467.775-11.2 3.875-32.533.775-3.2.775 3.733 1.55 18.134.775 4.266.775-2.133.775-7.467 1.55-19.733 1.55-24.533.775-6.934.775-1.6.775.534.775 1.066h1.55l.775 3.2 2.325 16 .775 3.2h.775l.775 1.067.775 6.933 1.55 24 .775 2.667.775-3.2.775-6.4 1.55-20.8.775-2.667.775 2.667.775-1.6 1.55-18.133.775-3.734.775-2.133.775-6.933.775-11.2.775-7.467.775 1.067.775 9.066 2.325 45.867.775 2.133.775-6.933.775-9.6.775-11.733 1.55-28.8.775-7.467.775 2.133.775 8.534.775 2.133.775-12.8.775-18.133.775-10.134.775-2.666.775-1.067h.775l.775.533.775-1.066.775-2.134.775-2.666.775-3.2.775-1.6.775 1.6.775 3.2.775 1.6.775-1.6.775-2.667.775 1.067 1.55 14.4.775.533.775-5.333.775-3.2.775 2.666.775 5.334.775 6.933 1.55 22.4.775 3.733.775-2.666.775-3.2.775-1.067.775-3.2.775-11.2.775-15.467.775-10.666.775-3.734.775-.533h1.55l.775 2.667.775 10.133.775 14.4.775 8.533.775.534.775-1.067.775.533H183l1.55-2.133.775-1.6.775-.533.775 2.666.775 3.2.775 1.6h.775l1.55-6.4.775.534h.775l.775-2.134 1.55-3.2.775-.533.775 2.667.775 1.066.775-6.4.775-9.066.775-2.667.775 4.8.775 7.467.775 5.333.775.533.775-3.2L204.7 46.4l.775-2.667.775 2.667.775 3.733L207.8 48l1.55-15.467.775-2.133.775 3.733.775 6.4.775 3.734.775-1.067L214 40l.775-2.133.775.533.775 4.267L217.1 48l.775-.533.775-6.934.775-5.333h.775l.775 2.133.775 1.6.775-.533 1.55-5.333.775-1.6.775.533.775 3.2.775 3.733.775 2.667.775 3.2.775 5.867.775 8 .775 6.4.775.533.775-2.133.775 2.133.775 2.667.775-3.734.775-6.933 2.325-16.533.775-5.867.775-1.067.775 1.6h.775l.775.534.775 2.666.775 1.067.775-3.2L245 32l.775-2.667.775-.533h1.55l.775 1.067 1.55 8 .775 1.066.775-.533.775 2.133.775 3.734.775-1.067.775-6.933.775-5.867.775-.533.775 3.733.775 4.8.775 3.2.775 1.067.775-1.067.775.533.775 6.4.775 7.467.775-.533 1.55-18.667.775-4.8.775-.533.775.533.775-.533.775 1.066 1.55 8.534.775 3.2.775 2.666h.775l.775-2.666.775-2.134.775-1.066.775-1.6.775-.534.775 5.867.775 15.467.775 18.133.775 8.533.775-3.2.775-9.6 1.55-27.733.775-6.933h.775l.775 2.133.775 4.267.775 8 .775 6.4.775 1.6.775.533.775-1.6.775-5.333.775-4.267.775-.533.775 2.133.775 4.267.775 6.4 1.55 15.466.775 2.134.775-6.934.775-11.2.775-7.466.775-4.8 1.55-16 .775-4.8.775-1.067h1.55l.775 1.067.775 3.2L307 35.2l.775-2.133.775-3.2h.775l.775 4.266.775 5.867.775 2.667.775.533.775 2.133.775 1.6.775.534.775 2.133.775 1.067.775-1.6.775-.534.775 1.067.775 2.133.775 5.867 1.55 16 .775 5.333.775 1.067.775-4.267L325.6 62.4l1.55-13.867.775-4.266.775-1.6.775 1.6 1.55 6.933h.775l.775-2.667.775-1.6 1.55 2.134.775-.534.775 1.6 1.55 12.8.775 1.067.775-3.2.775-2.667.775 1.6.775 4.8.775 5.867.775 6.933.775 5.334 1.55 4.266 1.55 6.934h.775l.775-2.667.775-3.2.775-4.8.775-6.4 1.55-9.067.775-6.933.775-5.867.775.534.775 4.266.775 2.134.775-2.667 1.55-15.467.775-2.133.775 4.8 2.325 25.067.775.533.775-4.267.775-2.666.775 2.666.775 6.934.775 10.666 1.55 24.534.775 9.6.775 4.8.775-3.2.775-11.2.775-19.734L373.65 64l.775-21.867.775-6.933.775 7.467.775 11.733.775 6.4.775-1.067.775-4.266.775-1.067.775 3.2.775 2.667.775 3.2L383.725 80l2.325 16.533.775-.533 3.1-17.6.775 2.133.775 7.467.775 2.133.775-5.333 1.55-13.867.775-8.533 1.55-21.333.775-5.867h.775l.775 1.067.775-1.6.775-2.667.775.533 1.55 8 .775 1.067 1.55-1.067.775 1.6.775 2.134.775-1.067.775-3.2.775-1.067.775 2.667.775 3.2.775 1.067.775-.534.775-1.066.775 2.666.775 11.2 1.55 30.934.775 8.533.775 4.267.775 5.333.775 9.067.775 7.466.775-2.133.775-12.8 2.325-57.067.775-6.933 1.55-11.733.775-1.067.775 2.667.775 1.6.775-.534.775 2.134.775 9.6.775 14.4.775 11.2.775 4.266.775 1.6.775 2.134.775-.534.775-5.866.775-8.534.775-4.8.775 1.6.775 3.2.775 2.134.775 3.733.775 4.8 1.55 5.333.775 10.134 1.55 41.6.775 10.666.775-.533.775-2.667.775 2.134.775 6.933.775 5.333.775-2.133.775-5.333.775-1.6.775 1.6.775 2.666 1.55 7.467.775.533.775-5.866 1.55-20.267.775-4.8.775-1.067L462 128l.775-1.6.775-2.133.775-1.6.775-6.4.775-11.2.775-8.534.775-3.2.775-2.133.775-6.933.775-13.334.775-16L471.3 41.6l.775-6.4h.775l.775 1.067.775-1.6.775-2.667h.775l.775 2.667.775 2.133.775.533.775-.533.775-2.133.775-3.2.775-1.6.775 1.066 1.55 4.267.775.533.775-2.133.775.533.775 8 .775 9.6.775 3.734h.775l.775 2.133.775 4.267.775 1.066.775-4.266.775-5.334.775-2.666.775-.534.775-1.066.775-4.8.775-7.467.775-3.733 1.55 2.133.775 1.6.775 4.267.775 5.333.775 7.467.775 9.6.775 6.933.775 1.6.775-4.8.775-9.067.775-7.466.775-4.8.775-2.134.775 2.667.775 4.267.775.533.775-3.2.775-3.733.775-1.6.775.533.775-1.067 1.55-8 .775-1.6.775-1.066.775 2.133 1.55 18.133.775 2.667.775-4.8.775-6.4.775-2.667.775.534.775 2.133.775 7.467.775 14.4 3.1 64L530.2 136l.775.533.775-2.666.775-1.067.775 2.667.775 1.066.775-6.4 2.325-35.2.775-5.333.775 2.133.775 1.6.775-2.666 1.55-10.134.775-2.666.775 3.2 1.55 13.333.775 4.8.775 3.733.775 2.134.775 1.6.775 4.266.775 6.934.775 8.533.775 12.8.775 14.933.775 8.534.775.533.775-2.133.775-2.667.775-2.133.775 1.6.775 3.2.775-1.6.775-7.467.775-11.2 1.55-26.133.775-11.2.775-8.534.775-2.133.775 5.867.775 12.266 1.55 27.734.775 9.066.775 5.334.775.533.775-2.133.775.533.775 4.8.775 3.733.775-3.733.775-8.533.775-4.267.775 2.133.775 5.334.775 8.533.775 10.667.775 8 .775 3.2.775.533.775-.533.775-2.667 1.55-10.667.775-2.666.775.533.775 4.267.775 6.4.775 4.8.775 3.2.775 2.133.775-2.133.775-5.867.775-4.267.775-.533.775 1.6.775 1.067.775-1.067.775-1.6.775-1.067.775-2.133.775-3.2.775-2.133 1.55-1.067.775-2.133.775-3.2.775-1.6.775 1.6.775 3.2.775 2.133.775.533h2.325l.775-.533.775-1.6.775-.533.775 3.2.775 4.8.775 2.666h.775l.775-2.666 1.55-10.134.775-.533.775 2.667.775 1.6.775-1.6.775-2.667.775.533 1.55 8 .775 1.067.775-.533.775-1.6.775-.534.775 4.267 1.55 16 .775 2.667.775-1.6.775-3.2.775-1.6.775 1.6.775 2.666h.775l.775-2.666.775-1.6.775 1.066.775 1.6.775 1.067 1.55 3.2.775.533h2.325l.775.534.775 3.2L643.35 208l.775 2.667.775 3.2.775 5.866.775 4.8.775 2.667.775 3.733h0" fill="none" stroke="#000" stroke-linecap="square" stroke-width="1.5" id="line2d_1"/><path d="M90 259.2h558" fill="none" stroke="#000" stroke-linecap="square" id="patch_3"/><path d="M648 259.2V28.8" fill="none" stroke="#000" stroke-linecap="square" id="patch_4"/><path d="M90 28.8h558" fill="none" stroke="#000" stroke-linecap="square" id="patch_5"/><path d="M90 259.2V28.8" fill="none" stroke="#000" stroke-linecap="square" id="patch_6"/><g id="matplotlib.axis_1"><g id="xtick_1"><path clip-path="url(#p949c428314)" d="M90 259.2V28.8" fill="none" stroke="#000" stroke-dasharray="1,3" stroke-width=".5" id="line2d_2"/><g id="line2d_3"><defs><path d="M0 0v-4" id="m0eaa8dee3e" stroke="#000" stroke-width=".5"/></defs><use x="90" xlink:href="#m0eaa8dee3e" y="259.2" stroke="#000" stroke-width=".5"/></g><g id="line2d_4"><defs><path d="M0 0v4" id="m65169960f2" stroke="#000" stroke-width=".5"/></defs><use x="90" xlink:href="#m65169960f2" y="28.8" stroke="#000" stroke-width=".5"/></g><g id="text_1"><defs><path d="M34.281 27.484q-10.89 0-15.093-2.484-4.204-2.484-4.204-8.5 0-4.781 3.157-7.594 3.156-2.797 8.562-2.797 7.485 0 12 5.297 4.516 5.297 4.516 14.078v2zm17.922 3.72V0H43.22v8.297Q40.14 3.328 35.547.953q-4.594-2.375-11.234-2.375-8.391 0-13.36 4.719Q6 8.016 6 15.922q0 9.219 6.172 13.906 6.187 4.688 18.437 4.688h12.61v.89q0 6.203-4.078 9.594-4.078 3.39-11.453 3.39-4.688 0-9.141-1.124-4.438-1.125-8.531-3.375v8.312q4.921 1.906 9.562 2.844 4.64.953 9.031.953 11.875 0 17.735-6.156 5.86-6.14 5.86-18.64" id="BitstreamVeraSans-Roman-61"/><path d="M52 44.188q3.375 6.062 8.063 8.937Q64.75 56 71.093 56q8.548 0 13.188-5.984 4.64-5.97 4.64-17V0h-9.03v32.719q0 7.86-2.797 11.656-2.781 3.813-8.485 3.813-6.984 0-11.046-4.641-4.047-4.625-4.047-12.64V0h-9.032v32.719q0 7.906-2.78 11.687-2.782 3.782-8.595 3.782-6.89 0-10.953-4.657-4.047-4.656-4.047-12.625V0H9.08v54.688h9.03v-8.5q3.078 5.03 7.375 7.421Q29.781 56 35.687 56q5.97 0 10.141-3.031Q50 49.953 52 44.187" id="BitstreamVeraSans-Roman-6d"/><path d="M10.984 1.516V10.5q3.72-1.766 7.516-2.688 3.813-.921 7.484-.921 9.766 0 14.907 6.562 5.156 6.563 5.89 19.953-2.828-4.203-7.187-6.453-4.344-2.25-9.61-2.25-10.937 0-17.312 6.61-6.375 6.625-6.375 18.109 0 11.219 6.64 18 6.641 6.797 17.672 6.797 12.657 0 19.313-9.703 6.672-9.688 6.672-28.141 0-17.234-8.188-27.516Q40.234-1.42 26.422-1.42q-3.719 0-7.531.734-3.797.734-7.907 2.203M30.61 32.422q6.641 0 10.516 4.531 3.89 4.547 3.89 12.469 0 7.86-3.89 12.422-3.875 4.562-10.516 4.562-6.64 0-10.515-4.562-3.875-4.563-3.875-12.422 0-7.922 3.875-12.469 3.875-4.531 10.515-4.531" id="BitstreamVeraSans-Roman-39"/></defs><g transform="matrix(.12 0 0 -.12 76.661 272.318)"><use xlink:href="#BitstreamVeraSans-Roman-39"/><use x="63.623" xlink:href="#BitstreamVeraSans-Roman-61"/><use x="124.902" xlink:href="#BitstreamVeraSans-Roman-6d"/></g></g></g><g id="xtick_2"><path clip-path="url(#p949c428314)" d="M183 259.2V28.8" fill="none" stroke="#000" stroke-dasharray="1,3" stroke-width=".5" id="line2d_5"/><use x="183" xlink:href="#m0eaa8dee3e" y="259.2" stroke="#000" stroke-width=".5" id="line2d_6"/><use x="183" xlink:href="#m65169960f2" y="28.8" stroke="#000" stroke-width=".5" id="line2d_7"/><g id="text_2"><defs><path d="M12.406 8.297h16.11v55.625l-17.532-3.516v8.985l17.438 3.515h9.86V8.296H54.39V0H12.406z" id="BitstreamVeraSans-Roman-31"/></defs><g transform="matrix(.12 0 0 -.12 165.844 272.318)"><use xlink:href="#BitstreamVeraSans-Roman-31"/><use x="63.623" xlink:href="#BitstreamVeraSans-Roman-31"/><use x="127.246" xlink:href="#BitstreamVeraSans-Roman-61"/><use x="188.525" xlink:href="#BitstreamVeraSans-Roman-6d"/></g></g></g><g id="xtick_3"><path clip-path="url(#p949c428314)" d="M276 259.2V28.8" fill="none" stroke="#000" stroke-dasharray="1,3" stroke-width=".5" id="line2d_8"/><use x="276" xlink:href="#m0eaa8dee3e" y="259.2" stroke="#000" stroke-width=".5" id="line2d_9"/><use x="276" xlink:href="#m65169960f2" y="28.8" stroke="#000" stroke-width=".5" id="line2d_10"/><g id="text_3"><defs><path d="M18.11 8.203v-29H9.077v75.484h9.031v-8.296q2.844 4.875 7.157 7.234Q29.594 56 35.594 56q9.968 0 16.187-7.906 6.235-7.907 6.235-20.797T51.78 6.484q-6.218-7.906-16.187-7.906-6 0-10.328 2.375-4.313 2.375-7.157 7.25m30.578 19.094q0 9.906-4.078 15.547-4.078 5.64-11.203 5.64-7.14 0-11.218-5.64-4.079-5.64-4.079-15.547 0-9.906 4.078-15.547 4.079-5.64 11.22-5.64 7.124 0 11.202 5.64t4.078 15.547" id="BitstreamVeraSans-Roman-70"/></defs><g transform="matrix(.12 0 0 -.12 262.53 272.318)"><use xlink:href="#BitstreamVeraSans-Roman-31"/><use x="63.623" xlink:href="#BitstreamVeraSans-Roman-70"/><use x="127.1" xlink:href="#BitstreamVeraSans-Roman-6d"/></g></g></g><g id="xtick_4"><path clip-path="url(#p949c428314)" d="M369 259.2V28.8" fill="none" stroke="#000" stroke-dasharray="1,3" stroke-width=".5" id="line2d_11"/><use x="369" xlink:href="#m0eaa8dee3e" y="259.2" stroke="#000" stroke-width=".5" id="line2d_12"/><use x="369" xlink:href="#m65169960f2" y="28.8" stroke="#000" stroke-width=".5" id="line2d_13"/><g id="text_4"><defs><path d="M40.578 39.313Q47.656 37.797 51.625 33q3.984-4.781 3.984-11.813 0-10.78-7.422-16.703-7.421-5.906-21.093-5.906-4.578 0-9.438.906-4.86.907-10.031 2.72v9.515q4.094-2.39 8.969-3.61 4.89-1.218 10.218-1.218 9.266 0 14.125 3.656 4.86 3.656 4.86 10.64 0 6.454-4.516 10.079-4.515 3.64-12.562 3.64h-8.5v8.11h8.89q7.266 0 11.125 2.906 3.86 2.906 3.86 8.375 0 5.61-3.985 8.61-3.968 3.015-11.39 3.015-4.063 0-8.703-.89-4.641-.876-10.203-2.72v8.782q5.624 1.562 10.53 2.344 4.907.78 9.25.78 11.235 0 17.766-5.109 6.547-5.093 6.547-13.78 0-6.063-3.468-10.235-3.47-4.172-9.86-5.782" id="BitstreamVeraSans-Roman-33"/></defs><g transform="matrix(.12 0 0 -.12 355.53 272.318)"><use xlink:href="#BitstreamVeraSans-Roman-33"/><use x="63.623" xlink:href="#BitstreamVeraSans-Roman-70"/><use x="127.1" xlink:href="#BitstreamVeraSans-Roman-6d"/></g></g></g><g id="xtick_5"><path clip-path="url(#p949c428314)" d="M462 259.2V28.8" fill="none" stroke="#000" stroke-dasharray="1,3" stroke-width=".5" id="line2d_14"/><use x="462" xlink:href="#m0eaa8dee3e" y="259.2" stroke="#000" stroke-width=".5" id="line2d_15"/><use x="462" xlink:href="#m65169960f2" y="28.8" stroke="#000" stroke-width=".5" id="line2d_16"/><g id="text_5"><defs><path d="M10.797 72.906h38.719v-8.312H19.828v-17.86q2.14.735 4.281 1.094 2.157.36 4.313.36 12.203 0 19.328-6.688 7.14-6.688 7.14-18.11 0-11.765-7.328-18.296-7.328-6.516-20.656-6.516-4.593 0-9.36.781-4.75.782-9.827 2.344v9.922q4.39-2.39 9.078-3.563 4.687-1.171 9.906-1.171 8.453 0 13.375 4.437 4.938 4.438 4.938 12.063 0 7.609-4.938 12.047-4.922 4.453-13.375 4.453-3.953 0-7.89-.875-3.922-.875-8.016-2.735z" id="BitstreamVeraSans-Roman-35"/></defs><g transform="matrix(.12 0 0 -.12 448.53 272.318)"><use xlink:href="#BitstreamVeraSans-Roman-35"/><use x="63.623" xlink:href="#BitstreamVeraSans-Roman-70"/><use x="127.1" xlink:href="#BitstreamVeraSans-Roman-6d"/></g></g></g><g id="xtick_6"><path clip-path="url(#p949c428314)" d="M555 259.2V28.8" fill="none" stroke="#000" stroke-dasharray="1,3" stroke-width=".5" id="line2d_17"/><use x="555" xlink:href="#m0eaa8dee3e" y="259.2" stroke="#000" stroke-width=".5" id="line2d_18"/><use x="555" xlink:href="#m65169960f2" y="28.8" stroke="#000" stroke-width=".5" id="line2d_19"/><g id="text_6"><defs><path d="M8.203 72.906h46.875v-4.203L28.61 0H18.312L43.22 64.594H8.203z" id="BitstreamVeraSans-Roman-37"/></defs><g transform="matrix(.12 0 0 -.12 541.53 272.318)"><use xlink:href="#BitstreamVeraSans-Roman-37"/><use x="63.623" xlink:href="#BitstreamVeraSans-Roman-70"/><use x="127.1" xlink:href="#BitstreamVeraSans-Roman-6d"/></g></g></g><g id="xtick_7"><path clip-path="url(#p949c428314)" d="M648 259.2V28.8" fill="none" stroke="#000" stroke-dasharray="1,3" stroke-width=".5" id="line2d_20"/><use x="648" xlink:href="#m0eaa8dee3e" y="259.2" stroke="#000" stroke-width=".5" id="line2d_21"/><use x="648" xlink:href="#m65169960f2" y="28.8" stroke="#000" stroke-width=".5" id="line2d_22"/><g transform="matrix(.12 0 0 -.12 634.53 272.318)" id="text_7"><use xlink:href="#BitstreamVeraSans-Roman-39"/><use x="63.623" xlink:href="#BitstreamVeraSans-Roman-70"/><use x="127.1" xlink:href="#BitstreamVeraSans-Roman-6d"/></g></g></g><g id="matplotlib.axis_2"><g id="ytick_1"><path clip-path="url(#p949c428314)" d="M90 259.2h558" fill="none" stroke="#000" stroke-dasharray="1,3" stroke-width=".5" id="line2d_23"/><g id="line2d_24"><defs><path d="M0 0h4" id="m839a48f6e6" stroke="#000" stroke-width=".5"/></defs><use x="90" xlink:href="#m839a48f6e6" y="259.2" stroke="#000" stroke-width=".5"/></g><g id="line2d_25"><defs><path d="M0 0h-4" id="m6d67c8319f" stroke="#000" stroke-width=".5"/></defs><use x="648" xlink:href="#m6d67c8319f" y="259.2" stroke="#000" stroke-width=".5"/></g><g id="text_8"><defs><path d="M31.781 66.406q-7.61 0-11.453-7.5Q16.5 51.422 16.5 36.375q0-14.984 3.828-22.484 3.844-7.5 11.453-7.5 7.672 0 11.5 7.5 3.844 7.5 3.844 22.484 0 15.047-3.844 22.531-3.828 7.5-11.5 7.5m0 7.813q12.266 0 18.735-9.703 6.468-9.688 6.468-28.141 0-18.406-6.468-28.11-6.47-9.687-18.735-9.687-12.25 0-18.718 9.688-6.47 9.703-6.47 28.109 0 18.453 6.47 28.14Q19.53 74.22 31.78 74.22" id="BitstreamVeraSans-Roman-30"/></defs><use xlink:href="#BitstreamVeraSans-Roman-30" transform="matrix(.12 0 0 -.12 78.365 262.511)"/></g></g><g id="ytick_2"><path clip-path="url(#p949c428314)" d="M90 216.533h558" fill="none" stroke="#000" stroke-dasharray="1,3" stroke-width=".5" id="line2d_26"/><use x="90" xlink:href="#m839a48f6e6" y="216.533" stroke="#000" stroke-width=".5" id="line2d_27"/><use x="648" xlink:href="#m6d67c8319f" y="216.533" stroke="#000" stroke-width=".5" id="line2d_28"/><use xlink:href="#BitstreamVeraSans-Roman-35" transform="matrix(.12 0 0 -.12 78.365 219.845)" id="text_9"/></g><g id="ytick_3"><path clip-path="url(#p949c428314)" d="M90 173.867h558" fill="none" stroke="#000" stroke-dasharray="1,3" stroke-width=".5" id="line2d_29"/><use x="90" xlink:href="#m839a48f6e6" y="173.867" stroke="#000" stroke-width=".5" id="line2d_30"/><use x="648" xlink:href="#m6d67c8319f" y="173.867" stroke="#000" stroke-width=".5" id="line2d_31"/><g transform="matrix(.12 0 0 -.12 70.73 177.178)" id="text_10"><use xlink:href="#BitstreamVeraSans-Roman-31"/><use x="63.623" xlink:href="#BitstreamVeraSans-Roman-30"/></g></g><g id="ytick_4"><path clip-path="url(#p949c428314)" d="M90 131.2h558" fill="none" stroke="#000" stroke-dasharray="1,3" stroke-width=".5" id="line2d_32"/><use x="90" xlink:href="#m839a48f6e6" y="131.2" stroke="#000" stroke-width=".5" id="line2d_33"/><use x="648" xlink:href="#m6d67c8319f" y="131.2" stroke="#000" stroke-width=".5" id="line2d_34"/><g transform="matrix(.12 0 0 -.12 70.73 134.511)" id="text_11"><use xlink:href="#BitstreamVeraSans-Roman-31"/><use x="63.623" xlink:href="#BitstreamVeraSans-Roman-35"/></g></g><g id="ytick_5"><path clip-path="url(#p949c428314)" d="M90 88.533h558" fill="none" stroke="#000" stroke-dasharray="1,3" stroke-width=".5" id="line2d_35"/><use x="90" xlink:href="#m839a48f6e6" y="88.533" stroke="#000" stroke-width=".5" id="line2d_36"/><use x="648" xlink:href="#m6d67c8319f" y="88.533" stroke="#000" stroke-width=".5" id="line2d_37"/><g id="text_12"><defs><path d="M19.188 8.297h34.421V0H7.33v8.297q5.609 5.812 15.296 15.594 9.703 9.797 12.188 12.64 4.734 5.313 6.609 9 1.89 3.688 1.89 7.25 0 5.813-4.078 9.469-4.078 3.672-10.625 3.672-4.64 0-9.797-1.61-5.14-1.609-11-4.89v9.969Q13.767 71.78 18.938 73q5.188 1.219 9.485 1.219 11.328 0 18.062-5.672 6.735-5.656 6.735-15.125 0-4.5-1.688-8.531-1.672-4.016-6.125-9.485-1.218-1.422-7.765-8.187-6.532-6.766-18.453-18.922" id="BitstreamVeraSans-Roman-32"/></defs><g transform="matrix(.12 0 0 -.12 70.73 91.845)"><use xlink:href="#BitstreamVeraSans-Roman-32"/><use x="63.623" xlink:href="#BitstreamVeraSans-Roman-30"/></g></g></g><g id="ytick_6"><path clip-path="url(#p949c428314)" d="M90 45.867h558" fill="none" stroke="#000" stroke-dasharray="1,3" stroke-width=".5" id="line2d_38"/><use x="90" xlink:href="#m839a48f6e6" y="45.867" stroke="#000" stroke-width=".5" id="line2d_39"/><use x="648" xlink:href="#m6d67c8319f" y="45.867" stroke="#000" stroke-width=".5" id="line2d_40"/><g transform="matrix(.12 0 0 -.12 70.73 49.178)" id="text_13"><use xlink:href="#BitstreamVeraSans-Roman-32"/><use x="63.623" xlink:href="#BitstreamVeraSans-Roman-35"/></g></g><g id="text_14"><defs><path d="M54.89 33.016V0h-8.984v32.719q0 7.765-3.031 11.61-3.031 3.858-9.078 3.858-7.281 0-11.484-4.64-4.204-4.625-4.204-12.64V0H9.08v54.688h9.03v-8.5q3.235 4.937 7.594 7.374Q30.078 56 35.797 56q9.422 0 14.25-5.828 4.844-5.828 4.844-17.156" id="BitstreamVeraSans-Roman-6e"/><path d="M18.313 70.219V54.688h18.5v-6.985h-18.5V18.016q0-6.688 1.828-8.594 1.828-1.906 7.453-1.906h9.218V0h-9.218q-10.407 0-14.36 3.875-3.953 3.89-3.953 14.14v29.688H2.687v6.984h6.594V70.22z" id="BitstreamVeraSans-Roman-74"/><path d="M8.688 72.906h9.921V28.61q0-11.718 4.235-16.875 4.25-5.14 13.781-5.14 9.469 0 13.719 5.14 4.25 5.157 4.25 16.875v44.297H64.5V27.391q0-14.25-7.063-21.532-7.046-7.28-20.812-7.28-13.828 0-20.89 7.28-7.047 7.282-7.047 21.532z" id="BitstreamVeraSans-Roman-55"/><path d="M8.5 21.578v33.11h8.984V21.922q0-7.766 3.016-11.656 3.031-3.875 9.094-3.875 7.265 0 11.484 4.64 4.234 4.64 4.234 12.656v31h8.985V0h-8.984v8.406Q42.047 3.422 37.718 1q-4.313-2.422-10.032-2.422-9.421 0-14.312 5.86Q8.5 10.296 8.5 21.578" id="BitstreamVeraSans-Roman-75"/><path d="M9.422 54.688h8.984V0H9.422zm0 21.296h8.984v-11.39H9.422z" id="BitstreamVeraSans-Roman-69"/><path d="M30.61 48.39q-7.22 0-11.422-5.64-4.204-5.64-4.204-15.453 0-9.813 4.172-15.453 4.188-5.64 11.453-5.64 7.188 0 11.375 5.655 4.203 5.672 4.203 15.438 0 9.719-4.203 15.406-4.187 5.688-11.375 5.688m0 7.609q11.72 0 18.407-7.625 6.703-7.61 6.703-21.078 0-13.422-6.703-21.078-6.688-7.64-18.407-7.64-11.765 0-18.437 7.64-6.656 7.656-6.656 21.078 0 13.469 6.656 21.078Q18.844 56 30.609 56" id="BitstreamVeraSans-Roman-6f"/><path d="M64.406 67.281v-10.39q-4.984 4.64-10.625 6.922-5.64 2.296-11.984 2.296-12.5 0-19.14-7.64-6.641-7.64-6.641-22.094 0-14.406 6.64-22.047 6.64-7.64 19.14-7.64 6.345 0 11.985 2.296 5.64 2.297 10.625 6.938V5.609Q59.234 2.094 53.437.33q-5.78-1.75-12.218-1.75-16.563 0-26.094 10.124-9.516 10.14-9.516 27.672 0 17.578 9.516 27.703 9.531 10.14 26.094 10.14 6.531 0 12.312-1.734 5.797-1.734 10.875-5.203" id="BitstreamVeraSans-Roman-43"/><path d="M44.281 53.078v-8.5q-3.797 1.953-7.906 2.922-4.094.984-8.5.984-6.688 0-10.031-2.047-3.344-2.046-3.344-6.156 0-3.125 2.39-4.906 2.391-1.781 9.626-3.39l3.078-.688q9.562-2.047 13.593-5.781 4.032-3.735 4.032-10.422 0-7.625-6.032-12.078-6.03-4.438-16.578-4.438-4.39 0-9.156.86Q10.688.296 5.422 2v9.281q4.984-2.594 9.812-3.89 4.829-1.282 9.579-1.282 6.343 0 9.75 2.172 3.421 2.172 3.421 6.125 0 3.656-2.468 5.61-2.453 1.953-10.813 3.765l-3.125.735q-8.344 1.75-12.062 5.39-3.704 3.64-3.704 9.985 0 7.718 5.47 11.906Q16.75 56 26.811 56q4.97 0 9.36-.734 4.406-.72 8.11-2.188" id="BitstreamVeraSans-Roman-73"/><path d="M41.11 46.297q-1.516.875-3.297 1.281Q36.03 48 33.89 48q-7.625 0-11.703-4.953-4.079-4.953-4.079-14.234V0H9.08v54.688h9.03v-8.5q2.844 4.984 7.375 7.39Q30.031 56 36.531 56q.922 0 2.047-.125 1.125-.11 2.484-.36z" id="BitstreamVeraSans-Roman-72"/><path d="M56.203 29.594v-4.39H14.891q.593-9.282 5.593-14.142 5-4.859 13.938-4.859 5.172 0 10.031 1.266 4.86 1.265 9.656 3.812v-8.5Q49.266.734 44.187-.344 39.11-1.422 33.892-1.422q-13.094 0-20.735 7.61-7.64 7.625-7.64 20.625 0 13.421 7.25 21.296Q20.016 56 32.328 56q11.031 0 17.453-7.11 6.422-7.093 6.422-19.296m-8.984 2.64q-.094 7.36-4.125 11.75-4.032 4.407-10.672 4.407-7.516 0-12.031-4.25-4.516-4.25-5.203-11.97z" id="BitstreamVeraSans-Roman-65"/></defs><g transform="matrix(0 -.12 -.12 0 63.234 197.445)"><use xlink:href="#BitstreamVeraSans-Roman-43"/><use x="69.824" xlink:href="#BitstreamVeraSans-Roman-6f"/><use x="131.006" xlink:href="#BitstreamVeraSans-Roman-6d"/><use x="228.418" xlink:href="#BitstreamVeraSans-Roman-70"/><use x="291.895" xlink:href="#BitstreamVeraSans-Roman-75"/><use x="355.273" xlink:href="#BitstreamVeraSans-Roman-74"/><use x="394.482" xlink:href="#BitstreamVeraSans-Roman-65"/><use x="456.006" xlink:href="#BitstreamVeraSans-Roman-72"/><use x="497.119" xlink:href="#BitstreamVeraSans-Roman-73"/><use x="549.219" xlink:href="#BitstreamVeraSans-Roman-20"/><use x="581.006" xlink:href="#BitstreamVeraSans-Roman-69"/><use x="608.789" xlink:href="#BitstreamVeraSans-Roman-6e"/><use x="672.168" xlink:href="#BitstreamVeraSans-Roman-20"/><use x="703.955" xlink:href="#BitstreamVeraSans-Roman-55"/><use x="777.148" xlink:href="#BitstreamVeraSans-Roman-73"/><use x="829.248" xlink:href="#BitstreamVeraSans-Roman-65"/></g></g></g><g id="text_15"><defs><path d="M48.688 27.297q0 9.906-4.079 15.547-4.078 5.64-11.203 5.64-7.14 0-11.218-5.64-4.079-5.64-4.079-15.547 0-9.906 4.078-15.547 4.079-5.64 11.22-5.64 7.124 0 11.202 5.64t4.078 15.547M18.11 46.39q2.844 4.875 7.157 7.234Q29.594 56 35.594 56q9.968 0 16.187-7.906 6.235-7.907 6.235-20.797T51.78 6.484q-6.218-7.906-16.187-7.906-6 0-10.328 2.375-4.313 2.375-7.157 7.25V0H9.08v75.984h9.03z" id="BitstreamVeraSans-Roman-62"/><path d="M9.813 72.906h41.89v-8.312H19.672V43.109h28.906v-8.297H19.672V0h-9.86z" id="BitstreamVeraSans-Roman-46"/><path d="M11.719 12.406h10.297V0H11.719zm0 39.297h10.297v-12.39H11.719z" id="BitstreamVeraSans-Roman-3a"/><path d="M5.516 54.688h42.672v-8.204L14.406 7.172h33.782V0H4.297v8.203l33.797 39.313H5.516z" id="BitstreamVeraSans-Roman-7a"/><path d="M9.813 72.906h14.703l18.593-49.61 18.703 49.61h14.704V0H66.89v64.016l-18.797-50h-9.907l-18.796 50V0H9.813z" id="BitstreamVeraSans-Roman-4d"/><path d="M34.188 63.188L20.797 26.906h26.812zm-5.579 9.718h11.188L67.578 0h-10.25l-6.64 18.703h-32.86L11.188 0H.78z" id="BitstreamVeraSans-Roman-41"/><path d="M9.813 72.906h9.859V8.296h35.5V0H9.812z" id="BitstreamVeraSans-Roman-4c"/><path d="M11.719 12.406h10.297V4l-8-15.625H7.719l4 15.625z" id="BitstreamVeraSans-Roman-2c"/><path d="M9.422 75.984h8.984V0H9.422z" id="BitstreamVeraSans-Roman-6c"/></defs><g transform="matrix(.144 0 0 -.144 222.958 23.8)"><use xlink:href="#BitstreamVeraSans-Roman-4c"/><use x="55.713" xlink:href="#BitstreamVeraSans-Roman-61"/><use x="116.992" xlink:href="#BitstreamVeraSans-Roman-62"/><use x="180.469" xlink:href="#BitstreamVeraSans-Roman-20"/><use x="212.256" xlink:href="#BitstreamVeraSans-Roman-55"/><use x="285.449" xlink:href="#BitstreamVeraSans-Roman-74"/><use x="324.658" xlink:href="#BitstreamVeraSans-Roman-69"/><use x="352.441" xlink:href="#BitstreamVeraSans-Roman-6c"/><use x="380.225" xlink:href="#BitstreamVeraSans-Roman-69"/><use x="408.008" xlink:href="#BitstreamVeraSans-Roman-7a"/><use x="460.498" xlink:href="#BitstreamVeraSans-Roman-61"/><use x="521.777" xlink:href="#BitstreamVeraSans-Roman-74"/><use x="560.986" xlink:href="#BitstreamVeraSans-Roman-69"/><use x="588.77" xlink:href="#BitstreamVeraSans-Roman-6f"/><use x="649.951" xlink:href="#BitstreamVeraSans-Roman-6e"/><use x="713.33" xlink:href="#BitstreamVeraSans-Roman-20"/><use x="745.117" xlink:href="#BitstreamVeraSans-Roman-4d"/><use x="831.396" xlink:href="#BitstreamVeraSans-Roman-6f"/><use x="892.578" xlink:href="#BitstreamVeraSans-Roman-6e"/><use x="955.957" xlink:href="#BitstreamVeraSans-Roman-20"/><use x="987.744" xlink:href="#BitstreamVeraSans-Roman-46"/><use x="1045.186" xlink:href="#BitstreamVeraSans-Roman-65"/><use x="1106.709" xlink:href="#BitstreamVeraSans-Roman-62"/><use x="1170.186" xlink:href="#BitstreamVeraSans-Roman-20"/><use x="1201.973" xlink:href="#BitstreamVeraSans-Roman-30"/><use x="1265.596" xlink:href="#BitstreamVeraSans-Roman-31"/><use x="1329.219" xlink:href="#BitstreamVeraSans-Roman-2c"/><use x="1361.006" xlink:href="#BitstreamVeraSans-Roman-20"/><use x="1392.793" xlink:href="#BitstreamVeraSans-Roman-31"/><use x="1456.416" xlink:href="#BitstreamVeraSans-Roman-32"/><use x="1520.039" xlink:href="#BitstreamVeraSans-Roman-3a"/><use x="1553.73" xlink:href="#BitstreamVeraSans-Roman-30"/><use x="1617.354" xlink:href="#BitstreamVeraSans-Roman-30"/><use x="1680.977" xlink:href="#BitstreamVeraSans-Roman-3a"/><use x="1714.668" xlink:href="#BitstreamVeraSans-Roman-30"/><use x="1778.291" xlink:href="#BitstreamVeraSans-Roman-30"/><use x="1841.914" xlink:href="#BitstreamVeraSans-Roman-20"/><use x="1873.701" xlink:href="#BitstreamVeraSans-Roman-41"/><use x="1942.109" xlink:href="#BitstreamVeraSans-Roman-4d"/></g></g></g></g><defs><clipPath id="p949c428314"><path d="M90 28.8h558v230.4H90z"/></clipPath></defs></svg>
