<svg height="288" viewBox="0 0 720 216" width="960" xmlns="http://www.w3.org/2000/svg" xmlns:xlink="http://www.w3.org/1999/xlink"><defs><style>*{stroke-linecap:butt;stroke-linejoin:round;stroke-miterlimit:100000}</style></defs><g id="figure_1"><path d="M0 216h720V0H0z" fill="#fff" id="patch_1"/><g id="axes_1"><path d="M90 194.4h558V21.6H90z" fill="#fff" id="patch_2"/><path clip-path="url(#p0eea9572e2)" d="M90 194.4h13.5l.75-2.688.75-1.152.75 3.84.75-45.504.75-4.992.75 8.256.75 14.208.75 19.584.75-2.88.75-25.92.75-2.88.75 8.064.75-6.912.75 18.432.75 14.208.75 1.344.75-33.216.75 2.112.75.384.75.576.75 9.408.75 18.24.75 1.536.719-33.6 1.5 4.416.75-1.152.75 15.744.75 13.248.75.96.75-49.536.75-8.064.75 11.136.75-7.872.75 44.544.75 15.936h1.5l.75.192.75-.192.75.192h.75l.75-.192h.75l.75-43.008.75-10.176.75 2.112.75 1.728.75 14.208.75 20.16.75 1.152.75-41.664.75-4.224.75 1.344.75 7.488.75 10.752.75 31.68.75-1.344.75-44.928.75-4.032.75-.768.75 4.608.75 17.088.75 29.952.75 2.496.75-47.424.75-2.112.75.96.75-.576.75 19.392.75 29.76.75-3.648.75-50.304.75 2.112.75-4.224.75.96.75 10.752.75 42.816.75-2.688.75-24.192.75-1.536.75-3.84.75-2.88.75 8.064.75 14.016.75 2.112.75-20.928.75 5.184.75-.576.75 3.456.75 17.472.75 13.056.75.192h.75l1.5-.384.75.192.75.384.75-.384.75.192.75-.384.75.576h.75l.75-.192.75.192h2.25l.75-.192h1.5l.75.192h.75l.75-.576.75.384.75-.192.75.192h.75l.75-.384.75.192h.75l.75-.192.75.576.75-.384.75-.192.75.384.75-.384 1.5.384.75-.192h.75l.75-.192h.75l.75.192h.75l.75-.192.75.384.75-.576.75-.384.75.96.75-.384.75.384.75.192 1.5-.384.75.384 1.5-.384.75.192 1.5-.384.75.192.75.384.75-.192.75.192.75-.192.75.192.75-.192.75-.576.75.192.75.384.75-.384.75-.192.75.576h.75l.75-.192h.75l1.5.384h1.5l.75-.384h1.5l.75.192.75-.192h.75l.75.192.75-.192h2.25l.75.192h.75l.75-.384.75.384h1.5l.75-.192.75.384.75-.384.75.384h.75l.75-.384.75-28.992.75 2.112.75 24.96.75-3.84.75 5.952.75-59.712.75 1.344.75-3.072 1.5 47.424.75-4.8.75-46.08.75 2.88.75.192.75 1.152.75 8.64.75 39.552.75-6.912.75-51.84.75 2.496.75-.96h.75l.75 8.064.75 46.848.75-.96.75-55.488.75 2.496.75 68.736.75-71.616.75 14.208.75 41.856.75-1.536.75-53.376.75-3.84.75 15.36.75-4.032.75 12.288.75 39.36.75-1.152.75-63.552.75 2.496.75 6.144.75-1.92.75 25.728.75 30.912.75-2.496.75-61.44.75 1.152.75 8.64.75-.384.75 17.28.75 39.168.75-3.84.75-63.36.75 2.688.75 10.56.75-13.056.75 22.272.75 39.552.75-.96.75-56.64.75-2.88.75 15.552.75-4.8.75 20.544.75 32.256.75-4.608.781-46.848.75-11.328.75 13.824.75-4.416.75 16.704.75 41.088.75-5.952.75-45.504.75 59.136.75-66.432.75.96 1.5 52.608.75 1.536.75-62.976.75 3.84.75 13.632.75-12.672.75 23.424.75 38.976L315 180l.75-51.84.75-8.064.75 60.288.75 13.824.75.192h.75l.75-.192.75-76.992.75 4.992.75-1.728.75-1.344.75 18.048.75 48 .75 7.296.75-41.088.75-1.92.75 2.496.75 19.584.75-18.24.75 24.96.75-4.032.75-26.88.75 23.232.75-4.608.75 5.376.75 15.168.75 7.872H339l.75-.192.75.192h.75l.75-.192.75.192h3l.75-.192h.75l.75-.192h.75l.75.192h.75l.75.192.75-.768.75.192h.75l.75.384.75-.192 1.5.384.75-.96h.75l.75-62.592.75-10.176.75-.192.75 14.592.75 36.48.75.96.75-68.352.75 6.144.75-9.024.75 9.984.75 21.12.75 40.512.75-1.92.75-66.24.75.576.75 9.024.75 1.152 1.5 55.872.75 2.112.75-60.096.75-1.152.75 1.152.75 4.992.75 18.048.75 50.304.75-7.296.75 13.44.75-81.792.75-4.224.75 2.688.75 21.888.75 43.776.75-3.264.75-52.8.75-1.536.75 12.288.75-12.864.75 20.928.75 35.52.75-.192.75-49.728.75-1.344.75 1.92.75-2.112.75 12.672.75 41.472.75-2.688.719-51.072.75-10.752.75 28.224.75-27.648.75 25.536.75 37.44.75-2.496.75-55.68.75-7.68.75 8.448.75-2.112.75 68.16.75 10.368h.75l.75.192h.75l.75-.192h2.25l.75-.384.75-84.096.75 5.568.75 9.792.75-.96.75 12.096.75 41.856.75.96.75-59.904.75-5.568.75 14.976.75-7.296.75 16.128.75 42.24.75-1.344.75-66.432.75 9.984.75 3.84.75-5.952.75 14.4.75 49.152.75-3.264.75-60.096.75-3.648.75 8.256.75-4.608.75 18.624.75 40.32.75 3.648.75-71.424.75-1.92.75 4.608.75 1.536.75 14.976.75 51.84.75-3.264.75-25.92.75-8.832.75.768.75 4.992.75-7.296.75 28.992.75 4.416.75-32.448.75 13.248.75 1.92.75-4.992.75 25.344.75 15.36.75-.576.75.384.75-.192.75.192h1.5l.75-.192 1.5.384h1.5l.75-.192h1.5l.75.192h3.75l.75-.192.75.192.75-.192h1.5l.75.192h.75l.75-.384.75.384h.75l.75-.192h.75l.75.192.75-.384.75.384.75-.384.75.192h.75l.75-.192.75.192h.75l.75.192.75-.384.75.192h1.5l.75.192.75-.192.75.192h.75l.75-.192h.75l.75-.576.75.768.75-.192.75.192h1.5l.75-.384h.75l1.5.384.75-.192.75-.384.75.384.75.192.75-.192.75.192h.75l.75-.192.75-.576.75.576.75.192.75-.192h.75l.75.192h.75l.75-.192h4.5l.75.192.75-.192.75.192.75-.384.75.192.75-.192.75.192h.75l.75.192h.75l.75-.192.75.192h2.25l.75-.192.75-1.536.75-53.952.75-13.44.75 18.624.75 34.944.75-6.72.75-62.784.75-.576.75 8.064.75-8.64.75 15.744.75 54.528.75-3.456.75 18.624.75-100.608.75 5.184.75 10.944.75 14.208.75 45.888.75-3.456.75-74.88.75-3.84.75 15.936.75-2.112.75 25.536.75 67.776.75-29.76.75-60.48.75-5.568.75 4.992.75 3.648.75 21.12.75 43.584.75-1.728.75-83.136.75 13.44.75 9.024.75-2.688.75 25.152.75 44.928.75-8.448.75-66.816.75-7.488.75 7.104.75 10.368.75 12.288.75 51.072.75-4.032.75-77.184.75 2.688.75-5.376.75 13.248.75 27.84.75 44.544.75-3.072.75-78.528.75 4.032.75 2.688.75 11.712.75 24.192.75 38.784.75-7.104.75-76.032.75 6.72.75 4.416.75 3.456.75 20.736.75 51.648.75-7.488.781-73.728.75.192.75 3.072.75 6.72.75 24 .75 45.504.75-8.256.75-53.76.75-2.112.75 78.144.75-59.52.75 61.056.75-.768h.75l.75-84.096.75-.192.75-6.336.75-13.056 1.5 84.672.75-4.032.75-71.04.75 30.72.75 64.512.75-.576.75.192h.75l.75-1.344.75-120.576 1.5 22.656.75 8.448.75 17.28.75 57.216.75-6.336.75-58.368.75 12.864.75-9.984.75 6.528.75 7.872.75 30.528.75-3.648.75-40.704.75 9.6.75 11.328.75 17.28.75 5.568.75 33.984.75.192h11.25l.75-.192.75.192.75-.576.75.384.75.192h1.5l.75-.192h.75l.75.192h.75l.75-.768.75.192.75-1.344.75-100.608.75-36.864.75 8.064.75 26.688.75 75.648.75-14.976L636 55.2l.75 9.216.75 2.88.75 4.032.75 21.888.75 67.584.75-9.984.75-105.216.75 10.176.75-5.184.75 9.024.75 25.536.75 74.88.75-5.952.75-116.352.75 22.08L648 194.4h0" fill="none" stroke="#00f" stroke-linecap="square" stroke-width="2" id="line2d_1"/><path d="M90 194.4h558" fill="none" stroke="#000" stroke-linecap="square" id="patch_3"/><path d="M648 194.4V21.6" fill="none" stroke="#000" stroke-linecap="square" id="patch_4"/><path d="M90 21.6h558" fill="none" stroke="#000" stroke-linecap="square" id="patch_5"/><path d="M90 194.4V21.6" fill="none" stroke="#000" stroke-linecap="square" id="patch_6"/><g id="matplotlib.axis_1"><g id="xtick_1"><path clip-path="url(#p0eea9572e2)" d="M90 194.4V21.6" fill="none" stroke="#000" stroke-dasharray="1,3" stroke-width=".5" id="line2d_2"/><g id="line2d_3"><defs><path d="M0 0v-4" id="m0acf4f5c25" stroke="#000" stroke-width=".5"/></defs><use x="90" xlink:href="#m0acf4f5c25" y="194.4" stroke="#000" stroke-width=".5"/></g><g id="line2d_4"><defs><path d="M0 0v4" id="m34c84f894e" stroke="#000" stroke-width=".5"/></defs><use x="90" xlink:href="#m34c84f894e" y="21.6" stroke="#000" stroke-width=".5"/></g><g id="text_1"><defs><path d="M4.89 31.39h26.313v-8H4.891z" id="BitstreamVeraSans-Roman-2d"/><path d="M37.797 64.313L12.89 25.39h24.906zm-2.594 8.593H47.61V25.391h10.407v-8.203H47.609V0h-9.812v17.188H4.89v9.515z" id="BitstreamVeraSans-Roman-34"/><path d="M8.203 72.906h46.875v-4.203L28.61 0H18.312L43.22 64.594H8.203z" id="BitstreamVeraSans-Roman-37"/><path d="M19.188 8.297h34.421V0H7.33v8.297q5.609 5.812 15.296 15.594 9.703 9.797 12.188 12.64 4.734 5.313 6.609 9 1.89 3.688 1.89 7.25 0 5.813-4.078 9.469-4.078 3.672-10.625 3.672-4.64 0-9.797-1.61-5.14-1.609-11-4.89v9.969Q13.767 71.78 18.938 73q5.188 1.219 9.485 1.219 11.328 0 18.062-5.672 6.735-5.656 6.735-15.125 0-4.5-1.688-8.531-1.672-4.016-6.125-9.485-1.218-1.422-7.765-8.187-6.532-6.766-18.453-18.922" id="BitstreamVeraSans-Roman-32"/><path d="M31.781 66.406q-7.61 0-11.453-7.5Q16.5 51.422 16.5 36.375q0-14.984 3.828-22.484 3.844-7.5 11.453-7.5 7.672 0 11.5 7.5 3.844 7.5 3.844 22.484 0 15.047-3.844 22.531-3.828 7.5-11.5 7.5m0 7.813q12.266 0 18.735-9.703 6.468-9.688 6.468-28.141 0-18.406-6.468-28.11-6.47-9.687-18.735-9.687-12.25 0-18.718 9.688-6.47 9.703-6.47 28.109 0 18.453 6.47 28.14Q19.53 74.22 31.78 74.22" id="BitstreamVeraSans-Roman-30"/><path d="M12.406 8.297h16.11v55.625l-17.532-3.516v8.985l17.438 3.515h9.86V8.296H54.39V0H12.406z" id="BitstreamVeraSans-Roman-31"/></defs><g transform="matrix(.12 0 0 -.12 55.13 207.518)"><use xlink:href="#BitstreamVeraSans-Roman-32"/><use x="63.623" xlink:href="#BitstreamVeraSans-Roman-30"/><use x="127.246" xlink:href="#BitstreamVeraSans-Roman-31"/><use x="190.869" xlink:href="#BitstreamVeraSans-Roman-34"/><use x="254.492" xlink:href="#BitstreamVeraSans-Roman-2d"/><use x="290.576" xlink:href="#BitstreamVeraSans-Roman-30"/><use x="354.199" xlink:href="#BitstreamVeraSans-Roman-31"/><use x="417.822" xlink:href="#BitstreamVeraSans-Roman-2d"/><use x="453.906" xlink:href="#BitstreamVeraSans-Roman-32"/><use x="517.529" xlink:href="#BitstreamVeraSans-Roman-37"/></g></g></g><g id="xtick_2"><path clip-path="url(#p0eea9572e2)" d="M201.719 194.4V21.6" fill="none" stroke="#000" stroke-dasharray="1,3" stroke-width=".5" id="line2d_5"/><use x="201.719" xlink:href="#m0acf4f5c25" y="194.4" stroke="#000" stroke-width=".5" id="line2d_6"/><use x="201.719" xlink:href="#m34c84f894e" y="21.6" stroke="#000" stroke-width=".5" id="line2d_7"/><g id="text_2"><defs><path d="M10.797 72.906h38.719v-8.312H19.828v-17.86q2.14.735 4.281 1.094 2.157.36 4.313.36 12.203 0 19.328-6.688 7.14-6.688 7.14-18.11 0-11.765-7.328-18.296-7.328-6.516-20.656-6.516-4.593 0-9.36.781-4.75.782-9.827 2.344v9.922q4.39-2.39 9.078-3.563 4.687-1.171 9.906-1.171 8.453 0 13.375 4.437 4.938 4.438 4.938 12.063 0 7.609-4.938 12.047-4.922 4.453-13.375 4.453-3.953 0-7.89-.875-3.922-.875-8.016-2.735z" id="BitstreamVeraSans-Roman-35"/><path d="M33.016 40.375q-6.641 0-10.532-4.547-3.875-4.531-3.875-12.437 0-7.86 3.875-12.438 3.891-4.562 10.532-4.562 6.64 0 10.515 4.562 3.875 4.578 3.875 12.438 0 7.906-3.875 12.437-3.875 4.547-10.515 4.547m19.578 30.922v-8.984q-3.719 1.75-7.5 2.671-3.782.938-7.5.938-9.766 0-14.922-6.594-5.14-6.594-5.875-19.922 2.875 4.25 7.219 6.516 4.359 2.266 9.578 2.266 10.984 0 17.36-6.672 6.374-6.657 6.374-18.125 0-11.235-6.64-18.032-6.641-6.78-17.672-6.78-12.657 0-19.344 9.687-6.688 9.703-6.688 28.109 0 17.281 8.204 27.563 8.203 10.28 22.015 10.28 3.719 0 7.5-.734t7.89-2.187" id="BitstreamVeraSans-Roman-36"/></defs><g transform="matrix(.12 0 0 -.12 166.85 207.518)"><use xlink:href="#BitstreamVeraSans-Roman-32"/><use x="63.623" xlink:href="#BitstreamVeraSans-Roman-30"/><use x="127.246" xlink:href="#BitstreamVeraSans-Roman-31"/><use x="190.869" xlink:href="#BitstreamVeraSans-Roman-34"/><use x="254.492" xlink:href="#BitstreamVeraSans-Roman-2d"/><use x="290.576" xlink:href="#BitstreamVeraSans-Roman-30"/><use x="354.199" xlink:href="#BitstreamVeraSans-Roman-36"/><use x="417.822" xlink:href="#BitstreamVeraSans-Roman-2d"/><use x="453.906" xlink:href="#BitstreamVeraSans-Roman-32"/><use x="517.529" xlink:href="#BitstreamVeraSans-Roman-35"/></g></g></g><g id="xtick_3"><path clip-path="url(#p0eea9572e2)" d="M313.5 194.4V21.6" fill="none" stroke="#000" stroke-dasharray="1,3" stroke-width=".5" id="line2d_8"/><use x="313.5" xlink:href="#m0acf4f5c25" y="194.4" stroke="#000" stroke-width=".5" id="line2d_9"/><use x="313.5" xlink:href="#m34c84f894e" y="21.6" stroke="#000" stroke-width=".5" id="line2d_10"/><g transform="matrix(.12 0 0 -.12 278.63 207.518)" id="text_3"><use xlink:href="#BitstreamVeraSans-Roman-32"/><use x="63.623" xlink:href="#BitstreamVeraSans-Roman-30"/><use x="127.246" xlink:href="#BitstreamVeraSans-Roman-31"/><use x="190.869" xlink:href="#BitstreamVeraSans-Roman-34"/><use x="254.492" xlink:href="#BitstreamVeraSans-Roman-2d"/><use x="290.576" xlink:href="#BitstreamVeraSans-Roman-31"/><use x="354.199" xlink:href="#BitstreamVeraSans-Roman-31"/><use x="417.822" xlink:href="#BitstreamVeraSans-Roman-2d"/><use x="453.906" xlink:href="#BitstreamVeraSans-Roman-32"/><use x="517.529" xlink:href="#BitstreamVeraSans-Roman-31"/></g></g><g id="xtick_4"><path clip-path="url(#p0eea9572e2)" d="M425.219 194.4V21.6" fill="none" stroke="#000" stroke-dasharray="1,3" stroke-width=".5" id="line2d_11"/><use x="425.219" xlink:href="#m0acf4f5c25" y="194.4" stroke="#000" stroke-width=".5" id="line2d_12"/><use x="425.219" xlink:href="#m34c84f894e" y="21.6" stroke="#000" stroke-width=".5" id="line2d_13"/><g id="text_4"><defs><path d="M10.984 1.516V10.5q3.72-1.766 7.516-2.688 3.813-.921 7.484-.921 9.766 0 14.907 6.562 5.156 6.563 5.89 19.953-2.828-4.203-7.187-6.453-4.344-2.25-9.61-2.25-10.937 0-17.312 6.61-6.375 6.625-6.375 18.109 0 11.219 6.64 18 6.641 6.797 17.672 6.797 12.657 0 19.313-9.703 6.672-9.688 6.672-28.141 0-17.234-8.188-27.516Q40.234-1.42 26.422-1.42q-3.719 0-7.531.734-3.797.734-7.907 2.203M30.61 32.422q6.641 0 10.516 4.531 3.89 4.547 3.89 12.469 0 7.86-3.89 12.422-3.875 4.562-10.516 4.562-6.64 0-10.515-4.562-3.875-4.563-3.875-12.422 0-7.922 3.875-12.469 3.875-4.531 10.515-4.531" id="BitstreamVeraSans-Roman-39"/></defs><g transform="matrix(.12 0 0 -.12 390.35 207.518)"><use xlink:href="#BitstreamVeraSans-Roman-32"/><use x="63.623" xlink:href="#BitstreamVeraSans-Roman-30"/><use x="127.246" xlink:href="#BitstreamVeraSans-Roman-31"/><use x="190.869" xlink:href="#BitstreamVeraSans-Roman-35"/><use x="254.492" xlink:href="#BitstreamVeraSans-Roman-2d"/><use x="290.576" xlink:href="#BitstreamVeraSans-Roman-30"/><use x="354.199" xlink:href="#BitstreamVeraSans-Roman-34"/><use x="417.822" xlink:href="#BitstreamVeraSans-Roman-2d"/><use x="453.906" xlink:href="#BitstreamVeraSans-Roman-31"/><use x="517.529" xlink:href="#BitstreamVeraSans-Roman-39"/></g></g></g><g id="xtick_5"><path clip-path="url(#p0eea9572e2)" d="M536.969 194.4V21.6" fill="none" stroke="#000" stroke-dasharray="1,3" stroke-width=".5" id="line2d_14"/><use x="536.969" xlink:href="#m0acf4f5c25" y="194.4" stroke="#000" stroke-width=".5" id="line2d_15"/><use x="536.969" xlink:href="#m34c84f894e" y="21.6" stroke="#000" stroke-width=".5" id="line2d_16"/><g transform="matrix(.12 0 0 -.12 502.1 207.518)" id="text_5"><use xlink:href="#BitstreamVeraSans-Roman-32"/><use x="63.623" xlink:href="#BitstreamVeraSans-Roman-30"/><use x="127.246" xlink:href="#BitstreamVeraSans-Roman-31"/><use x="190.869" xlink:href="#BitstreamVeraSans-Roman-35"/><use x="254.492" xlink:href="#BitstreamVeraSans-Roman-2d"/><use x="290.576" xlink:href="#BitstreamVeraSans-Roman-30"/><use x="354.199" xlink:href="#BitstreamVeraSans-Roman-39"/><use x="417.822" xlink:href="#BitstreamVeraSans-Roman-2d"/><use x="453.906" xlink:href="#BitstreamVeraSans-Roman-31"/><use x="517.529" xlink:href="#BitstreamVeraSans-Roman-35"/></g></g></g><g id="matplotlib.axis_2"><g id="ytick_1"><path clip-path="url(#p0eea9572e2)" d="M90 194.4h558" fill="none" stroke="#000" stroke-dasharray="1,3" stroke-width=".5" id="line2d_17"/><g id="line2d_18"><defs><path d="M0 0h4" id="m9ed062218b" stroke="#000" stroke-width=".5"/></defs><use x="90" xlink:href="#m9ed062218b" y="194.4" stroke="#000" stroke-width=".5"/></g><g id="line2d_19"><defs><path d="M0 0h-4" id="m5a2968df74" stroke="#000" stroke-width=".5"/></defs><use x="648" xlink:href="#m5a2968df74" y="194.4" stroke="#000" stroke-width=".5"/></g><use xlink:href="#BitstreamVeraSans-Roman-30" transform="matrix(.12 0 0 -.12 78.365 197.711)" id="text_6"/></g><g id="ytick_2"><path clip-path="url(#p0eea9572e2)" d="M90 175.2h558" fill="none" stroke="#000" stroke-dasharray="1,3" stroke-width=".5" id="line2d_20"/><use x="90" xlink:href="#m9ed062218b" y="175.2" stroke="#000" stroke-width=".5" id="line2d_21"/><use x="648" xlink:href="#m5a2968df74" y="175.2" stroke="#000" stroke-width=".5" id="line2d_22"/><g transform="matrix(.12 0 0 -.12 63.095 178.511)" id="text_7"><use xlink:href="#BitstreamVeraSans-Roman-31"/><use x="63.623" xlink:href="#BitstreamVeraSans-Roman-30"/><use x="127.246" xlink:href="#BitstreamVeraSans-Roman-30"/></g></g><g id="ytick_3"><path clip-path="url(#p0eea9572e2)" d="M90 156h558" fill="none" stroke="#000" stroke-dasharray="1,3" stroke-width=".5" id="line2d_23"/><use x="90" xlink:href="#m9ed062218b" y="156" stroke="#000" stroke-width=".5" id="line2d_24"/><use x="648" xlink:href="#m5a2968df74" y="156" stroke="#000" stroke-width=".5" id="line2d_25"/><g transform="matrix(.12 0 0 -.12 63.095 159.311)" id="text_8"><use xlink:href="#BitstreamVeraSans-Roman-32"/><use x="63.623" xlink:href="#BitstreamVeraSans-Roman-30"/><use x="127.246" xlink:href="#BitstreamVeraSans-Roman-30"/></g></g><g id="ytick_4"><path clip-path="url(#p0eea9572e2)" d="M90 136.8h558" fill="none" stroke="#000" stroke-dasharray="1,3" stroke-width=".5" id="line2d_26"/><use x="90" xlink:href="#m9ed062218b" y="136.8" stroke="#000" stroke-width=".5" id="line2d_27"/><use x="648" xlink:href="#m5a2968df74" y="136.8" stroke="#000" stroke-width=".5" id="line2d_28"/><g id="text_9"><defs><path d="M40.578 39.313Q47.656 37.797 51.625 33q3.984-4.781 3.984-11.813 0-10.78-7.422-16.703-7.421-5.906-21.093-5.906-4.578 0-9.438.906-4.86.907-10.031 2.72v9.515q4.094-2.39 8.969-3.61 4.89-1.218 10.218-1.218 9.266 0 14.125 3.656 4.86 3.656 4.86 10.64 0 6.454-4.516 10.079-4.515 3.64-12.562 3.64h-8.5v8.11h8.89q7.266 0 11.125 2.906 3.86 2.906 3.86 8.375 0 5.61-3.985 8.61-3.968 3.015-11.39 3.015-4.063 0-8.703-.89-4.641-.876-10.203-2.72v8.782q5.624 1.562 10.53 2.344 4.907.78 9.25.78 11.235 0 17.766-5.109 6.547-5.093 6.547-13.78 0-6.063-3.468-10.235-3.47-4.172-9.86-5.782" id="BitstreamVeraSans-Roman-33"/></defs><g transform="matrix(.12 0 0 -.12 63.095 140.111)"><use xlink:href="#BitstreamVeraSans-Roman-33"/><use x="63.623" xlink:href="#BitstreamVeraSans-Roman-30"/><use x="127.246" xlink:href="#BitstreamVeraSans-Roman-30"/></g></g></g><g id="ytick_5"><path clip-path="url(#p0eea9572e2)" d="M90 117.6h558" fill="none" stroke="#000" stroke-dasharray="1,3" stroke-width=".5" id="line2d_29"/><use x="90" xlink:href="#m9ed062218b" y="117.6" stroke="#000" stroke-width=".5" id="line2d_30"/><use x="648" xlink:href="#m5a2968df74" y="117.6" stroke="#000" stroke-width=".5" id="line2d_31"/><g transform="matrix(.12 0 0 -.12 63.095 120.911)" id="text_10"><use xlink:href="#BitstreamVeraSans-Roman-34"/><use x="63.623" xlink:href="#BitstreamVeraSans-Roman-30"/><use x="127.246" xlink:href="#BitstreamVeraSans-Roman-30"/></g></g><g id="ytick_6"><path clip-path="url(#p0eea9572e2)" d="M90 98.4h558" fill="none" stroke="#000" stroke-dasharray="1,3" stroke-width=".5" id="line2d_32"/><use x="90" xlink:href="#m9ed062218b" y="98.4" stroke="#000" stroke-width=".5" id="line2d_33"/><use x="648" xlink:href="#m5a2968df74" y="98.4" stroke="#000" stroke-width=".5" id="line2d_34"/><g transform="matrix(.12 0 0 -.12 63.095 101.711)" id="text_11"><use xlink:href="#BitstreamVeraSans-Roman-35"/><use x="63.623" xlink:href="#BitstreamVeraSans-Roman-30"/><use x="127.246" xlink:href="#BitstreamVeraSans-Roman-30"/></g></g><g id="ytick_7"><path clip-path="url(#p0eea9572e2)" d="M90 79.2h558" fill="none" stroke="#000" stroke-dasharray="1,3" stroke-width=".5" id="line2d_35"/><use x="90" xlink:href="#m9ed062218b" y="79.2" stroke="#000" stroke-width=".5" id="line2d_36"/><use x="648" xlink:href="#m5a2968df74" y="79.2" stroke="#000" stroke-width=".5" id="line2d_37"/><g transform="matrix(.12 0 0 -.12 63.095 82.511)" id="text_12"><use xlink:href="#BitstreamVeraSans-Roman-36"/><use x="63.623" xlink:href="#BitstreamVeraSans-Roman-30"/><use x="127.246" xlink:href="#BitstreamVeraSans-Roman-30"/></g></g><g id="ytick_8"><path clip-path="url(#p0eea9572e2)" d="M90 60h558" fill="none" stroke="#000" stroke-dasharray="1,3" stroke-width=".5" id="line2d_38"/><use x="90" xlink:href="#m9ed062218b" y="60" stroke="#000" stroke-width=".5" id="line2d_39"/><use x="648" xlink:href="#m5a2968df74" y="60" stroke="#000" stroke-width=".5" id="line2d_40"/><g transform="matrix(.12 0 0 -.12 63.095 63.311)" id="text_13"><use xlink:href="#BitstreamVeraSans-Roman-37"/><use x="63.623" xlink:href="#BitstreamVeraSans-Roman-30"/><use x="127.246" xlink:href="#BitstreamVeraSans-Roman-30"/></g></g><g id="ytick_9"><path clip-path="url(#p0eea9572e2)" d="M90 40.8h558" fill="none" stroke="#000" stroke-dasharray="1,3" stroke-width=".5" id="line2d_41"/><use x="90" xlink:href="#m9ed062218b" y="40.8" stroke="#000" stroke-width=".5" id="line2d_42"/><use x="648" xlink:href="#m5a2968df74" y="40.8" stroke="#000" stroke-width=".5" id="line2d_43"/><g id="text_14"><defs><path d="M31.781 34.625q-7.031 0-11.062-3.766-4.016-3.765-4.016-10.343 0-6.594 4.016-10.36Q24.75 6.391 31.78 6.391q7.032 0 11.078 3.78 4.063 3.798 4.063 10.345 0 6.578-4.031 10.343-4.016 3.766-11.11 3.766m-9.86 4.188q-6.343 1.562-9.89 5.906Q8.5 49.079 8.5 55.329q0 8.733 6.219 13.812 6.234 5.078 17.062 5.078 10.89 0 17.094-5.078 6.203-5.079 6.203-13.813 0-6.25-3.547-10.61-3.531-4.343-9.828-5.906 7.125-1.656 11.094-6.5 3.984-4.828 3.984-11.796 0-10.61-6.468-16.282-6.47-5.656-18.532-5.656-12.047 0-18.531 5.656-6.469 5.672-6.469 16.282 0 6.968 4 11.797 4.016 4.843 11.14 6.5M18.314 54.39q0-5.657 3.53-8.828 3.548-3.172 9.938-3.172 6.36 0 9.938 3.172 3.593 3.171 3.593 8.828 0 5.672-3.593 8.843-3.578 3.172-9.938 3.172-6.39 0-9.937-3.172-3.532-3.172-3.532-8.843" id="BitstreamVeraSans-Roman-38"/></defs><g transform="matrix(.12 0 0 -.12 63.095 44.111)"><use xlink:href="#BitstreamVeraSans-Roman-38"/><use x="63.623" xlink:href="#BitstreamVeraSans-Roman-30"/><use x="127.246" xlink:href="#BitstreamVeraSans-Roman-30"/></g></g></g><g id="ytick_10"><path clip-path="url(#p0eea9572e2)" d="M90 21.6h558" fill="none" stroke="#000" stroke-dasharray="1,3" stroke-width=".5" id="line2d_44"/><use x="90" xlink:href="#m9ed062218b" y="21.6" stroke="#000" stroke-width=".5" id="line2d_45"/><use x="648" xlink:href="#m5a2968df74" y="21.6" stroke="#000" stroke-width=".5" id="line2d_46"/><g transform="matrix(.12 0 0 -.12 63.095 24.911)" id="text_15"><use xlink:href="#BitstreamVeraSans-Roman-39"/><use x="63.623" xlink:href="#BitstreamVeraSans-Roman-30"/><use x="127.246" xlink:href="#BitstreamVeraSans-Roman-30"/></g></g></g><g id="text_16"><defs><path d="M54.89 33.016V0h-8.984v32.719q0 7.765-3.031 11.61-3.031 3.858-9.078 3.858-7.281 0-11.484-4.64-4.204-4.625-4.204-12.64V0H9.08v54.688h9.03v-8.5q3.235 4.937 7.594 7.374Q30.078 56 35.797 56q9.422 0 14.25-5.828 4.844-5.828 4.844-17.156" id="BitstreamVeraSans-Roman-6e"/><path d="M48.688 27.297q0 9.906-4.079 15.547-4.078 5.64-11.203 5.64-7.14 0-11.218-5.64-4.079-5.64-4.079-15.547 0-9.906 4.078-15.547 4.079-5.64 11.22-5.64 7.124 0 11.202 5.64t4.078 15.547M18.11 46.39q2.844 4.875 7.157 7.234Q29.594 56 35.594 56q9.968 0 16.187-7.906 6.235-7.907 6.235-20.797T51.78 6.484q-6.218-7.906-16.187-7.906-6 0-10.328 2.375-4.313 2.375-7.157 7.25V0H9.08v75.984h9.03z" id="BitstreamVeraSans-Roman-62"/><path d="M8.5 21.578v33.11h8.984V21.922q0-7.766 3.016-11.656 3.031-3.875 9.094-3.875 7.265 0 11.484 4.64 4.234 4.64 4.234 12.656v31h8.985V0h-8.984v8.406Q42.047 3.422 37.718 1q-4.313-2.422-10.032-2.422-9.421 0-14.312 5.86Q8.5 10.296 8.5 21.578" id="BitstreamVeraSans-Roman-75"/><path d="M45.406 27.984q0 9.766-4.031 15.125-4.016 5.375-11.297 5.375-7.219 0-11.25-5.375-4.031-5.359-4.031-15.125 0-9.718 4.031-15.093t11.25-5.375q7.281 0 11.297 5.375 4.031 5.375 4.031 15.093m8.985-21.203q0-13.953-6.203-20.765Q42-20.797 29.203-20.797q-4.734 0-8.937.703-4.203.703-8.157 2.172v8.735q3.954-2.141 7.813-3.157 3.86-1.031 7.86-1.031 8.843 0 13.234 4.61 4.39 4.609 4.39 13.937v4.453q-2.781-4.844-7.125-7.234Q33.938 0 27.875 0 17.828 0 11.672 7.656q-6.156 7.672-6.156 20.328 0 12.688 6.156 20.344Q17.828 56 27.875 56q6.063 0 10.406-2.39 4.344-2.391 7.125-7.22v8.297h8.985z" id="BitstreamVeraSans-Roman-67"/><path d="M34.281 27.484q-10.89 0-15.093-2.484-4.204-2.484-4.204-8.5 0-4.781 3.157-7.594 3.156-2.797 8.562-2.797 7.485 0 12 5.297 4.516 5.297 4.516 14.078v2zm17.922 3.72V0H43.22v8.297Q40.14 3.328 35.547.953q-4.594-2.375-11.234-2.375-8.391 0-13.36 4.719Q6 8.016 6 15.922q0 9.219 6.172 13.906 6.187 4.688 18.437 4.688h12.61v.89q0 6.203-4.078 9.594-4.078 3.39-11.453 3.39-4.688 0-9.141-1.124-4.438-1.125-8.531-3.375v8.312q4.921 1.906 9.562 2.844 4.64.953 9.031.953 11.875 0 17.735-6.156 5.86-6.14 5.86-18.64" id="BitstreamVeraSans-Roman-61"/><path d="M56.203 29.594v-4.39H14.891q.593-9.282 5.593-14.142 5-4.859 13.938-4.859 5.172 0 10.031 1.266 4.86 1.265 9.656 3.812v-8.5Q49.266.734 44.187-.344 39.11-1.422 33.892-1.422q-13.094 0-20.735 7.61-7.64 7.625-7.64 20.625 0 13.421 7.25 21.296Q20.016 56 32.328 56q11.031 0 17.453-7.11 6.422-7.093 6.422-19.296m-8.984 2.64q-.094 7.36-4.125 11.75-4.032 4.407-10.672 4.407-7.516 0-12.031-4.25-4.516-4.25-5.203-11.97z" id="BitstreamVeraSans-Roman-65"/><path d="M8.688 72.906h9.921V28.61q0-11.718 4.235-16.875 4.25-5.14 13.781-5.14 9.469 0 13.719 5.14 4.25 5.157 4.25 16.875v44.297H64.5V27.391q0-14.25-7.063-21.532-7.046-7.28-20.812-7.28-13.828 0-20.89 7.28-7.047 7.282-7.047 21.532z" id="BitstreamVeraSans-Roman-55"/><path d="M9.422 54.688h8.984V0H9.422zm0 21.296h8.984v-11.39H9.422z" id="BitstreamVeraSans-Roman-69"/><path d="M14.797 27.297q0-9.906 4.078-15.547 4.078-5.64 11.203-5.64 7.125 0 11.219 5.64 4.11 5.64 4.11 15.547 0 9.906-4.11 15.547-4.094 5.64-11.219 5.64-7.125 0-11.203-5.64-4.078-5.64-4.078-15.547m30.61-19.094Q42.577 3.328 38.25.953q-4.313-2.375-10.375-2.375-9.906 0-16.14 7.906-6.22 7.922-6.22 20.813 0 12.89 6.22 20.797Q17.968 56 27.874 56q6.063 0 10.375-2.375 4.328-2.36 7.156-7.234v8.297h8.985v-75.485h-8.985z" id="BitstreamVeraSans-Roman-71"/><path d="M30.61 48.39q-7.22 0-11.422-5.64-4.204-5.64-4.204-15.453 0-9.813 4.172-15.453 4.188-5.64 11.453-5.64 7.188 0 11.375 5.655 4.203 5.672 4.203 15.438 0 9.719-4.203 15.406-4.187 5.688-11.375 5.688m0 7.609q11.72 0 18.407-7.625 6.703-7.61 6.703-21.078 0-13.422-6.703-21.078-6.688-7.64-18.407-7.64-11.765 0-18.437 7.64-6.656 7.656-6.656 21.078 0 13.469 6.656 21.078Q18.844 56 30.609 56" id="BitstreamVeraSans-Roman-6f"/><path d="M44.281 53.078v-8.5q-3.797 1.953-7.906 2.922-4.094.984-8.5.984-6.688 0-10.031-2.047-3.344-2.046-3.344-6.156 0-3.125 2.39-4.906 2.391-1.781 9.626-3.39l3.078-.688q9.562-2.047 13.593-5.781 4.032-3.735 4.032-10.422 0-7.625-6.032-12.078-6.03-4.438-16.578-4.438-4.39 0-9.156.86Q10.688.296 5.422 2v9.281q4.984-2.594 9.812-3.89 4.829-1.282 9.579-1.282 6.343 0 9.75 2.172 3.421 2.172 3.421 6.125 0 3.656-2.468 5.61-2.453 1.953-10.813 3.765l-3.125.735q-8.344 1.75-12.062 5.39-3.704 3.64-3.704 9.985 0 7.718 5.47 11.906Q16.75 56 26.811 56q4.97 0 9.36-.734 4.406-.72 8.11-2.188" id="BitstreamVeraSans-Roman-73"/><path d="M18.313 70.219V54.688h18.5v-6.985h-18.5V18.016q0-6.688 1.828-8.594 1.828-1.906 7.453-1.906h9.218V0h-9.218q-10.407 0-14.36 3.875-3.953 3.89-3.953 14.14v29.688H2.687v6.984h6.594V70.22z" id="BitstreamVeraSans-Roman-74"/><path d="M9.422 75.984h8.984V0H9.422z" id="BitstreamVeraSans-Roman-6c"/></defs><g transform="matrix(.144 0 0 -.144 208.973 16.6)"><use xlink:href="#BitstreamVeraSans-Roman-55"/><use x="73.193" xlink:href="#BitstreamVeraSans-Roman-6e"/><use x="136.572" xlink:href="#BitstreamVeraSans-Roman-69"/><use x="164.355" xlink:href="#BitstreamVeraSans-Roman-71"/><use x="227.832" xlink:href="#BitstreamVeraSans-Roman-75"/><use x="291.211" xlink:href="#BitstreamVeraSans-Roman-65"/><use x="352.734" xlink:href="#BitstreamVeraSans-Roman-20"/><use x="384.521" xlink:href="#BitstreamVeraSans-Roman-6c"/><use x="412.305" xlink:href="#BitstreamVeraSans-Roman-61"/><use x="473.584" xlink:href="#BitstreamVeraSans-Roman-62"/><use x="537.061" xlink:href="#BitstreamVeraSans-Roman-20"/><use x="568.848" xlink:href="#BitstreamVeraSans-Roman-6c"/><use x="596.631" xlink:href="#BitstreamVeraSans-Roman-6f"/><use x="657.813" xlink:href="#BitstreamVeraSans-Roman-67"/><use x="721.289" xlink:href="#BitstreamVeraSans-Roman-69"/><use x="749.072" xlink:href="#BitstreamVeraSans-Roman-6e"/><use x="812.451" xlink:href="#BitstreamVeraSans-Roman-73"/><use x="864.551" xlink:href="#BitstreamVeraSans-Roman-20"/><use x="896.338" xlink:href="#BitstreamVeraSans-Roman-32"/><use x="959.961" xlink:href="#BitstreamVeraSans-Roman-30"/><use x="1023.584" xlink:href="#BitstreamVeraSans-Roman-31"/><use x="1087.207" xlink:href="#BitstreamVeraSans-Roman-34"/><use x="1150.83" xlink:href="#BitstreamVeraSans-Roman-2d"/><use x="1186.914" xlink:href="#BitstreamVeraSans-Roman-30"/><use x="1250.537" xlink:href="#BitstreamVeraSans-Roman-31"/><use x="1314.16" xlink:href="#BitstreamVeraSans-Roman-2d"/><use x="1350.244" xlink:href="#BitstreamVeraSans-Roman-32"/><use x="1413.867" xlink:href="#BitstreamVeraSans-Roman-37"/><use x="1477.49" xlink:href="#BitstreamVeraSans-Roman-20"/><use x="1509.277" xlink:href="#BitstreamVeraSans-Roman-74"/><use x="1548.486" xlink:href="#BitstreamVeraSans-Roman-6f"/><use x="1609.668" xlink:href="#BitstreamVeraSans-Roman-20"/><use x="1641.455" xlink:href="#BitstreamVeraSans-Roman-32"/><use x="1705.078" xlink:href="#BitstreamVeraSans-Roman-30"/><use x="1768.701" xlink:href="#BitstreamVeraSans-Roman-31"/><use x="1832.324" xlink:href="#BitstreamVeraSans-Roman-36"/><use x="1895.947" xlink:href="#BitstreamVeraSans-Roman-2d"/><use x="1932.031" xlink:href="#BitstreamVeraSans-Roman-30"/><use x="1995.654" xlink:href="#BitstreamVeraSans-Roman-32"/><use x="2059.277" xlink:href="#BitstreamVeraSans-Roman-2d"/><use x="2095.361" xlink:href="#BitstreamVeraSans-Roman-31"/><use x="2158.984" xlink:href="#BitstreamVeraSans-Roman-30"/></g></g></g></g><defs><clipPath id="p0eea9572e2"><path d="M90 21.6h558v172.8H90z"/></clipPath></defs></svg>
