<?xml version="1.0" encoding="utf-8" standalone="no"?>
<!DOCTYPE svg PUBLIC "-//W3C//DTD SVG 1.1//EN"
  "http://www.w3.org/Graphics/SVG/1.1/DTD/svg11.dtd">
<!-- Created with matplotlib (http://matplotlib.org/) -->
<svg height="216pt" version="1.1" viewBox="0 0 720 216" width="720pt" xmlns="http://www.w3.org/2000/svg" xmlns:xlink="http://www.w3.org/1999/xlink">
 <defs>
  <style type="text/css">
*{stroke-linecap:butt;stroke-linejoin:round;stroke-miterlimit:100000;}
  </style>
 </defs>
 <g id="figure_1">
  <g id="patch_1">
   <path d="M 0 216
L 720 216
L 720 0
L 0 0
z
" style="fill:#ffffff;"/>
  </g>
  <g id="axes_1">
   <g id="patch_2">
    <path d="M 90 194.4
L 648 194.4
L 648 21.6
L 90 21.6
z
" style="fill:#ffffff;"/>
   </g>
   <g id="line2d_1">
    <path clip-path="url(#p0eea9572e2)" d="M 90 194.4
L 103.5 194.4
L 104.25 191.712
L 105 190.56
L 105.75 194.4
L 106.5 148.896
L 107.25 143.904
L 108 152.16
L 108.75 166.368
L 109.5 185.952
L 110.25 183.072
L 111 157.152
L 111.75 154.272
L 112.5 162.336
L 113.25 155.424
L 114 173.856
L 114.75 188.064
L 115.5 189.408
L 116.25 156.192
L 117 158.304
L 117.75 158.688
L 118.5 159.264
L 119.25 168.672
L 120 186.912
L 120.75 188.448
L 121.46875 154.848
L 122.96875 159.264
L 123.71875 158.112
L 124.46875 173.856
L 125.21875 187.104
L 125.96875 188.064
L 126.71875 138.528
L 127.46875 130.464
L 128.21875 141.6
L 128.96875 133.728
L 129.71875 178.272
L 130.46875 194.208
L 131.96875 194.208
L 132.71875 194.4
L 133.46875 194.208
L 134.21875 194.4
L 134.96875 194.4
L 135.71875 194.208
L 136.46875 194.208
L 137.21875 151.2
L 137.96875 141.024
L 138.71875 143.136
L 139.46875 144.864
L 140.21875 159.072
L 140.96875 179.232
L 141.71875 180.384
L 142.46875 138.72
L 143.21875 134.496
L 143.96875 135.84
L 144.71875 143.328
L 145.46875 154.08
L 146.21875 185.76
L 146.96875 184.416
L 147.71875 139.488
L 148.46875 135.456
L 149.21875 134.688
L 149.96875 139.296
L 150.71875 156.384
L 151.46875 186.336
L 152.21875 188.832
L 152.96875 141.408
L 153.71875 139.296
L 154.46875 140.256
L 155.21875 139.68
L 155.96875 159.072
L 156.71875 188.832
L 157.46875 185.184
L 158.21875 134.88
L 158.96875 136.992
L 159.71875 132.768
L 160.46875 133.728
L 161.21875 144.48
L 161.96875 187.296
L 162.71875 184.608
L 163.46875 160.416
L 164.21875 158.88
L 164.96875 155.04
L 165.71875 152.16
L 166.46875 160.224
L 167.21875 174.24
L 167.96875 176.352
L 168.71875 155.424
L 169.46875 160.608
L 170.21875 160.032
L 170.96875 163.488
L 171.71875 180.96
L 172.46875 194.016
L 173.21875 194.208
L 173.96875 194.208
L 175.46875 193.824
L 176.21875 194.016
L 176.96875 194.4
L 177.71875 194.016
L 178.46875 194.208
L 179.21875 193.824
L 179.96875 194.4
L 180.71875 194.4
L 181.46875 194.208
L 182.21875 194.4
L 184.46875 194.4
L 185.21875 194.208
L 186.71875 194.208
L 187.46875 194.4
L 188.21875 194.4
L 188.96875 193.824
L 189.71875 194.208
L 190.46875 194.016
L 191.21875 194.208
L 191.96875 194.208
L 192.71875 193.824
L 193.46875 194.016
L 194.21875 194.016
L 194.96875 193.824
L 195.71875 194.4
L 196.46875 194.016
L 197.21875 193.824
L 197.96875 194.208
L 198.71875 193.824
L 200.21875 194.208
L 200.96875 194.016
L 201.71875 194.016
L 202.46875 193.824
L 203.21875 193.824
L 203.96875 194.016
L 204.71875 194.016
L 205.46875 193.824
L 206.21875 194.208
L 206.96875 193.632
L 207.71875 193.248
L 208.46875 194.208
L 209.21875 193.824
L 209.96875 194.208
L 210.71875 194.4
L 212.21875 194.016
L 212.96875 194.4
L 214.46875 194.016
L 215.21875 194.208
L 216.71875 193.824
L 217.46875 194.016
L 218.21875 194.4
L 218.96875 194.208
L 219.71875 194.4
L 220.46875 194.208
L 221.21875 194.4
L 221.96875 194.208
L 222.71875 193.632
L 223.46875 193.824
L 224.21875 194.208
L 224.96875 193.824
L 225.71875 193.632
L 226.46875 194.208
L 227.21875 194.208
L 227.96875 194.016
L 228.71875 194.016
L 230.21875 194.4
L 231.71875 194.4
L 232.46875 194.016
L 233.96875 194.016
L 234.71875 194.208
L 235.46875 194.016
L 236.21875 194.016
L 236.96875 194.208
L 237.71875 194.016
L 239.96875 194.016
L 240.71875 194.208
L 241.46875 194.208
L 242.21875 193.824
L 242.96875 194.208
L 244.46875 194.208
L 245.21875 194.016
L 245.96875 194.4
L 246.71875 194.016
L 247.46875 194.4
L 248.21875 194.4
L 248.96875 194.016
L 249.71875 165.024
L 250.46875 167.136
L 251.21875 192.096
L 251.96875 188.256
L 252.71875 194.208
L 253.46875 134.496
L 254.21875 135.84
L 254.96875 132.768
L 256.46875 180.192
L 257.21875 175.392
L 257.96875 129.312
L 258.71875 132.192
L 259.46875 132.384
L 260.21875 133.536
L 260.96875 142.176
L 261.71875 181.728
L 262.46875 174.816
L 263.21875 122.976
L 263.96875 125.472
L 264.71875 124.512
L 265.46875 124.512
L 266.21875 132.576
L 266.96875 179.424
L 267.71875 178.464
L 268.46875 122.976
L 269.21875 125.472
L 269.96875 194.208
L 270.71875 122.592
L 271.46875 136.8
L 272.21875 178.656
L 272.96875 177.12
L 273.71875 123.744
L 274.46875 119.904
L 275.21875 135.264
L 275.96875 131.232
L 276.71875 143.52
L 277.46875 182.88
L 278.21875 181.728
L 278.96875 118.176
L 279.71875 120.672
L 280.46875 126.816
L 281.21875 124.896
L 281.96875 150.624
L 282.71875 181.536
L 283.46875 179.04
L 284.21875 117.6
L 284.96875 118.752
L 285.71875 127.392
L 286.46875 127.008
L 287.21875 144.288
L 287.96875 183.456
L 288.71875 179.616
L 289.46875 116.256
L 290.21875 118.944
L 290.96875 129.504
L 291.71875 116.448
L 292.46875 138.72
L 293.21875 178.272
L 293.96875 177.312
L 294.71875 120.672
L 295.46875 117.792
L 296.21875 133.344
L 296.96875 128.544
L 297.71875 149.088
L 298.46875 181.344
L 299.21875 176.736
L 300 129.888
L 300.75 118.56
L 301.5 132.384
L 302.25 127.968
L 303 144.672
L 303.75 185.76
L 304.5 179.808
L 305.25 134.304
L 306 193.44
L 306.75 127.008
L 307.5 127.968
L 309 180.576
L 309.75 182.112
L 310.5 119.136
L 311.25 122.976
L 312 136.608
L 312.75 123.936
L 313.5 147.36
L 314.25 186.336
L 315 180
L 315.75 128.16
L 316.5 120.096
L 317.25 180.384
L 318 194.208
L 318.75 194.4
L 319.5 194.4
L 320.25 194.208
L 321 117.216
L 321.75 122.208
L 322.5 120.48
L 323.25 119.136
L 324 137.184
L 324.75 185.184
L 325.5 192.48
L 326.25 151.392
L 327 149.472
L 327.75 151.968
L 328.5 171.552
L 329.25 153.312
L 330 178.272
L 330.75 174.24
L 331.5 147.36
L 332.25 170.592
L 333 165.984
L 333.75 171.36
L 334.5 186.528
L 335.25 194.4
L 339 194.4
L 339.75 194.208
L 340.5 194.4
L 341.25 194.4
L 342 194.208
L 342.75 194.4
L 345.75 194.4
L 346.5 194.208
L 347.25 194.208
L 348 194.016
L 348.75 194.016
L 349.5 194.208
L 350.25 194.208
L 351 194.4
L 351.75 193.632
L 352.5 193.824
L 353.25 193.824
L 354 194.208
L 354.75 194.016
L 356.25 194.4
L 357 193.44
L 357.75 193.44
L 358.5 130.848
L 359.25 120.672
L 360 120.48
L 360.75 135.072
L 361.5 171.552
L 362.25 172.512
L 363 104.16
L 363.75 110.304
L 364.5 101.28
L 365.25 111.264
L 366 132.384
L 366.75 172.896
L 367.5 170.976
L 368.25 104.736
L 369 105.312
L 369.75 114.336
L 370.5 115.488
L 372 171.36
L 372.75 173.472
L 373.5 113.376
L 374.25 112.224
L 375 113.376
L 375.75 118.368
L 376.5 136.416
L 377.25 186.72
L 378 179.424
L 378.75 192.864
L 379.5 111.072
L 380.25 106.848
L 381 109.536
L 381.75 131.424
L 382.5 175.2
L 383.25 171.936
L 384 119.136
L 384.75 117.6
L 385.5 129.888
L 386.25 117.024
L 387 137.952
L 387.75 173.472
L 388.5 173.28
L 389.25 123.552
L 390 122.208
L 390.75 124.128
L 391.5 122.016
L 392.25 134.688
L 393 176.16
L 393.75 173.472
L 394.46875 122.4
L 395.21875 111.648
L 395.96875 139.872
L 396.71875 112.224
L 397.46875 137.76
L 398.21875 175.2
L 398.96875 172.704
L 399.71875 117.024
L 400.46875 109.344
L 401.21875 117.792
L 401.96875 115.68
L 402.71875 183.84
L 403.46875 194.208
L 404.21875 194.208
L 404.96875 194.4
L 405.71875 194.4
L 406.46875 194.208
L 408.71875 194.208
L 409.46875 193.824
L 410.21875 109.728
L 410.96875 115.296
L 411.71875 125.088
L 412.46875 124.128
L 413.21875 136.224
L 413.96875 178.08
L 414.71875 179.04
L 415.46875 119.136
L 416.21875 113.568
L 416.96875 128.544
L 417.71875 121.248
L 418.46875 137.376
L 419.21875 179.616
L 419.96875 178.272
L 420.71875 111.84
L 421.46875 121.824
L 422.21875 125.664
L 422.96875 119.712
L 423.71875 134.112
L 424.46875 183.264
L 425.21875 180
L 425.96875 119.904
L 426.71875 116.256
L 427.46875 124.512
L 428.21875 119.904
L 428.96875 138.528
L 429.71875 178.848
L 430.46875 182.496
L 431.21875 111.072
L 431.96875 109.152
L 432.71875 113.76
L 433.46875 115.296
L 434.21875 130.272
L 434.96875 182.112
L 435.71875 178.848
L 436.46875 152.928
L 437.21875 144.096
L 437.96875 144.864
L 438.71875 149.856
L 439.46875 142.56
L 440.21875 171.552
L 440.96875 175.968
L 441.71875 143.52
L 442.46875 156.768
L 443.21875 158.688
L 443.96875 153.696
L 444.71875 179.04
L 445.46875 194.4
L 446.21875 193.824
L 446.96875 194.208
L 447.71875 194.016
L 448.46875 194.208
L 449.96875 194.208
L 450.71875 194.016
L 452.21875 194.4
L 453.71875 194.4
L 454.46875 194.208
L 455.96875 194.208
L 456.71875 194.4
L 460.46875 194.4
L 461.21875 194.208
L 461.96875 194.4
L 462.71875 194.208
L 464.21875 194.208
L 464.96875 194.4
L 465.71875 194.4
L 466.46875 194.016
L 467.21875 194.4
L 467.96875 194.4
L 468.71875 194.208
L 469.46875 194.208
L 470.21875 194.4
L 470.96875 194.016
L 471.71875 194.4
L 472.46875 194.016
L 473.21875 194.208
L 473.96875 194.208
L 474.71875 194.016
L 475.46875 194.208
L 476.21875 194.208
L 476.96875 194.4
L 477.71875 194.016
L 478.46875 194.208
L 479.96875 194.208
L 480.71875 194.4
L 481.46875 194.208
L 482.21875 194.4
L 482.96875 194.4
L 483.71875 194.208
L 484.46875 194.208
L 485.21875 193.632
L 485.96875 194.4
L 486.71875 194.208
L 487.46875 194.4
L 488.96875 194.4
L 489.71875 194.016
L 490.46875 194.016
L 491.96875 194.4
L 492.71875 194.208
L 493.46875 193.824
L 494.21875 194.208
L 494.96875 194.4
L 495.71875 194.208
L 496.46875 194.4
L 497.21875 194.4
L 497.96875 194.208
L 498.71875 193.632
L 499.46875 194.208
L 500.21875 194.4
L 500.96875 194.208
L 501.71875 194.208
L 502.46875 194.4
L 503.21875 194.4
L 503.96875 194.208
L 508.46875 194.208
L 509.21875 194.4
L 509.96875 194.208
L 510.71875 194.4
L 511.46875 194.016
L 512.21875 194.208
L 512.96875 194.016
L 513.71875 194.208
L 514.46875 194.208
L 515.21875 194.4
L 515.96875 194.4
L 516.71875 194.208
L 517.46875 194.4
L 519.71875 194.4
L 520.46875 194.208
L 521.21875 192.672
L 521.96875 138.72
L 522.71875 125.28
L 523.46875 143.904
L 524.21875 178.848
L 524.96875 172.128
L 525.71875 109.344
L 526.46875 108.768
L 527.21875 116.832
L 527.96875 108.192
L 528.71875 123.936
L 529.46875 178.464
L 530.21875 175.008
L 530.96875 193.632
L 531.71875 93.024
L 532.46875 98.208
L 533.21875 109.152
L 533.96875 123.36
L 534.71875 169.248
L 535.46875 165.792
L 536.21875 90.912
L 536.96875 87.072
L 537.71875 103.008
L 538.46875 100.896
L 539.21875 126.432
L 539.96875 194.208
L 540.71875 164.448
L 541.46875 103.968
L 542.21875 98.4
L 542.96875 103.392
L 543.71875 107.04
L 544.46875 128.16
L 545.21875 171.744
L 545.96875 170.016
L 546.71875 86.88
L 547.46875 100.32
L 548.21875 109.344
L 548.96875 106.656
L 549.71875 131.808
L 550.46875 176.736
L 551.21875 168.288
L 551.96875 101.472
L 552.71875 93.984
L 553.46875 101.088
L 554.21875 111.456
L 554.96875 123.744
L 555.71875 174.816
L 556.46875 170.784
L 557.21875 93.6
L 557.96875 96.288
L 558.71875 90.912
L 559.46875 104.16
L 560.21875 132
L 560.96875 176.544
L 561.71875 173.472
L 562.46875 94.944
L 563.21875 98.976
L 563.96875 101.664
L 564.71875 113.376
L 565.46875 137.568
L 566.21875 176.352
L 566.96875 169.248
L 567.71875 93.216
L 568.46875 99.936
L 569.21875 104.352
L 569.96875 107.808
L 570.71875 128.544
L 571.46875 180.192
L 572.21875 172.704
L 573 98.976
L 573.75 99.168
L 574.5 102.24
L 575.25 108.96
L 576 132.96
L 576.75 178.464
L 577.5 170.208
L 578.25 116.448
L 579 114.336
L 579.75 192.48
L 580.5 132.96
L 581.25 194.016
L 582 193.248
L 582.75 193.248
L 583.5 109.152
L 584.25 108.96
L 585 102.624
L 585.75 89.568
L 587.25 174.24
L 588 170.208
L 588.75 99.168
L 589.5 129.888
L 590.25 194.4
L 591 193.824
L 591.75 194.016
L 592.5 194.016
L 593.25 192.672
L 594 72.096
L 595.5 94.752
L 596.25 103.2
L 597 120.48
L 597.75 177.696
L 598.5 171.36
L 599.25 112.992
L 600 125.856
L 600.75 115.872
L 601.5 122.4
L 602.25 130.272
L 603 160.8
L 603.75 157.152
L 604.5 116.448
L 605.25 126.048
L 606 137.376
L 606.75 154.656
L 607.5 160.224
L 608.25 194.208
L 609 194.4
L 620.25 194.4
L 621 194.208
L 621.75 194.4
L 622.5 193.824
L 623.25 194.208
L 624 194.4
L 625.5 194.4
L 626.25 194.208
L 627 194.208
L 627.75 194.4
L 628.5 194.4
L 629.25 193.632
L 630 193.824
L 630.75 192.48
L 631.5 91.872
L 632.25 55.008
L 633 63.072
L 633.75 89.76
L 634.5 165.408
L 635.25 150.432
L 636 55.2
L 636.75 64.416
L 637.5 67.296
L 638.25 71.328
L 639 93.216
L 639.75 160.8
L 640.5 150.816
L 641.25 45.6
L 642 55.776
L 642.75 50.592
L 643.5 59.616
L 644.25 85.152
L 645 160.032
L 645.75 154.08
L 646.5 37.728
L 647.25 59.808
L 648 194.4
L 648 194.4
" style="fill:none;stroke:#0000ff;stroke-linecap:square;stroke-width:2.0;"/>
   </g>
   <g id="patch_3">
    <path d="M 90 194.4
L 648 194.4
" style="fill:none;stroke:#000000;stroke-linecap:square;stroke-linejoin:miter;"/>
   </g>
   <g id="patch_4">
    <path d="M 648 194.4
L 648 21.6
" style="fill:none;stroke:#000000;stroke-linecap:square;stroke-linejoin:miter;"/>
   </g>
   <g id="patch_5">
    <path d="M 90 21.6
L 648 21.6
" style="fill:none;stroke:#000000;stroke-linecap:square;stroke-linejoin:miter;"/>
   </g>
   <g id="patch_6">
    <path d="M 90 194.4
L 90 21.6
" style="fill:none;stroke:#000000;stroke-linecap:square;stroke-linejoin:miter;"/>
   </g>
   <g id="matplotlib.axis_1">
    <g id="xtick_1">
     <g id="line2d_2">
      <path clip-path="url(#p0eea9572e2)" d="M 90 194.4
L 90 21.6
" style="fill:none;stroke:#000000;stroke-dasharray:1.000000,3.000000;stroke-dashoffset:0.0;stroke-width:0.5;"/>
     </g>
     <g id="line2d_3">
      <defs>
       <path d="M 0 0
L 0 -4
" id="m0acf4f5c25" style="stroke:#000000;stroke-width:0.5;"/>
      </defs>
      <g>
       <use style="stroke:#000000;stroke-width:0.5;" x="90.0" xlink:href="#m0acf4f5c25" y="194.4"/>
      </g>
     </g>
     <g id="line2d_4">
      <defs>
       <path d="M 0 0
L 0 4
" id="m34c84f894e" style="stroke:#000000;stroke-width:0.5;"/>
      </defs>
      <g>
       <use style="stroke:#000000;stroke-width:0.5;" x="90.0" xlink:href="#m34c84f894e" y="21.6"/>
      </g>
     </g>
     <g id="text_1">
      <!-- 2014-01-27 -->
      <defs>
       <path d="M 4.890625 31.390625
L 31.203125 31.390625
L 31.203125 23.390625
L 4.890625 23.390625
z
" id="BitstreamVeraSans-Roman-2d"/>
       <path d="M 37.796875 64.3125
L 12.890625 25.390625
L 37.796875 25.390625
z
M 35.203125 72.90625
L 47.609375 72.90625
L 47.609375 25.390625
L 58.015625 25.390625
L 58.015625 17.1875
L 47.609375 17.1875
L 47.609375 0
L 37.796875 0
L 37.796875 17.1875
L 4.890625 17.1875
L 4.890625 26.703125
z
" id="BitstreamVeraSans-Roman-34"/>
       <path d="M 8.203125 72.90625
L 55.078125 72.90625
L 55.078125 68.703125
L 28.609375 0
L 18.3125 0
L 43.21875 64.59375
L 8.203125 64.59375
z
" id="BitstreamVeraSans-Roman-37"/>
       <path d="M 19.1875 8.296875
L 53.609375 8.296875
L 53.609375 0
L 7.328125 0
L 7.328125 8.296875
Q 12.9375 14.109375 22.625 23.890625
Q 32.328125 33.6875 34.8125 36.53125
Q 39.546875 41.84375 41.421875 45.53125
Q 43.3125 49.21875 43.3125 52.78125
Q 43.3125 58.59375 39.234375 62.25
Q 35.15625 65.921875 28.609375 65.921875
Q 23.96875 65.921875 18.8125 64.3125
Q 13.671875 62.703125 7.8125 59.421875
L 7.8125 69.390625
Q 13.765625 71.78125 18.9375 73
Q 24.125 74.21875 28.421875 74.21875
Q 39.75 74.21875 46.484375 68.546875
Q 53.21875 62.890625 53.21875 53.421875
Q 53.21875 48.921875 51.53125 44.890625
Q 49.859375 40.875 45.40625 35.40625
Q 44.1875 33.984375 37.640625 27.21875
Q 31.109375 20.453125 19.1875 8.296875
" id="BitstreamVeraSans-Roman-32"/>
       <path d="M 31.78125 66.40625
Q 24.171875 66.40625 20.328125 58.90625
Q 16.5 51.421875 16.5 36.375
Q 16.5 21.390625 20.328125 13.890625
Q 24.171875 6.390625 31.78125 6.390625
Q 39.453125 6.390625 43.28125 13.890625
Q 47.125 21.390625 47.125 36.375
Q 47.125 51.421875 43.28125 58.90625
Q 39.453125 66.40625 31.78125 66.40625
M 31.78125 74.21875
Q 44.046875 74.21875 50.515625 64.515625
Q 56.984375 54.828125 56.984375 36.375
Q 56.984375 17.96875 50.515625 8.265625
Q 44.046875 -1.421875 31.78125 -1.421875
Q 19.53125 -1.421875 13.0625 8.265625
Q 6.59375 17.96875 6.59375 36.375
Q 6.59375 54.828125 13.0625 64.515625
Q 19.53125 74.21875 31.78125 74.21875
" id="BitstreamVeraSans-Roman-30"/>
       <path d="M 12.40625 8.296875
L 28.515625 8.296875
L 28.515625 63.921875
L 10.984375 60.40625
L 10.984375 69.390625
L 28.421875 72.90625
L 38.28125 72.90625
L 38.28125 8.296875
L 54.390625 8.296875
L 54.390625 0
L 12.40625 0
z
" id="BitstreamVeraSans-Roman-31"/>
      </defs>
      <g transform="translate(55.130625 207.518125)scale(0.12 -0.12)">
       <use xlink:href="#BitstreamVeraSans-Roman-32"/>
       <use x="63.623046875" xlink:href="#BitstreamVeraSans-Roman-30"/>
       <use x="127.24609375" xlink:href="#BitstreamVeraSans-Roman-31"/>
       <use x="190.869140625" xlink:href="#BitstreamVeraSans-Roman-34"/>
       <use x="254.4921875" xlink:href="#BitstreamVeraSans-Roman-2d"/>
       <use x="290.576171875" xlink:href="#BitstreamVeraSans-Roman-30"/>
       <use x="354.19921875" xlink:href="#BitstreamVeraSans-Roman-31"/>
       <use x="417.822265625" xlink:href="#BitstreamVeraSans-Roman-2d"/>
       <use x="453.90625" xlink:href="#BitstreamVeraSans-Roman-32"/>
       <use x="517.529296875" xlink:href="#BitstreamVeraSans-Roman-37"/>
      </g>
     </g>
    </g>
    <g id="xtick_2">
     <g id="line2d_5">
      <path clip-path="url(#p0eea9572e2)" d="M 201.71875 194.4
L 201.71875 21.6
" style="fill:none;stroke:#000000;stroke-dasharray:1.000000,3.000000;stroke-dashoffset:0.0;stroke-width:0.5;"/>
     </g>
     <g id="line2d_6">
      <g>
       <use style="stroke:#000000;stroke-width:0.5;" x="201.71875" xlink:href="#m0acf4f5c25" y="194.4"/>
      </g>
     </g>
     <g id="line2d_7">
      <g>
       <use style="stroke:#000000;stroke-width:0.5;" x="201.71875" xlink:href="#m34c84f894e" y="21.6"/>
      </g>
     </g>
     <g id="text_2">
      <!-- 2014-06-25 -->
      <defs>
       <path d="M 10.796875 72.90625
L 49.515625 72.90625
L 49.515625 64.59375
L 19.828125 64.59375
L 19.828125 46.734375
Q 21.96875 47.46875 24.109375 47.828125
Q 26.265625 48.1875 28.421875 48.1875
Q 40.625 48.1875 47.75 41.5
Q 54.890625 34.8125 54.890625 23.390625
Q 54.890625 11.625 47.5625 5.09375
Q 40.234375 -1.421875 26.90625 -1.421875
Q 22.3125 -1.421875 17.546875 -0.640625
Q 12.796875 0.140625 7.71875 1.703125
L 7.71875 11.625
Q 12.109375 9.234375 16.796875 8.0625
Q 21.484375 6.890625 26.703125 6.890625
Q 35.15625 6.890625 40.078125 11.328125
Q 45.015625 15.765625 45.015625 23.390625
Q 45.015625 31 40.078125 35.4375
Q 35.15625 39.890625 26.703125 39.890625
Q 22.75 39.890625 18.8125 39.015625
Q 14.890625 38.140625 10.796875 36.28125
z
" id="BitstreamVeraSans-Roman-35"/>
       <path d="M 33.015625 40.375
Q 26.375 40.375 22.484375 35.828125
Q 18.609375 31.296875 18.609375 23.390625
Q 18.609375 15.53125 22.484375 10.953125
Q 26.375 6.390625 33.015625 6.390625
Q 39.65625 6.390625 43.53125 10.953125
Q 47.40625 15.53125 47.40625 23.390625
Q 47.40625 31.296875 43.53125 35.828125
Q 39.65625 40.375 33.015625 40.375
M 52.59375 71.296875
L 52.59375 62.3125
Q 48.875 64.0625 45.09375 64.984375
Q 41.3125 65.921875 37.59375 65.921875
Q 27.828125 65.921875 22.671875 59.328125
Q 17.53125 52.734375 16.796875 39.40625
Q 19.671875 43.65625 24.015625 45.921875
Q 28.375 48.1875 33.59375 48.1875
Q 44.578125 48.1875 50.953125 41.515625
Q 57.328125 34.859375 57.328125 23.390625
Q 57.328125 12.15625 50.6875 5.359375
Q 44.046875 -1.421875 33.015625 -1.421875
Q 20.359375 -1.421875 13.671875 8.265625
Q 6.984375 17.96875 6.984375 36.375
Q 6.984375 53.65625 15.1875 63.9375
Q 23.390625 74.21875 37.203125 74.21875
Q 40.921875 74.21875 44.703125 73.484375
Q 48.484375 72.75 52.59375 71.296875
" id="BitstreamVeraSans-Roman-36"/>
      </defs>
      <g transform="translate(166.849375 207.518125)scale(0.12 -0.12)">
       <use xlink:href="#BitstreamVeraSans-Roman-32"/>
       <use x="63.623046875" xlink:href="#BitstreamVeraSans-Roman-30"/>
       <use x="127.24609375" xlink:href="#BitstreamVeraSans-Roman-31"/>
       <use x="190.869140625" xlink:href="#BitstreamVeraSans-Roman-34"/>
       <use x="254.4921875" xlink:href="#BitstreamVeraSans-Roman-2d"/>
       <use x="290.576171875" xlink:href="#BitstreamVeraSans-Roman-30"/>
       <use x="354.19921875" xlink:href="#BitstreamVeraSans-Roman-36"/>
       <use x="417.822265625" xlink:href="#BitstreamVeraSans-Roman-2d"/>
       <use x="453.90625" xlink:href="#BitstreamVeraSans-Roman-32"/>
       <use x="517.529296875" xlink:href="#BitstreamVeraSans-Roman-35"/>
      </g>
     </g>
    </g>
    <g id="xtick_3">
     <g id="line2d_8">
      <path clip-path="url(#p0eea9572e2)" d="M 313.5 194.4
L 313.5 21.6
" style="fill:none;stroke:#000000;stroke-dasharray:1.000000,3.000000;stroke-dashoffset:0.0;stroke-width:0.5;"/>
     </g>
     <g id="line2d_9">
      <g>
       <use style="stroke:#000000;stroke-width:0.5;" x="313.5" xlink:href="#m0acf4f5c25" y="194.4"/>
      </g>
     </g>
     <g id="line2d_10">
      <g>
       <use style="stroke:#000000;stroke-width:0.5;" x="313.5" xlink:href="#m34c84f894e" y="21.6"/>
      </g>
     </g>
     <g id="text_3">
      <!-- 2014-11-21 -->
      <g transform="translate(278.630625 207.518125)scale(0.12 -0.12)">
       <use xlink:href="#BitstreamVeraSans-Roman-32"/>
       <use x="63.623046875" xlink:href="#BitstreamVeraSans-Roman-30"/>
       <use x="127.24609375" xlink:href="#BitstreamVeraSans-Roman-31"/>
       <use x="190.869140625" xlink:href="#BitstreamVeraSans-Roman-34"/>
       <use x="254.4921875" xlink:href="#BitstreamVeraSans-Roman-2d"/>
       <use x="290.576171875" xlink:href="#BitstreamVeraSans-Roman-31"/>
       <use x="354.19921875" xlink:href="#BitstreamVeraSans-Roman-31"/>
       <use x="417.822265625" xlink:href="#BitstreamVeraSans-Roman-2d"/>
       <use x="453.90625" xlink:href="#BitstreamVeraSans-Roman-32"/>
       <use x="517.529296875" xlink:href="#BitstreamVeraSans-Roman-31"/>
      </g>
     </g>
    </g>
    <g id="xtick_4">
     <g id="line2d_11">
      <path clip-path="url(#p0eea9572e2)" d="M 425.21875 194.4
L 425.21875 21.6
" style="fill:none;stroke:#000000;stroke-dasharray:1.000000,3.000000;stroke-dashoffset:0.0;stroke-width:0.5;"/>
     </g>
     <g id="line2d_12">
      <g>
       <use style="stroke:#000000;stroke-width:0.5;" x="425.21875" xlink:href="#m0acf4f5c25" y="194.4"/>
      </g>
     </g>
     <g id="line2d_13">
      <g>
       <use style="stroke:#000000;stroke-width:0.5;" x="425.21875" xlink:href="#m34c84f894e" y="21.6"/>
      </g>
     </g>
     <g id="text_4">
      <!-- 2015-04-19 -->
      <defs>
       <path d="M 10.984375 1.515625
L 10.984375 10.5
Q 14.703125 8.734375 18.5 7.8125
Q 22.3125 6.890625 25.984375 6.890625
Q 35.75 6.890625 40.890625 13.453125
Q 46.046875 20.015625 46.78125 33.40625
Q 43.953125 29.203125 39.59375 26.953125
Q 35.25 24.703125 29.984375 24.703125
Q 19.046875 24.703125 12.671875 31.3125
Q 6.296875 37.9375 6.296875 49.421875
Q 6.296875 60.640625 12.9375 67.421875
Q 19.578125 74.21875 30.609375 74.21875
Q 43.265625 74.21875 49.921875 64.515625
Q 56.59375 54.828125 56.59375 36.375
Q 56.59375 19.140625 48.40625 8.859375
Q 40.234375 -1.421875 26.421875 -1.421875
Q 22.703125 -1.421875 18.890625 -0.6875
Q 15.09375 0.046875 10.984375 1.515625
M 30.609375 32.421875
Q 37.25 32.421875 41.125 36.953125
Q 45.015625 41.5 45.015625 49.421875
Q 45.015625 57.28125 41.125 61.84375
Q 37.25 66.40625 30.609375 66.40625
Q 23.96875 66.40625 20.09375 61.84375
Q 16.21875 57.28125 16.21875 49.421875
Q 16.21875 41.5 20.09375 36.953125
Q 23.96875 32.421875 30.609375 32.421875
" id="BitstreamVeraSans-Roman-39"/>
      </defs>
      <g transform="translate(390.349375 207.518125)scale(0.12 -0.12)">
       <use xlink:href="#BitstreamVeraSans-Roman-32"/>
       <use x="63.623046875" xlink:href="#BitstreamVeraSans-Roman-30"/>
       <use x="127.24609375" xlink:href="#BitstreamVeraSans-Roman-31"/>
       <use x="190.869140625" xlink:href="#BitstreamVeraSans-Roman-35"/>
       <use x="254.4921875" xlink:href="#BitstreamVeraSans-Roman-2d"/>
       <use x="290.576171875" xlink:href="#BitstreamVeraSans-Roman-30"/>
       <use x="354.19921875" xlink:href="#BitstreamVeraSans-Roman-34"/>
       <use x="417.822265625" xlink:href="#BitstreamVeraSans-Roman-2d"/>
       <use x="453.90625" xlink:href="#BitstreamVeraSans-Roman-31"/>
       <use x="517.529296875" xlink:href="#BitstreamVeraSans-Roman-39"/>
      </g>
     </g>
    </g>
    <g id="xtick_5">
     <g id="line2d_14">
      <path clip-path="url(#p0eea9572e2)" d="M 536.96875 194.4
L 536.96875 21.6
" style="fill:none;stroke:#000000;stroke-dasharray:1.000000,3.000000;stroke-dashoffset:0.0;stroke-width:0.5;"/>
     </g>
     <g id="line2d_15">
      <g>
       <use style="stroke:#000000;stroke-width:0.5;" x="536.96875" xlink:href="#m0acf4f5c25" y="194.4"/>
      </g>
     </g>
     <g id="line2d_16">
      <g>
       <use style="stroke:#000000;stroke-width:0.5;" x="536.96875" xlink:href="#m34c84f894e" y="21.6"/>
      </g>
     </g>
     <g id="text_5">
      <!-- 2015-09-15 -->
      <g transform="translate(502.099375 207.518125)scale(0.12 -0.12)">
       <use xlink:href="#BitstreamVeraSans-Roman-32"/>
       <use x="63.623046875" xlink:href="#BitstreamVeraSans-Roman-30"/>
       <use x="127.24609375" xlink:href="#BitstreamVeraSans-Roman-31"/>
       <use x="190.869140625" xlink:href="#BitstreamVeraSans-Roman-35"/>
       <use x="254.4921875" xlink:href="#BitstreamVeraSans-Roman-2d"/>
       <use x="290.576171875" xlink:href="#BitstreamVeraSans-Roman-30"/>
       <use x="354.19921875" xlink:href="#BitstreamVeraSans-Roman-39"/>
       <use x="417.822265625" xlink:href="#BitstreamVeraSans-Roman-2d"/>
       <use x="453.90625" xlink:href="#BitstreamVeraSans-Roman-31"/>
       <use x="517.529296875" xlink:href="#BitstreamVeraSans-Roman-35"/>
      </g>
     </g>
    </g>
   </g>
   <g id="matplotlib.axis_2">
    <g id="ytick_1">
     <g id="line2d_17">
      <path clip-path="url(#p0eea9572e2)" d="M 90 194.4
L 648 194.4
" style="fill:none;stroke:#000000;stroke-dasharray:1.000000,3.000000;stroke-dashoffset:0.0;stroke-width:0.5;"/>
     </g>
     <g id="line2d_18">
      <defs>
       <path d="M 0 0
L 4 0
" id="m9ed062218b" style="stroke:#000000;stroke-width:0.5;"/>
      </defs>
      <g>
       <use style="stroke:#000000;stroke-width:0.5;" x="90.0" xlink:href="#m9ed062218b" y="194.4"/>
      </g>
     </g>
     <g id="line2d_19">
      <defs>
       <path d="M 0 0
L -4 0
" id="m5a2968df74" style="stroke:#000000;stroke-width:0.5;"/>
      </defs>
      <g>
       <use style="stroke:#000000;stroke-width:0.5;" x="648.0" xlink:href="#m5a2968df74" y="194.4"/>
      </g>
     </g>
     <g id="text_6">
      <!-- 0 -->
      <g transform="translate(78.365 197.71125)scale(0.12 -0.12)">
       <use xlink:href="#BitstreamVeraSans-Roman-30"/>
      </g>
     </g>
    </g>
    <g id="ytick_2">
     <g id="line2d_20">
      <path clip-path="url(#p0eea9572e2)" d="M 90 175.2
L 648 175.2
" style="fill:none;stroke:#000000;stroke-dasharray:1.000000,3.000000;stroke-dashoffset:0.0;stroke-width:0.5;"/>
     </g>
     <g id="line2d_21">
      <g>
       <use style="stroke:#000000;stroke-width:0.5;" x="90.0" xlink:href="#m9ed062218b" y="175.2"/>
      </g>
     </g>
     <g id="line2d_22">
      <g>
       <use style="stroke:#000000;stroke-width:0.5;" x="648.0" xlink:href="#m5a2968df74" y="175.2"/>
      </g>
     </g>
     <g id="text_7">
      <!-- 100 -->
      <g transform="translate(63.095 178.51125)scale(0.12 -0.12)">
       <use xlink:href="#BitstreamVeraSans-Roman-31"/>
       <use x="63.623046875" xlink:href="#BitstreamVeraSans-Roman-30"/>
       <use x="127.24609375" xlink:href="#BitstreamVeraSans-Roman-30"/>
      </g>
     </g>
    </g>
    <g id="ytick_3">
     <g id="line2d_23">
      <path clip-path="url(#p0eea9572e2)" d="M 90 156
L 648 156
" style="fill:none;stroke:#000000;stroke-dasharray:1.000000,3.000000;stroke-dashoffset:0.0;stroke-width:0.5;"/>
     </g>
     <g id="line2d_24">
      <g>
       <use style="stroke:#000000;stroke-width:0.5;" x="90.0" xlink:href="#m9ed062218b" y="156.0"/>
      </g>
     </g>
     <g id="line2d_25">
      <g>
       <use style="stroke:#000000;stroke-width:0.5;" x="648.0" xlink:href="#m5a2968df74" y="156.0"/>
      </g>
     </g>
     <g id="text_8">
      <!-- 200 -->
      <g transform="translate(63.095 159.31125)scale(0.12 -0.12)">
       <use xlink:href="#BitstreamVeraSans-Roman-32"/>
       <use x="63.623046875" xlink:href="#BitstreamVeraSans-Roman-30"/>
       <use x="127.24609375" xlink:href="#BitstreamVeraSans-Roman-30"/>
      </g>
     </g>
    </g>
    <g id="ytick_4">
     <g id="line2d_26">
      <path clip-path="url(#p0eea9572e2)" d="M 90 136.8
L 648 136.8
" style="fill:none;stroke:#000000;stroke-dasharray:1.000000,3.000000;stroke-dashoffset:0.0;stroke-width:0.5;"/>
     </g>
     <g id="line2d_27">
      <g>
       <use style="stroke:#000000;stroke-width:0.5;" x="90.0" xlink:href="#m9ed062218b" y="136.8"/>
      </g>
     </g>
     <g id="line2d_28">
      <g>
       <use style="stroke:#000000;stroke-width:0.5;" x="648.0" xlink:href="#m5a2968df74" y="136.8"/>
      </g>
     </g>
     <g id="text_9">
      <!-- 300 -->
      <defs>
       <path d="M 40.578125 39.3125
Q 47.65625 37.796875 51.625 33
Q 55.609375 28.21875 55.609375 21.1875
Q 55.609375 10.40625 48.1875 4.484375
Q 40.765625 -1.421875 27.09375 -1.421875
Q 22.515625 -1.421875 17.65625 -0.515625
Q 12.796875 0.390625 7.625 2.203125
L 7.625 11.71875
Q 11.71875 9.328125 16.59375 8.109375
Q 21.484375 6.890625 26.8125 6.890625
Q 36.078125 6.890625 40.9375 10.546875
Q 45.796875 14.203125 45.796875 21.1875
Q 45.796875 27.640625 41.28125 31.265625
Q 36.765625 34.90625 28.71875 34.90625
L 20.21875 34.90625
L 20.21875 43.015625
L 29.109375 43.015625
Q 36.375 43.015625 40.234375 45.921875
Q 44.09375 48.828125 44.09375 54.296875
Q 44.09375 59.90625 40.109375 62.90625
Q 36.140625 65.921875 28.71875 65.921875
Q 24.65625 65.921875 20.015625 65.03125
Q 15.375 64.15625 9.8125 62.3125
L 9.8125 71.09375
Q 15.4375 72.65625 20.34375 73.4375
Q 25.25 74.21875 29.59375 74.21875
Q 40.828125 74.21875 47.359375 69.109375
Q 53.90625 64.015625 53.90625 55.328125
Q 53.90625 49.265625 50.4375 45.09375
Q 46.96875 40.921875 40.578125 39.3125
" id="BitstreamVeraSans-Roman-33"/>
      </defs>
      <g transform="translate(63.095 140.11125)scale(0.12 -0.12)">
       <use xlink:href="#BitstreamVeraSans-Roman-33"/>
       <use x="63.623046875" xlink:href="#BitstreamVeraSans-Roman-30"/>
       <use x="127.24609375" xlink:href="#BitstreamVeraSans-Roman-30"/>
      </g>
     </g>
    </g>
    <g id="ytick_5">
     <g id="line2d_29">
      <path clip-path="url(#p0eea9572e2)" d="M 90 117.6
L 648 117.6
" style="fill:none;stroke:#000000;stroke-dasharray:1.000000,3.000000;stroke-dashoffset:0.0;stroke-width:0.5;"/>
     </g>
     <g id="line2d_30">
      <g>
       <use style="stroke:#000000;stroke-width:0.5;" x="90.0" xlink:href="#m9ed062218b" y="117.6"/>
      </g>
     </g>
     <g id="line2d_31">
      <g>
       <use style="stroke:#000000;stroke-width:0.5;" x="648.0" xlink:href="#m5a2968df74" y="117.6"/>
      </g>
     </g>
     <g id="text_10">
      <!-- 400 -->
      <g transform="translate(63.095 120.91125)scale(0.12 -0.12)">
       <use xlink:href="#BitstreamVeraSans-Roman-34"/>
       <use x="63.623046875" xlink:href="#BitstreamVeraSans-Roman-30"/>
       <use x="127.24609375" xlink:href="#BitstreamVeraSans-Roman-30"/>
      </g>
     </g>
    </g>
    <g id="ytick_6">
     <g id="line2d_32">
      <path clip-path="url(#p0eea9572e2)" d="M 90 98.4
L 648 98.4
" style="fill:none;stroke:#000000;stroke-dasharray:1.000000,3.000000;stroke-dashoffset:0.0;stroke-width:0.5;"/>
     </g>
     <g id="line2d_33">
      <g>
       <use style="stroke:#000000;stroke-width:0.5;" x="90.0" xlink:href="#m9ed062218b" y="98.4"/>
      </g>
     </g>
     <g id="line2d_34">
      <g>
       <use style="stroke:#000000;stroke-width:0.5;" x="648.0" xlink:href="#m5a2968df74" y="98.4"/>
      </g>
     </g>
     <g id="text_11">
      <!-- 500 -->
      <g transform="translate(63.095 101.71125)scale(0.12 -0.12)">
       <use xlink:href="#BitstreamVeraSans-Roman-35"/>
       <use x="63.623046875" xlink:href="#BitstreamVeraSans-Roman-30"/>
       <use x="127.24609375" xlink:href="#BitstreamVeraSans-Roman-30"/>
      </g>
     </g>
    </g>
    <g id="ytick_7">
     <g id="line2d_35">
      <path clip-path="url(#p0eea9572e2)" d="M 90 79.2
L 648 79.2
" style="fill:none;stroke:#000000;stroke-dasharray:1.000000,3.000000;stroke-dashoffset:0.0;stroke-width:0.5;"/>
     </g>
     <g id="line2d_36">
      <g>
       <use style="stroke:#000000;stroke-width:0.5;" x="90.0" xlink:href="#m9ed062218b" y="79.2"/>
      </g>
     </g>
     <g id="line2d_37">
      <g>
       <use style="stroke:#000000;stroke-width:0.5;" x="648.0" xlink:href="#m5a2968df74" y="79.2"/>
      </g>
     </g>
     <g id="text_12">
      <!-- 600 -->
      <g transform="translate(63.095 82.51125)scale(0.12 -0.12)">
       <use xlink:href="#BitstreamVeraSans-Roman-36"/>
       <use x="63.623046875" xlink:href="#BitstreamVeraSans-Roman-30"/>
       <use x="127.24609375" xlink:href="#BitstreamVeraSans-Roman-30"/>
      </g>
     </g>
    </g>
    <g id="ytick_8">
     <g id="line2d_38">
      <path clip-path="url(#p0eea9572e2)" d="M 90 60
L 648 60
" style="fill:none;stroke:#000000;stroke-dasharray:1.000000,3.000000;stroke-dashoffset:0.0;stroke-width:0.5;"/>
     </g>
     <g id="line2d_39">
      <g>
       <use style="stroke:#000000;stroke-width:0.5;" x="90.0" xlink:href="#m9ed062218b" y="60.0"/>
      </g>
     </g>
     <g id="line2d_40">
      <g>
       <use style="stroke:#000000;stroke-width:0.5;" x="648.0" xlink:href="#m5a2968df74" y="60.0"/>
      </g>
     </g>
     <g id="text_13">
      <!-- 700 -->
      <g transform="translate(63.095 63.31125)scale(0.12 -0.12)">
       <use xlink:href="#BitstreamVeraSans-Roman-37"/>
       <use x="63.623046875" xlink:href="#BitstreamVeraSans-Roman-30"/>
       <use x="127.24609375" xlink:href="#BitstreamVeraSans-Roman-30"/>
      </g>
     </g>
    </g>
    <g id="ytick_9">
     <g id="line2d_41">
      <path clip-path="url(#p0eea9572e2)" d="M 90 40.8
L 648 40.8
" style="fill:none;stroke:#000000;stroke-dasharray:1.000000,3.000000;stroke-dashoffset:0.0;stroke-width:0.5;"/>
     </g>
     <g id="line2d_42">
      <g>
       <use style="stroke:#000000;stroke-width:0.5;" x="90.0" xlink:href="#m9ed062218b" y="40.8"/>
      </g>
     </g>
     <g id="line2d_43">
      <g>
       <use style="stroke:#000000;stroke-width:0.5;" x="648.0" xlink:href="#m5a2968df74" y="40.8"/>
      </g>
     </g>
     <g id="text_14">
      <!-- 800 -->
      <defs>
       <path d="M 31.78125 34.625
Q 24.75 34.625 20.71875 30.859375
Q 16.703125 27.09375 16.703125 20.515625
Q 16.703125 13.921875 20.71875 10.15625
Q 24.75 6.390625 31.78125 6.390625
Q 38.8125 6.390625 42.859375 10.171875
Q 46.921875 13.96875 46.921875 20.515625
Q 46.921875 27.09375 42.890625 30.859375
Q 38.875 34.625 31.78125 34.625
M 21.921875 38.8125
Q 15.578125 40.375 12.03125 44.71875
Q 8.5 49.078125 8.5 55.328125
Q 8.5 64.0625 14.71875 69.140625
Q 20.953125 74.21875 31.78125 74.21875
Q 42.671875 74.21875 48.875 69.140625
Q 55.078125 64.0625 55.078125 55.328125
Q 55.078125 49.078125 51.53125 44.71875
Q 48 40.375 41.703125 38.8125
Q 48.828125 37.15625 52.796875 32.3125
Q 56.78125 27.484375 56.78125 20.515625
Q 56.78125 9.90625 50.3125 4.234375
Q 43.84375 -1.421875 31.78125 -1.421875
Q 19.734375 -1.421875 13.25 4.234375
Q 6.78125 9.90625 6.78125 20.515625
Q 6.78125 27.484375 10.78125 32.3125
Q 14.796875 37.15625 21.921875 38.8125
M 18.3125 54.390625
Q 18.3125 48.734375 21.84375 45.5625
Q 25.390625 42.390625 31.78125 42.390625
Q 38.140625 42.390625 41.71875 45.5625
Q 45.3125 48.734375 45.3125 54.390625
Q 45.3125 60.0625 41.71875 63.234375
Q 38.140625 66.40625 31.78125 66.40625
Q 25.390625 66.40625 21.84375 63.234375
Q 18.3125 60.0625 18.3125 54.390625
" id="BitstreamVeraSans-Roman-38"/>
      </defs>
      <g transform="translate(63.095 44.11125)scale(0.12 -0.12)">
       <use xlink:href="#BitstreamVeraSans-Roman-38"/>
       <use x="63.623046875" xlink:href="#BitstreamVeraSans-Roman-30"/>
       <use x="127.24609375" xlink:href="#BitstreamVeraSans-Roman-30"/>
      </g>
     </g>
    </g>
    <g id="ytick_10">
     <g id="line2d_44">
      <path clip-path="url(#p0eea9572e2)" d="M 90 21.6
L 648 21.6
" style="fill:none;stroke:#000000;stroke-dasharray:1.000000,3.000000;stroke-dashoffset:0.0;stroke-width:0.5;"/>
     </g>
     <g id="line2d_45">
      <g>
       <use style="stroke:#000000;stroke-width:0.5;" x="90.0" xlink:href="#m9ed062218b" y="21.6"/>
      </g>
     </g>
     <g id="line2d_46">
      <g>
       <use style="stroke:#000000;stroke-width:0.5;" x="648.0" xlink:href="#m5a2968df74" y="21.6"/>
      </g>
     </g>
     <g id="text_15">
      <!-- 900 -->
      <g transform="translate(63.095 24.91125)scale(0.12 -0.12)">
       <use xlink:href="#BitstreamVeraSans-Roman-39"/>
       <use x="63.623046875" xlink:href="#BitstreamVeraSans-Roman-30"/>
       <use x="127.24609375" xlink:href="#BitstreamVeraSans-Roman-30"/>
      </g>
     </g>
    </g>
   </g>
   <g id="text_16">
    <!-- Unique lab logins 2014-01-27 to 2016-02-10 -->
    <defs>
     <path d="M 54.890625 33.015625
L 54.890625 0
L 45.90625 0
L 45.90625 32.71875
Q 45.90625 40.484375 42.875 44.328125
Q 39.84375 48.1875 33.796875 48.1875
Q 26.515625 48.1875 22.3125 43.546875
Q 18.109375 38.921875 18.109375 30.90625
L 18.109375 0
L 9.078125 0
L 9.078125 54.6875
L 18.109375 54.6875
L 18.109375 46.1875
Q 21.34375 51.125 25.703125 53.5625
Q 30.078125 56 35.796875 56
Q 45.21875 56 50.046875 50.171875
Q 54.890625 44.34375 54.890625 33.015625
" id="BitstreamVeraSans-Roman-6e"/>
     <path d="M 48.6875 27.296875
Q 48.6875 37.203125 44.609375 42.84375
Q 40.53125 48.484375 33.40625 48.484375
Q 26.265625 48.484375 22.1875 42.84375
Q 18.109375 37.203125 18.109375 27.296875
Q 18.109375 17.390625 22.1875 11.75
Q 26.265625 6.109375 33.40625 6.109375
Q 40.53125 6.109375 44.609375 11.75
Q 48.6875 17.390625 48.6875 27.296875
M 18.109375 46.390625
Q 20.953125 51.265625 25.265625 53.625
Q 29.59375 56 35.59375 56
Q 45.5625 56 51.78125 48.09375
Q 58.015625 40.1875 58.015625 27.296875
Q 58.015625 14.40625 51.78125 6.484375
Q 45.5625 -1.421875 35.59375 -1.421875
Q 29.59375 -1.421875 25.265625 0.953125
Q 20.953125 3.328125 18.109375 8.203125
L 18.109375 0
L 9.078125 0
L 9.078125 75.984375
L 18.109375 75.984375
z
" id="BitstreamVeraSans-Roman-62"/>
     <path d="M 8.5 21.578125
L 8.5 54.6875
L 17.484375 54.6875
L 17.484375 21.921875
Q 17.484375 14.15625 20.5 10.265625
Q 23.53125 6.390625 29.59375 6.390625
Q 36.859375 6.390625 41.078125 11.03125
Q 45.3125 15.671875 45.3125 23.6875
L 45.3125 54.6875
L 54.296875 54.6875
L 54.296875 0
L 45.3125 0
L 45.3125 8.40625
Q 42.046875 3.421875 37.71875 1
Q 33.40625 -1.421875 27.6875 -1.421875
Q 18.265625 -1.421875 13.375 4.4375
Q 8.5 10.296875 8.5 21.578125
" id="BitstreamVeraSans-Roman-75"/>
     <path d="M 45.40625 27.984375
Q 45.40625 37.75 41.375 43.109375
Q 37.359375 48.484375 30.078125 48.484375
Q 22.859375 48.484375 18.828125 43.109375
Q 14.796875 37.75 14.796875 27.984375
Q 14.796875 18.265625 18.828125 12.890625
Q 22.859375 7.515625 30.078125 7.515625
Q 37.359375 7.515625 41.375 12.890625
Q 45.40625 18.265625 45.40625 27.984375
M 54.390625 6.78125
Q 54.390625 -7.171875 48.1875 -13.984375
Q 42 -20.796875 29.203125 -20.796875
Q 24.46875 -20.796875 20.265625 -20.09375
Q 16.0625 -19.390625 12.109375 -17.921875
L 12.109375 -9.1875
Q 16.0625 -11.328125 19.921875 -12.34375
Q 23.78125 -13.375 27.78125 -13.375
Q 36.625 -13.375 41.015625 -8.765625
Q 45.40625 -4.15625 45.40625 5.171875
L 45.40625 9.625
Q 42.625 4.78125 38.28125 2.390625
Q 33.9375 0 27.875 0
Q 17.828125 0 11.671875 7.65625
Q 5.515625 15.328125 5.515625 27.984375
Q 5.515625 40.671875 11.671875 48.328125
Q 17.828125 56 27.875 56
Q 33.9375 56 38.28125 53.609375
Q 42.625 51.21875 45.40625 46.390625
L 45.40625 54.6875
L 54.390625 54.6875
z
" id="BitstreamVeraSans-Roman-67"/>
     <path d="M 34.28125 27.484375
Q 23.390625 27.484375 19.1875 25
Q 14.984375 22.515625 14.984375 16.5
Q 14.984375 11.71875 18.140625 8.90625
Q 21.296875 6.109375 26.703125 6.109375
Q 34.1875 6.109375 38.703125 11.40625
Q 43.21875 16.703125 43.21875 25.484375
L 43.21875 27.484375
z
M 52.203125 31.203125
L 52.203125 0
L 43.21875 0
L 43.21875 8.296875
Q 40.140625 3.328125 35.546875 0.953125
Q 30.953125 -1.421875 24.3125 -1.421875
Q 15.921875 -1.421875 10.953125 3.296875
Q 6 8.015625 6 15.921875
Q 6 25.140625 12.171875 29.828125
Q 18.359375 34.515625 30.609375 34.515625
L 43.21875 34.515625
L 43.21875 35.40625
Q 43.21875 41.609375 39.140625 45
Q 35.0625 48.390625 27.6875 48.390625
Q 23 48.390625 18.546875 47.265625
Q 14.109375 46.140625 10.015625 43.890625
L 10.015625 52.203125
Q 14.9375 54.109375 19.578125 55.046875
Q 24.21875 56 28.609375 56
Q 40.484375 56 46.34375 49.84375
Q 52.203125 43.703125 52.203125 31.203125
" id="BitstreamVeraSans-Roman-61"/>
     <path d="M 56.203125 29.59375
L 56.203125 25.203125
L 14.890625 25.203125
Q 15.484375 15.921875 20.484375 11.0625
Q 25.484375 6.203125 34.421875 6.203125
Q 39.59375 6.203125 44.453125 7.46875
Q 49.3125 8.734375 54.109375 11.28125
L 54.109375 2.78125
Q 49.265625 0.734375 44.1875 -0.34375
Q 39.109375 -1.421875 33.890625 -1.421875
Q 20.796875 -1.421875 13.15625 6.1875
Q 5.515625 13.8125 5.515625 26.8125
Q 5.515625 40.234375 12.765625 48.109375
Q 20.015625 56 32.328125 56
Q 43.359375 56 49.78125 48.890625
Q 56.203125 41.796875 56.203125 29.59375
M 47.21875 32.234375
Q 47.125 39.59375 43.09375 43.984375
Q 39.0625 48.390625 32.421875 48.390625
Q 24.90625 48.390625 20.390625 44.140625
Q 15.875 39.890625 15.1875 32.171875
z
" id="BitstreamVeraSans-Roman-65"/>
     <path id="BitstreamVeraSans-Roman-20"/>
     <path d="M 8.6875 72.90625
L 18.609375 72.90625
L 18.609375 28.609375
Q 18.609375 16.890625 22.84375 11.734375
Q 27.09375 6.59375 36.625 6.59375
Q 46.09375 6.59375 50.34375 11.734375
Q 54.59375 16.890625 54.59375 28.609375
L 54.59375 72.90625
L 64.5 72.90625
L 64.5 27.390625
Q 64.5 13.140625 57.4375 5.859375
Q 50.390625 -1.421875 36.625 -1.421875
Q 22.796875 -1.421875 15.734375 5.859375
Q 8.6875 13.140625 8.6875 27.390625
z
" id="BitstreamVeraSans-Roman-55"/>
     <path d="M 9.421875 54.6875
L 18.40625 54.6875
L 18.40625 0
L 9.421875 0
z
M 9.421875 75.984375
L 18.40625 75.984375
L 18.40625 64.59375
L 9.421875 64.59375
z
" id="BitstreamVeraSans-Roman-69"/>
     <path d="M 14.796875 27.296875
Q 14.796875 17.390625 18.875 11.75
Q 22.953125 6.109375 30.078125 6.109375
Q 37.203125 6.109375 41.296875 11.75
Q 45.40625 17.390625 45.40625 27.296875
Q 45.40625 37.203125 41.296875 42.84375
Q 37.203125 48.484375 30.078125 48.484375
Q 22.953125 48.484375 18.875 42.84375
Q 14.796875 37.203125 14.796875 27.296875
M 45.40625 8.203125
Q 42.578125 3.328125 38.25 0.953125
Q 33.9375 -1.421875 27.875 -1.421875
Q 17.96875 -1.421875 11.734375 6.484375
Q 5.515625 14.40625 5.515625 27.296875
Q 5.515625 40.1875 11.734375 48.09375
Q 17.96875 56 27.875 56
Q 33.9375 56 38.25 53.625
Q 42.578125 51.265625 45.40625 46.390625
L 45.40625 54.6875
L 54.390625 54.6875
L 54.390625 -20.796875
L 45.40625 -20.796875
z
" id="BitstreamVeraSans-Roman-71"/>
     <path d="M 30.609375 48.390625
Q 23.390625 48.390625 19.1875 42.75
Q 14.984375 37.109375 14.984375 27.296875
Q 14.984375 17.484375 19.15625 11.84375
Q 23.34375 6.203125 30.609375 6.203125
Q 37.796875 6.203125 41.984375 11.859375
Q 46.1875 17.53125 46.1875 27.296875
Q 46.1875 37.015625 41.984375 42.703125
Q 37.796875 48.390625 30.609375 48.390625
M 30.609375 56
Q 42.328125 56 49.015625 48.375
Q 55.71875 40.765625 55.71875 27.296875
Q 55.71875 13.875 49.015625 6.21875
Q 42.328125 -1.421875 30.609375 -1.421875
Q 18.84375 -1.421875 12.171875 6.21875
Q 5.515625 13.875 5.515625 27.296875
Q 5.515625 40.765625 12.171875 48.375
Q 18.84375 56 30.609375 56
" id="BitstreamVeraSans-Roman-6f"/>
     <path d="M 44.28125 53.078125
L 44.28125 44.578125
Q 40.484375 46.53125 36.375 47.5
Q 32.28125 48.484375 27.875 48.484375
Q 21.1875 48.484375 17.84375 46.4375
Q 14.5 44.390625 14.5 40.28125
Q 14.5 37.15625 16.890625 35.375
Q 19.28125 33.59375 26.515625 31.984375
L 29.59375 31.296875
Q 39.15625 29.25 43.1875 25.515625
Q 47.21875 21.78125 47.21875 15.09375
Q 47.21875 7.46875 41.1875 3.015625
Q 35.15625 -1.421875 24.609375 -1.421875
Q 20.21875 -1.421875 15.453125 -0.5625
Q 10.6875 0.296875 5.421875 2
L 5.421875 11.28125
Q 10.40625 8.6875 15.234375 7.390625
Q 20.0625 6.109375 24.8125 6.109375
Q 31.15625 6.109375 34.5625 8.28125
Q 37.984375 10.453125 37.984375 14.40625
Q 37.984375 18.0625 35.515625 20.015625
Q 33.0625 21.96875 24.703125 23.78125
L 21.578125 24.515625
Q 13.234375 26.265625 9.515625 29.90625
Q 5.8125 33.546875 5.8125 39.890625
Q 5.8125 47.609375 11.28125 51.796875
Q 16.75 56 26.8125 56
Q 31.78125 56 36.171875 55.265625
Q 40.578125 54.546875 44.28125 53.078125
" id="BitstreamVeraSans-Roman-73"/>
     <path d="M 18.3125 70.21875
L 18.3125 54.6875
L 36.8125 54.6875
L 36.8125 47.703125
L 18.3125 47.703125
L 18.3125 18.015625
Q 18.3125 11.328125 20.140625 9.421875
Q 21.96875 7.515625 27.59375 7.515625
L 36.8125 7.515625
L 36.8125 0
L 27.59375 0
Q 17.1875 0 13.234375 3.875
Q 9.28125 7.765625 9.28125 18.015625
L 9.28125 47.703125
L 2.6875 47.703125
L 2.6875 54.6875
L 9.28125 54.6875
L 9.28125 70.21875
z
" id="BitstreamVeraSans-Roman-74"/>
     <path d="M 9.421875 75.984375
L 18.40625 75.984375
L 18.40625 0
L 9.421875 0
z
" id="BitstreamVeraSans-Roman-6c"/>
    </defs>
    <g transform="translate(208.97325 16.6)scale(0.144 -0.144)">
     <use xlink:href="#BitstreamVeraSans-Roman-55"/>
     <use x="73.193359375" xlink:href="#BitstreamVeraSans-Roman-6e"/>
     <use x="136.572265625" xlink:href="#BitstreamVeraSans-Roman-69"/>
     <use x="164.35546875" xlink:href="#BitstreamVeraSans-Roman-71"/>
     <use x="227.83203125" xlink:href="#BitstreamVeraSans-Roman-75"/>
     <use x="291.2109375" xlink:href="#BitstreamVeraSans-Roman-65"/>
     <use x="352.734375" xlink:href="#BitstreamVeraSans-Roman-20"/>
     <use x="384.521484375" xlink:href="#BitstreamVeraSans-Roman-6c"/>
     <use x="412.3046875" xlink:href="#BitstreamVeraSans-Roman-61"/>
     <use x="473.583984375" xlink:href="#BitstreamVeraSans-Roman-62"/>
     <use x="537.060546875" xlink:href="#BitstreamVeraSans-Roman-20"/>
     <use x="568.84765625" xlink:href="#BitstreamVeraSans-Roman-6c"/>
     <use x="596.630859375" xlink:href="#BitstreamVeraSans-Roman-6f"/>
     <use x="657.8125" xlink:href="#BitstreamVeraSans-Roman-67"/>
     <use x="721.2890625" xlink:href="#BitstreamVeraSans-Roman-69"/>
     <use x="749.072265625" xlink:href="#BitstreamVeraSans-Roman-6e"/>
     <use x="812.451171875" xlink:href="#BitstreamVeraSans-Roman-73"/>
     <use x="864.55078125" xlink:href="#BitstreamVeraSans-Roman-20"/>
     <use x="896.337890625" xlink:href="#BitstreamVeraSans-Roman-32"/>
     <use x="959.9609375" xlink:href="#BitstreamVeraSans-Roman-30"/>
     <use x="1023.583984375" xlink:href="#BitstreamVeraSans-Roman-31"/>
     <use x="1087.20703125" xlink:href="#BitstreamVeraSans-Roman-34"/>
     <use x="1150.830078125" xlink:href="#BitstreamVeraSans-Roman-2d"/>
     <use x="1186.9140625" xlink:href="#BitstreamVeraSans-Roman-30"/>
     <use x="1250.537109375" xlink:href="#BitstreamVeraSans-Roman-31"/>
     <use x="1314.16015625" xlink:href="#BitstreamVeraSans-Roman-2d"/>
     <use x="1350.244140625" xlink:href="#BitstreamVeraSans-Roman-32"/>
     <use x="1413.8671875" xlink:href="#BitstreamVeraSans-Roman-37"/>
     <use x="1477.490234375" xlink:href="#BitstreamVeraSans-Roman-20"/>
     <use x="1509.27734375" xlink:href="#BitstreamVeraSans-Roman-74"/>
     <use x="1548.486328125" xlink:href="#BitstreamVeraSans-Roman-6f"/>
     <use x="1609.66796875" xlink:href="#BitstreamVeraSans-Roman-20"/>
     <use x="1641.455078125" xlink:href="#BitstreamVeraSans-Roman-32"/>
     <use x="1705.078125" xlink:href="#BitstreamVeraSans-Roman-30"/>
     <use x="1768.701171875" xlink:href="#BitstreamVeraSans-Roman-31"/>
     <use x="1832.32421875" xlink:href="#BitstreamVeraSans-Roman-36"/>
     <use x="1895.947265625" xlink:href="#BitstreamVeraSans-Roman-2d"/>
     <use x="1932.03125" xlink:href="#BitstreamVeraSans-Roman-30"/>
     <use x="1995.654296875" xlink:href="#BitstreamVeraSans-Roman-32"/>
     <use x="2059.27734375" xlink:href="#BitstreamVeraSans-Roman-2d"/>
     <use x="2095.361328125" xlink:href="#BitstreamVeraSans-Roman-31"/>
     <use x="2158.984375" xlink:href="#BitstreamVeraSans-Roman-30"/>
    </g>
   </g>
  </g>
 </g>
 <defs>
  <clipPath id="p0eea9572e2">
   <rect height="172.8" width="558.0" x="90.0" y="21.6"/>
  </clipPath>
 </defs>
</svg>
