<svg xmlns="http://www.w3.org/2000/svg" width="500" height="500"><path d="M491.79 247.028c0 132.548-107.452 240-240 240s-240-107.452-240-240 107.452-240 240-240 240 107.452 240 240z" fill="#055daf"/><path d="M410.503 93.966c-10.803 4.836-15.89 17.177-22.847 26.216-8.346 14.79-19.514 29.798-20.586 47.226.034 6.312 8.177 7.252 10.882 2.014 15.421-21.034 27.038-44.877 36.53-69.08 1.272-3.114-.217-6.836-3.98-6.376zM358.96 81.933c-6.495 10.936-6.813 24.873-9.732 37.2-1.397 13.556-6.099 27.975-2.158 41.42 3.378 5.875 9.65-.012 9.972-4.794 5.786-22.589 9.765-46.546 8.245-69.943-.48-2.816-3.98-7.768-6.328-3.883z" fill="#fff" fill-rule="evenodd"/><path d="M-367.746 55.096c-.236.091-.129.25-.354.356-.432.237-1.53.845-1.778 1.422-.286.666-.102 1.637 0 2.132.291 1.438.338 1.588 1.066 2.489 1.099 1.356 2.493 2.29 4.621 3.91 4.158 3.165 10.789 7.465 19.55 12.44 17.523 9.953 44.228 23.044 78.912 37.324 34.261 14.104 75.176 39.245 106.638 62.205 15.73 11.48 29.202 22.226 38.034 30.925 4.422 4.355 7.73 8.13 9.598 11.02.755 1.168.941 2.173 1.065 2.488a3.218 3.218 0 01-.354 3.199c-22.159 31.793-35.033 70.33-25.949 134.719a3.195 3.195 0 01-.354 1.777 3.729 3.729 0 01-.355.356c-.102.25-.125.589-.354 1.066-.562 1.166-1.664 2.745-3.2 4.621-2.914 3.563-6.815 7.785-11.018 12.086-4.211 4.309-8.596 8.75-11.73 13.508-3.138 4.76-5.064 9.601-4.266 14.929.317 1.923 2.309 4.62 3.91 5.332 2.109.936 3.729 1.022 6.043.71 4.498-.606 9.748-2.456 14.93-4.62 5.076-2.12 9.949-4.588 13.862-6.043a3 3 0 011.422 0c.492.005.983.128 1.422.356.273.197.514.437.71.71.353.404.601.899.712 1.423a3.35 3.35 0 010 1.066c-.316 1.436-.524 3.058-1.066 4.977-1.588 5.628-3.934 12.512-6.042 19.195-2.111 6.69-4.134 13.171-4.977 18.483-.425 2.685-.716 4.873-.354 7.11.294 1.82 1.803 4.204 3.91 4.976.17.057-.175.303 0 .356 2.044.607 1.989.26 3.554-.356a22.886 22.886 0 003.555-1.777c2.413-1.486 5.232-3.801 8.53-6.399 6.577-5.177 14.777-12.163 22.75-19.194 7.972-7.03 15.637-13.988 21.683-19.195a158.856 158.856 0 017.465-6.043c.436-.333.836-.548 1.066-.711.5-.413 1.13-.664 1.777-.711.236-.023.475-.023.71 0 48.304 14.142 103.108 16.176 146.45 14.218 22.016-.994 41.027-3.225 54.74-4.976 6.86-.877 12.458-1.493 16.352-2.133 1.945-.32 3.45-.36 4.576-.267 5.37.18 9.78 3.205 14.619 5.243 8.612 3.902 20.136 9.162 31.991 14.219 11.855 5.056 24.032 9.795 33.769 13.152 4.877 1.68 9.006 3.182 12.44 3.91 1.73.367 3.255.312 4.622.355 1.67.057 2.284.341 3.91-.71.114-.07.123-.156.354-.356 5.484-5.94 5.8-13.828 3.2-20.262-2.718-6.721-7.706-13.195-13.153-19.194-5.434-5.986-11.012-11.338-14.573-15.996-1.213-1.586-1.707-2.748-2.133-3.555a3.156 3.156 0 01-.355-1.777c.149-1.69 1.874-3.07 3.555-2.844 1.547.264 3.258.423 5.687 1.067 6.692 1.773 15.452 4.6 24.172 7.465 8.719 2.865 17.26 5.844 24.17 7.464 3.486.817 6.34 1.393 8.887 1.422 1.365.012 2.348-.286 3.555-.711.87-.307 2.355-1.248 2.844-2.488.057-.152.302.155.354 0 1.65-4.981-.256-9.948-3.2-15.285-2.9-5.259-7.206-10.725-11.73-15.996-4.517-5.264-9.176-10.307-13.151-14.573-2-2.147-3.927-4.401-5.332-6.043-1.163-1.359-1.873-1.95-2.488-2.844-.012-.011.034-.32 0-.355-.023-.046-.327.045-.355 0-.023-.035.023-.32 0-.356a3.17 3.17 0 01-.354 0c-2.014-3.643-3.058-8.478-2.488-13.152.557-4.574 2.912-9.127 8.175-12.797.772-.538 1.712-.99 3.2-1.777a166.77 166.77 0 015.687-2.844c4.406-2.113 9.855-4.776 16.35-7.82 12.986-6.084 29.11-13.783 44.789-22.394 15.683-8.614 30.822-18.307 41.944-28.08 11.138-9.79 18.913-19.887 17.417-30.57-2.362-17.222-13.923-30.28-29.147-40.167-15.278-9.922-34.678-16.688-53.675-21.683-18.993-4.995-37.453-8.471-51.541-10.664-7.04-1.095-12.924-1.732-17.062-2.488-1.2-.219-1.82-.563-2.489-.711a3.222 3.222 0 01-1.065-.356 3.14 3.14 0 01-1.066-1.067 3.153 3.153 0 01-.354-1.421c0-.185-.002-.46 0-.712.011-2.69.057-6.325 0-10.663-.116-8.685-.67-19.88-2.488-30.57-1.826-10.731-4.76-20.788-10.664-27.726-5.618-6.6-15.3-9.566-26.304-5.332-7.298 2.768-11.768 9.404-13.508 16.707-1.78 7.474-1.52 16.019-.354 24.527 1.162 8.49 3.134 16.773 4.976 23.46 1.594 5.785 3.008 9.457 3.555 11.375a3.35 3.35 0 010 1.066 3.159 3.159 0 01-.711 1.778 3.729 3.729 0 01-.355.355c-.5.413-1.13.665-1.777.711-1.287.08-2.57-.022-3.91-.355-.886-.219-2.031-.87-1.777-.711a3.14 3.14 0 01-1.066-1.067c.08.147-.057-.16-.354-.711-.302-.552-.604-1.506-1.066-2.488-1.035-2.199-2.49-4.943-3.91-8.176-2.83-6.44-6.26-14.265-10.308-21.683-4.063-7.446-8.562-14.535-13.863-19.195-2.65-2.328-5.382-4.203-8.531-4.976-3.04-.747-6.807-.15-9.953 1.422-8.123 4.508-12.79 11.85-14.574 19.55-1.81 7.818-.967 15.97.355 23.816 1.32 7.831 3.291 15.314 4.62 20.616.56 2.234.896 3.858 1.066 4.977.068 1.109-.524 4.66-.794 5.734-3.633 14.476-11.524 23.602-18.129 31.047-1.714 1.932-4.588 2.645-8.804 3.741-4.202 1.093-9.979 1.763-16.35 1.777-12.74.035-28.92-1.929-45.855-4.62-33.866-5.384-69.966-13.807-88.51-14.93-13.908-.822-27.298 4.665-37.323 9.598-5.005 2.462-9.074 4.833-12.085 6.398-.686.356-1.075.191-1.422.355a3.729 3.729 0 01-.355.356c-1.087.371-2.37.091-3.199-.711-32.822-32.428-97.264-86.186-168.843-104.505-.034-.01-.323.01-.354 0-.114-.034.08-.326 0-.356-19.93-5.436-45.08-16.005-65.405-25.237-10.194-4.63-18.947-8.621-25.593-11.73-3.323-1.555-6.168-3.036-8.175-3.91-1.009-.44-1.788-.81-2.489-1.067-.38-.14-.729-.268-1.065-.356-.855-.223-.455-.023-.355 0-.313-.034-1.379-.005-1.065 0-.243.068-.12-.091-.355 0h-.01.001zm226.783 308.183c.08.035.33 0 .355 0a3.116 3.116 0 01-.355 0z" fill="#fff" fill-rule="evenodd"/></svg>
